<?xml version="1.0" encoding="utf-8"?>
<!-- Generator: Adobe Illustrator 15.0.0, SVG Export Plug-In . SVG Version: 6.00 Build 0)  -->
<!DOCTYPE svg PUBLIC "-//W3C//DTD SVG 1.1//EN" "http://www.w3.org/Graphics/SVG/1.1/DTD/svg11.dtd">
<svg version="1.1" id="design" xmlns="http://www.w3.org/2000/svg" xmlns:xlink="http://www.w3.org/1999/xlink" x="0px" y="0px"
	 width="256px" height="58.999px" viewBox="0 0 256 58.999" enable-background="new 0 0 256 58.999" xml:space="preserve">
<g>
	<g>
		<g>
			<path fill="#E05420" d="M48.387,17.808l7.896-7.897C51.32,5.294,44.939,2.763,38.216,2.763c-1.25,0-2.517,0.095-3.776,0.27
				C40.654,6.149,45.625,11.392,48.387,17.808z"/>
		</g>
		<g>
			<path fill="#E05420" d="M50.755,30.401c-0.358,11.145-6.91,20.74-16.322,25.461c1.208,0.165,2.43,0.252,3.668,0.252
				c1.833,0,3.618-0.183,5.46-0.56c0.384-0.079,0.762-0.168,1.137-0.264l0.306-0.08c0.306-0.083,0.614-0.169,0.917-0.261
				l0.439-0.143c0.254-0.085,0.515-0.168,0.772-0.26c0.152-0.055,0.31-0.117,0.516-0.197c0.23-0.089,0.451-0.173,0.665-0.259
				c0.208-0.087,0.406-0.178,0.609-0.266l0.566-0.258c0.223-0.104,0.45-0.217,0.734-0.364c0.17-0.086,0.283-0.142,0.396-0.202
				c0.267-0.142,0.533-0.292,0.8-0.446l0.317-0.182c0.311-0.186,0.63-0.385,0.946-0.593l0.123-0.079
				c1.478-0.977,2.881-2.125,4.154-3.4c4.81-4.806,7.562-11.135,7.809-17.9H50.755z"/>
		</g>
		<g>
			<path fill="#3F2713" d="M22.25,28.103l-2.271-1.146l2.157-1.35c3.656-2.285,5.84-6.202,5.84-10.478
				c0-6.666-5.223-12.081-11.891-12.333l-0.638-0.023L4.746,2.775v53.336l11.349-0.021c8.034-0.257,14.324-6.747,14.324-14.775
				C30.418,35.706,27.285,30.641,22.25,28.103z"/>
		</g>
		<g>
			<path fill="#006838" d="M47.914,29.444c0-13.49-10.067-24.673-23.085-26.432c3.663,2.776,6.01,7.162,6.01,12.117
				c0,4.504-1.959,8.686-5.342,11.56c4.854,3.267,7.786,8.688,7.786,14.625c0,5.968-2.921,11.205-7.432,14.396
				C38.37,53.521,47.914,42.58,47.914,29.444z"/>
		</g>
	</g>
	<g>
		<g>
			<g>
				<path fill="#3F2713" d="M102.114,28.244c0,3.541-1.621,6.54-4.475,8.659c-2.904,2.113-6.596,2.312-10.085,2.411h-9.102V2.907
					h6.84c3.293,0,6.392-0.144,9.442,1.38c3.001,1.526,5.167,4.772,5.167,8.165c0,2.903-1.378,5.704-4.035,6.986
					C99.901,20.719,102.114,24.112,102.114,28.244z M93.113,12.995c0-1.473-0.935-2.657-2.265-3.201
					c-1.276-0.591-2.999-0.341-4.428-0.341h-1.227v7.474h1.279c1.427,0,3.295,0.053,4.572-0.537
					C92.323,15.799,93.113,14.374,93.113,12.995z M95.325,27.949c0-1.77-0.836-2.851-2.409-3.741
					c-1.525-0.786-3.149-0.736-4.773-0.736h-2.95v9.297h2.803c1.969,0,3.789-0.098,5.558-1.275
					C94.784,30.655,95.325,29.473,95.325,27.949z"/>
				<path fill="#3F2713" d="M131.557,39.314h-8.362l-9.446-13.926h-0.097v13.926h-6.742V2.907h10.527
					c3.444,0.056,6.69,0.252,9.446,2.561c2.657,2.169,4.28,5.559,4.28,8.949c0,2.709-1.23,6.006-3.048,7.973
					c-1.775,1.92-3.988,2.952-6.447,3.496L131.557,39.314z M124.374,14.815c0-1.627-0.689-3.201-1.966-4.131
					c-1.575-1.182-3.152-1.231-5.02-1.231h-3.737v10.823h3.69c1.77,0,4.032-0.246,5.36-1.526
					C123.783,17.716,124.374,16.339,124.374,14.815z"/>
				<path fill="#3F2713" d="M172.241,21.307c0,10.526-8.609,18.892-18.989,18.892c-10.329,0-18.94-8.365-18.94-18.892
					c0-10.622,8.463-19.084,18.94-19.084C163.777,2.223,172.241,10.685,172.241,21.307z M165.504,21.159
					c0-6.888-5.414-12.395-12.252-12.395c-6.785,0-12.199,5.507-12.199,12.395c0,6.739,5.562,12.498,12.199,12.498
					C159.945,33.657,165.504,27.898,165.504,21.159z"/>
				<path fill="#3F2713" d="M216.252,2.907l-10.575,36.407h-5.362l-5.954-24.057l-6.046,24.057h-5.366L172.372,2.907h6.89
					l6.345,25.484l6.147-25.429l5.066-0.056l6.15,25.484l6.544-25.429L216.252,2.907z"/>
				<path fill="#3F2713" d="M251.018,39.314h-7.474l-15.301-26.519v26.519h-6.738V2.907h7.576l15.197,26.613V2.907h6.741V39.314z"/>
			</g>
		</g>
		<g>
			<g>
				<path fill="#231F20" d="M86.54,51.156c0,1.368-0.583,2.654-1.564,3.557c-1.15,1.03-2.405,1.238-3.879,1.238h-2.639V46.38h2.574
					c1.371,0.016,2.65,0.235,3.762,1.115C85.882,48.389,86.54,49.77,86.54,51.156z M85.585,51.156
					c-0.013-1.244-0.506-2.267-1.49-3.041c-1.06-0.812-2.186-0.882-3.453-0.866h-1.229v7.836h1.229
					c1.267-0.01,2.393-0.036,3.468-0.88C85.067,53.46,85.572,52.371,85.585,51.156z"/>
				<path fill="#231F20" d="M94.807,55.951h-5.228V46.38h5.228v0.869h-4.271v3.452h4.124v0.867h-4.124v3.517h4.271V55.951z"/>
				<path fill="#231F20" d="M106.714,46.38l-3.985,9.571h-0.903L97.88,46.38h1.047l3.351,8.384l3.39-8.384H106.714z"/>
				<path fill="#231F20" d="M115.417,55.951h-5.226V46.38h5.226v0.869h-4.267v3.452h4.121v0.867h-4.121v3.517h4.267V55.951z"/>
				<path fill="#231F20" d="M124.572,55.951h-4.915V46.38h0.958v8.705h3.958V55.951z"/>
				<path fill="#231F20" d="M136.581,51.144c0,2.78-2.292,4.98-5.072,4.98c-2.677,0-5.042-2.164-5.042-4.902
					c0-2.795,2.274-4.995,5.042-4.995C134.226,46.227,136.581,48.389,136.581,51.144z M135.622,51.144c0-2.228-1.9-4-4.098-4
					c-2.278,0-4.102,1.814-4.102,4.078c0,2.209,1.928,3.98,4.102,3.98C133.787,55.202,135.622,53.403,135.622,51.144z"/>
				<path fill="#231F20" d="M146.398,49.258c0,0.89-0.362,1.69-1.099,2.219c-0.736,0.543-1.592,0.624-2.485,0.624h-1.797v3.851
					h-0.958V46.38h2.512c0.894,0.016,1.785,0.027,2.56,0.521C145.968,47.42,146.398,48.292,146.398,49.258z M145.427,49.237
					c0-0.828-0.439-1.473-1.188-1.785c-0.636-0.27-1.333-0.203-1.993-0.203h-1.23v3.983h1.643c0.674,0,1.346-0.022,1.93-0.389
					C145.13,50.512,145.427,49.874,145.427,49.237z"/>
				<path fill="#231F20" d="M160.049,55.951h-0.954v-8.508l-3.611,8.508h-0.817l-3.595-8.508v8.508h-0.956V46.38h1.476l3.492,8.149
					l3.492-8.149h1.473V55.951z"/>
				<path fill="#231F20" d="M169.465,55.951h-5.223V46.38h5.223v0.869h-4.267v3.452h4.125v0.867h-4.125v3.517h4.267V55.951z"/>
				<path fill="#231F20" d="M181.164,55.951h-0.956l-5.705-8.422v8.422h-0.956V46.38h1.296l5.365,7.941V46.38h0.956V55.951z"/>
				<path fill="#231F20" d="M189.794,47.249h-2.171v8.702h-0.957v-8.702h-2.204V46.38h5.331V47.249z"/>
				<path fill="#231F20" d="M208.543,51.541c-0.181,2.63-2.483,4.583-5.072,4.583c-2.753,0-5.12-2.2-5.12-4.998
					c0-1.265,0.583-2.557,1.473-3.436c0.998-0.986,2.278-1.464,3.647-1.464c1.773,0,3.919,0.982,4.487,2.702h-1.083
					c-0.674-1.126-2.059-1.785-3.403-1.785c-1.019,0-2.055,0.352-2.845,1.076c-0.786,0.725-1.317,1.837-1.317,2.924
					c0,2.325,1.924,4.059,4.204,4.059c1.72,0,3.401-1.127,3.878-2.793h-5.354v-0.868H208.543z"/>
				<path fill="#231F20" d="M218.28,49.511c0,1.562-1.286,2.836-2.838,2.875l2.705,3.565h-1.203l-3.245-4.332h0.284
					c0.672,0,1.447,0.027,2.083-0.258c0.79-0.36,1.256-1.085,1.256-1.954c0-0.659-0.366-1.331-0.91-1.707
					c-0.634-0.451-1.411-0.451-2.158-0.451h-1.511v8.702h-0.96V46.38h2.275c0.909,0,1.918,0.016,2.717,0.471
					C217.76,47.399,218.28,48.389,218.28,49.511z"/>
				<path fill="#231F20" d="M231.28,51.144c0,2.78-2.287,4.98-5.069,4.98c-2.679,0-5.045-2.164-5.045-4.902
					c0-2.795,2.278-4.995,5.045-4.995C228.925,46.227,231.28,48.389,231.28,51.144z M230.322,51.144c0-2.228-1.901-4-4.098-4
					c-2.274,0-4.104,1.814-4.104,4.078c0,2.209,1.93,3.98,4.104,3.98C228.486,55.202,230.322,53.403,230.322,51.144z"/>
				<path fill="#231F20" d="M240.937,52.201c0,0.974-0.09,1.903-0.71,2.701c-0.608,0.794-1.568,1.222-2.548,1.222
					c-0.958,0-1.888-0.401-2.497-1.14c-0.66-0.813-0.767-1.771-0.767-2.783V46.38h0.958v5.821c0,0.686,0.066,1.41,0.437,2.004
					c0.404,0.633,1.115,0.997,1.868,0.997c0.671,0,1.36-0.307,1.758-0.863c0.475-0.624,0.546-1.387,0.546-2.138V46.38h0.954V52.201z
					"/>
				<path fill="#231F20" d="M251.185,49.258c0,0.89-0.362,1.69-1.095,2.219c-0.74,0.543-1.589,0.624-2.489,0.624h-1.796v3.851
					h-0.956V46.38h2.508c0.894,0.016,1.788,0.027,2.563,0.521C250.76,47.42,251.185,48.292,251.185,49.258z M250.214,49.237
					c0-0.828-0.44-1.473-1.188-1.785c-0.635-0.27-1.333-0.203-1.995-0.203h-1.226v3.983h1.642c0.673,0,1.347-0.022,1.927-0.389
					C249.92,50.512,250.214,49.874,250.214,49.237z"/>
			</g>
		</g>
	</g>
</g>
</svg>
