<?xml version="1.0" encoding="utf-8"?>
<!-- Generator: Adobe Illustrator 15.0.0, SVG Export Plug-In . SVG Version: 6.00 Build 0)  -->
<!DOCTYPE svg PUBLIC "-//W3C//DTD SVG 1.1//EN" "http://www.w3.org/Graphics/SVG/1.1/DTD/svg11.dtd">
<svg version="1.1" id="Layer_1" xmlns="http://www.w3.org/2000/svg" xmlns:xlink="http://www.w3.org/1999/xlink" x="0px" y="0px"
	 width="255.118px" height="147.401px" viewBox="0 0 255.118 147.401" enable-background="new 0 0 255.118 147.401"
	 xml:space="preserve">
<rect fill="#865A3F" width="255.118" height="147.401"/>
<rect x="11.333" y="11.313" fill="#FFFFFF" width="232.417" height="124.688"/>
<g>
	<defs>
		<rect id="SVGID_1_" width="255.118" height="147.401"/>
	</defs>
	<clipPath id="SVGID_2_">
		<use xlink:href="#SVGID_1_"  overflow="visible"/>
	</clipPath>
	<path clip-path="url(#SVGID_2_)" fill="#E05420" d="M36.501,22.567l3.714-3.714c-2.333-2.172-5.334-3.363-8.497-3.363
		c-0.588,0-1.184,0.045-1.777,0.127C32.867,17.084,35.204,19.55,36.501,22.567"/>
	<path clip-path="url(#SVGID_2_)" fill="#E05420" d="M37.617,28.492c-0.167,5.242-3.25,9.756-7.679,11.976
		c0.569,0.079,1.144,0.12,1.727,0.12c0.861,0,1.702-0.086,2.569-0.264c0.18-0.037,0.358-0.078,0.534-0.124l0.144-0.038
		c0.144-0.039,0.29-0.079,0.432-0.123l0.206-0.067c0.121-0.039,0.243-0.08,0.363-0.123c0.073-0.025,0.146-0.053,0.243-0.091
		c0.109-0.041,0.212-0.081,0.314-0.123c0.095-0.041,0.191-0.082,0.286-0.125l0.266-0.12c0.105-0.05,0.211-0.103,0.345-0.171
		c0.079-0.041,0.134-0.068,0.187-0.096c0.125-0.067,0.25-0.137,0.375-0.209l0.15-0.086c0.146-0.088,0.297-0.182,0.445-0.279
		l0.057-0.036c0.696-0.46,1.355-1,1.955-1.599c2.262-2.262,3.557-5.238,3.672-8.422H37.617z"/>
	<path clip-path="url(#SVGID_2_)" fill="#3A2309" d="M24.208,27.41l-1.068-0.538l1.014-0.635c1.721-1.075,2.746-2.917,2.746-4.929
		c0-3.134-2.455-5.682-5.591-5.8l-0.301-0.011h-5.033v25.089l5.337-0.011c3.78-0.12,6.739-3.173,6.739-6.95
		C28.051,30.987,26.579,28.604,24.208,27.41"/>
	<path clip-path="url(#SVGID_2_)" fill="#006838" d="M36.281,28.042c0-6.345-4.735-11.606-10.858-12.432
		c1.721,1.305,2.827,3.369,2.827,5.699c0,2.119-0.924,4.085-2.514,5.437c2.283,1.536,3.663,4.088,3.663,6.879
		c0,2.808-1.374,5.271-3.497,6.772C31.791,39.367,36.281,34.219,36.281,28.042"/>
</g>
</svg>
