<?xml version="1.0" encoding="utf-8"?>
<!-- Generator: Adobe Illustrator 15.0.0, SVG Export Plug-In . SVG Version: 6.00 Build 0)  -->
<!DOCTYPE svg PUBLIC "-//W3C//DTD SVG 1.1//EN" "http://www.w3.org/Graphics/SVG/1.1/DTD/svg11.dtd">
<svg version="1.1" id="Your_Design" xmlns="http://www.w3.org/2000/svg" xmlns:xlink="http://www.w3.org/1999/xlink" x="0px"
	 y="0px" width="311.811px" height="402.52px" viewBox="0 0 311.811 402.52" enable-background="new 0 0 311.811 402.52"
	 xml:space="preserve">
<rect width="311.812" height="402.52"/>
<g>
	<g>
		<path fill="#95ADD2" d="M254.816,197.719c-2.809-3.013-5.619-6.071-8.428-9.169c2.809-4.58,5.619-9.095,8.428-13.535
			c-8.506,1.996-17.024,4.129-25.547,6.367c3.321,2.632,6.645,5.239,9.962,7.806c0,4.304,0,8.605,0,12.906
			C244.434,200.604,249.625,199.143,254.816,197.719z"/>
		<path fill="#34679D" d="M239.231,189.205c-4.773,1.281-9.554,2.592-14.332,3.925c0-5.076,0-10.158,0-15.233
			C229.678,181.725,234.458,185.501,239.231,189.205z"/>
		<path fill="#95ADD2" d="M58.184,250.385c2.807-4.256,5.618-8.594,8.428-13.004c-2.81-3.268-5.621-6.498-8.428-9.697
			c8.506-1.779,17.022-3.73,25.545-5.812c-3.321,4.313-6.643,8.569-9.962,12.747c0,4.301,0,8.605,0,12.906
			C68.568,248.551,63.374,249.508,58.184,250.385z"/>
		<path fill="#34679D" d="M73.767,234.637c4.775-1.035,9.554-2.119,14.334-3.248c0-5.081,0-10.162,0-15.237
			C83.32,222.448,78.542,228.62,73.767,234.637z"/>
	</g>
	<path fill="#003053" stroke="#003053" stroke-width="0.1417" stroke-miterlimit="10" d="M153.29,290.286
		c0,0-3.878-1.641-9.662-4.303c-23.978-11.035-64.386-40.06-63.728-78.834v-80.836l3.284-1.253
		c22.979-8.754,47.238-13.194,72.101-13.194c24.864,0,49.121,4.439,72.098,13.194l3.286,1.253v80.924
		c0.656,38.687-39.746,67.711-63.729,78.746c-5.785,2.662-9.661,4.303-9.661,4.303l-1.993,0.849L153.29,290.286z M155.284,116.969
		c-23.89,0-47.78,4.287-70.279,12.862c0,21.303,0,42.607,0,63.913c0,0.212,0,0.493,0,0.746c0,3.583,0,10.672,0,12.745
		c-0.643,37.742,41.403,65.21,60.756,74.114c5.701,2.619,9.523,4.242,9.523,4.242s3.822-1.623,9.522-4.242
		c19.355-8.904,61.398-36.374,60.759-74.114c0-2.073,0-9.159,0-12.745c0-0.253,0-0.534,0-0.746c0-21.305,0-42.61,0-63.913
		C203.064,121.256,179.176,116.969,155.284,116.969z"/>
	<linearGradient id="SVGID_1_" gradientUnits="userSpaceOnUse" x1="136.458" y1="266.7646" x2="217.1476" y2="186.0751">
		<stop  offset="0" style="stop-color:#1C426A"/>
		<stop  offset="0.2885" style="stop-color:#2A5887"/>
		<stop  offset="0.6111" style="stop-color:#366CA3"/>
		<stop  offset="0.8589" style="stop-color:#3C77B4"/>
		<stop  offset="1" style="stop-color:#3E7BBA"/>
	</linearGradient>
	<path fill="url(#SVGID_1_)" d="M155.284,193.371c0,30.317,0,61.905,0,92.22c0,0,3.822-1.623,9.522-4.242
		c19.327-8.896,61.279-36.3,60.755-73.958c0-2.875,0-9.88,0-12.901C203.064,193.745,179.176,193.371,155.284,193.371z"/>
	<linearGradient id="SVGID_2_" gradientUnits="userSpaceOnUse" x1="86.1313" y1="195.6157" x2="160.0309" y2="121.7162">
		<stop  offset="0" style="stop-color:#34679D"/>
		<stop  offset="0.1723" style="stop-color:#366CA3"/>
		<stop  offset="0.6989" style="stop-color:#3C77B4"/>
		<stop  offset="1" style="stop-color:#3E7BBA"/>
	</linearGradient>
	<path fill="url(#SVGID_2_)" d="M85.005,194.489c22.499-0.744,46.389-1.118,70.279-1.118c0-25.468,0-50.935,0-76.402
		c-23.89,0-47.78,4.287-70.279,12.862C85.005,151.384,85.005,172.937,85.005,194.489z"/>
	<path fill="#FFFFFF" d="M155.284,178.092c4.78,0,9.558,0.045,14.324,0.137c0,5.062,0,10.125,0,15.189
		c-4.767-0.031-9.544-0.048-14.324-0.048C155.284,188.278,155.284,183.184,155.284,178.092z M183.861,193.551
		c4.732,0.059,9.446,0.137,14.125,0.224c0-4.81,0-9.624,0-14.436c-4.679-0.277-9.393-0.509-14.125-0.695
		C183.861,183.615,183.861,188.583,183.861,193.551z M211.91,194.088c4.601,0.119,9.152,0.253,13.655,0.401c0-4.31,0-8.619,0-12.934
		c-4.503-0.458-9.055-0.878-13.655-1.244C211.91,184.899,211.91,189.497,211.91,194.088z M169.608,178.229
		c4.768,0.094,9.523,0.231,14.26,0.417c0-4.971,0-9.938,0-14.907c-4.736-0.31-9.492-0.543-14.26-0.698
		C169.608,168.103,169.608,173.167,169.608,178.229z M197.986,179.339c4.675,0.277,9.321,0.601,13.924,0.973
		c0-4.594,0-9.188,0-13.781c-4.603-0.62-9.249-1.162-13.924-1.629C197.986,169.713,197.986,174.524,197.986,179.339z
		 M155.284,162.81c4.78,0,9.558,0.08,14.324,0.235c0-5.063,0-10.124,0-15.19c-4.767-0.217-9.544-0.326-14.324-0.326
		C155.284,152.622,155.284,157.714,155.284,162.81z M183.861,163.743c4.732,0.31,9.446,0.695,14.125,1.162c0-4.812,0-9.623,0-14.438
		c-4.679-0.649-9.393-1.194-14.125-1.632C183.861,153.804,183.861,158.773,183.861,163.743z M211.91,166.534
		c4.601,0.622,9.152,1.318,13.655,2.094c0-4.313,0-8.622,0-12.934c-4.503-1.09-9.055-2.066-13.655-2.938
		C211.91,157.349,211.91,161.939,211.91,166.534z M169.608,147.855c4.768,0.22,9.523,0.547,14.26,0.983c0-4.968,0-9.938,0-14.907
		c-4.736-0.562-9.492-0.981-14.26-1.262C169.608,137.731,169.608,142.794,169.608,147.855z M197.986,150.468
		c4.675,0.653,9.321,1.417,13.924,2.289c0-4.593,0-9.187,0-13.78c-4.603-1.121-9.249-2.104-13.924-2.946
		C197.986,140.842,197.986,145.657,197.986,150.468z M155.284,132.25c4.78,0,9.558,0.145,14.324,0.423c0-5.064,0-10.125,0-15.188
		c-4.767-0.343-9.544-0.516-14.324-0.516C155.284,122.062,155.284,127.156,155.284,132.25z M183.861,133.934
		c4.732,0.563,9.446,1.26,14.125,2.101c0-4.808,0-9.623,0-14.434c-4.679-1.032-9.393-1.887-14.125-2.572
		C183.861,123.998,183.861,128.964,183.861,133.934z M211.91,138.98c4.601,1.121,9.152,2.381,13.655,3.785c0-4.312,0-8.62,0-12.934
		c-4.503-1.716-9.055-3.258-13.655-4.629C211.91,129.792,211.91,134.388,211.91,138.98z"/>
	<path fill="#FFFFFF" d="M112.48,193.778c-4.679,0.09-9.331,0.194-13.936,0.313c-4.56,4.669-9.079,9.105-13.54,13.218
		c-0.013,0.766,0.016,1.519,0.039,2.272c0.015,0.458,0.015,0.924,0.039,1.374c0.059,1.006,0.147,2.006,0.263,2.996
		c0.039,0.328,0.09,0.65,0.136,0.977c0.111,0.803,0.227,1.601,0.372,2.386c0.033,0.177,0.065,0.347,0.098,0.519
		c0.09,0.456,0.203,0.898,0.302,1.355C94.828,211.77,103.596,203.089,112.48,193.778z"/>
	<path fill="#FFFFFF" d="M140.909,193.419c-4.777,0.031-9.538,0.076-14.277,0.132c-12.567,13.344-24.972,25.904-37.012,35.928
		c1.397,3.225,3.065,6.332,4.953,9.322C109.632,226.427,125.209,210.187,140.909,193.419z"/>
	<path fill="#FFFFFF" d="M155.284,208.65c0-5.096,0-10.188,0-15.279c-0.013,0-0.029,0-0.039,0
		c-18.357,19.568-36.708,39.342-54.429,54.024c2.301,2.788,4.767,5.441,7.325,7.954C123.583,242.244,139.434,225.545,155.284,208.65
		z"/>
	<path fill="#FFFFFF" d="M155.284,239.25c0-5.102,0-10.197,0-15.299c-13.057,13.915-26.108,27.456-38.939,38.746
		c2.962,2.432,5.956,4.685,8.903,6.736C135.19,260.302,145.237,249.958,155.284,239.25z"/>
	<path fill="#FFFFFF" d="M155.284,269.872c0-5.102,0-10.204,0-15.306c-6.858,7.312-13.712,14.385-20.538,20.962
		c3.613,2.129,6.965,3.895,9.881,5.281c0.035,0.016,0.07,0.031,0.104,0.046C148.243,277.296,151.766,273.622,155.284,269.872z"/>
	<linearGradient id="SVGID_3_" gradientUnits="userSpaceOnUse" x1="106.4883" y1="253.6973" x2="223.4464" y2="136.7391">
		<stop  offset="0" style="stop-color:#EABA09"/>
		<stop  offset="0.4843" style="stop-color:#F2C911"/>
		<stop  offset="1" style="stop-color:#F8D418"/>
	</linearGradient>
	<path fill="url(#SVGID_3_)" d="M169.608,178.229c4.768,0.094,9.523,0.231,14.26,0.417c0,4.968,0,9.938,0,14.904
		c-4.736-0.059-9.492-0.104-14.26-0.132C169.608,188.351,169.608,183.292,169.608,178.229z M197.986,193.774
		c4.675,0.09,9.321,0.194,13.924,0.313c0-4.591,0-9.188,0-13.776c-4.603-0.372-9.249-0.695-13.924-0.973
		C197.986,184.15,197.986,188.965,197.986,193.774z M155.284,178.092c4.78,0,9.558,0.045,14.324,0.137c0-5.063,0-10.127,0-15.188
		c-4.767-0.155-9.544-0.235-14.324-0.235C155.284,167.903,155.284,172.997,155.284,178.092z M183.861,178.644
		c4.732,0.187,9.446,0.418,14.125,0.695c0-4.814,0-9.626,0-14.437c-4.679-0.467-9.393-0.855-14.125-1.162
		C183.861,168.706,183.861,173.677,183.861,178.644z M211.91,180.312c4.601,0.366,9.152,0.785,13.655,1.244
		c0-4.309,0-8.619,0-12.929c-4.503-0.778-9.055-1.475-13.655-2.095C211.91,171.123,211.91,175.718,211.91,180.312z M169.608,163.045
		c4.768,0.151,9.523,0.388,14.26,0.698c0-4.968,0-9.939,0-14.905c-4.736-0.436-9.492-0.763-14.26-0.983
		C169.608,152.919,169.608,157.982,169.608,163.045z M197.986,164.905c4.675,0.465,9.321,1.009,13.924,1.629
		c0-4.595,0-9.186,0-13.778c-4.603-0.872-9.249-1.635-13.924-2.289C197.986,155.283,197.986,160.094,197.986,164.905z
		 M155.284,147.529c4.78,0,9.558,0.109,14.324,0.326c0-5.061,0-10.124,0-15.186c-4.767-0.281-9.544-0.421-14.324-0.421
		C155.284,137.341,155.284,142.435,155.284,147.529z M183.861,148.836c4.732,0.438,9.446,0.982,14.125,1.632
		c0-4.811,0-9.625,0-14.437c-4.679-0.837-9.393-1.541-14.125-2.1C183.861,138.897,183.861,143.865,183.861,148.836z M211.91,152.756
		c4.601,0.872,9.152,1.847,13.655,2.938c0-4.312,0-8.621,0-12.932c-4.503-1.404-9.055-2.664-13.655-3.785
		C211.91,143.569,211.91,148.164,211.91,152.756z M169.608,132.672c4.768,0.281,9.523,0.698,14.26,1.261c0-4.969,0-9.936,0-14.905
		c-4.736-0.686-9.492-1.201-14.26-1.544C169.608,122.547,169.608,127.608,169.608,132.672z M197.986,136.034
		c4.675,0.845,9.321,1.821,13.924,2.946c0-4.592,0-9.188,0-13.778c-4.603-1.373-9.249-2.574-13.924-3.602
		C197.986,126.412,197.986,131.226,197.986,136.034z M85.005,207.312c0,0,0,0,0-0.004c0-0.023,0-0.049,0-0.074
		C85.005,207.257,85.005,207.289,85.005,207.312z M98.544,194.091c-4.56,0.116-9.079,0.25-13.54,0.398c0,3.583,0,10.672,0,12.745
		c0,0.025,0,0.051,0,0.074C89.465,203.196,93.984,198.76,98.544,194.091z M126.632,193.551c-4.746,0.062-9.463,0.137-14.151,0.227
		c-8.885,9.311-17.652,17.992-26.227,25.41c0.089,0.395,0.171,0.803,0.269,1.199c0.1,0.42,0.222,0.83,0.33,1.245
		c0.731,2.687,1.663,5.303,2.768,7.847C101.66,219.455,114.065,206.895,126.632,193.551z M155.245,193.371
		c-4.785,0-9.563,0.017-14.336,0.048c-15.7,16.768-31.277,33.008-46.336,45.382c1.887,2.986,3.987,5.855,6.243,8.595
		C118.537,232.713,136.888,212.939,155.245,193.371z M155.284,223.951c0-5.1,0-10.202,0-15.301
		c-15.851,16.895-31.701,33.594-47.144,46.699c2.654,2.608,5.415,5.057,8.204,7.348
		C129.176,251.414,142.228,237.864,155.284,223.951z M155.284,254.566c0-5.104,0-10.213,0-15.316
		c-10.047,10.708-20.094,21.052-30.036,30.184c3.267,2.277,6.466,4.31,9.498,6.095C141.572,268.955,148.426,261.879,155.284,254.566
		z M144.731,280.855l0.003,0.007c0.343,0.161,0.695,0.333,1.026,0.486c5.701,2.619,9.523,4.242,9.523,4.242
		c0-4.813,0-10.899,0-15.719C151.766,273.622,148.243,277.296,144.731,280.855z"/>
	<linearGradient id="SVGID_4_" gradientUnits="userSpaceOnUse" x1="155.2827" y1="328.1113" x2="155.2827" y2="59.9528">
		<stop  offset="0" style="stop-color:#002141"/>
		<stop  offset="0.281" style="stop-color:#002B4C"/>
		<stop  offset="0.5031" style="stop-color:#003053"/>
		<stop  offset="0.6967" style="stop-color:#03365B"/>
		<stop  offset="0.8528" style="stop-color:#05395E"/>
		<stop  offset="0.8974" style="stop-color:#063A60"/>
		<stop  offset="0.9423" style="stop-color:#093E65"/>
		<stop  offset="0.9872" style="stop-color:#0D446D"/>
		<stop  offset="1" style="stop-color:#0E4670"/>
	</linearGradient>
	<path fill="url(#SVGID_4_)" d="M85.005,169.557c-0.02,0.005-0.039,0.01-0.056,0.015c0,20.653,0,41.304,0,61.952
		c0.095,0.216,0.197,0.426,0.294,0.642c1.673-0.395,3.346-0.827,5.023-1.23c45.061-10.84,90.306-25.463,135.349-37.968
		c0-20.887,0-41.776,0-62.663C178.818,139.726,131.802,155.041,85.005,169.557z"/>
	<g>
		<g>
			<path fill="#34679D" d="M112.25,214.722c-2.552-7.142-5.105-14.254-7.654-21.317c2.412-8.115,4.825-16.283,7.24-24.491
				c-2.003,0.612-4,1.221-6,1.833c-0.934,1.249-1.871,2.496-2.811,3.736c-0.646,2.308-1.299,4.609-1.952,6.91
				c0-3.068,0-6.128,0-9.192c-1.894,0.578-3.792,1.154-5.689,1.729c-0.934,1.235-1.871,2.473-2.801,3.705
				c0,15.042,0,30.088,0,45.131c1.893-0.477,3.79-0.96,5.683-1.449c0.937-1.194,1.874-2.396,2.808-3.601c0-1.518,0-3.035,0-4.553
				c0.773,2.27,1.542,4.547,2.314,6.824c2.017-0.528,4.036-1.066,6.053-1.605C110.38,217.163,111.316,215.944,112.25,214.722z"/>
			<path fill="#34679D" d="M123.526,211.611c0-15.423,0-30.839,0-46.262c-1.895,0.578-3.792,1.152-5.688,1.733
				c-0.94,1.257-1.875,2.51-2.811,3.764c0,15.341,0,30.685,0,46.027c1.896-0.518,3.793-1.038,5.689-1.563
				C121.654,214.079,122.591,212.848,123.526,211.611z"/>
			<path fill="#34679D" d="M128.171,166.867c0,15.455,0,30.911,0,46.369c1.761-0.496,3.522-0.992,5.283-1.49
				c0.937-1.244,1.874-2.492,2.807-3.735c0-0.676,0-1.351,0-2.026c0.274,1.576,0.545,3.152,0.813,4.729
				c2.141-0.609,4.282-1.224,6.424-1.839c0.933-1.251,1.873-2.502,2.809-3.753c0-15.542,0-31.08,0-46.622
				c-1.758,0.521-3.52,1.042-5.28,1.568c-0.935,1.26-1.874,2.523-2.809,3.783c0,0.653,0,1.309,0,1.962
				c-0.272-1.55-0.544-3.105-0.814-4.654c-2.143,0.641-4.282,1.283-6.419,1.932C130.044,164.349,129.109,165.608,128.171,166.867z"
				/>
			<path fill="#34679D" d="M150.953,160.078c0,15.547,0,31.095,0,46.644c4.024-1.167,8.044-2.341,12.063-3.513
				c0.94-1.256,1.877-2.51,2.815-3.767c0-2.056,0-4.117,0-6.174c-2.123,0.615-4.252,1.235-6.373,1.853c0-3.852,0-7.704,0-11.555
				c0.271-0.082,0.543-0.158,0.817-0.238c0.937-1.25,1.875-2.505,2.809-3.757c0-2.06,0-4.12,0-6.179
				c-1.209,0.35-2.415,0.699-3.626,1.048c0-3.553,0-7.103,0-10.655c1.185-0.343,2.375-0.684,3.558-1.023
				c0.94-1.253,1.877-2.5,2.815-3.75c0-2.06,0-4.115,0-6.176c-4.023,1.143-8.046,2.298-12.065,3.473
				C152.829,157.564,151.89,158.821,150.953,160.078z"/>
			<path fill="#34679D" d="M168.347,155.067c0,2.058,0,4.116,0,6.172c1.38-0.39,2.762-0.78,4.143-1.168c0,13.458,0,26.912,0,40.37
				c1.899-0.552,3.796-1.106,5.696-1.658c0.935-1.252,1.873-2.503,2.81-3.749c0-12.441,0-24.877,0-37.32
				c0.446-0.118,0.89-0.238,1.337-0.359c0.934-1.234,1.872-2.463,2.806-3.688c0-2.043,0-4.09,0-6.137
				c-4.656,1.239-9.319,2.51-13.981,3.808C170.219,152.582,169.284,153.823,168.347,155.067z"/>
			<path fill="#34679D" d="M188.281,149.623c0,15.41,0,30.818,0,46.229c1.897-0.545,3.793-1.093,5.692-1.639
				c0.937-1.239,1.873-2.476,2.812-3.711c0-15.328,0-30.656,0-45.982c-1.901,0.475-3.798,0.961-5.697,1.451
				C190.154,147.181,189.215,148.402,188.281,149.623z"/>
			<path fill="#34679D" d="M217.979,154.643c0-1.593,0-3.188,0-4.783c0.007-6.912-2.251-9.885-6.767-8.841
				c-2.664,0.617-4.539,2.246-5.68,4.818c-2.73,1.919-4.116,5.575-4.112,10.965c0,8.244,0,16.492,0,24.734
				c0,7.041,2.328,9.887,6.984,8.578c2.567-0.723,4.378-2.393,5.487-4.942c2.716-1.957,4.087-5.585,4.087-10.951
				c0-2.069,0-4.132,0-6.198c-1.825,0.462-3.651,0.93-5.476,1.407c-0.862,1.173-1.726,2.358-2.584,3.543c0-4.497,0-8.993,0-13.487
				c1.753-0.442,3.503-0.878,5.256-1.308C216.112,156.996,217.046,155.818,217.979,154.643z"/>
		</g>
		<g>
			<path fill="#FFFFFF" d="M95.385,219.197c0-15.09,0-30.18,0-45.269c1.898-0.574,3.796-1.15,5.689-1.729c0,5.135,0,10.272,0,15.41
				c1.588-5.6,3.176-11.222,4.762-16.864c1.999-0.612,3.997-1.221,6-1.833c-2.416,8.206-4.828,16.376-7.24,24.491
				c2.549,7.063,5.102,14.176,7.654,21.317c-2.017,0.549-4.034,1.094-6.055,1.634c-1.707-5.051-3.411-10.084-5.121-15.092
				c0,5.484,0,10.968,0,16.451C99.181,218.215,97.283,218.707,95.385,219.197z"/>
			<path fill="#FFFFFF" d="M117.838,213.192c0-15.372,0-30.743,0-46.11c1.895-0.581,3.793-1.158,5.688-1.733
				c0,15.423,0,30.839,0,46.262C121.631,212.143,119.733,212.669,117.838,213.192z"/>
			<path fill="#FFFFFF" d="M137.194,191.318c-0.309-2.321-0.62-4.639-0.934-6.959c0,7.886,0,15.767,0,23.651
				c-1.758,0.499-3.519,1.004-5.276,1.501c-0.001-15.473-0.001-30.95,0-46.421c2.137-0.649,4.276-1.291,6.419-1.932
				c0.914,5.232,1.831,10.476,2.745,15.723c0.292,2.269,0.586,4.539,0.878,6.812c0-7.876,0-15.749,0-23.625
				c1.761-0.526,3.522-1.048,5.28-1.568c0,15.542,0,31.079,0,46.622c-2.141,0.619-4.281,1.234-6.42,1.849
				C138.99,201.747,138.092,196.529,137.194,191.318z"/>
			<path fill="#FFFFFF" d="M159.459,180.619c0,4.833,0,9.665,0,14.502c2.121-0.617,4.25-1.237,6.373-1.853c0,2.057,0,4.118,0,6.174
				c-4.023,1.174-8.046,2.344-12.065,3.516c0-15.552,0-31.099,0-46.65c4.02-1.175,8.042-2.334,12.065-3.473c0,2.061,0,4.116,0,6.176
				c-2.123,0.604-4.252,1.214-6.373,1.825c0,4.535,0,9.069,0,13.604c1.211-0.349,2.417-0.698,3.626-1.048c0,2.06,0,4.12,0,6.179
				C161.876,179.92,160.67,180.27,159.459,180.619z"/>
			<path fill="#FFFFFF" d="M171.156,151.338c4.662-1.297,9.325-2.569,13.981-3.808c0,2.047,0,4.093,0,6.137
				c-1.379,0.369-2.76,0.744-4.143,1.12c0,13.416,0,26.834,0,40.248c-1.899,0.549-3.796,1.104-5.697,1.653
				c0-13.444,0-26.891,0-40.337c-1.379,0.383-2.76,0.77-4.142,1.159C171.156,155.452,171.156,153.395,171.156,151.338z"/>
			<path fill="#FFFFFF" d="M191.088,192.125c0-15.38,0-30.768,0-46.154c1.899-0.49,3.796-0.976,5.697-1.451
				c0,15.326,0,30.654,0,45.982C194.884,191.044,192.987,191.583,191.088,192.125z"/>
			<path fill="#FFFFFF" d="M212.504,169.429c1.824-0.477,3.65-0.945,5.476-1.407c0,2.066,0,4.129,0,6.198
				c0.007,6.923-2.251,10.987-6.767,12.236c-4.656,1.294-6.985-1.559-6.985-8.58c0-8.229,0-16.455,0-24.682
				c0-7.016,2.329-11.097,6.985-12.177c4.513-1.042,6.773,1.926,6.767,8.841c0,1.595,0,3.19,0,4.783
				c-1.825,0.436-3.651,0.878-5.476,1.325c0-2.51,0-5.026,0-7.54c-0.002-1.132-0.433-1.596-1.291-1.389
				c-0.863,0.204-1.299,0.873-1.293,2.009c0,10.014,0,20.025,0,30.042c-0.006,1.131,0.43,1.58,1.293,1.345
				c0.858-0.231,1.291-0.917,1.291-2.043C212.504,175.406,212.504,172.414,212.504,169.429z"/>
		</g>
	</g>
	<path fill="#FFFFFF" d="M119.627,127.843c0.839,2.548,1.678,5.117,2.515,7.705c2.724-0.377,5.454-0.705,8.191-0.989
		c-2.215,1.924-4.423,3.862-6.629,5.804c0.844,2.608,1.688,5.236,2.533,7.876c-2.209-1.466-4.413-2.896-6.61-4.266
		c-2.203,1.952-4.394,3.899-6.58,5.846c0.835-2.763,1.671-5.542,2.507-8.333c-2.189-1.306-4.374-2.558-6.55-3.747
		c2.688-0.527,5.391-1.005,8.104-1.439C117.946,133.491,118.785,130.671,119.627,127.843z"/>
	<path fill="#FFFFFF" d="M186.604,234.349c0.843,2.579,1.687,5.145,2.526,7.688c2.725-0.484,5.432-1.004,8.133-1.545
		c-2.182,2.079-4.374,4.161-6.572,6.249c0.839,2.524,1.673,5.034,2.514,7.526c-2.197-1.165-4.398-2.384-6.601-3.641
		c-2.206,2.089-4.416,4.182-6.631,6.268c0.844-2.898,1.688-5.781,2.533-8.657c-2.215-1.312-4.431-2.665-6.65-4.05
		c2.748-0.397,5.486-0.821,8.219-1.271C184.919,240.048,185.758,237.191,186.604,234.349z"/>
	<defs>
		<filter id="Adobe_OpacityMaskFilter" filterUnits="userSpaceOnUse" x="172.283" y="117.683" width="53.332" height="61.529">
			<feFlood  style="flood-color:white;flood-opacity:1" result="back"/>
			<feBlend  in="SourceGraphic" in2="back" mode="normal"/>
		</filter>
	</defs>
	<mask maskUnits="userSpaceOnUse" x="172.283" y="117.683" width="53.332" height="61.529" id="SVGID_5_">
		<g filter="url(#Adobe_OpacityMaskFilter)">
			<defs>
				<filter id="Adobe_OpacityMaskFilter_1_" filterUnits="userSpaceOnUse" x="172.283" y="117.683" width="53.332" height="61.529">
					<feFlood  style="flood-color:white;flood-opacity:1" result="back"/>
					<feBlend  in="SourceGraphic" in2="back" mode="normal"/>
				</filter>
			</defs>
			<mask maskUnits="userSpaceOnUse" x="172.283" y="117.683" width="53.332" height="61.529" id="SVGID_5_">
				<g filter="url(#Adobe_OpacityMaskFilter_1_)">
				</g>
			</mask>
			<linearGradient id="SVGID_6_" gradientUnits="userSpaceOnUse" x1="196.9082" y1="150.5054" x2="221.5848" y2="125.8288">
				<stop  offset="0.3374" style="stop-color:#000000"/>
				<stop  offset="0.4305" style="stop-color:#060606"/>
				<stop  offset="0.5506" style="stop-color:#161616"/>
				<stop  offset="0.6854" style="stop-color:#303030"/>
				<stop  offset="0.8311" style="stop-color:#555555"/>
				<stop  offset="0.9839" style="stop-color:#848484"/>
				<stop  offset="1" style="stop-color:#8A8A8A"/>
			</linearGradient>
			<path mask="url(#SVGID_5_)" fill="url(#SVGID_6_)" d="M209.786,140.671c16.616,20.559,15.785,38.353,15.829,38.541
				c0-16.451,0-32.902,0-49.354c-17.172-6.541-35.154-10.585-53.332-12.136C172.275,117.331,193.116,119.497,209.786,140.671z"/>
		</g>
	</mask>
	<linearGradient id="SVGID_7_" gradientUnits="userSpaceOnUse" x1="196.9082" y1="150.5054" x2="221.5848" y2="125.8288">
		<stop  offset="0.3374" style="stop-color:#FFFFFF"/>
		<stop  offset="1" style="stop-color:#FFFFFF"/>
	</linearGradient>
	<path fill="url(#SVGID_7_)" d="M209.786,140.671c16.616,20.559,15.785,38.353,15.829,38.541c0-16.451,0-32.902,0-49.354
		c-17.172-6.541-35.154-10.585-53.332-12.136C172.275,117.331,193.116,119.497,209.786,140.671z"/>
	<defs>
		<filter id="Adobe_OpacityMaskFilter_2_" filterUnits="userSpaceOnUse" x="85.008" y="117.654" width="53.329" height="61.528">
			<feFlood  style="flood-color:white;flood-opacity:1" result="back"/>
			<feBlend  in="SourceGraphic" in2="back" mode="normal"/>
		</filter>
	</defs>
	<mask maskUnits="userSpaceOnUse" x="85.008" y="117.654" width="53.329" height="61.528" id="SVGID_8_">
		<g filter="url(#Adobe_OpacityMaskFilter_2_)">
			<defs>
				<filter id="Adobe_OpacityMaskFilter_3_" filterUnits="userSpaceOnUse" x="85.008" y="117.654" width="53.329" height="61.528">
					<feFlood  style="flood-color:white;flood-opacity:1" result="back"/>
					<feBlend  in="SourceGraphic" in2="back" mode="normal"/>
				</filter>
			</defs>
			<mask maskUnits="userSpaceOnUse" x="85.008" y="117.654" width="53.329" height="61.528" id="SVGID_8_">
				<g filter="url(#Adobe_OpacityMaskFilter_3_)">
				</g>
			</mask>
			
				<linearGradient id="SVGID_9_" gradientUnits="userSpaceOnUse" x1="-353.811" y1="150.4771" x2="-329.1355" y2="125.8015" gradientTransform="matrix(-1 0 0 1 -240.0977 0)">
				<stop  offset="0.3374" style="stop-color:#000000"/>
				<stop  offset="0.4548" style="stop-color:#060606"/>
				<stop  offset="0.6062" style="stop-color:#161616"/>
				<stop  offset="0.7762" style="stop-color:#303030"/>
				<stop  offset="0.9586" style="stop-color:#555555"/>
				<stop  offset="1" style="stop-color:#5E5E5E"/>
			</linearGradient>
			<path mask="url(#SVGID_8_)" fill="url(#SVGID_9_)" d="M100.836,140.645c-16.618,20.562-15.777,38.342-15.828,38.538
				c0-16.451,0-32.899,0-49.352c17.173-6.54,35.154-10.586,53.329-12.138C138.35,117.305,117.509,119.469,100.836,140.645z"/>
		</g>
	</mask>
	
		<linearGradient id="SVGID_10_" gradientUnits="userSpaceOnUse" x1="-353.811" y1="150.4771" x2="-329.1355" y2="125.8015" gradientTransform="matrix(-1 0 0 1 -240.0977 0)">
		<stop  offset="0.3374" style="stop-color:#000000"/>
		<stop  offset="1" style="stop-color:#000000"/>
	</linearGradient>
	<path fill="url(#SVGID_10_)" d="M100.836,140.645c-16.618,20.562-15.777,38.342-15.828,38.538c0-16.451,0-32.899,0-49.352
		c17.173-6.54,35.154-10.586,53.329-12.138C138.35,117.305,117.509,119.469,100.836,140.645z"/>
	<linearGradient id="SVGID_11_" gradientUnits="userSpaceOnUse" x1="192.9795" y1="291.1348" x2="192.9795" y2="126.314">
		<stop  offset="0" style="stop-color:#04375C"/>
		<stop  offset="0.0529" style="stop-color:#073B61"/>
		<stop  offset="0.1276" style="stop-color:#093E65"/>
		<stop  offset="0.2209" style="stop-color:#0A3F67"/>
		<stop  offset="0.3912" style="stop-color:#1B4A73"/>
		<stop  offset="0.5767" style="stop-color:#26537F"/>
		<stop  offset="0.737" style="stop-color:#2B5886"/>
		<stop  offset="0.8528" style="stop-color:#2C5A8A"/>
		<stop  offset="0.8961" style="stop-color:#2D5C8C"/>
		<stop  offset="0.9398" style="stop-color:#306194"/>
		<stop  offset="0.9834" style="stop-color:#356AA0"/>
		<stop  offset="1" style="stop-color:#376EA6"/>
	</linearGradient>
	<path fill="url(#SVGID_11_)" d="M230.668,126.313v80.924c0.656,38.687-39.746,67.711-63.729,78.746
		c-5.785,2.662-9.661,4.303-9.661,4.303l-1.993,0.849v-5.544c0,0,3.822-1.623,9.522-4.242c19.355-8.904,61.398-36.374,60.759-74.114
		c0-2.073,0-9.159,0-12.745c0-0.253,0-0.534,0-0.746c0-21.305,0-42.61,0-63.913L230.668,126.313z"/>
	<linearGradient id="SVGID_12_" gradientUnits="userSpaceOnUse" x1="117.5884" y1="291.1348" x2="117.5884" y2="126.314">
		<stop  offset="0" style="stop-color:#003053"/>
		<stop  offset="0.2665" style="stop-color:#093E65"/>
		<stop  offset="0.4049" style="stop-color:#0C436C"/>
		<stop  offset="0.5918" style="stop-color:#0F4873"/>
		<stop  offset="0.7423" style="stop-color:#104A76"/>
		<stop  offset="0.7975" style="stop-color:#114B77"/>
		<stop  offset="0.853" style="stop-color:#174E7A"/>
		<stop  offset="0.9087" style="stop-color:#20517E"/>
		<stop  offset="0.9642" style="stop-color:#275582"/>
		<stop  offset="1" style="stop-color:#2A5785"/>
	</linearGradient>
	<path fill="url(#SVGID_12_)" d="M85.005,129.831c0,21.303,0,42.607,0,63.913c0,0.212,0,0.493,0,0.746c0,3.583,0,10.672,0,12.745
		c-0.643,37.742,41.403,65.21,60.756,74.114c5.701,2.619,9.523,4.242,9.523,4.242v5.544l-1.994-0.849c0,0-3.878-1.641-9.662-4.303
		c-23.978-11.035-64.386-40.06-63.728-78.834v-80.836L85.005,129.831z"/>
	<linearGradient id="SVGID_13_" gradientUnits="userSpaceOnUse" x1="117.5923" y1="164.0054" x2="192.9765" y2="88.6212">
		<stop  offset="0" style="stop-color:#2F6092"/>
		<stop  offset="0.0589" style="stop-color:#306194"/>
		<stop  offset="0.3425" style="stop-color:#33669A"/>
		<stop  offset="0.6564" style="stop-color:#34679D"/>
		<stop  offset="0.7422" style="stop-color:#35699F"/>
		<stop  offset="0.8286" style="stop-color:#376EA6"/>
		<stop  offset="0.9149" style="stop-color:#3C76B2"/>
		<stop  offset="1" style="stop-color:#4182C3"/>
	</linearGradient>
	<path fill="url(#SVGID_13_)" d="M79.9,126.313l3.284-1.253c22.979-8.754,47.238-13.194,72.101-13.194
		c24.864,0,49.121,4.439,72.098,13.194l3.286,1.253l-5.103,3.518c-22.501-8.575-46.39-12.862-70.281-12.862
		c-23.89,0-47.78,4.287-70.279,12.862L79.9,126.313z"/>
	<path fill="#D0D7E7" d="M239.248,212.509c-55.029,16.607-110.419,35.402-165.449,45.446c0-7.759,0-15.518,0-23.279
		c55.03-11.913,110.42-30.701,165.449-45.443C239.248,196.988,239.248,204.75,239.248,212.509z"/>
	<g>
		<path fill="#003053" d="M98.567,248.11c-0.25-2.276-0.498-4.53-0.852-6.763c-0.222,0.055-0.452,0.107-0.676,0.161
			c0,2.321,0,4.635,0,6.954c-0.552,0.124-1.1,0.254-1.655,0.375c0-5.145,0-10.295,0-15.442c0.762-0.183,1.52-0.368,2.275-0.552
			c1.707-0.414,2.576,0.121,2.576,2.158c0,1.044,0,2.092,0,3.14c0.003,1.175-0.301,1.926-0.957,2.478
			c0.424,2.349,0.764,4.756,1.087,7.07C99.767,247.83,99.168,247.973,98.567,248.11z M98.567,235.769
			c0-0.943-0.121-1.372-0.908-1.175c-0.206,0.051-0.415,0.102-0.62,0.148c0,1.731,0,3.461,0,5.187c0.209-0.05,0.426-0.1,0.636-0.148
			c0.625-0.151,0.892-0.528,0.892-1.214C98.567,237.633,98.567,236.701,98.567,235.769z"/>
		<path fill="#003053" d="M102.73,247.135c0-5.184,0-10.367,0-15.551c1.312-0.33,2.627-0.662,3.943-0.997c0,0.588,0,1.181,0,1.765
			c-0.772,0.193-1.539,0.392-2.308,0.584c0,1.661,0,3.328,0,4.992c0.514-0.132,1.028-0.256,1.542-0.383c0,0.59,0,1.176,0,1.762
			c-0.514,0.126-1.028,0.255-1.542,0.386c0,1.772,0,3.538,0,5.311c0.798-0.192,1.6-0.386,2.397-0.579c0,0.579,0,1.16,0,1.744
			C105.418,246.494,104.07,246.816,102.73,247.135z"/>
		<path fill="#003053" d="M110.21,245.326c0-4.629,0-9.256,0-13.883c-0.506,0.131-1.015,0.264-1.524,0.393c0-0.588,0-1.176,0-1.767
			c1.563-0.399,3.127-0.808,4.691-1.221c0,0.595,0,1.188,0,1.776c-0.506,0.133-1.022,0.269-1.529,0.395c0,4.635,0,9.267,0,13.898
			C111.304,245.052,110.759,245.188,110.21,245.326z"/>
		<path fill="#003053" d="M118.642,243.191c0-2.377,0-4.753,0-7.133c-0.457,0.127-0.921,0.244-1.383,0.366c0,2.374,0,4.749,0,7.124
			c-0.545,0.142-1.092,0.281-1.637,0.416c0-5.235,0-10.471,0-15.709c0.545-0.146,1.092-0.283,1.637-0.429c0,2.282,0,4.562,0,6.839
			c0.462-0.121,0.926-0.242,1.383-0.366c0-2.281,0-4.564,0-6.845c0.55-0.146,1.098-0.294,1.64-0.439c0,5.254,0,10.503,0,15.752
			C119.74,242.912,119.191,243.051,118.642,243.191z"/>
		<path fill="#003053" d="M123.021,242.056c0-5.261,0-10.521,0-15.777c0.545-0.148,1.09-0.296,1.637-0.448
			c0,5.268,0,10.533,0,15.791C124.112,241.765,123.567,241.91,123.021,242.056z"/>
		<path fill="#003053" d="M130.872,239.96c-1.1-5.161-1.655-7.589-2.158-10.03c0.039,2.164,0.039,4.326,0.039,6.508
			c0,1.365,0,2.729,0,4.094c-0.468,0.127-0.935,0.253-1.403,0.377c0-5.271,0-10.541,0-15.812c0.64-0.178,1.278-0.353,1.916-0.53
			c0.964,5.602,1.387,7.907,1.834,10.254c-0.04-1.802-0.034-3.589-0.034-5.364c0-1.797,0-3.593,0-5.386
			c0.468-0.127,0.935-0.26,1.403-0.385c0,5.274,0,10.556,0,15.838C131.936,239.67,131.404,239.818,130.872,239.96z"/>
		<path fill="#003053" d="M138.807,237.774c-0.728-2.397-1.387-4.764-2.066-7.098c0.039,1.26,0.036,2.612,0.036,4.331
			c0,1.11,0,2.223,0,3.336c-0.551,0.152-1.103,0.304-1.653,0.455c0-5.287,0-10.576,0-15.861c0.55-0.153,1.105-0.304,1.653-0.463
			c0,1.092,0,2.184,0,3.275c0.003,1.56,0.003,2.506-0.036,3.48c0.662-2.461,1.316-4.883,2.014-7.314
			c0.587-0.166,1.175-0.33,1.761-0.496c-0.787,2.607-1.568,5.216-2.35,7.82c0.84,2.667,1.682,5.342,2.524,8.014
			C140.061,237.432,139.436,237.604,138.807,237.774z"/>
		<path fill="#003053" d="M149.823,234.66c-0.245-2.325-0.499-4.631-0.851-6.904c-0.224,0.063-0.452,0.127-0.677,0.19
			c0,2.385,0,4.767,0,7.153c-0.552,0.16-1.104,0.313-1.657,0.477c0-5.305,0-10.602,0-15.909c0.76-0.216,1.517-0.435,2.277-0.653
			c1.71-0.492,2.578,0.033,2.578,2.122c0,1.074,0,2.145,0,3.226c0,1.201-0.3,1.984-0.953,2.573c0.418,2.396,0.761,4.846,1.081,7.208
			C151.024,234.316,150.421,234.49,149.823,234.66z M149.823,221.984c-0.003-0.963-0.124-1.396-0.907-1.175
			c-0.209,0.062-0.418,0.124-0.62,0.187c0,1.775,0,3.551,0,5.333c0.215-0.065,0.426-0.129,0.642-0.189
			c0.621-0.175,0.886-0.581,0.886-1.276C149.823,223.904,149.823,222.941,149.823,221.984z"/>
		<path fill="#003053" d="M153.991,233.461c0-5.306,0-10.608,0-15.917c1.319-0.378,2.631-0.766,3.948-1.152c0,0.604,0,1.206,0,1.81
			c-0.771,0.217-1.539,0.444-2.31,0.666c0,1.701,0,3.404,0,5.108c0.515-0.153,1.03-0.302,1.546-0.454c0,0.598,0,1.198,0,1.799
			c-0.516,0.153-1.031,0.302-1.546,0.45c0,1.812,0,3.62,0,5.435c0.8-0.231,1.6-0.465,2.402-0.698c0,0.591,0,1.184,0,1.777
			C156.682,232.674,155.336,233.068,153.991,233.461z"/>
		<path fill="#003053" d="M163.226,226.042c0.003-0.686-0.122-1.028-0.516-1.456c-0.656-0.708-1.328-1.25-2.047-2.138
			c-0.354-0.44-0.438-1.095-0.438-1.89c0-0.791,0-1.584,0-2.377c0-1.779,0.766-2.85,2.328-3.31c1.641-0.481,2.261,0.187,2.258,1.96
			c0,0.971,0,1.938,0,2.903c-0.513,0.15-1.019,0.297-1.531,0.45c0-0.959,0-1.919,0-2.879c0.004-0.502-0.194-0.793-0.688-0.646
			c-0.479,0.141-0.697,0.464-0.697,1.032c0,0.783,0,1.573,0,2.356c0,0.434,0.056,0.739,0.286,1.002
			c0.654,0.731,1.42,1.367,2.066,2.135c0.494,0.613,0.616,1.265,0.616,2.352c0,0.756,0,1.518,0,2.277
			c0.007,1.686-0.669,2.826-2.31,3.316c-1.617,0.477-2.335-0.267-2.328-1.945c0-1.13,0-2.253,0-3.385
			c0.525-0.154,1.053-0.308,1.584-0.467c0,1.131,0,2.255,0,3.381c-0.006,0.525,0.228,0.792,0.69,0.65
			c0.496-0.147,0.729-0.504,0.727-1.07C163.226,227.543,163.226,226.793,163.226,226.042z"/>
		<path fill="#003053" d="M168.283,229.25c0-4.697,0-9.393,0-14.092c-0.508,0.149-1.017,0.301-1.527,0.451c0-0.601,0-1.196,0-1.8
			c1.566-0.458,3.134-0.922,4.702-1.382c0,0.599,0,1.197,0,1.798c-0.513,0.148-1.025,0.299-1.536,0.45c0,4.694,0,9.39,0,14.09
			C169.375,228.924,168.832,229.087,168.283,229.25z"/>
		<path fill="#003053" d="M173.413,214.374c0-1.765,0.766-2.919,2.329-3.39c1.583-0.463,2.347,0.248,2.344,2.002
			c0,3.6,0,7.203,0,10.803c0,1.746-0.761,2.927-2.344,3.401c-1.563,0.476-2.329-0.241-2.329-1.997
			C173.413,221.586,173.413,217.979,173.413,214.374z M176.452,213.469c0-0.588-0.233-0.828-0.71-0.686
			c-0.447,0.127-0.695,0.506-0.695,1.106c0,3.606,0,7.21,0,10.813c0,0.617,0.248,0.853,0.695,0.713
			c0.477-0.143,0.71-0.52,0.71-1.141C176.452,220.676,176.452,217.072,176.452,213.469z"/>
		<path fill="#003053" d="M183.854,224.562c-0.246-2.306-0.497-4.592-0.854-6.851c-0.222,0.067-0.452,0.137-0.672,0.206
			c0,2.373,0,4.742,0,7.11c-0.554,0.168-1.104,0.333-1.655,0.503c0-5.28,0-10.553,0-15.83c0.754-0.225,1.518-0.45,2.275-0.672
			c1.705-0.51,2.578,0.006,2.578,2.072c0,1.068,0,2.135,0,3.205c0,1.193-0.307,1.973-0.958,2.572
			c0.425,2.37,0.759,4.802,1.087,7.139C185.055,224.195,184.452,224.381,183.854,224.562z M183.854,211.967
			c0-0.963-0.124-1.387-0.905-1.152c-0.207,0.061-0.418,0.124-0.62,0.187c0,1.766,0,3.534,0,5.301
			c0.209-0.065,0.429-0.128,0.638-0.192c0.623-0.187,0.888-0.588,0.888-1.286C183.854,213.873,183.854,212.915,183.854,211.967z"/>
		<path fill="#003053" d="M191.504,222.232c-0.09-0.78-0.176-1.566-0.263-2.347c-0.603,0.181-1.194,0.362-1.8,0.544
			c-0.104,0.852-0.192,1.688-0.282,2.515c-0.53,0.169-1.064,0.333-1.598,0.493c0.63-5.451,1.267-10.896,1.902-16.341
			c0.632-0.186,1.264-0.372,1.899-0.558c0.602,5.067,1.198,10.131,1.797,15.191C192.607,221.896,192.058,222.068,191.504,222.232z
			 M191.061,218.312c-0.243-2.275-0.5-4.591-0.71-6.939c-0.212,2.471-0.464,4.941-0.746,7.383
			C190.091,218.605,190.577,218.456,191.061,218.312z"/>
		<path fill="#003053" d="M195.924,220.888c0-4.64,0-9.281,0-13.921c-0.514,0.146-1.021,0.3-1.532,0.453c0-0.596,0-1.182,0-1.773
			c1.564-0.466,3.132-0.926,4.696-1.39c0,0.595,0,1.182,0,1.772c-0.507,0.154-1.02,0.307-1.532,0.452c0,4.639,0,9.269,0,13.908
			C197.011,220.553,196.467,220.72,195.924,220.888z"/>
		<path fill="#003053" d="M201.366,219.222c0-5.212,0-10.423,0-15.63c0.541-0.16,1.087-0.318,1.631-0.479c0,5.201,0,10.41,0,15.613
			C202.453,218.891,201.907,219.057,201.366,219.222z"/>
		<path fill="#003053" d="M205.63,204.818c0.003-1.723,0.759-2.872,2.323-3.333c1.584-0.456,2.348,0.245,2.348,1.961
			c0,3.525,0,7.051,0,10.572c0,1.719-0.763,2.869-2.348,3.355c-1.562,0.474-2.32-0.213-2.323-1.936
			C205.63,211.896,205.63,208.357,205.63,204.818z M208.67,203.931c-0.006-0.587-0.23-0.822-0.717-0.679
			c-0.44,0.131-0.687,0.502-0.687,1.087c0,3.538,0,7.069,0,10.604c-0.003,0.611,0.246,0.828,0.687,0.692
			c0.486-0.14,0.717-0.511,0.717-1.116C208.67,210.988,208.67,207.459,208.67,203.931z"/>
		<path fill="#003053" d="M216.367,214.65c-1.101-4.994-1.652-7.35-2.153-9.715c0.039,2.112,0.038,4.23,0.039,6.353
			c0,1.337,0,2.67,0,3.997c-0.467,0.146-0.935,0.285-1.401,0.429c0-5.157,0-10.314,0-15.472c0.638-0.189,1.277-0.374,1.914-0.555
			c0.96,5.444,1.389,7.68,1.831,9.945c-0.037-1.756-0.03-3.499-0.037-5.223c0-1.742,0-3.492,0-5.242
			c0.474-0.134,0.939-0.264,1.406-0.401c0,5.129,0,10.262,0,15.393C217.433,214.317,216.898,214.483,216.367,214.65z"/>
	</g>
</g>
</svg>
