<?xml version="1.0" encoding="utf-8"?>
<!-- Generator: Adobe Illustrator 15.0.0, SVG Export Plug-In . SVG Version: 6.00 Build 0)  -->
<!DOCTYPE svg PUBLIC "-//W3C//DTD SVG 1.1//EN" "http://www.w3.org/Graphics/SVG/1.1/DTD/svg11.dtd">
<svg version="1.1" xmlns="http://www.w3.org/2000/svg" xmlns:xlink="http://www.w3.org/1999/xlink" x="0px" y="0px" width="576px"
	 height="72px" viewBox="0 0 576 72" enable-background="new 0 0 576 72" xml:space="preserve">
<g id="rethink_banner_back">
</g>
<g id="background">
	<path fill="#003053" stroke="#003053" stroke-width="0.0473" stroke-miterlimit="10" d="M42.266,64.562
		c0,0-1.295-0.544-3.224-1.435c-8.005-3.686-21.495-13.372-21.276-26.321V9.827l1.097-0.42c7.672-2.922,15.767-4.402,24.071-4.402
		c8.299,0,16.395,1.48,24.065,4.402l1.098,0.42v27.015c0.219,12.914-13.27,22.601-21.273,26.286
		c-1.932,0.891-3.226,1.435-3.226,1.435l-0.664,0.288L42.266,64.562z M42.935,6.706c-7.979,0-15.954,1.429-23.463,4.293
		c0,7.11,0,14.224,0,21.338c0,0.07,0,0.164,0,0.248c0,1.195,0,3.562,0,4.257C19.255,49.44,33.293,58.605,39.753,61.583
		c1.903,0.87,3.181,1.414,3.181,1.414s1.273-0.544,3.177-1.414c6.46-2.978,20.498-12.143,20.282-24.741c0-0.694,0-3.062,0-4.257
		c0-0.084,0-0.178,0-0.248c0-7.114,0-14.228,0-21.338C58.885,8.135,50.909,6.706,42.935,6.706z"/>
</g>
<g id="med_blue">
	<linearGradient id="SVGID_1_" gradientUnits="userSpaceOnUse" x1="36.6484" y1="56.7109" x2="63.5834" y2="29.776">
		<stop  offset="0" style="stop-color:#1C426A"/>
		<stop  offset="0.4157" style="stop-color:#2D5E92"/>
		<stop  offset="0.7879" style="stop-color:#3973AF"/>
		<stop  offset="1" style="stop-color:#3E7BBA"/>
	</linearGradient>
	<path fill="url(#SVGID_1_)" d="M42.935,32.209c0,10.121,0,20.669,0,30.788c0,0,1.273-0.544,3.177-1.414
		c6.451-2.974,20.458-12.121,20.282-24.691c0-0.961,0-3.299,0-4.307C58.885,32.337,50.909,32.209,42.935,32.209z"/>
	<linearGradient id="SVGID_2_" gradientUnits="userSpaceOnUse" x1="19.8477" y1="32.9609" x2="44.5187" y2="8.2899">
		<stop  offset="0" style="stop-color:#34679D"/>
		<stop  offset="0.5329" style="stop-color:#3A73AF"/>
		<stop  offset="1" style="stop-color:#3E7BBA"/>
	</linearGradient>
	<path fill="url(#SVGID_2_)" d="M19.472,32.585c7.509-0.248,15.483-0.376,23.463-0.376c0-8.501,0-17.001,0-25.503
		c-7.979,0-15.954,1.429-23.463,4.293C19.472,18.195,19.472,25.39,19.472,32.585z"/>
</g>
<g id="white">
	<path fill="#FFFFFF" d="M42.935,27.113c1.592,0,3.188,0.013,4.78,0.042c0,1.689,0,3.382,0,5.07
		c-1.592-0.007-3.188-0.017-4.78-0.017C42.935,30.509,42.935,28.81,42.935,27.113z M52.473,32.275
		c1.578,0.017,3.152,0.042,4.713,0.07c0-1.605,0-3.216,0-4.817c-1.561-0.096-3.135-0.17-4.713-0.232
		C52.473,28.955,52.473,30.613,52.473,32.275z M61.834,32.448c1.537,0.044,3.058,0.085,4.559,0.137c0-1.44,0-2.877,0-4.32
		c-1.5-0.15-3.022-0.293-4.559-0.411C61.834,29.383,61.834,30.918,61.834,32.448z M47.714,27.155
		c1.591,0.034,3.181,0.077,4.759,0.141c0-1.66,0-3.318,0-4.98c-1.578-0.101-3.167-0.176-4.759-0.232
		C47.714,23.776,47.714,25.467,47.714,27.155z M57.186,27.528c1.564,0.094,3.113,0.198,4.648,0.325c0-1.538,0-3.07,0-4.604
		c-1.535-0.204-3.084-0.388-4.648-0.543C57.186,24.315,57.186,25.919,57.186,27.528z M42.935,22.009c1.592,0,3.188,0.027,4.78,0.074
		c0-1.686,0-3.375,0-5.068c-1.592-0.072-3.188-0.105-4.78-0.105C42.935,18.608,42.935,20.308,42.935,22.009z M52.473,22.315
		c1.578,0.108,3.152,0.236,4.713,0.391c0-1.602,0-3.213,0-4.816c-1.561-0.219-3.135-0.401-4.713-0.545
		C52.473,19.003,52.473,20.66,52.473,22.315z M61.834,23.249c1.537,0.21,3.058,0.447,4.559,0.7c0-1.438,0-2.88,0-4.313
		c-1.5-0.368-3.022-0.692-4.559-0.983C61.834,20.187,61.834,21.718,61.834,23.249z M47.714,17.015
		c1.591,0.074,3.181,0.184,4.759,0.332c0-1.658,0-3.319,0-4.977c-1.578-0.193-3.167-0.329-4.759-0.424
		C47.714,13.638,47.714,15.327,47.714,17.015z M57.186,17.89c1.564,0.218,3.113,0.475,4.648,0.763c0-1.531,0-3.067,0-4.599
		c-1.535-0.375-3.084-0.704-4.648-0.986C57.186,14.679,57.186,16.281,57.186,17.89z M42.935,11.803c1.592,0,3.188,0.05,4.78,0.144
		c0-1.687,0-3.381,0-5.072c-1.592-0.111-3.188-0.168-4.78-0.168C42.935,8.409,42.935,10.106,42.935,11.803z M52.473,12.37
		c1.578,0.185,3.152,0.422,4.713,0.697c0-1.602,0-3.213,0-4.814c-1.561-0.348-3.135-0.633-4.713-0.862
		C52.473,9.05,52.473,10.712,52.473,12.37z M61.834,14.054c1.537,0.371,3.058,0.794,4.559,1.262c0-1.439,0-2.875,0-4.316
		c-1.5-0.57-3.022-1.088-4.559-1.545C61.834,10.985,61.834,12.522,61.834,14.054z"/>
	<path fill="#FFFFFF" d="M28.643,32.349c-1.563,0.027-3.113,0.062-4.652,0.1c-1.523,1.563-3.031,3.045-4.519,4.412
		c-0.005,0.257,0.006,0.512,0.014,0.762c0.004,0.151,0.004,0.308,0.01,0.459c0.022,0.335,0.05,0.669,0.089,0.999
		c0.014,0.114,0.031,0.22,0.045,0.325c0.04,0.268,0.075,0.535,0.124,0.799c0.01,0.059,0.021,0.115,0.036,0.175
		c0.028,0.147,0.066,0.298,0.098,0.452C22.75,38.354,25.678,35.456,28.643,32.349z"/>
	<path fill="#FFFFFF" d="M38.133,32.226c-1.593,0.012-3.185,0.026-4.767,0.05c-4.193,4.448-8.335,8.642-12.355,11.987
		c0.469,1.081,1.022,2.117,1.655,3.113C27.693,43.246,32.893,37.823,38.133,32.226z"/>
	<path fill="#FFFFFF" d="M42.935,37.312c0-1.698,0-3.401,0-5.103c-0.007,0-0.011,0-0.015,0
		c-6.128,6.534-12.254,13.135-18.171,18.037c0.769,0.931,1.593,1.817,2.447,2.656C32.35,48.526,37.642,42.95,42.935,37.312z"/>
	<path fill="#FFFFFF" d="M42.935,47.524c0-1.701,0-3.402,0-5.106c-4.361,4.647-8.717,9.164-13,12.937
		c0.988,0.813,1.987,1.562,2.969,2.245C36.226,54.556,39.579,51.099,42.935,47.524z"/>
	<path fill="#FFFFFF" d="M42.935,57.747c0-1.7,0-3.401,0-5.107c-2.292,2.441-4.58,4.804-6.86,6.998
		c1.207,0.709,2.328,1.302,3.301,1.764c0.011,0.004,0.025,0.013,0.035,0.016C40.582,60.228,41.758,59.001,42.935,57.747z"/>
	<path fill="#FFFFFF" d="M29.727,18.145c-1.144,0.179-2.288,0.375-3.424,0.586c0.918,0.529,1.846,1.08,2.769,1.653
		c-0.352,1.207-0.708,2.408-1.061,3.599c0.926-0.833,1.851-1.669,2.779-2.506c0.929,0.603,1.86,1.224,2.792,1.864
		c-0.36-1.142-0.713-2.279-1.07-3.415c0.933-0.83,1.865-1.661,2.801-2.487c-1.156,0.111-2.31,0.248-3.461,0.403
		c-0.353-1.124-0.709-2.237-1.062-3.344C30.437,15.716,30.079,16.935,29.727,18.145z"/>
	<path fill="#FFFFFF" d="M53.19,42.292c-1.141,0.085-2.285,0.154-3.428,0.218c0.924,0.681,1.849,1.345,2.775,1.993
		c-0.354,1.195-0.707,2.396-1.06,3.6c0.926-0.805,1.85-1.609,2.768-2.413c0.922,0.627,1.844,1.241,2.76,1.831
		c-0.353-1.099-0.701-2.206-1.052-3.322c0.919-0.805,1.837-1.61,2.752-2.407c-1.133,0.118-2.267,0.231-3.403,0.331
		c-0.349-1.125-0.703-2.258-1.056-3.396C53.896,39.913,53.542,41.101,53.19,42.292z"/>
</g>
<g id="gold">
	<linearGradient id="SVGID_3_" gradientUnits="userSpaceOnUse" x1="26.6445" y1="52.3516" x2="65.6884" y2="13.3077">
		<stop  offset="0" style="stop-color:#EABA09"/>
		<stop  offset="0.492" style="stop-color:#F2C912"/>
		<stop  offset="1" style="stop-color:#F8D418"/>
	</linearGradient>
	<path fill="url(#SVGID_3_)" d="M47.714,27.155c1.591,0.034,3.181,0.077,4.759,0.141c0,1.659,0,3.317,0,4.979
		c-1.578-0.023-3.167-0.038-4.759-0.05C47.714,30.537,47.714,28.845,47.714,27.155z M57.186,32.346
		c1.564,0.03,3.113,0.064,4.648,0.103c0-1.53,0-3.065,0-4.595c-1.535-0.127-3.084-0.231-4.648-0.325
		C57.186,29.13,57.186,30.74,57.186,32.346z M42.935,27.113c1.592,0,3.188,0.013,4.78,0.042c0-1.688,0-3.379,0-5.072
		c-1.592-0.047-3.188-0.074-4.78-0.074C42.935,23.708,42.935,25.41,42.935,27.113z M52.473,27.296
		c1.578,0.062,3.152,0.137,4.713,0.232c0-1.609,0-3.213,0-4.822c-1.561-0.154-3.135-0.282-4.713-0.391
		C52.473,23.978,52.473,25.636,52.473,27.296z M61.834,27.854c1.537,0.118,3.058,0.261,4.559,0.411c0-1.435,0-2.875,0-4.315
		c-1.5-0.257-3.022-0.492-4.559-0.7C61.834,24.783,61.834,26.315,61.834,27.854z M47.714,22.083
		c1.591,0.057,3.181,0.139,4.759,0.232c0-1.655,0-3.312,0-4.969c-1.578-0.148-3.167-0.258-4.759-0.332
		C47.714,18.706,47.714,20.397,47.714,22.083z M57.186,22.706c1.564,0.155,3.113,0.339,4.648,0.543c0-1.531,0-3.062,0-4.597
		c-1.535-0.288-3.084-0.545-4.648-0.763C57.186,19.493,57.186,21.104,57.186,22.706z M42.935,16.909c1.592,0,3.188,0.033,4.78,0.105
		c0-1.688,0-3.377,0-5.068c-1.592-0.094-3.188-0.144-4.78-0.144C42.935,13.507,42.935,15.208,42.935,16.909z M52.473,17.345
		c1.578,0.144,3.152,0.326,4.713,0.545c0-1.608,0-3.211,0-4.822c-1.561-0.275-3.135-0.516-4.713-0.697
		C52.473,14.023,52.473,15.683,52.473,17.345z M61.834,18.652c1.537,0.291,3.058,0.615,4.559,0.983c0-1.44,0-2.881,0-4.323
		c-1.5-0.465-3.022-0.888-4.559-1.259C61.834,15.585,61.834,17.121,61.834,18.652z M47.714,11.946
		c1.591,0.095,3.181,0.237,4.759,0.424c0-1.658,0-3.32,0-4.979c-1.578-0.226-3.167-0.397-4.759-0.517
		C47.714,8.565,47.714,10.26,47.714,11.946z M57.186,13.067c1.564,0.282,3.113,0.611,4.648,0.986c0-1.531,0-3.068,0-4.6
		c-1.535-0.461-3.084-0.859-4.648-1.201C57.186,9.854,57.186,11.466,57.186,13.067z M19.472,36.86L19.472,36.86
		c0-0.004,0-0.013,0-0.019C19.472,36.848,19.472,36.856,19.472,36.86z M23.991,32.448c-1.523,0.044-3.031,0.085-4.519,0.137
		c0,1.195,0,3.562,0,4.257c0,0.006,0,0.015,0,0.019C20.96,35.493,22.468,34.012,23.991,32.448z M33.366,32.275
		c-1.581,0.017-3.16,0.042-4.723,0.073c-2.965,3.107-5.893,6.006-8.755,8.482c0.029,0.129,0.057,0.266,0.088,0.398
		c0.035,0.139,0.075,0.28,0.114,0.413c0.243,0.899,0.554,1.772,0.921,2.62C25.031,40.917,29.173,36.724,33.366,32.275z
		 M42.92,32.209c-1.596,0-3.195,0.01-4.787,0.017c-5.241,5.598-10.44,11.021-15.467,15.15c0.629,0.995,1.331,1.957,2.083,2.87
		C30.666,45.344,36.792,38.743,42.92,32.209z M42.935,42.418c0-1.7,0-3.405,0-5.106C37.642,42.95,32.35,48.526,27.195,52.902
		c0.887,0.87,1.807,1.687,2.74,2.452C34.218,51.589,38.574,47.065,42.935,42.418z M42.935,52.64c0-1.703,0-3.406,0-5.115
		c-3.355,3.574-6.708,7.031-10.031,10.075c1.091,0.763,2.162,1.442,3.17,2.038C38.354,57.446,40.643,55.081,42.935,52.64z
		 M39.41,61.417v0.003c0.113,0.051,0.233,0.11,0.343,0.163c1.903,0.87,3.181,1.414,3.181,1.414c0-1.605,0-3.641,0-5.25
		C41.758,59.001,40.582,60.228,39.41,61.417z"/>
</g>
<g id="kinetic_banner">
</g>
<g id="kinetic">
</g>
<g id="highlights">
	<linearGradient id="SVGID_4_" gradientUnits="userSpaceOnUse" x1="56.8281" y1="17.9023" x2="65.0683" y2="9.6622">
		<stop  offset="0.3374" style="stop-color:#FFFFFF;stop-opacity:0"/>
		<stop  offset="1" style="stop-color:#FFFFFF;stop-opacity:0.54"/>
	</linearGradient>
	<path fill="url(#SVGID_4_)" d="M61.131,14.618c5.542,6.862,5.266,12.805,5.28,12.867c0-5.491,0-10.985,0-16.48
		c-5.732-2.182-11.735-3.529-17.805-4.047C48.604,6.827,55.562,7.551,61.131,14.618z"/>
	
		<linearGradient id="SVGID_5_" gradientUnits="userSpaceOnUse" x1="0.8467" y1="17.8916" x2="9.0848" y2="9.6535" gradientTransform="matrix(-1 0 0 1 29.9023 0)">
		<stop  offset="0.3374" style="stop-color:#231F20;stop-opacity:0"/>
		<stop  offset="1" style="stop-color:#231F20;stop-opacity:0.37"/>
	</linearGradient>
	<path fill="url(#SVGID_5_)" d="M24.755,14.606c-5.545,6.867-5.266,12.803-5.284,12.869c0-5.492,0-10.984,0-16.477
		c5.733-2.182,11.735-3.533,17.803-4.055C37.278,6.818,30.319,7.538,24.755,14.606z"/>
</g>
<g id="bevel_R">
	<linearGradient id="SVGID_6_" gradientUnits="userSpaceOnUse" x1="55.5171" y1="64.8506" x2="55.5171" y2="9.8271">
		<stop  offset="0" style="stop-color:#04375C"/>
		<stop  offset="0.0887" style="stop-color:#083D64"/>
		<stop  offset="0.2209" style="stop-color:#0A3F67"/>
		<stop  offset="0.3557" style="stop-color:#144772"/>
		<stop  offset="0.6441" style="stop-color:#265584"/>
		<stop  offset="0.8528" style="stop-color:#2C5A8A"/>
		<stop  offset="0.9083" style="stop-color:#2E5D8E"/>
		<stop  offset="0.9642" style="stop-color:#32659A"/>
		<stop  offset="1" style="stop-color:#376EA6"/>
	</linearGradient>
	<path fill="url(#SVGID_6_)" d="M68.098,9.827v27.015c0.219,12.914-13.27,22.601-21.273,26.286
		c-1.932,0.891-3.226,1.435-3.226,1.435l-0.664,0.288v-1.854c0,0,1.273-0.544,3.177-1.414c6.46-2.978,20.498-12.143,20.282-24.741
		c0-0.694,0-3.062,0-4.257c0-0.084,0-0.178,0-0.248c0-7.114,0-14.228,0-21.338L68.098,9.827z"/>
</g>
<g id="bevel_L">
	<linearGradient id="SVGID_7_" gradientUnits="userSpaceOnUse" x1="30.3491" y1="64.8506" x2="30.3491" y2="9.8271">
		<stop  offset="0" style="stop-color:#003053"/>
		<stop  offset="0.1204" style="stop-color:#04365C"/>
		<stop  offset="0.4049" style="stop-color:#0C436C"/>
		<stop  offset="0.4471" style="stop-color:#0D446E"/>
		<stop  offset="0.7423" style="stop-color:#104A76"/>
		<stop  offset="0.8433" style="stop-color:#144C78"/>
		<stop  offset="0.9448" style="stop-color:#20527F"/>
		<stop  offset="1" style="stop-color:#2A5785"/>
	</linearGradient>
	<path fill="url(#SVGID_7_)" d="M19.472,10.999c0,7.11,0,14.224,0,21.338c0,0.07,0,0.164,0,0.248c0,1.195,0,3.562,0,4.257
		C19.255,49.44,33.293,58.605,39.753,61.583c1.903,0.87,3.181,1.414,3.181,1.414v1.854l-0.668-0.288c0,0-1.295-0.544-3.224-1.435
		c-8.005-3.686-21.495-13.372-21.276-26.321V9.827L19.472,10.999z"/>
</g>
<g id="bevel_top">
	<linearGradient id="SVGID_8_" gradientUnits="userSpaceOnUse" x1="30.3496" y1="22.4102" x2="55.5151" y2="-2.7553">
		<stop  offset="0" style="stop-color:#2F6092"/>
		<stop  offset="0.2644" style="stop-color:#326599"/>
		<stop  offset="0.6564" style="stop-color:#34679D"/>
		<stop  offset="0.7677" style="stop-color:#356AA1"/>
		<stop  offset="0.8797" style="stop-color:#3A72AD"/>
		<stop  offset="0.9917" style="stop-color:#4081C1"/>
		<stop  offset="1" style="stop-color:#4182C3"/>
	</linearGradient>
	<path fill="url(#SVGID_8_)" d="M17.767,9.827l1.097-0.42c7.672-2.922,15.767-4.402,24.071-4.402c8.299,0,16.395,1.48,24.065,4.402
		l1.098,0.42l-1.705,1.172c-7.508-2.864-15.484-4.293-23.458-4.293c-7.979,0-15.954,1.429-23.463,4.293L17.767,9.827z"/>
</g>
<g id="rethink_banner">
	<g>
		<g>
			<path fill="#34679D" d="M96.654,64.758c-4.642-19.364-5.512-24.224-6.382-28.43c0.218,4.206,0.218,8.921,0.218,15.521v12.909
				h-7.905V5.069h7.905v11.895c0,6.6,0,9.791-0.218,13.127c0.653-3.264,1.523-7.253,6.237-25.021h8.413l-7.905,26.617l8.63,33.071
				H96.654z"/>
			<path fill="#34679D" d="M114.132,64.758V5.069h7.905v59.688H114.132z"/>
			<path fill="#34679D" d="M146.478,64.758c-4.859-23.062-6.165-29.88-7.325-36.553c0.217,7.035,0.217,14.07,0.217,21.178v15.375
				h-6.6V5.069h9.065c3.989,25.239,4.859,31.187,5.802,37.351c-0.218-6.31-0.218-12.547-0.218-18.711V5.069h6.6v59.688H146.478z"/>
			<path fill="#34679D" d="M164.609,64.758V5.069H181v7.905h-8.485v17.406h5.367v7.905h-5.367v18.566h8.848v7.905H164.609z"/>
			<path fill="#34679D" d="M194.852,64.758V12.975h-5.802V5.069h19.437v7.905h-5.729v51.783H194.852z"/>
			<path fill="#34679D" d="M217.552,64.758V5.069h7.905v59.688H217.552z"/>
			<path fill="#34679D" d="M247.577,42.855h7.18v12.329c0,6.962-2.684,10.226-8.993,10.226c-6.455,0-9.863-3.264-9.863-10.081
				V14.716c0-6.891,3.409-10.299,9.863-10.299c6.02,0,8.993,3.264,8.993,10.153v10.589h-7.18V14.57c0-1.522-0.58-2.248-1.813-2.248
				c-1.16,0-1.813,0.726-1.813,2.248v40.687c0,1.523,0.653,2.248,1.813,2.248c1.233,0,1.813-0.725,1.813-2.248V42.855z"/>
		</g>
		<g>
			<path fill="#95ADD2" d="M281.632,64.758c-1.233-9.138-2.538-18.131-4.207-27.124c-0.435,0.072-0.87,0.072-1.305,0.072h-2.974
				v27.052h-5.512V5.069h9.065c6.89,0,10.371,2.901,10.371,10.734v11.894c0,4.352-1.451,7.253-4.424,8.775
				c1.958,9.429,3.554,19.074,5.004,28.285H281.632z M281.487,16.528c0-4.206-0.943-5.874-4.787-5.874h-3.554v22.048h3.626
				c3.409,0,4.714-1.523,4.714-4.932V16.528z"/>
			<path fill="#95ADD2" d="M297.442,64.758V5.069h15.811v5.585h-10.299v20.96h7.253v5.512h-7.253v22.192h10.661v5.439H297.442z"/>
			<path fill="#95ADD2" d="M335.881,47.062c0-3.554-0.362-4.424-1.813-6.164c-2.9-3.481-5.802-5.729-9.283-9.937
				c-1.886-2.248-1.958-4.424-1.958-7.76V14.28c0-6.672,3.046-9.863,9.283-9.863c6.6,0,9.065,3.191,9.065,9.863v10.879h-5.148
				V15.006c0-2.974-0.798-5.005-3.771-5.005c-2.684,0-3.844,1.306-3.844,4.279v8.849c0,2.466,0.217,3.336,1.305,4.642
				c2.901,3.626,5.947,6.092,9.066,9.718c2.176,2.538,2.61,4.714,2.61,9.501v8.558c0,6.31-2.684,9.863-9.283,9.863
				c-6.454,0-9.283-3.554-9.283-9.863V42.855h5.295v11.894c0,3.046,0.942,5.222,3.844,5.222c2.756,0,3.916-1.522,3.916-4.424V47.062
				z"/>
			<path fill="#95ADD2" d="M356.622,64.758V10.654h-6.672V5.069h18.784v5.585h-6.673v54.104H356.622z"/>
			<path fill="#95ADD2" d="M376.856,14.57c0-6.6,3.119-10.153,9.356-10.153c6.382,0,9.428,3.554,9.428,10.153v40.687
				c0,6.6-3.046,10.153-9.428,10.153c-6.237,0-9.356-3.554-9.356-10.153V14.57z M390.129,14.57c0-2.974-1.233-4.569-3.916-4.569
				c-2.539,0-3.845,1.596-3.845,4.569v40.687c0,3.119,1.306,4.714,3.845,4.714c2.683,0,3.916-1.595,3.916-4.714V14.57z"/>
			<path fill="#95ADD2" d="M420.371,64.758c-1.232-9.138-2.538-18.131-4.206-27.124c-0.436,0.072-0.87,0.072-1.306,0.072h-2.974
				v27.052h-5.512V5.069h9.065c6.89,0,10.371,2.901,10.371,10.734v11.894c0,4.352-1.45,7.253-4.424,8.775
				c1.958,9.429,3.554,19.074,5.004,28.285H420.371z M420.227,16.528c0-4.206-0.943-5.874-4.787-5.874h-3.554v22.048h3.626
				c3.409,0,4.715-1.523,4.715-4.932V16.528z"/>
			<path fill="#95ADD2" d="M451.267,64.758l-1.306-10.009h-8.92l-1.306,10.009h-5.367l8.195-59.688h6.455l7.76,59.688H451.267z
				 M445.609,19.067c-1.232,10.298-2.538,20.452-3.916,30.605h7.615C448.075,39.52,446.771,29.365,445.609,19.067z"/>
			<path fill="#95ADD2" d="M468.526,64.758V10.654h-6.672V5.069h18.784v5.585h-6.673v54.104H468.526z"/>
			<path fill="#95ADD2" d="M490.065,64.758V5.069h5.513v59.688H490.065z"/>
			<path fill="#95ADD2" d="M506.455,14.57c0-6.6,3.119-10.153,9.355-10.153c6.383,0,9.429,3.554,9.429,10.153v40.687
				c0,6.6-3.046,10.153-9.429,10.153c-6.236,0-9.355-3.554-9.355-10.153V14.57z M519.728,14.57c0-2.974-1.233-4.569-3.917-4.569
				c-2.538,0-3.844,1.596-3.844,4.569v40.687c0,3.119,1.306,4.714,3.844,4.714c2.684,0,3.917-1.595,3.917-4.714V14.57z"/>
			<path fill="#95ADD2" d="M550.841,64.758L540.543,21.17c0.072,8.849,0.072,17.624,0.072,26.472v17.116h-4.787V5.069h6.6
				l9.139,43.733c-0.072-8.123-0.072-16.174-0.072-24.151V5.069h4.858v59.688H550.841z"/>
		</g>
	</g>
</g>
</svg>
