<?xml version="1.0" encoding="utf-8"?>
<!-- Generator: Adobe Illustrator 15.0.0, SVG Export Plug-In . SVG Version: 6.00 Build 0)  -->
<!DOCTYPE svg PUBLIC "-//W3C//DTD SVG 1.1//EN" "http://www.w3.org/Graphics/SVG/1.1/DTD/svg11.dtd">
<svg version="1.1" xmlns="http://www.w3.org/2000/svg" xmlns:xlink="http://www.w3.org/1999/xlink" x="0px" y="0px" width="288px"
	 height="288px" viewBox="0 0 288 288" enable-background="new 0 0 288 288" xml:space="preserve">
<g id="rethink_banner_back">
</g>
<g id="background">
</g>
<g id="med_blue">
</g>
<g id="white">
</g>
<g id="gold">
</g>
<g id="kinetic_banner">
</g>
<g id="kinetic">
</g>
<g id="highlights">
</g>
<g id="bevel_R">
</g>
<g id="bevel_L">
</g>
<g id="bevel_top">
	<g>
		<path fill="#003053" stroke="#003053" stroke-width="0.1948" stroke-miterlimit="10" d="M141.26,266.295
			c0,0-5.333-2.258-13.282-5.915c-32.969-15.173-88.517-55.071-87.615-108.376V40.879l4.519-1.726
			C76.472,27.116,109.817,21.017,144,21.017c34.182,0,67.527,6.1,99.119,18.137l4.518,1.726v111.246
			c0.902,53.184-54.646,93.082-87.613,108.255c-7.953,3.657-13.284,5.915-13.284,5.915L144,267.463L141.26,266.295z M144,28.031
			c-32.843,0-65.687,5.894-96.619,17.681c0,29.288,0,58.571,0,87.86c0,0.293,0,0.681,0,1.027c0,4.925,0,14.67,0,17.521
			c-0.883,51.888,56.921,89.643,83.526,101.885c7.836,3.604,13.092,5.835,13.092,5.835s5.254-2.231,13.092-5.835
			c26.605-12.242,84.408-50.003,83.527-101.885c0-2.852,0-12.593,0-17.521c0-0.347,0-0.734,0-1.027c0-29.289,0-58.572,0-87.86
			C209.686,33.925,176.842,28.031,144,28.031z"/>
		<linearGradient id="SVGID_1_" gradientUnits="userSpaceOnUse" x1="118.1172" y1="233.959" x2="229.0446" y2="123.0316">
			<stop  offset="0" style="stop-color:#1C426A"/>
			<stop  offset="0.4157" style="stop-color:#2D5E92"/>
			<stop  offset="0.7879" style="stop-color:#3973AF"/>
			<stop  offset="1" style="stop-color:#3E7BBA"/>
		</linearGradient>
		<path fill="url(#SVGID_1_)" d="M144,133.063c0,41.679,0,85.101,0,126.777c0,0,5.254-2.231,13.092-5.835
			c26.568-12.228,84.24-49.899,83.521-101.672c0-3.953,0-13.583,0-17.734C209.686,133.575,176.842,133.063,144,133.063z"/>
		<linearGradient id="SVGID_2_" gradientUnits="userSpaceOnUse" x1="48.9312" y1="136.1494" x2="150.5242" y2="34.5563">
			<stop  offset="0" style="stop-color:#34679D"/>
			<stop  offset="0.5329" style="stop-color:#3A73AF"/>
			<stop  offset="1" style="stop-color:#3E7BBA"/>
		</linearGradient>
		<path fill="url(#SVGID_2_)" d="M47.381,134.6c30.932-1.024,63.776-1.536,96.619-1.536c0-35.014,0-70.021,0-105.032
			c-32.843,0-65.687,5.894-96.619,17.681C47.381,75.342,47.381,104.97,47.381,134.6z"/>
		<path fill="#FFFFFF" d="M144,112.056c6.568,0,13.139,0.064,19.688,0.189c0,6.96,0,13.921,0,20.882
			c-6.549-0.041-13.119-0.063-19.688-0.063C144,126.06,144,119.058,144,112.056z M183.287,133.31
			c6.506,0.079,12.982,0.187,19.414,0.309c0-6.615,0-13.233,0-19.849c-6.432-0.377-12.908-0.696-19.414-0.953
			C183.287,119.647,183.287,126.479,183.287,133.31z M221.846,134.048c6.322,0.164,12.586,0.347,18.773,0.552
			c0-5.925,0-11.851,0-17.779c-6.188-0.633-12.451-1.206-18.773-1.713C221.846,121.417,221.846,127.733,221.846,134.048z
			 M163.688,112.245c6.562,0.13,13.1,0.319,19.607,0.575c0-6.834,0-13.662,0-20.494c-6.508-0.425-13.045-0.746-19.607-0.959
			C163.688,98.324,163.688,105.285,163.688,112.245z M202.701,113.77c6.43,0.382,12.818,0.829,19.145,1.338
			c0-6.313,0-12.632,0-18.944c-6.326-0.853-12.715-1.598-19.145-2.238C202.701,100.538,202.701,107.152,202.701,113.77z M144,91.049
			c6.568,0,13.139,0.109,19.688,0.322c0-6.96,0-13.917,0-20.882c-6.549-0.296-13.119-0.449-19.688-0.449
			C144,77.044,144,84.047,144,91.049z M183.287,92.33c6.506,0.427,12.982,0.96,19.414,1.6c0-6.615,0-13.229,0-19.847
			c-6.432-0.896-12.908-1.645-19.414-2.246C183.287,78.667,183.287,85.498,183.287,92.33z M221.846,96.166
			c6.322,0.855,12.586,1.815,18.773,2.883c0-5.93,0-11.855,0-17.781c-6.188-1.5-12.451-2.843-18.773-4.042
			C221.846,83.54,221.846,89.854,221.846,96.166z M163.688,70.489c6.562,0.301,13.1,0.749,19.607,1.351c0-6.83,0-13.662,0-20.492
			c-6.508-0.772-13.045-1.349-19.607-1.735C163.688,56.573,163.688,63.533,163.688,70.489z M202.701,74.083
			c6.43,0.898,12.818,1.949,19.145,3.143c0-6.312,0-12.627,0-18.94c-6.326-1.541-12.715-2.892-19.145-4.05
			C202.701,60.85,202.701,67.468,202.701,74.083z M144,49.037c6.568,0,13.139,0.197,19.688,0.579c0-6.961,0-13.917,0-20.879
			c-6.549-0.47-13.119-0.706-19.688-0.706C144,35.033,144,42.036,144,49.037z M183.287,51.352
			c6.506,0.772,12.982,1.732,19.414,2.888c0-6.609,0-13.228,0-19.842c-6.432-1.419-12.908-2.597-19.414-3.535
			C183.287,37.692,183.287,44.52,183.287,51.352z M221.846,58.289c6.322,1.542,12.586,3.272,18.773,5.202c0-5.928,0-11.852,0-17.779
			c-6.188-2.358-12.451-4.479-18.773-6.363C221.846,45.658,221.846,51.977,221.846,58.289z"/>
		<path fill="#FFFFFF" d="M85.157,133.621c-6.436,0.123-12.829,0.267-19.158,0.431c-6.27,6.421-12.482,12.518-18.613,18.172
			c-0.018,1.051,0.024,2.085,0.054,3.121c0.019,0.63,0.019,1.271,0.053,1.892c0.08,1.381,0.202,2.756,0.362,4.118
			c0.053,0.451,0.125,0.894,0.187,1.342c0.151,1.104,0.311,2.201,0.509,3.281c0.045,0.239,0.092,0.476,0.138,0.71
			c0.12,0.63,0.277,1.238,0.414,1.863C60.887,158.355,72.939,146.419,85.157,133.621z"/>
		<path fill="#FFFFFF" d="M124.237,133.127c-6.565,0.041-13.111,0.106-19.63,0.183c-17.275,18.344-34.327,35.608-50.877,49.39
			c1.922,4.434,4.213,8.707,6.809,12.816C81.241,178.506,102.654,156.179,124.237,133.127z"/>
		<path fill="#FFFFFF" d="M144,154.066c0-7.003,0-14.005,0-21.003c-0.02,0-0.04,0-0.054,0
			c-25.235,26.901-50.461,54.083-74.826,74.267c3.166,3.836,6.553,7.482,10.068,10.937C100.422,200.251,122.208,177.292,144,154.066
			z"/>
		<path fill="#FFFFFF" d="M144,196.135c0-7.016,0-14.021,0-21.035c-17.948,19.132-35.891,37.75-53.53,53.268
			c4.072,3.34,8.185,6.438,12.238,9.26C116.377,225.072,130.188,210.854,144,196.135z"/>
		<path fill="#FFFFFF" d="M144,238.231c0-7.013,0-14.027,0-21.041c-9.427,10.049-18.854,19.772-28.234,28.815
			c4.966,2.927,9.574,5.355,13.583,7.263c0.049,0.019,0.098,0.04,0.143,0.059C134.322,248.438,139.163,243.389,144,238.231z"/>
		<linearGradient id="SVGID_3_" gradientUnits="userSpaceOnUse" x1="76.916" y1="215.9941" x2="237.7037" y2="55.2064">
			<stop  offset="0" style="stop-color:#EABA09"/>
			<stop  offset="0.492" style="stop-color:#F2C912"/>
			<stop  offset="1" style="stop-color:#F8D418"/>
		</linearGradient>
		<path fill="url(#SVGID_3_)" d="M163.688,112.245c6.562,0.13,13.1,0.319,19.607,0.575c0,6.827,0,13.663,0,20.489
			c-6.508-0.083-13.045-0.144-19.607-0.183C163.688,126.164,163.688,119.205,163.688,112.245z M202.701,133.618
			c6.43,0.12,12.818,0.267,19.145,0.43c0-6.314,0-12.631,0-18.94c-6.326-0.509-12.715-0.956-19.145-1.338
			C202.701,120.385,202.701,127.003,202.701,133.618z M144,112.056c6.568,0,13.139,0.064,19.688,0.189c0-6.96,0-13.921,0-20.878
			c-6.549-0.212-13.119-0.321-19.688-0.321C144,98.05,144,105.053,144,112.056z M183.287,112.816
			c6.506,0.257,12.982,0.576,19.414,0.953c0-6.617,0-13.231,0-19.845c-6.432-0.643-12.908-1.177-19.414-1.599
			C183.287,99.154,183.287,105.988,183.287,112.816z M221.846,115.107c6.322,0.507,12.586,1.08,18.773,1.713
			c0-5.925,0-11.851,0-17.775c-6.188-1.071-12.451-2.029-18.773-2.882C221.846,102.476,221.846,108.794,221.846,115.107z
			 M163.688,91.371c6.562,0.209,13.1,0.533,19.607,0.959c0-6.825,0-13.663,0-20.49c-6.508-0.602-13.045-1.05-19.607-1.351
			C163.688,77.45,163.688,84.411,163.688,91.371z M202.701,93.93c6.43,0.638,12.818,1.385,19.145,2.236c0-6.312,0-12.626,0-18.94
			c-6.326-1.193-12.715-2.244-19.145-3.143C202.701,80.701,202.701,87.314,202.701,93.93z M144,70.04
			c6.568,0,13.139,0.153,19.688,0.449c0-6.956,0-13.916,0-20.877c-6.549-0.384-13.119-0.579-19.688-0.579
			C144,56.037,144,63.039,144,70.04z M183.287,71.837c6.506,0.602,12.982,1.351,19.414,2.246c0-6.615,0-13.233,0-19.848
			c-6.432-1.151-12.908-2.118-19.414-2.888C183.287,58.175,183.287,65.007,183.287,71.837z M221.846,77.226
			c6.322,1.199,12.586,2.542,18.773,4.042c0-5.93,0-11.851,0-17.78c-6.188-1.928-12.451-3.66-18.773-5.202
			C221.846,64.599,221.846,70.914,221.846,77.226z M163.688,49.616c6.562,0.388,13.1,0.962,19.607,1.735c0-6.832,0-13.659,0-20.489
			c-6.508-0.944-13.045-1.652-19.607-2.125C163.688,35.699,163.688,42.655,163.688,49.616z M202.701,54.239
			c6.43,1.161,12.818,2.505,19.145,4.05c0-6.312,0-12.631,0-18.94c-6.326-1.888-12.715-3.539-19.145-4.951
			C202.701,41.012,202.701,47.63,202.701,54.239z M47.381,152.227l0.004-0.003c0-0.033-0.004-0.069-0.004-0.103
			C47.381,152.152,47.381,152.198,47.381,152.227z M65.999,134.052c-6.27,0.16-12.482,0.347-18.617,0.548c0,4.925,0,14.67,0,17.521
			c0,0.033,0.004,0.069,0.004,0.103C53.517,146.569,59.729,140.473,65.999,134.052z M104.607,133.31
			c-6.519,0.084-13.007,0.187-19.45,0.312c-12.217,12.798-24.27,24.734-36.055,34.93c0.123,0.546,0.236,1.103,0.369,1.652
			c0.136,0.576,0.305,1.139,0.452,1.712c1.006,3.691,2.288,7.287,3.806,10.784C70.28,168.918,87.332,151.653,104.607,133.31z
			 M143.946,133.063c-6.576,0-13.148,0.022-19.708,0.063c-21.583,23.052-42.996,45.379-63.699,62.389
			c2.594,4.107,5.48,8.05,8.582,11.814C93.484,187.146,118.711,159.965,143.946,133.063z M144,175.1c0-7.01,0-14.023,0-21.033
			c-21.792,23.226-43.578,46.185-64.812,64.2c3.651,3.585,7.445,6.95,11.282,10.101C108.109,212.854,126.052,194.227,144,175.1z
			 M144,217.19c0-7.019,0-14.039,0-21.056c-13.812,14.72-27.623,28.938-41.292,41.492c4.491,3.131,8.891,5.924,13.058,8.379
			C125.146,236.967,134.573,227.239,144,217.19z M129.491,253.327l0.004,0.014c0.473,0.221,0.96,0.456,1.412,0.665
			c7.836,3.604,13.092,5.835,13.092,5.835c0-6.617,0-14.982,0-21.609C139.163,243.389,134.322,248.438,129.491,253.327z"/>
		<linearGradient id="SVGID_4_" gradientUnits="userSpaceOnUse" x1="144.0308" y1="317.2051" x2="144.0307" y2="-53.0079">
			<stop  offset="0" style="stop-color:#002141"/>
			<stop  offset="0.0359" style="stop-color:#002243"/>
			<stop  offset="0.5031" style="stop-color:#003053"/>
			<stop  offset="0.5671" style="stop-color:#013256"/>
			<stop  offset="0.8528" style="stop-color:#05395E"/>
			<stop  offset="0.9222" style="stop-color:#073C62"/>
			<stop  offset="0.9919" style="stop-color:#0D456E"/>
			<stop  offset="1" style="stop-color:#0E4670"/>
		</linearGradient>
		<path fill="url(#SVGID_4_)" d="M240.689,58.274c-64.338,12.949-128.969,34.007-193.308,53.96c0,7.111,0,14.227,0,21.338
			c0,0.293,0,0.681,0,1.027c0,4.925,0,14.67,0,17.521c-0.266,15.767,4.902,30.216,12.947,43.053
			c60.061-14.742,120.343-34.094,180.361-50.755C240.689,115.705,240.689,86.987,240.689,58.274z"/>
		<g>
			<g>
				<path fill="#34679D" d="M84.841,174.327c-3.509-9.822-7.02-19.599-10.526-29.308c3.318-11.158,6.636-22.385,9.956-33.668
					c-2.751,0.842-5.499,1.677-8.247,2.519c-1.286,1.716-2.573,3.429-3.863,5.138c-0.889,3.171-1.787,6.337-2.683,9.496
					c0-4.213,0-8.421,0-12.635c-2.606,0.793-5.213,1.587-7.819,2.378c-1.287,1.697-2.573,3.397-3.856,5.092
					c0,20.681,0,41.363,0,62.045c2.604-0.655,5.21-1.32,7.817-1.993c1.286-1.642,2.572-3.294,3.858-4.95c0-2.085,0-4.175,0-6.259
					c1.062,3.119,2.121,6.248,3.179,9.381c2.773-0.728,5.548-1.466,8.322-2.207C82.268,177.683,83.555,176.005,84.841,174.327z"/>
				<path fill="#34679D" d="M100.341,170.049c0-21.201,0-42.396,0-63.6c-2.606,0.795-5.213,1.588-7.821,2.383
					c-1.29,1.727-2.575,3.453-3.861,5.175c0,21.093,0,42.183,0,63.273c2.607-0.707,5.213-1.423,7.819-2.147
					C97.769,173.44,99.055,171.752,100.341,170.049z"/>
				<path fill="#34679D" d="M106.727,108.538c0,21.246,0,42.494,0,63.746c2.421-0.683,4.841-1.362,7.261-2.049
					c1.287-1.712,2.577-3.425,3.864-5.139c0-0.928,0-1.855,0-2.783c0.372,2.168,0.745,4.334,1.114,6.502
					c2.943-0.84,5.889-1.685,8.83-2.528c1.287-1.722,2.576-3.441,3.864-5.16c0-21.367,0-42.728,0-64.092
					c-2.417,0.715-4.838,1.435-7.258,2.155c-1.287,1.735-2.576,3.47-3.863,5.2c0,0.897,0,1.801,0,2.697
					c-0.372-2.13-0.745-4.268-1.118-6.399c-2.946,0.884-5.889,1.765-8.827,2.656C109.303,105.075,108.017,106.808,106.727,108.538z"
					/>
				<path fill="#34679D" d="M138.047,99.204c0,21.371,0,42.748,0,64.121c5.53-1.603,11.054-3.216,16.585-4.825
					c1.291-1.729,2.576-3.452,3.867-5.18c0-2.828,0-5.658,0-8.487c-2.918,0.845-5.844,1.698-8.762,2.547c0-5.294,0-10.591,0-15.887
					c0.373-0.11,0.748-0.215,1.125-0.325c1.281-1.721,2.576-3.445,3.859-5.165c0-2.831,0-5.663,0-8.493
					c-1.66,0.479-3.32,0.957-4.984,1.438c0-4.882,0-9.765,0-14.647c1.633-0.472,3.268-0.94,4.895-1.407
					c1.291-1.723,2.576-3.438,3.867-5.155c0-2.83,0-5.658,0-8.489c-5.531,1.567-11.061,3.159-16.59,4.771
					C140.624,95.748,139.333,97.477,138.047,99.204z"/>
				<path fill="#34679D" d="M161.959,92.316c0,2.83,0,5.657,0,8.485c1.898-0.536,3.793-1.074,5.691-1.604
					c0,18.499,0,36.997,0,55.496c2.611-0.756,5.223-1.519,7.834-2.279c1.285-1.72,2.574-3.441,3.863-5.152
					c0-17.103,0-34.202,0-51.305c0.611-0.163,1.219-0.331,1.834-0.497c1.285-1.694,2.574-3.383,3.861-5.067c0-2.812,0-5.623,0-8.436
					c-6.402,1.7-12.814,3.447-19.223,5.232C164.535,88.897,163.244,90.606,161.959,92.316z"/>
				<path fill="#34679D" d="M189.361,84.828c0,21.188,0,42.369,0,63.556c2.607-0.749,5.217-1.503,7.826-2.252
					c1.285-1.703,2.572-3.403,3.863-5.101c0-21.07,0-42.143,0-63.215c-2.611,0.655-5.219,1.32-7.832,1.993
					C191.938,81.477,190.646,83.151,189.361,84.828z"/>
				<path fill="#34679D" d="M230.191,91.733c0-2.191,0-4.385,0-6.576c0.002-9.502-3.102-13.592-9.307-12.156
					c-3.656,0.85-6.24,3.087-7.809,6.626c-3.752,2.638-5.654,7.665-5.65,15.075c0,11.332,0,22.669,0,34.004
					c0,9.678,3.199,13.591,9.598,11.788c3.533-0.994,6.025-3.288,7.543-6.792c3.74-2.692,5.625-7.678,5.625-15.055
					c0-2.844,0-5.682,0-8.521c-2.51,0.634-5.023,1.277-7.529,1.932c-1.188,1.614-2.369,3.243-3.555,4.872c0-6.181,0-12.361,0-18.542
					c2.41-0.609,4.818-1.205,7.227-1.796C227.623,94.969,228.906,93.347,230.191,91.733z"/>
			</g>
			<g>
				<path fill="#FFFFFF" d="M61.657,180.476c0-20.743,0-41.487,0-62.229c2.606-0.791,5.213-1.585,7.819-2.378
					c0,7.06,0,14.121,0,21.185c2.181-7.698,4.367-15.428,6.546-23.184c2.748-0.842,5.496-1.677,8.247-2.519
					c-3.319,11.279-6.637,22.51-9.956,33.668c3.507,9.709,7.018,19.485,10.526,29.308c-2.774,0.754-5.549,1.503-8.322,2.246
					c-2.349-6.946-4.693-13.865-7.042-20.748c0,7.538,0,15.076,0,22.615C66.871,179.127,64.264,179.804,61.657,180.476z"/>
				<path fill="#FFFFFF" d="M92.52,172.222c0-21.133,0-42.261,0-63.39c2.608-0.795,5.215-1.59,7.821-2.383c0,21.203,0,42.398,0,63.6
					C97.734,170.779,95.128,171.503,92.52,172.222z"/>
				<path fill="#FFFFFF" d="M119.133,142.149c-0.425-3.189-0.856-6.374-1.282-9.563c0,10.84,0,21.674,0,32.511
					c-2.421,0.689-4.841,1.382-7.258,2.068c-0.004-21.272-0.004-42.546,0-63.82c2.938-0.892,5.88-1.772,8.827-2.656
					c1.255,7.196,2.514,14.403,3.772,21.616c0.401,3.121,0.805,6.24,1.209,9.364c0-10.827,0-21.65,0-32.479
					c2.42-0.721,4.841-1.44,7.258-2.155c0,21.364,0,42.725,0,64.092c-2.943,0.852-5.885,1.694-8.827,2.541
					C121.6,156.488,120.367,149.316,119.133,142.149z"/>
				<path fill="#FFFFFF" d="M149.738,127.443c0,6.643,0,13.286,0,19.937c2.918-0.849,5.844-1.702,8.762-2.547
					c0,2.829,0,5.659,0,8.487c-5.531,1.612-11.061,3.223-16.59,4.832c0-21.38,0-42.753,0-64.133
					c5.529-1.612,11.059-3.207,16.59-4.771c0,2.831,0,5.659,0,8.489c-2.918,0.83-5.844,1.669-8.762,2.511c0,6.231,0,12.466,0,18.699
					c1.664-0.48,3.324-0.959,4.984-1.438c0,2.83,0,5.662,0,8.493C153.062,126.483,151.402,126.961,149.738,127.443z"/>
				<path fill="#FFFFFF" d="M165.82,87.189c6.408-1.785,12.82-3.532,19.223-5.232c0,2.812,0,5.624,0,8.436
					c-1.9,0.508-3.797,1.021-5.695,1.538c0,18.442,0,36.888,0,55.331c-2.611,0.752-5.223,1.514-7.832,2.272
					c0-18.484,0-36.97,0-55.452c-1.895,0.525-3.795,1.058-5.695,1.59C165.82,92.845,165.82,90.018,165.82,87.189z"/>
				<path fill="#FFFFFF" d="M193.219,143.262c0-21.148,0-42.301,0-63.452c2.613-0.673,5.221-1.338,7.832-1.993
					c0,21.072,0,42.145,0,63.215C198.439,141.773,195.832,142.516,193.219,143.262z"/>
				<path fill="#FFFFFF" d="M222.662,112.059c2.506-0.654,5.02-1.298,7.529-1.932c0,2.839,0,5.677,0,8.521
					c0.002,9.517-3.102,15.104-9.307,16.819c-6.398,1.783-9.6-2.143-9.6-11.795c0-11.308,0-22.62,0-33.929
					c0-9.647,3.201-15.257,9.6-16.742c6.205-1.43,9.309,2.649,9.307,12.156c0,2.191,0,4.385,0,6.576
					c-2.51,0.597-5.023,1.207-7.529,1.823c0-3.452,0-6.912,0-10.367c-0.004-1.558-0.592-2.191-1.777-1.91
					c-1.186,0.28-1.779,1.203-1.777,2.762c0,13.766,0,27.53,0,41.3c-0.002,1.557,0.592,2.173,1.777,1.849
					c1.186-0.319,1.777-1.26,1.777-2.808C222.662,120.274,222.662,116.166,222.662,112.059z"/>
			</g>
		</g>
		<path fill="#FFFFFF" d="M94.979,44.928c1.153,3.501,2.306,7.032,3.46,10.59c3.745-0.517,7.497-0.968,11.261-1.356
			c-3.046,2.644-6.082,5.309-9.115,7.976c1.161,3.589,2.32,7.196,3.481,10.831c-3.036-2.018-6.066-3.98-9.087-5.869
			c-3.024,2.683-6.039,5.362-9.045,8.037c1.148-3.797,2.298-7.618,3.448-11.454c-3.01-1.795-6.013-3.517-9.004-5.152
			c3.695-0.724,7.41-1.382,11.139-1.981C92.669,52.69,93.822,48.818,94.979,44.928z"/>
		<path fill="#FFFFFF" d="M187.057,178.147c1.158,3.547,2.318,7.073,3.475,10.573c3.742-0.667,7.467-1.381,11.182-2.128
			c-3.002,2.859-6.018,5.724-9.041,8.593c1.154,3.476,2.303,6.923,3.459,10.348c-3.02-1.603-6.047-3.277-9.074-5.009
			c-3.033,2.874-6.072,5.75-9.115,8.616c1.16-3.979,2.322-7.942,3.484-11.896c-3.045-1.808-6.09-3.664-9.143-5.57
			c3.775-0.544,7.537-1.128,11.295-1.747C184.738,185.984,185.898,182.055,187.057,178.147z"/>
		<linearGradient id="SVGID_5_" gradientUnits="userSpaceOnUse" x1="201.2256" y1="74.1338" x2="235.1491" y2="40.2103">
			<stop  offset="0.3374" style="stop-color:#FFFFFF;stop-opacity:0"/>
			<stop  offset="1" style="stop-color:#FFFFFF;stop-opacity:0.54"/>
		</linearGradient>
		<path fill="url(#SVGID_5_)" d="M218.93,60.615c22.838,28.261,21.695,52.724,21.76,52.981c0-22.618,0-45.229,0-67.847
			c-23.613-8.993-48.332-14.553-73.318-16.686C167.355,28.528,196.014,31.505,218.93,60.615z"/>
		
			<linearGradient id="SVGID_6_" gradientUnits="userSpaceOnUse" x1="-344.9482" y1="74.0967" x2="-311.0251" y2="40.1735" gradientTransform="matrix(-1 0 0 1 -258.0977 0)">
			<stop  offset="0.3374" style="stop-color:#231F20;stop-opacity:0"/>
			<stop  offset="1" style="stop-color:#231F20;stop-opacity:0.37"/>
		</linearGradient>
		<path fill="url(#SVGID_6_)" d="M69.146,60.576c-22.84,28.27-21.687,52.712-21.757,52.982c0-22.617,0-45.23,0-67.847
			c23.608-8.993,48.329-14.553,73.312-16.684C120.717,28.491,92.067,31.466,69.146,60.576z"/>
		<linearGradient id="SVGID_7_" gradientUnits="userSpaceOnUse" x1="195.8232" y1="267.4629" x2="195.8232" y2="40.8789">
			<stop  offset="0" style="stop-color:#04375C"/>
			<stop  offset="0.0887" style="stop-color:#083D64"/>
			<stop  offset="0.2209" style="stop-color:#0A3F67"/>
			<stop  offset="0.3557" style="stop-color:#144772"/>
			<stop  offset="0.6441" style="stop-color:#265584"/>
			<stop  offset="0.8528" style="stop-color:#2C5A8A"/>
			<stop  offset="0.9083" style="stop-color:#2E5D8E"/>
			<stop  offset="0.9642" style="stop-color:#32659A"/>
			<stop  offset="1" style="stop-color:#376EA6"/>
		</linearGradient>
		<path fill="url(#SVGID_7_)" d="M247.637,40.879v111.246c0.902,53.184-54.646,93.082-87.613,108.255
			c-7.953,3.657-13.284,5.915-13.284,5.915L144,267.463v-7.622c0,0,5.254-2.231,13.092-5.835
			c26.605-12.242,84.408-50.003,83.527-101.885c0-2.852,0-12.593,0-17.521c0-0.347,0-0.734,0-1.027c0-29.289,0-58.572,0-87.86
			L247.637,40.879z"/>
		<linearGradient id="SVGID_8_" gradientUnits="userSpaceOnUse" x1="92.1763" y1="267.4629" x2="92.1763" y2="40.8789">
			<stop  offset="0" style="stop-color:#003053"/>
			<stop  offset="0.1204" style="stop-color:#04365C"/>
			<stop  offset="0.4049" style="stop-color:#0C436C"/>
			<stop  offset="0.4471" style="stop-color:#0D446E"/>
			<stop  offset="0.7423" style="stop-color:#104A76"/>
			<stop  offset="0.8433" style="stop-color:#144C78"/>
			<stop  offset="0.9448" style="stop-color:#20527F"/>
			<stop  offset="1" style="stop-color:#2A5785"/>
		</linearGradient>
		<path fill="url(#SVGID_8_)" d="M47.381,45.712c0,29.288,0,58.571,0,87.86c0,0.293,0,0.681,0,1.027c0,4.925,0,14.67,0,17.521
			c-0.883,51.888,56.921,89.643,83.526,101.885c7.836,3.604,13.092,5.835,13.092,5.835v7.622l-2.74-1.168
			c0,0-5.333-2.258-13.282-5.915c-32.969-15.173-88.517-55.071-87.615-108.376V40.879L47.381,45.712z"/>
		<linearGradient id="SVGID_9_" gradientUnits="userSpaceOnUse" x1="92.1816" y1="92.6973" x2="195.8184" y2="-10.9395">
			<stop  offset="0" style="stop-color:#2F6092"/>
			<stop  offset="0.2644" style="stop-color:#326599"/>
			<stop  offset="0.6564" style="stop-color:#34679D"/>
			<stop  offset="0.7677" style="stop-color:#356AA1"/>
			<stop  offset="0.8797" style="stop-color:#3A72AD"/>
			<stop  offset="0.9917" style="stop-color:#4081C1"/>
			<stop  offset="1" style="stop-color:#4182C3"/>
		</linearGradient>
		<path fill="url(#SVGID_9_)" d="M40.363,40.879l4.519-1.726C76.472,27.116,109.817,21.017,144,21.017
			c34.182,0,67.527,6.1,99.119,18.137l4.518,1.726l-7.018,4.833C209.686,33.925,176.842,28.031,144,28.031
			c-32.843,0-65.687,5.894-96.619,17.681L40.363,40.879z"/>
	</g>
</g>
<g id="rethink_banner">
</g>
</svg>
