<?xml version="1.0" encoding="utf-8"?>
<!-- Generator: Adobe Illustrator 15.0.0, SVG Export Plug-In . SVG Version: 6.00 Build 0)  -->
<!DOCTYPE svg PUBLIC "-//W3C//DTD SVG 1.1//EN" "http://www.w3.org/Graphics/SVG/1.1/DTD/svg11.dtd">
<svg version="1.1" xmlns="http://www.w3.org/2000/svg" xmlns:xlink="http://www.w3.org/1999/xlink" x="0px" y="0px" width="288px"
	 height="288px" viewBox="0 0 288 288" enable-background="new 0 0 288 288" xml:space="preserve">
<g id="rethink_banner_back">
</g>
<g id="background">
</g>
<g id="med_blue">
</g>
<g id="white">
</g>
<g id="gold">
</g>
<g id="kinetic_banner">
</g>
<g id="kinetic">
</g>
<g id="highlights">
</g>
<g id="bevel_R">
</g>
<g id="bevel_L">
</g>
<g id="bevel_top">
</g>
<g id="rethink_banner">
	<g opacity="0.2">
		<path fill="#FFFFFF" stroke="#FFFFFF" stroke-width="0.1939" stroke-miterlimit="10" d="M142.036,265.58
			c0,0-5.311-2.25-13.22-5.891c-32.813-15.097-88.095-54.813-87.205-107.865V41.22l4.496-1.715
			c31.447-11.979,64.634-18.052,98.657-18.052c34.023,0,67.211,6.073,98.652,18.052l4.496,1.715v110.728
			c0.896,52.929-54.389,92.646-87.199,107.742c-7.916,3.641-13.229,5.891-13.229,5.891l-2.721,1.165L142.036,265.58z
			 M144.764,28.433c-32.69,0-65.372,5.867-96.165,17.603c0,29.147,0,58.294,0,87.448c0,0.288,0,0.671,0,1.021
			c0,4.899,0,14.6,0,17.435c-0.878,51.641,56.654,89.223,83.135,101.41c7.795,3.587,13.029,5.804,13.029,5.804
			s5.229-2.217,13.023-5.804c26.484-12.188,84.02-49.77,83.135-101.41c0-2.835,0-12.527,0-17.435c0-0.351,0-0.733,0-1.021
			c0-29.154,0-58.301,0-87.448C210.139,34.3,177.449,28.433,144.764,28.433z"/>
		<path fill="#FFFFFF" d="M144.764,112.063c6.527,0,13.07,0.068,19.59,0.19c0,6.927,0,13.854,0,20.779
			c-6.52-0.037-13.062-0.059-19.59-0.059C144.764,126,144.764,119.036,144.764,112.063z M183.861,133.218
			c6.48,0.082,12.924,0.189,19.326,0.313c0-6.585,0-13.177,0-19.761c-6.402-0.374-12.846-0.693-19.326-0.952
			C183.861,119.621,183.861,126.42,183.861,133.218z M222.236,133.956c6.295,0.161,12.529,0.343,18.686,0.549
			c0-5.897,0-11.796,0-17.694c-6.156-0.633-12.391-1.205-18.686-1.706C222.236,121.383,222.236,127.67,222.236,133.956z
			 M164.354,112.254c6.531,0.13,13.041,0.321,19.516,0.572c0-6.805,0-13.595,0-20.398c-6.475-0.421-12.984-0.738-19.516-0.956
			C164.354,98.4,164.354,105.326,164.354,112.254z M203.188,113.771c6.4,0.382,12.758,0.822,19.049,1.334c0-6.287,0-12.576,0-18.86
			c-6.291-0.847-12.648-1.585-19.049-2.226C203.188,100.604,203.188,107.187,203.188,113.771z M144.764,91.154
			c6.527,0,13.07,0.114,19.59,0.325c0-6.933,0-13.852,0-20.787c-6.52-0.295-13.062-0.44-19.59-0.44
			C144.764,77.216,144.764,84.188,144.764,91.154z M183.861,92.436c6.48,0.417,12.924,0.95,19.326,1.591c0-6.584,0-13.167,0-19.758
			c-6.402-0.885-12.846-1.633-19.326-2.233C183.861,78.832,183.861,85.638,183.861,92.436z M222.236,96.252
			c6.295,0.854,12.529,1.806,18.686,2.864c0-5.897,0-11.795,0-17.692c-6.156-1.495-12.391-2.836-18.686-4.023
			C222.236,83.687,222.236,89.966,222.236,96.252z M164.354,70.692c6.531,0.298,13.041,0.749,19.516,1.351
			c0-6.805,0-13.602,0-20.399c-6.475-0.769-12.984-1.341-19.516-1.729C164.354,56.841,164.354,63.775,164.354,70.692z
			 M203.188,74.269c6.4,0.898,12.758,1.942,19.049,3.132c0-6.287,0-12.567,0-18.854c-6.291-1.529-12.648-2.88-19.049-4.029
			C203.188,61.1,203.188,67.691,203.188,74.269z M144.764,49.344c6.527,0,13.07,0.197,19.59,0.578c0-6.928,0-13.854,0-20.78
			c-6.52-0.474-13.062-0.709-19.59-0.709C144.764,35.405,144.764,42.377,144.764,49.344z M183.861,51.644
			c6.48,0.77,12.924,1.722,19.326,2.88c0-6.582,0-13.169,0-19.751c-6.402-1.417-12.846-2.584-19.326-3.521
			C183.861,38.048,183.861,44.846,183.861,51.644z M222.236,58.547c6.295,1.54,12.529,3.264,18.686,5.182c0-5.896,0-11.795,0-17.693
			c-6.156-2.346-12.391-4.457-18.686-6.334C222.236,45.982,222.236,52.268,222.236,58.547z"/>
		<g>
			<path fill="#FFFFFF" d="M86.196,133.531c-6.41,0.118-12.765,0.266-19.064,0.425c-6.243,6.394-12.429,12.461-18.524,18.091
				c-0.024,1.045,0.014,2.07,0.046,3.1c0.021,0.635,0.021,1.268,0.06,1.883c0.077,1.381,0.197,2.744,0.356,4.102
				c0.056,0.447,0.123,0.89,0.184,1.34c0.152,1.098,0.312,2.188,0.51,3.262c0.046,0.237,0.094,0.471,0.139,0.708
				c0.121,0.625,0.274,1.233,0.41,1.853C62.047,158.142,74.042,146.27,86.196,133.531z"/>
			<path fill="#FFFFFF" d="M125.096,133.033c-6.537,0.045-13.052,0.107-19.538,0.185c-17.191,18.257-34.168,35.439-50.644,49.156
				c1.92,4.412,4.192,8.673,6.784,12.756C82.301,178.198,103.608,155.979,125.096,133.033z"/>
			<path fill="#FFFFFF" d="M144.764,153.875c0-6.965,0-13.937,0-20.9c-0.023,0-0.038,0-0.053,0
				c-25.117,26.775-50.233,53.827-74.479,73.913c3.154,3.818,6.522,7.446,10.028,10.893
				C101.39,199.848,123.069,176.993,144.764,153.875z"/>
			<path fill="#FFFFFF" d="M144.764,195.747c0-6.979,0-13.952,0-20.932c-17.868,19.035-35.723,37.567-53.279,53.014
				c4.054,3.328,8.145,6.406,12.184,9.211C117.271,224.552,131.018,210.404,144.764,195.747z"/>
			<path fill="#FFFFFF" d="M144.764,237.652c0-6.988,0-13.971,0-20.948c-9.381,10.005-18.768,19.681-28.103,28.682
				c4.946,2.909,9.532,5.324,13.518,7.226c0.053,0.019,0.1,0.045,0.146,0.058C135.132,247.808,139.948,242.779,144.764,237.652z"/>
		</g>
		<path fill="#FFFFFF" d="M90.639,75.328c-4.687,0.723-9.38,1.523-14.037,2.391c3.764,2.165,7.557,4.428,11.348,6.783
			c-1.441,4.937-2.896,9.859-4.354,14.751c3.797-3.413,7.591-6.851,11.399-10.278c3.812,2.468,7.621,5.022,11.44,7.649
			c-1.473-4.686-2.919-9.364-4.381-13.997c3.815-3.414,7.65-6.821,11.476-10.211c-4.741,0.471-9.474,1.029-14.176,1.654
			c-1.454-4.594-2.908-9.168-4.358-13.694C93.549,65.376,92.086,70.359,90.639,75.328z"/>
		<path fill="#FFFFFF" d="M186.803,174.281c-4.678,0.352-9.354,0.64-14.057,0.892c3.793,2.79,7.59,5.52,11.375,8.186
			c-1.445,4.897-2.881,9.814-4.326,14.751c3.785-3.291,7.576-6.59,11.338-9.896c3.777,2.582,7.541,5.089,11.307,7.512
			c-1.439-4.511-2.865-9.054-4.311-13.624c3.771-3.294,7.521-6.585,11.277-9.86c-4.633,0.494-9.283,0.944-13.945,1.356
			c-1.441-4.61-2.881-9.251-4.328-13.915C189.691,164.527,188.242,169.396,186.803,174.281z"/>
		<path fill="none" d="M164.354,112.254c6.531,0.13,13.041,0.321,19.516,0.572c0,6.795,0,13.602,0,20.392
			c-6.475-0.085-12.984-0.146-19.516-0.185C164.354,126.107,164.354,119.181,164.354,112.254z M203.188,133.531
			c6.4,0.113,12.758,0.258,19.049,0.425c0-6.286,0-12.573,0-18.852c-6.291-0.512-12.648-0.952-19.049-1.334
			C203.188,120.354,203.188,126.946,203.188,133.531z M144.764,112.063c6.527,0,13.07,0.068,19.59,0.19c0-6.928,0-13.854,0-20.782
			c-6.52-0.211-13.062-0.317-19.59-0.317C144.764,98.127,144.764,105.091,144.764,112.063z M183.861,112.818
			c6.48,0.259,12.924,0.578,19.326,0.952c0-6.584,0-13.167,0-19.752c-6.402-0.641-12.846-1.166-19.326-1.591
			C183.861,99.224,183.861,106.029,183.861,112.818z M222.236,115.104c6.295,0.501,12.529,1.073,18.686,1.706
			c0-5.896,0-11.797,0-17.694c-6.156-1.066-12.391-2.019-18.686-2.872C222.236,102.528,222.236,108.817,222.236,115.104z
			 M164.354,91.479c6.531,0.21,13.041,0.527,19.516,0.956c0-6.798,0-13.604,0-20.393c-6.475-0.602-12.984-1.053-19.516-1.351
			C164.354,77.619,164.354,84.547,164.354,91.479z M203.188,94.026c6.4,0.633,12.758,1.371,19.049,2.226c0-6.286,0-12.565,0-18.852
			c-6.291-1.189-12.648-2.233-19.049-3.132C203.188,80.859,203.188,87.442,203.188,94.026z M144.764,70.252
			c6.527,0,13.07,0.146,19.59,0.44c0-6.917,0-13.852,0-20.778c-6.52-0.381-13.062-0.57-19.59-0.57
			C144.764,56.308,144.764,63.279,144.764,70.252z M183.861,72.035c6.48,0.601,12.924,1.349,19.326,2.233c0-6.577,0-13.169,0-19.751
			c-6.402-1.152-12.846-2.11-19.326-2.874C183.861,58.441,183.861,65.238,183.861,72.035z M222.236,77.4
			c6.295,1.188,12.529,2.528,18.686,4.023c0-5.904,0-11.795,0-17.695c-6.156-1.918-12.391-3.649-18.686-5.182
			C222.236,64.833,222.236,71.113,222.236,77.4z M164.354,49.922c6.531,0.381,13.041,0.96,19.516,1.722c0-6.798,0-13.596,0-20.392
			c-6.475-0.937-12.984-1.646-19.516-2.11C164.354,36.067,164.354,42.994,164.354,49.922z M203.188,54.523
			c6.4,1.151,12.758,2.494,19.049,4.023c0-6.279,0-12.564,0-18.846c-6.291-1.881-12.648-3.526-19.049-4.929
			C203.188,41.354,203.188,47.941,203.188,54.523z M48.599,152.047h0.008c0-0.041-0.008-0.068-0.008-0.068V152.047z M67.131,133.956
			c-6.243,0.161-12.429,0.343-18.532,0.549c0,4.899,0,14.6,0,17.435c0,0,0.008,0.066,0.008,0.107
			C54.702,146.417,60.888,140.35,67.131,133.956z M105.558,133.218c-6.493,0.082-12.954,0.189-19.362,0.313
			c-12.153,12.738-24.148,24.61-35.884,34.762c0.123,0.549,0.231,1.096,0.367,1.646c0.136,0.572,0.304,1.135,0.449,1.706
			c0.998,3.674,2.28,7.247,3.787,10.729C71.39,168.657,88.367,151.475,105.558,133.218z M144.71,132.975
			c-6.546,0-13.092,0.021-19.615,0.059c-21.488,22.945-42.794,45.165-63.397,62.097c2.575,4.093,5.455,8.017,8.534,11.758
			C94.478,186.802,119.594,159.75,144.71,132.975z M144.764,174.815c0-6.981,0-13.96,0-20.94
			c-21.694,23.118-43.374,45.973-64.503,63.905c3.627,3.562,7.406,6.917,11.224,10.049
			C109.041,212.393,126.896,193.851,144.764,174.815z M144.764,216.704c0-6.981,0-13.968,0-20.957
			c-13.746,14.657-27.493,28.805-41.095,41.293c4.465,3.125,8.848,5.899,12.992,8.346
			C125.996,236.385,135.383,226.709,144.764,216.704z M130.325,252.669v0.015c0.472,0.223,0.958,0.452,1.41,0.666
			c7.795,3.587,13.029,5.804,13.029,5.804c0-6.59,0-14.909,0-21.501C139.948,242.779,135.132,247.808,130.325,252.669z"/>
	</g>
</g>
</svg>
