<?xml version="1.0" encoding="utf-8"?>
<!-- Generator: Adobe Illustrator 15.0.0, SVG Export Plug-In . SVG Version: 6.00 Build 0)  -->
<!DOCTYPE svg PUBLIC "-//W3C//DTD SVG 1.1//EN" "http://www.w3.org/Graphics/SVG/1.1/DTD/svg11.dtd">
<svg version="1.1" xmlns="http://www.w3.org/2000/svg" xmlns:xlink="http://www.w3.org/1999/xlink" x="0px" y="0px" width="144px"
	 height="252px" viewBox="0 0 144 252" enable-background="new 0 0 144 252" xml:space="preserve">
<g id="full_bleed" display="none">
	<g display="inline">
		<g>
			<path fill="#95ADD2" d="M135.336,68.301c-1.787-1.916-3.574-3.862-5.361-5.833c1.787-2.914,3.574-5.786,5.361-8.61
				c-5.412,1.27-10.83,2.627-16.252,4.05c2.113,1.675,4.227,3.333,6.338,4.966c0,2.737,0,5.474,0,8.21
				C128.73,70.137,132.033,69.208,135.336,68.301z"/>
			<path fill="#34679D" d="M125.422,62.885c-3.037,0.815-6.078,1.648-9.119,2.497c0-3.229,0-6.461,0-9.691
				C119.344,58.126,122.385,60.528,125.422,62.885z"/>
			<path fill="#95ADD2" d="M10.242,101.808c1.786-2.708,3.573-5.468,5.361-8.273c-1.788-2.079-3.575-4.135-5.361-6.17
				c5.412-1.132,10.829-2.374,16.251-3.698c-2.113,2.745-4.227,5.452-6.338,8.11c0,2.736,0,5.474,0,8.21
				C16.848,100.641,13.544,101.249,10.242,101.808z"/>
			<path fill="#34679D" d="M20.155,91.787c3.038-0.657,6.078-1.347,9.12-2.065c0-3.232,0-6.464,0-9.693
				C26.233,84.033,23.193,87.96,20.155,91.787z"/>
		</g>
		<path fill="#003053" stroke="#003053" stroke-width="0.0902" stroke-miterlimit="10" d="M70.747,127.191
			c0,0-2.467-1.044-6.146-2.737c-15.255-7.021-40.962-25.485-40.544-50.153V22.875l2.09-0.797
			c14.619-5.57,30.051-8.394,45.869-8.394c15.818,0,31.25,2.823,45.867,8.394l2.092,0.797v51.481
			c0.416,24.612-25.287,43.076-40.545,50.097c-3.68,1.693-6.146,2.737-6.146,2.737l-1.268,0.54L70.747,127.191z M72.016,16.93
			c-15.199,0-30.397,2.728-44.711,8.182c0,13.554,0,27.106,0,40.66c0,0.135,0,0.315,0,0.475c0,2.279,0,6.789,0,8.108
			c-0.409,24.011,26.341,41.484,38.653,47.149c3.626,1.667,6.059,2.699,6.059,2.699s2.432-1.032,6.059-2.699
			c12.312-5.665,39.061-23.14,38.652-47.149c0-1.319,0-5.827,0-8.108c0-0.16,0-0.34,0-0.475c0-13.554,0-27.106,0-40.66
			C102.412,19.658,87.215,16.93,72.016,16.93z"/>
		<linearGradient id="SVGID_1_" gradientUnits="userSpaceOnUse" x1="60.0391" y1="112.2275" x2="111.3723" y2="60.8943">
			<stop  offset="0" style="stop-color:#1C426A"/>
			<stop  offset="0.2885" style="stop-color:#2A5887"/>
			<stop  offset="0.6111" style="stop-color:#366CA3"/>
			<stop  offset="0.8589" style="stop-color:#3C77B4"/>
			<stop  offset="1" style="stop-color:#3E7BBA"/>
		</linearGradient>
		<path fill="url(#SVGID_1_)" d="M72.016,65.536c0,19.288,0,39.383,0,58.668c0,0,2.432-1.032,6.059-2.699
			c12.295-5.659,38.984-23.093,38.65-47.051c0-1.83,0-6.286,0-8.207C102.412,65.773,87.215,65.536,72.016,65.536z"/>
		<linearGradient id="SVGID_2_" gradientUnits="userSpaceOnUse" x1="28.0205" y1="66.9639" x2="75.0345" y2="19.9499">
			<stop  offset="0" style="stop-color:#34679D"/>
			<stop  offset="0.1723" style="stop-color:#366CA3"/>
			<stop  offset="0.6989" style="stop-color:#3C77B4"/>
			<stop  offset="1" style="stop-color:#3E7BBA"/>
		</linearGradient>
		<path fill="url(#SVGID_2_)" d="M27.304,66.247c14.314-0.474,29.513-0.711,44.711-0.711c0-16.202,0-32.403,0-48.605
			c-15.199,0-30.397,2.728-44.711,8.182C27.304,38.824,27.304,52.535,27.304,66.247z"/>
		<path fill="#FFFFFF" d="M72.016,55.814c3.041,0,6.08,0.03,9.113,0.088c0,3.221,0,6.442,0,9.664c-3.033-0.02-6.072-0.03-9.113-0.03
			C72.016,62.295,72.016,59.055,72.016,55.814z M90.195,65.65c3.012,0.037,6.01,0.086,8.986,0.142c0-3.061,0-6.123,0-9.184
			c-2.977-0.176-5.975-0.324-8.986-0.442C90.195,59.328,90.195,62.489,90.195,65.65z M108.039,65.992
			c2.928,0.076,5.824,0.161,8.688,0.255c0-2.742,0-5.484,0-8.228c-2.863-0.292-5.76-0.558-8.688-0.792
			C108.039,60.146,108.039,63.07,108.039,65.992z M81.129,55.902c3.033,0.06,6.059,0.148,9.07,0.266c0-3.163,0-6.322,0-9.484
			c-3.012-0.197-6.037-0.345-9.07-0.444C81.129,49.46,81.129,52.682,81.129,55.902z M99.182,56.608
			c2.975,0.177,5.93,0.382,8.857,0.619c0-2.922,0-5.845,0-8.768c-2.928-0.394-5.883-0.739-8.857-1.035
			C99.182,50.485,99.182,53.546,99.182,56.608z M72.016,46.093c3.041,0,6.08,0.051,9.113,0.15c0-3.221,0-6.441,0-9.664
			c-3.033-0.137-6.072-0.208-9.113-0.208C72.016,39.612,72.016,42.852,72.016,46.093z M90.195,46.687
			c3.012,0.197,6.01,0.443,8.986,0.74c0-3.061,0-6.122,0-9.185c-2.977-0.414-5.975-0.761-8.986-1.039
			C90.195,40.364,90.195,43.525,90.195,46.687z M108.039,48.461c2.928,0.396,5.824,0.84,8.688,1.333c0-2.744,0-5.486,0-8.228
			c-2.863-0.694-5.76-1.315-8.688-1.87C108.039,42.618,108.039,45.54,108.039,48.461z M81.129,36.579
			c3.033,0.14,6.059,0.347,9.07,0.625c0-3.161,0-6.323,0-9.484c-3.012-0.357-6.037-0.624-9.07-0.803
			C81.129,30.139,81.129,33.36,81.129,36.579z M99.182,38.242c2.975,0.416,5.93,0.901,8.857,1.455c0-2.922,0-5.844,0-8.766
			c-2.928-0.713-5.883-1.338-8.857-1.874C99.182,32.118,99.182,35.181,99.182,38.242z M72.016,26.651
			c3.041,0,6.08,0.092,9.113,0.268c0-3.221,0-6.441,0-9.661c-3.033-0.219-6.072-0.328-9.113-0.328
			C72.016,20.17,72.016,23.411,72.016,26.651z M90.195,27.723c3.012,0.357,6.01,0.801,8.986,1.336c0-3.059,0-6.122,0-9.182
			c-2.977-0.657-5.975-1.201-8.986-1.637C90.195,21.402,90.195,24.562,90.195,27.723z M108.039,30.933
			c2.928,0.713,5.824,1.515,8.688,2.407c0-2.743,0-5.484,0-8.228c-2.863-1.092-5.76-2.072-8.688-2.944
			C108.039,25.088,108.039,28.011,108.039,30.933z"/>
		<path fill="#FFFFFF" d="M44.785,65.794c-2.978,0.057-5.937,0.124-8.865,0.199c-2.902,2.971-5.776,5.792-8.614,8.41
			c-0.009,0.486,0.01,0.965,0.024,1.444c0.009,0.292,0.009,0.588,0.025,0.875c0.037,0.639,0.093,1.275,0.167,1.906
			c0.025,0.209,0.058,0.414,0.086,0.621c0.071,0.511,0.145,1.018,0.236,1.519c0.021,0.111,0.042,0.22,0.063,0.329
			c0.057,0.29,0.128,0.572,0.192,0.861C33.554,77.24,39.132,71.717,44.785,65.794z"/>
		<path fill="#FFFFFF" d="M62.87,65.566c-3.039,0.019-6.067,0.049-9.083,0.084c-7.995,8.489-15.886,16.479-23.545,22.856
			c0.89,2.051,1.95,4.028,3.151,5.931C42.973,86.565,52.882,76.233,62.87,65.566z"/>
		<path fill="#FFFFFF" d="M72.016,75.256c0-3.241,0-6.481,0-9.72c-0.009,0-0.019,0-0.024,0
			C60.312,77.985,48.638,90.565,37.363,99.904c1.465,1.774,3.033,3.462,4.66,5.062C51.848,96.628,61.932,86.004,72.016,75.256z"/>
		<path fill="#FFFFFF" d="M72.016,94.723c0-3.246,0-6.488,0-9.733c-8.306,8.852-16.609,17.468-24.772,24.649
			c1.885,1.547,3.788,2.979,5.664,4.285C59.233,108.115,65.625,101.535,72.016,94.723z"/>
		<path fill="#FFFFFF" d="M72.016,114.204c0-3.245,0-6.491,0-9.736c-4.362,4.65-8.725,9.15-13.065,13.335
			c2.298,1.354,4.43,2.478,6.285,3.36c0.022,0.009,0.045,0.02,0.067,0.028C67.537,118.928,69.777,116.591,72.016,114.204z"/>
		<linearGradient id="SVGID_3_" gradientUnits="userSpaceOnUse" x1="40.9712" y1="103.9136" x2="115.378" y2="29.5068">
			<stop  offset="0" style="stop-color:#EABA09"/>
			<stop  offset="0.4843" style="stop-color:#F2C911"/>
			<stop  offset="1" style="stop-color:#F8D418"/>
		</linearGradient>
		<path fill="url(#SVGID_3_)" d="M81.129,55.902c3.033,0.06,6.059,0.148,9.07,0.266c0,3.16,0,6.322,0,9.482
			c-3.012-0.039-6.037-0.067-9.07-0.084C81.129,62.343,81.129,59.124,81.129,55.902z M99.182,65.792
			c2.975,0.057,5.93,0.124,8.857,0.199c0-2.921,0-5.845,0-8.765c-2.928-0.236-5.883-0.442-8.857-0.619
			C99.182,59.669,99.182,62.732,99.182,65.792z M72.016,55.814c3.041,0,6.08,0.03,9.113,0.088c0-3.221,0-6.442,0-9.662
			c-3.033-0.099-6.072-0.15-9.113-0.15C72.016,49.333,72.016,52.574,72.016,55.814z M90.195,56.167
			c3.012,0.118,6.01,0.266,8.986,0.442c0-3.062,0-6.123,0-9.184c-2.977-0.297-5.975-0.544-8.986-0.74
			C90.195,49.844,90.195,53.007,90.195,56.167z M108.039,57.227c2.928,0.234,5.824,0.5,8.688,0.792c0-2.742,0-5.484,0-8.226
			c-2.863-0.495-5.76-0.938-8.688-1.333C108.039,51.382,108.039,54.305,108.039,57.227z M81.129,46.243
			c3.033,0.097,6.059,0.247,9.07,0.444c0-3.16,0-6.323,0-9.482c-3.012-0.278-6.037-0.486-9.07-0.625
			C81.129,39.801,81.129,43.021,81.129,46.243z M99.182,47.426c2.975,0.295,5.93,0.641,8.857,1.035c0-2.922,0-5.843,0-8.765
			c-2.928-0.554-5.883-1.04-8.857-1.455C99.182,41.304,99.182,44.365,99.182,47.426z M72.016,36.372c3.041,0,6.08,0.07,9.113,0.208
			c0-3.219,0-6.44,0-9.661c-3.033-0.178-6.072-0.268-9.113-0.268C72.016,29.891,72.016,33.131,72.016,36.372z M90.195,37.203
			c3.012,0.278,6.01,0.625,8.986,1.039c0-3.061,0-6.124,0-9.185c-2.977-0.533-5.975-0.98-8.986-1.336
			C90.195,30.88,90.195,34.041,90.195,37.203z M108.039,39.697c2.928,0.555,5.824,1.176,8.688,1.87c0-2.744,0-5.484,0-8.228
			c-2.863-0.894-5.76-1.694-8.688-2.408C108.039,33.853,108.039,36.775,108.039,39.697z M81.129,26.919
			c3.033,0.18,6.059,0.445,9.07,0.803c0-3.161,0-6.321,0-9.482c-3.012-0.437-6.037-0.764-9.07-0.982
			C81.129,20.479,81.129,23.698,81.129,26.919z M99.182,29.059c2.975,0.537,5.93,1.159,8.857,1.874c0-2.922,0-5.845,0-8.765
			c-2.928-0.874-5.883-1.638-8.857-2.291C99.182,22.938,99.182,26,99.182,29.059z M27.304,74.405c0,0,0,0,0.001-0.001
			c0-0.016-0.001-0.032-0.001-0.048C27.304,74.37,27.304,74.39,27.304,74.405z M35.919,65.994c-2.902,0.074-5.776,0.16-8.615,0.253
			c0,2.279,0,6.789,0,8.108c0,0.016,0.001,0.032,0.001,0.048C30.143,71.786,33.018,68.965,35.919,65.994z M53.787,65.65
			c-3.018,0.039-6.02,0.086-9.002,0.144C39.132,71.717,33.554,77.24,28.1,81.958c0.057,0.253,0.109,0.511,0.171,0.764
			c0.063,0.268,0.141,0.529,0.209,0.792c0.465,1.708,1.059,3.373,1.761,4.992C37.901,82.13,45.792,74.139,53.787,65.65z
			 M71.991,65.536c-3.044,0-6.085,0.011-9.121,0.03c-9.988,10.667-19.897,21-29.478,28.872c1.2,1.9,2.536,3.725,3.971,5.467
			C48.638,90.565,60.312,77.985,71.991,65.536z M72.016,84.99c0-3.245,0-6.491,0-9.734c-10.084,10.748-20.167,21.373-29.992,29.71
			c1.688,1.659,3.445,3.216,5.22,4.674C55.406,102.462,63.709,93.841,72.016,84.99z M72.016,104.468c0-3.248,0-6.498,0-9.745
			c-6.391,6.812-12.783,13.392-19.108,19.202c2.078,1.449,4.114,2.742,6.043,3.878C63.291,113.62,67.653,109.118,72.016,104.468z
			 M65.302,121.191l0.001,0.005c0.219,0.103,0.443,0.211,0.653,0.309c3.626,1.667,6.059,2.699,6.059,2.699c0-3.062,0-6.934,0-10
			C69.777,116.591,67.537,118.928,65.302,121.191z"/>
		<linearGradient id="SVGID_4_" gradientUnits="userSpaceOnUse" x1="72.0151" y1="151.2549" x2="72.0151" y2="-19.3416">
			<stop  offset="0" style="stop-color:#002141"/>
			<stop  offset="0.281" style="stop-color:#002B4C"/>
			<stop  offset="0.5031" style="stop-color:#003053"/>
			<stop  offset="0.6967" style="stop-color:#03365B"/>
			<stop  offset="0.8528" style="stop-color:#05395E"/>
			<stop  offset="0.8974" style="stop-color:#063A60"/>
			<stop  offset="0.9423" style="stop-color:#093E65"/>
			<stop  offset="0.9872" style="stop-color:#0D446D"/>
			<stop  offset="1" style="stop-color:#0E4670"/>
		</linearGradient>
		<path fill="url(#SVGID_4_)" d="M27.304,50.385c-0.011,0.003-0.023,0.007-0.034,0.01c0,13.139,0,26.276,0,39.413
			c0.06,0.137,0.125,0.271,0.187,0.407c1.064-0.251,2.129-0.525,3.195-0.782c28.667-6.897,57.452-16.2,86.108-24.154
			c0-13.288,0-26.577,0-39.865C86.988,31.407,57.077,41.151,27.304,50.385z"/>
		<g>
			<g>
				<path fill="#34679D" d="M44.638,79.119c-1.624-4.545-3.247-9.069-4.87-13.562c1.535-5.164,3.07-10.359,4.606-15.581
					c-1.273,0.389-2.544,0.776-3.816,1.166c-0.594,0.794-1.19,1.587-1.788,2.377c-0.411,1.468-0.827,2.933-1.241,4.395
					c0-1.95,0-3.898,0-5.847c-1.206,0.368-2.413,0.734-3.62,1.1c-0.594,0.786-1.19,1.573-1.783,2.357c0,9.57,0,19.142,0,28.712
					c1.204-0.303,2.411-0.611,3.616-0.922c0.596-0.761,1.191-1.524,1.786-2.291c0-0.965,0-1.932,0-2.897
					c0.492,1.444,0.98,2.892,1.471,4.341c1.284-0.336,2.568-0.677,3.852-1.021C43.448,80.672,44.044,79.896,44.638,79.119z"/>
				<path fill="#34679D" d="M51.812,77.14c0-9.811,0-19.62,0-29.432c-1.206,0.368-2.413,0.734-3.619,1.103
					c-0.597,0.799-1.192,1.597-1.788,2.395c0,9.76,0,19.521,0,29.281c1.206-0.328,2.413-0.659,3.62-0.994
					C50.622,78.709,51.216,77.927,51.812,77.14z"/>
				<path fill="#34679D" d="M54.767,48.675c0,9.833,0,19.665,0,29.499c1.121-0.315,2.241-0.631,3.361-0.948
					c0.595-0.792,1.191-1.585,1.787-2.377c0-0.43,0-0.859,0-1.29c0.174,1.004,0.346,2.006,0.517,3.01
					c1.361-0.389,2.725-0.78,4.086-1.171c0.595-0.796,1.193-1.592,1.788-2.388c0-9.887,0-19.772,0-29.66
					c-1.119,0.331-2.239,0.664-3.358,0.999c-0.596,0.802-1.192,1.604-1.788,2.406c0,0.416,0,0.833,0,1.249
					c-0.173-0.986-0.346-1.976-0.518-2.962c-1.364,0.409-2.725,0.817-4.084,1.229C55.958,47.072,55.363,47.874,54.767,48.675z"/>
				<path fill="#34679D" d="M69.261,44.354c0,9.891,0,19.783,0,29.674c2.559-0.742,5.116-1.489,7.675-2.234
					c0.598-0.799,1.193-1.597,1.791-2.396c0-1.309,0-2.62,0-3.928c-1.352,0.391-2.705,0.785-4.055,1.178c0-2.45,0-4.901,0-7.352
					c0.172-0.051,0.346-0.1,0.52-0.151c0.596-0.796,1.193-1.594,1.787-2.39c0-1.31,0-2.621,0-3.931
					c-0.77,0.222-1.537,0.444-2.307,0.666c0-2.26,0-4.519,0-6.778c0.754-0.218,1.51-0.436,2.264-0.652
					c0.598-0.796,1.193-1.59,1.791-2.385c0-1.31,0-2.618,0-3.929c-2.561,0.726-5.119,1.462-7.677,2.209
					C70.453,42.755,69.856,43.555,69.261,44.354z"/>
				<path fill="#34679D" d="M80.326,41.167c0,1.31,0,2.619,0,3.927c0.877-0.249,1.756-0.497,2.635-0.743c0,8.561,0,17.122,0,25.683
					c1.209-0.351,2.416-0.703,3.623-1.055c0.596-0.796,1.193-1.592,1.789-2.385c0-7.915,0-15.827,0-23.742
					c0.283-0.076,0.566-0.152,0.85-0.23c0.594-0.784,1.191-1.566,1.785-2.345c0-1.301,0-2.603,0-3.904
					c-2.963,0.788-5.928,1.596-8.895,2.422C81.518,39.586,80.922,40.376,80.326,41.167z"/>
				<path fill="#34679D" d="M93.008,37.703c0,9.804,0,19.606,0,29.411c1.207-0.347,2.412-0.696,3.621-1.042
					c0.596-0.788,1.191-1.575,1.789-2.36c0-9.751,0-19.503,0-29.254c-1.209,0.303-2.416,0.611-3.625,0.923
					C94.199,36.151,93.602,36.926,93.008,37.703z"/>
				<path fill="#34679D" d="M111.9,40.897c0-1.014,0-2.029,0-3.043c0.004-4.397-1.432-6.289-4.305-5.625
					c-1.693,0.393-2.887,1.429-3.613,3.066c-1.736,1.22-2.617,3.547-2.615,6.976c0,5.245,0,10.492,0,15.736
					c0,4.479,1.48,6.289,4.443,5.457c1.633-0.46,2.785-1.522,3.49-3.144c1.729-1.245,2.6-3.553,2.6-6.967c0-1.315,0-2.629,0-3.943
					c-1.16,0.294-2.322,0.591-3.482,0.895c-0.549,0.746-1.098,1.5-1.645,2.254c0-2.86,0-5.721,0-8.58
					c1.115-0.282,2.229-0.559,3.344-0.832C110.713,42.395,111.307,41.644,111.9,40.897z"/>
			</g>
			<g>
				<path fill="#FFFFFF" d="M33.909,81.966c0-9.601,0-19.2,0-28.799c1.207-0.366,2.414-0.732,3.62-1.1c0,3.267,0,6.536,0,9.804
					c1.009-3.562,2.021-7.139,3.029-10.729c1.272-0.39,2.543-0.777,3.816-1.166c-1.536,5.22-3.071,10.417-4.606,15.581
					c1.623,4.493,3.247,9.017,4.87,13.562c-1.284,0.349-2.567,0.696-3.852,1.039c-1.086-3.214-2.171-6.416-3.258-9.602
					c0,3.489,0,6.978,0,10.467C36.323,81.341,35.116,81.654,33.909,81.966z"/>
				<path fill="#FFFFFF" d="M48.193,78.146c0-9.78,0-19.558,0-29.335c1.206-0.368,2.413-0.736,3.619-1.103
					c0,9.812,0,19.621,0,29.432C50.605,77.478,49.399,77.812,48.193,78.146z"/>
				<path fill="#FFFFFF" d="M60.508,64.229c-0.197-1.476-0.395-2.95-0.594-4.426c0,5.016,0,10.03,0,15.045
					c-1.119,0.319-2.24,0.639-3.357,0.956c-0.001-9.844-0.001-19.689,0-29.534c1.359-0.413,2.72-0.821,4.084-1.229
					c0.581,3.33,1.164,6.666,1.745,10.003c0.187,1.444,0.374,2.888,0.56,4.334c0-5.011,0-10.02,0-15.03
					c1.12-0.334,2.24-0.667,3.358-0.999c0,9.887,0,19.773,0,29.66c-1.361,0.395-2.723,0.785-4.084,1.176
					C61.65,70.865,61.079,67.545,60.508,64.229z"/>
				<path fill="#FFFFFF" d="M74.672,57.422c0,3.075,0,6.15,0,9.227c1.35-0.393,2.703-0.787,4.055-1.178c0,1.308,0,2.619,0,3.928
					c-2.561,0.746-5.119,1.491-7.677,2.236c0-9.894,0-19.785,0-29.679c2.558-0.747,5.117-1.485,7.677-2.209c0,1.311,0,2.619,0,3.929
					c-1.352,0.384-2.705,0.771-4.055,1.161c0,2.885,0,5.77,0,8.654c0.77-0.222,1.537-0.444,2.307-0.666c0,1.31,0,2.621,0,3.931
					C76.209,56.978,75.441,57.2,74.672,57.422z"/>
				<path fill="#FFFFFF" d="M82.113,38.795c2.967-0.826,5.932-1.634,8.895-2.422c0,1.302,0,2.603,0,3.904
					c-0.877,0.234-1.756,0.472-2.635,0.712c0,8.534,0,17.07,0,25.605c-1.209,0.349-2.416,0.701-3.625,1.051
					c0-8.553,0-17.108,0-25.662c-0.877,0.244-1.756,0.49-2.635,0.736C82.113,41.412,82.113,40.103,82.113,38.795z"/>
				<path fill="#FFFFFF" d="M94.793,64.743c0-9.786,0-19.575,0-29.363c1.209-0.312,2.416-0.62,3.625-0.923
					c0,9.751,0,19.502,0,29.254C97.209,64.055,96.002,64.398,94.793,64.743z"/>
				<path fill="#FFFFFF" d="M108.418,50.304c1.16-0.304,2.322-0.601,3.482-0.895c0,1.314,0,2.627,0,3.943
					c0.004,4.405-1.432,6.99-4.305,7.785c-2.961,0.824-4.443-0.992-4.443-5.458c0-5.234,0-10.468,0-15.702
					c0-4.464,1.482-7.06,4.443-7.747c2.871-0.662,4.309,1.226,4.305,5.625c0,1.015,0,2.029,0,3.043
					c-1.16,0.277-2.322,0.558-3.482,0.843c0-1.597,0-3.198,0-4.797c-0.002-0.721-0.275-1.015-0.822-0.884
					c-0.549,0.13-0.826,0.556-0.822,1.278c0,6.371,0,12.741,0,19.112c-0.004,0.72,0.273,1.005,0.822,0.856
					c0.547-0.148,0.822-0.583,0.822-1.3C108.418,54.106,108.418,52.204,108.418,50.304z"/>
			</g>
		</g>
		<path fill="#FFFFFF" d="M49.331,23.848c0.534,1.62,1.068,3.255,1.601,4.902c1.733-0.24,3.47-0.449,5.211-0.629
			c-1.409,1.224-2.814,2.457-4.217,3.691c0.537,1.66,1.074,3.331,1.611,5.012c-1.405-0.933-2.808-1.842-4.205-2.715
			c-1.4,1.242-2.795,2.481-4.186,3.719c0.531-1.757,1.063-3.525,1.596-5.301c-1.393-0.831-2.783-1.627-4.167-2.384
			c1.71-0.335,3.429-0.64,5.155-0.916C48.261,27.441,48.795,25.647,49.331,23.848z"/>
		<path fill="#FFFFFF" d="M91.941,91.605c0.535,1.641,1.072,3.273,1.607,4.891c1.732-0.309,3.455-0.639,5.174-0.984
			c-1.389,1.323-2.783,2.648-4.182,3.977c0.533,1.607,1.064,3.203,1.6,4.789c-1.398-0.741-2.799-1.518-4.199-2.317
			c-1.404,1.33-2.811,2.661-4.219,3.987c0.537-1.843,1.074-3.677,1.611-5.507c-1.408-0.835-2.818-1.695-4.23-2.577
			c1.748-0.252,3.49-0.522,5.229-0.809C90.869,95.231,91.402,93.414,91.941,91.605z"/>
		<linearGradient id="SVGID_5_" gradientUnits="userSpaceOnUse" x1="98.4971" y1="38.2651" x2="114.1957" y2="22.5665">
			<stop  offset="0.3374" style="stop-color:#FFFFFF;stop-opacity:0"/>
			<stop  offset="1" style="stop-color:#FFFFFF;stop-opacity:0.54"/>
		</linearGradient>
		<path fill="url(#SVGID_5_)" d="M106.689,32.009c10.57,13.079,10.041,24.399,10.07,24.519c0-10.467,0-20.931,0-31.397
			c-10.926-4.162-22.365-6.735-33.93-7.721C82.824,17.161,96.084,18.538,106.689,32.009z"/>
		
			<linearGradient id="SVGID_6_" gradientUnits="userSpaceOnUse" x1="-453.667" y1="38.2471" x2="-437.9684" y2="22.5485" gradientTransform="matrix(-1 0 0 1 -408.0977 0)">
			<stop  offset="0.3374" style="stop-color:#000000;stop-opacity:0"/>
			<stop  offset="1" style="stop-color:#000000;stop-opacity:0.37"/>
		</linearGradient>
		<path fill="url(#SVGID_6_)" d="M37.376,31.992C26.805,45.073,27.339,56.385,27.308,56.51c0-10.466,0-20.931,0-31.397
			c10.924-4.161,22.364-6.734,33.927-7.721C61.242,17.144,47.983,18.521,37.376,31.992z"/>
		<linearGradient id="SVGID_7_" gradientUnits="userSpaceOnUse" x1="95.9971" y1="127.7314" x2="95.9971" y2="22.876">
			<stop  offset="0" style="stop-color:#04375C"/>
			<stop  offset="0.0529" style="stop-color:#073B61"/>
			<stop  offset="0.1276" style="stop-color:#093E65"/>
			<stop  offset="0.2209" style="stop-color:#0A3F67"/>
			<stop  offset="0.3912" style="stop-color:#1B4A73"/>
			<stop  offset="0.5767" style="stop-color:#26537F"/>
			<stop  offset="0.737" style="stop-color:#2B5886"/>
			<stop  offset="0.8528" style="stop-color:#2C5A8A"/>
			<stop  offset="0.8961" style="stop-color:#2D5C8C"/>
			<stop  offset="0.9398" style="stop-color:#306194"/>
			<stop  offset="0.9834" style="stop-color:#356AA0"/>
			<stop  offset="1" style="stop-color:#376EA6"/>
		</linearGradient>
		<path fill="url(#SVGID_7_)" d="M119.975,22.875v51.481c0.416,24.612-25.287,43.076-40.545,50.097
			c-3.68,1.693-6.146,2.737-6.146,2.737l-1.268,0.54v-3.527c0,0,2.432-1.032,6.059-2.699c12.312-5.665,39.061-23.14,38.652-47.149
			c0-1.319,0-5.827,0-8.108c0-0.16,0-0.34,0-0.475c0-13.554,0-27.106,0-40.66L119.975,22.875z"/>
		<linearGradient id="SVGID_8_" gradientUnits="userSpaceOnUse" x1="48.0337" y1="127.7314" x2="48.0337" y2="22.876">
			<stop  offset="0" style="stop-color:#003053"/>
			<stop  offset="0.2665" style="stop-color:#093E65"/>
			<stop  offset="0.4049" style="stop-color:#0C436C"/>
			<stop  offset="0.5918" style="stop-color:#0F4873"/>
			<stop  offset="0.7423" style="stop-color:#104A76"/>
			<stop  offset="0.7975" style="stop-color:#114B77"/>
			<stop  offset="0.853" style="stop-color:#174E7A"/>
			<stop  offset="0.9087" style="stop-color:#20517E"/>
			<stop  offset="0.9642" style="stop-color:#275582"/>
			<stop  offset="1" style="stop-color:#2A5785"/>
		</linearGradient>
		<path fill="url(#SVGID_8_)" d="M27.304,25.112c0,13.554,0,27.106,0,40.66c0,0.135,0,0.315,0,0.475c0,2.279,0,6.789,0,8.108
			c-0.409,24.011,26.341,41.484,38.653,47.149c3.626,1.667,6.059,2.699,6.059,2.699v3.527l-1.269-0.54c0,0-2.467-1.044-6.146-2.737
			c-15.255-7.021-40.962-25.485-40.544-50.153V22.875L27.304,25.112z"/>
		<linearGradient id="SVGID_9_" gradientUnits="userSpaceOnUse" x1="48.0371" y1="46.8564" x2="95.9964" y2="-1.1029">
			<stop  offset="0" style="stop-color:#2F6092"/>
			<stop  offset="0.0589" style="stop-color:#306194"/>
			<stop  offset="0.3425" style="stop-color:#33669A"/>
			<stop  offset="0.6564" style="stop-color:#34679D"/>
			<stop  offset="0.7422" style="stop-color:#35699F"/>
			<stop  offset="0.8286" style="stop-color:#376EA6"/>
			<stop  offset="0.9149" style="stop-color:#3C76B2"/>
			<stop  offset="1" style="stop-color:#4182C3"/>
		</linearGradient>
		<path fill="url(#SVGID_9_)" d="M24.057,22.875l2.09-0.797c14.619-5.57,30.051-8.394,45.869-8.394
			c15.818,0,31.25,2.823,45.867,8.394l2.092,0.797l-3.248,2.237c-14.314-5.455-29.512-8.182-44.711-8.182
			c-15.199,0-30.397,2.728-44.711,8.182L24.057,22.875z"/>
		<path fill="#D0D7E7" d="M125.432,77.71c-35.008,10.566-70.246,22.522-105.255,28.913c0-4.937,0-9.873,0-14.81
			c35.009-7.579,70.247-19.532,105.255-28.911C125.432,67.837,125.432,72.775,125.432,77.71z"/>
		<g>
			<path fill="#003053" d="M35.933,100.36c-0.159-1.449-0.316-2.883-0.542-4.302c-0.14,0.035-0.287,0.067-0.429,0.102
				c0,1.476,0,2.948,0,4.424c-0.352,0.079-0.7,0.161-1.053,0.239c0-3.273,0-6.549,0-9.825c0.484-0.116,0.966-0.234,1.446-0.35
				c1.087-0.264,1.64,0.076,1.64,1.372c0,0.666,0,1.333,0,1.999c0.002,0.747-0.192,1.224-0.61,1.576
				c0.27,1.494,0.487,3.024,0.691,4.498C36.696,100.181,36.315,100.272,35.933,100.36z M35.933,92.508
				c0-0.599-0.077-0.873-0.578-0.747c-0.13,0.032-0.264,0.063-0.394,0.095c0,1.102,0,2.202,0,3.3
				c0.133-0.032,0.271-0.064,0.405-0.095c0.397-0.096,0.566-0.335,0.566-0.771C35.933,93.695,35.933,93.102,35.933,92.508z"/>
			<path fill="#003053" d="M38.582,99.739c0-3.297,0-6.595,0-9.892c0.834-0.209,1.671-0.422,2.509-0.635c0,0.375,0,0.751,0,1.123
				c-0.491,0.123-0.98,0.248-1.468,0.372c0,1.058,0,2.117,0,3.176c0.326-0.083,0.654-0.163,0.981-0.244c0,0.375,0,0.748,0,1.122
				c-0.327,0.08-0.655,0.162-0.981,0.244c0,1.129,0,2.252,0,3.379c0.507-0.122,1.017-0.245,1.525-0.368c0,0.368,0,0.737,0,1.109
				C40.292,99.333,39.434,99.537,38.582,99.739z"/>
			<path fill="#003053" d="M43.341,98.588c0-2.945,0-5.888,0-8.832c-0.322,0.083-0.647,0.167-0.971,0.25c0-0.374,0-0.749,0-1.124
				c0.995-0.255,1.99-0.514,2.984-0.776c0,0.377,0,0.755,0,1.129c-0.322,0.086-0.649,0.171-0.973,0.251c0,2.949,0,5.895,0,8.841
				C44.037,98.414,43.689,98.5,43.341,98.588z"/>
			<path fill="#003053" d="M48.705,97.23c0-1.512,0-3.023,0-4.538c-0.292,0.08-0.586,0.155-0.88,0.232c0,1.511,0,3.022,0,4.533
				c-0.347,0.09-0.694,0.178-1.041,0.264c0-3.33,0-6.661,0-9.993c0.347-0.094,0.694-0.181,1.041-0.274c0,1.453,0,2.903,0,4.351
				c0.294-0.077,0.588-0.153,0.88-0.232c0-1.451,0-2.904,0-4.355c0.35-0.092,0.698-0.187,1.043-0.279c0,3.342,0,6.682,0,10.021
				C49.403,97.053,49.054,97.142,48.705,97.23z"/>
			<path fill="#003053" d="M51.491,96.507c0-3.346,0-6.692,0-10.037c0.347-0.095,0.694-0.188,1.042-0.285c0,3.351,0,6.701,0,10.046
				C52.185,96.323,51.838,96.415,51.491,96.507z"/>
			<path fill="#003053" d="M56.486,95.174c-0.701-3.282-1.053-4.828-1.374-6.38c0.025,1.377,0.025,2.752,0.025,4.14
				c0,0.868,0,1.736,0,2.605c-0.298,0.081-0.595,0.161-0.894,0.239c0-3.354,0-6.707,0-10.059c0.407-0.113,0.813-0.224,1.22-0.337
				c0.613,3.562,0.882,5.03,1.167,6.523c-0.024-1.146-0.021-2.284-0.021-3.413c0-1.143,0-2.286,0-3.426
				c0.298-0.082,0.595-0.166,0.893-0.246c0,3.357,0,6.717,0,10.077C57.162,94.99,56.824,95.084,56.486,95.174z"/>
			<path fill="#003053" d="M61.533,93.784c-0.463-1.525-0.882-3.031-1.314-4.515c0.024,0.801,0.021,1.662,0.021,2.754
				c0,0.708,0,1.416,0,2.124c-0.351,0.096-0.701,0.193-1.051,0.289c0-3.364,0-6.728,0-10.091c0.35-0.097,0.703-0.193,1.051-0.294
				c0,0.694,0,1.389,0,2.083c0.003,0.993,0.003,1.595-0.021,2.215c0.42-1.566,0.836-3.106,1.28-4.654
				c0.374-0.106,0.749-0.209,1.121-0.315c-0.5,1.659-0.997,3.318-1.495,4.975c0.535,1.697,1.07,3.398,1.606,5.098
				C62.331,93.566,61.933,93.675,61.533,93.784z"/>
			<path fill="#003053" d="M68.541,91.803c-0.155-1.479-0.317-2.946-0.541-4.392c-0.143,0.04-0.287,0.081-0.432,0.121
				c0,1.517,0,3.033,0,4.551c-0.351,0.101-0.701,0.199-1.053,0.303c0-3.375,0-6.745,0-10.121c0.482-0.138,0.964-0.277,1.449-0.416
				c1.087-0.313,1.64,0.021,1.64,1.349c0,0.685,0,1.366,0,2.053c0,0.763-0.19,1.262-0.606,1.637
				c0.265,1.525,0.484,3.083,0.687,4.586C69.305,91.584,68.922,91.695,68.541,91.803z M68.541,83.738
				c-0.002-0.612-0.078-0.889-0.577-0.747c-0.133,0.04-0.266,0.078-0.396,0.118c0,1.13,0,2.259,0,3.392
				c0.137-0.04,0.271-0.081,0.409-0.12c0.396-0.111,0.563-0.37,0.563-0.812C68.541,84.959,68.541,84.347,68.541,83.738z"/>
			<path fill="#003053" d="M71.193,91.041c0-3.376,0-6.749,0-10.126c0.839-0.24,1.674-0.488,2.512-0.733c0,0.384,0,0.766,0,1.151
				c-0.49,0.138-0.98,0.283-1.47,0.424c0,1.082,0,2.166,0,3.249c0.328-0.097,0.656-0.192,0.984-0.289c0,0.38,0,0.764,0,1.145
				c-0.328,0.097-0.656,0.192-0.984,0.287c0,1.152,0,2.303,0,3.457c0.509-0.147,1.018-0.296,1.529-0.445c0,0.376,0,0.753,0,1.132
				C72.904,90.54,72.049,90.79,71.193,91.041z"/>
			<path fill="#003053" d="M77.068,86.321c0.002-0.437-0.078-0.655-0.328-0.927c-0.418-0.451-0.846-0.796-1.303-1.361
				c-0.225-0.28-0.279-0.696-0.279-1.201c0-0.502,0-1.007,0-1.512c0-1.132,0.486-1.813,1.482-2.106
				c1.043-0.306,1.438,0.119,1.436,1.247c0,0.617,0,1.232,0,1.848c-0.326,0.095-0.648,0.188-0.975,0.286c0-0.61,0-1.22,0-1.831
				c0.002-0.319-0.123-0.504-0.438-0.411c-0.305,0.088-0.443,0.294-0.443,0.655c0,0.499,0,1.001,0,1.5
				c0,0.276,0.035,0.471,0.182,0.638c0.416,0.465,0.902,0.871,1.314,1.358c0.314,0.391,0.393,0.805,0.393,1.497
				c0,0.481,0,0.965,0,1.448c0.004,1.072-0.426,1.798-1.469,2.11c-1.029,0.303-1.486-0.169-1.482-1.238c0-0.719,0-1.434,0-2.153
				c0.334-0.098,0.67-0.195,1.008-0.297c0,0.719,0,1.435,0,2.152c-0.004,0.333,0.145,0.503,0.439,0.412
				c0.316-0.093,0.465-0.32,0.463-0.68C77.068,87.276,77.068,86.798,77.068,86.321z"/>
			<path fill="#003053" d="M80.285,88.362c0-2.989,0-5.976,0-8.966c-0.322,0.095-0.646,0.192-0.971,0.287c0-0.382,0-0.761,0-1.145
				c0.996-0.292,1.992-0.586,2.99-0.879c0,0.38,0,0.761,0,1.143c-0.326,0.095-0.652,0.19-0.977,0.287c0,2.986,0,5.974,0,8.964
				C80.98,88.154,80.635,88.258,80.285,88.362z"/>
			<path fill="#003053" d="M83.549,78.897c0-1.122,0.486-1.858,1.482-2.156c1.006-0.296,1.492,0.157,1.49,1.273
				c0,2.29,0,4.582,0,6.872c0,1.111-0.484,1.862-1.49,2.165c-0.996,0.301-1.482-0.154-1.482-1.272
				C83.549,83.485,83.549,81.19,83.549,78.897z M85.482,78.322c0-0.375-0.148-0.527-0.451-0.437
				c-0.285,0.081-0.443,0.322-0.443,0.705c0,2.293,0,4.586,0,6.879c0,0.393,0.158,0.543,0.443,0.455
				c0.303-0.092,0.451-0.332,0.451-0.726C85.482,82.906,85.482,80.614,85.482,78.322z"/>
			<path fill="#003053" d="M90.191,85.379c-0.156-1.467-0.316-2.92-0.543-4.358c-0.141,0.042-0.287,0.087-0.428,0.131
				c0,1.509,0,3.017,0,4.524c-0.352,0.106-0.701,0.211-1.053,0.319c0-3.359,0-6.713,0-10.07c0.48-0.143,0.965-0.287,1.447-0.428
				c1.086-0.324,1.641,0.004,1.641,1.319c0,0.68,0,1.358,0,2.039c0,0.759-0.195,1.254-0.609,1.636
				c0.27,1.508,0.482,3.054,0.691,4.541C90.955,85.146,90.572,85.263,90.191,85.379z M90.191,77.366
				c0-0.612-0.078-0.883-0.576-0.733c-0.131,0.039-0.266,0.079-0.395,0.118c0,1.124,0,2.25,0,3.373
				c0.133-0.04,0.273-0.081,0.406-0.122c0.396-0.118,0.564-0.375,0.564-0.818C90.191,78.579,90.191,77.969,90.191,77.366z"/>
			<path fill="#003053" d="M95.059,83.897c-0.057-0.497-0.113-0.997-0.168-1.494c-0.383,0.115-0.76,0.23-1.145,0.346
				c-0.066,0.542-0.123,1.074-0.18,1.6c-0.338,0.108-0.678,0.211-1.018,0.313c0.402-3.468,0.807-6.932,1.211-10.396
				c0.402-0.118,0.805-0.236,1.209-0.355c0.383,3.224,0.762,6.447,1.143,9.665C95.76,83.683,95.41,83.792,95.059,83.897z
				 M94.775,81.403c-0.154-1.447-0.318-2.921-0.451-4.415c-0.135,1.571-0.295,3.144-0.475,4.697
				C94.158,81.59,94.469,81.495,94.775,81.403z"/>
			<path fill="#003053" d="M97.869,83.042c0-2.952,0-5.905,0-8.856c-0.326,0.093-0.648,0.19-0.975,0.289c0-0.379,0-0.752,0-1.129
				c0.996-0.296,1.992-0.588,2.988-0.883c0,0.377,0,0.75,0,1.127c-0.322,0.097-0.648,0.194-0.975,0.287c0,2.95,0,5.896,0,8.848
				C98.561,82.828,98.215,82.934,97.869,83.042z"/>
			<path fill="#003053" d="M101.332,81.981c0-3.314,0-6.63,0-9.943c0.344-0.103,0.691-0.203,1.037-0.305c0,3.309,0,6.624,0,9.933
				C102.023,81.77,101.676,81.876,101.332,81.981z"/>
			<path fill="#003053" d="M104.045,72.818c0.002-1.096,0.482-1.827,1.479-2.12c1.006-0.29,1.492,0.156,1.492,1.248
				c0,2.242,0,4.485,0,6.726c0,1.094-0.484,1.826-1.492,2.135c-0.994,0.302-1.477-0.136-1.479-1.231
				C104.045,77.321,104.045,75.07,104.045,72.818z M105.979,72.253c-0.004-0.374-0.146-0.523-0.455-0.432
				c-0.281,0.083-0.438,0.32-0.438,0.692c0,2.25,0,4.498,0,6.747c-0.002,0.388,0.156,0.526,0.438,0.44
				c0.309-0.09,0.455-0.326,0.455-0.711C105.979,76.744,105.979,74.498,105.979,72.253z"/>
			<path fill="#003053" d="M110.875,79.072c-0.699-3.177-1.051-4.675-1.369-6.179c0.025,1.342,0.023,2.691,0.025,4.041
				c0,0.851,0,1.698,0,2.543c-0.297,0.093-0.596,0.181-0.893,0.272c0-3.281,0-6.562,0-9.843c0.406-0.12,0.812-0.238,1.219-0.353
				c0.609,3.463,0.883,4.886,1.164,6.327c-0.023-1.117-0.02-2.225-0.023-3.321c0-1.11,0-2.223,0-3.335
				c0.301-0.085,0.598-0.169,0.895-0.256c0,3.263,0,6.528,0,9.793C111.553,78.862,111.213,78.966,110.875,79.072z"/>
		</g>
	</g>
	<rect x="-9" y="-9" display="inline" fill="#414042" width="162" height="270"/>
</g>
<g id="Your_Artwork">
	<path fill="#1A1A1A" d="M135,0H9C4.029,0,0,4.029,0,9v234c0,4.971,4.029,9,9,9h126c4.971,0,9-4.029,9-9V9
		C144,4.029,139.971,0,135,0z"/>
	<g>
		<g>
			<path fill="#95ADD2" d="M131.603,68.444c-1.681-1.803-3.362-3.633-5.043-5.486c1.681-2.74,3.362-5.442,5.043-8.098
				c-5.09,1.194-10.187,2.471-15.286,3.809c1.987,1.576,3.976,3.135,5.961,4.671c0,2.575,0,5.149,0,7.723
				C125.39,70.171,128.496,69.297,131.603,68.444z"/>
			<path fill="#34679D" d="M122.277,63.35c-2.856,0.767-5.717,1.551-8.576,2.349c0-3.038,0-6.078,0-9.115
				C116.561,58.875,119.421,61.134,122.277,63.35z"/>
			<path fill="#95ADD2" d="M13.944,99.959c1.68-2.547,3.361-5.143,5.042-7.781c-1.681-1.955-3.362-3.889-5.042-5.803
				c5.09-1.064,10.186-2.233,15.286-3.478c-1.988,2.582-3.975,5.127-5.962,7.627c0,2.574,0,5.148,0,7.723
				C20.158,98.861,17.05,99.434,13.944,99.959z"/>
			<path fill="#34679D" d="M23.268,90.534c2.858-0.618,5.717-1.268,8.578-1.942c0-3.041,0-6.08,0-9.117
				C28.985,83.241,26.126,86.935,23.268,90.534z"/>
		</g>
		<path fill="#003053" stroke="#003053" stroke-width="0.0848" stroke-miterlimit="10" d="M70.853,123.834
			c0,0-2.321-0.982-5.781-2.575c-14.349-6.604-38.527-23.97-38.134-47.172V25.719l1.966-0.75c13.75-5.239,28.265-7.895,43.142-7.895
			c14.878,0,29.393,2.655,43.141,7.895l1.967,0.75V74.14c0.393,23.149-23.783,40.515-38.134,47.119
			c-3.462,1.593-5.781,2.575-5.781,2.575l-1.192,0.508L70.853,123.834z M72.046,20.127c-14.295,0-28.59,2.565-42.053,7.696
			c0,12.748,0,25.495,0,38.243c0,0.127,0,0.296,0,0.447c0,2.143,0,6.386,0,7.626c-0.385,22.584,24.775,39.019,36.355,44.347
			c3.411,1.568,5.698,2.539,5.698,2.539s2.287-0.971,5.698-2.539c11.581-5.328,36.738-21.764,36.355-44.347c0-1.241,0-5.481,0-7.626
			c0-0.151,0-0.32,0-0.447c0-12.748,0-25.495,0-38.243C100.636,22.692,86.342,20.127,72.046,20.127z"/>
		<linearGradient id="SVGID_10_" gradientUnits="userSpaceOnUse" x1="60.7808" y1="109.7593" x2="109.0629" y2="61.4771">
			<stop  offset="0" style="stop-color:#1C426A"/>
			<stop  offset="0.2885" style="stop-color:#2A5887"/>
			<stop  offset="0.6111" style="stop-color:#366CA3"/>
			<stop  offset="0.8589" style="stop-color:#3C77B4"/>
			<stop  offset="1" style="stop-color:#3E7BBA"/>
		</linearGradient>
		<path fill="url(#SVGID_10_)" d="M72.046,65.843c0,18.141,0,37.042,0,55.181c0,0,2.287-0.971,5.698-2.539
			c11.564-5.323,36.667-21.72,36.354-44.254c0-1.721,0-5.912,0-7.719C100.636,66.067,86.342,65.843,72.046,65.843z"/>
		<linearGradient id="SVGID_11_" gradientUnits="userSpaceOnUse" x1="30.6675" y1="67.187" x2="74.8865" y2="22.968">
			<stop  offset="0" style="stop-color:#34679D"/>
			<stop  offset="0.1723" style="stop-color:#366CA3"/>
			<stop  offset="0.6989" style="stop-color:#3C77B4"/>
			<stop  offset="1" style="stop-color:#3E7BBA"/>
		</linearGradient>
		<path fill="url(#SVGID_11_)" d="M29.993,66.512c13.463-0.445,27.758-0.669,42.053-0.669c0-15.239,0-30.478,0-45.716
			c-14.295,0-28.59,2.565-42.053,7.696C29.993,40.719,29.993,53.616,29.993,66.512z"/>
		<path fill="#FFFFFF" d="M72.046,56.7c2.86,0,5.719,0.028,8.571,0.082c0,3.03,0,6.059,0,9.089
			c-2.853-0.019-5.711-0.028-8.571-0.028C72.046,62.795,72.046,59.748,72.046,56.7z M89.146,65.951
			c2.832,0.034,5.652,0.081,8.452,0.133c0-2.878,0-5.759,0-8.638c-2.8-0.165-5.62-0.304-8.452-0.416
			C89.146,60.005,89.146,62.978,89.146,65.951z M105.929,66.272c2.753,0.072,5.477,0.151,8.171,0.24c0-2.579,0-5.158,0-7.739
			c-2.694-0.274-5.418-0.525-8.171-0.745C105.929,60.774,105.929,63.524,105.929,66.272z M80.617,56.782
			c2.853,0.057,5.698,0.139,8.532,0.25c0-2.975,0-5.946,0-8.92c-2.834-0.186-5.68-0.325-8.532-0.417
			C80.617,50.723,80.617,53.753,80.617,56.782z M97.598,57.446c2.797,0.167,5.577,0.359,8.331,0.582c0-2.749,0-5.498,0-8.246
			c-2.754-0.371-5.534-0.695-8.331-0.974C97.598,51.688,97.598,54.566,97.598,57.446z M72.046,47.556
			c2.86,0,5.719,0.048,8.571,0.141c0-3.03,0-6.058,0-9.089c-2.853-0.129-5.711-0.195-8.571-0.195
			C72.046,41.46,72.046,44.508,72.046,47.556z M89.146,48.114c2.832,0.186,5.652,0.417,8.452,0.696c0-2.879,0-5.758,0-8.638
			c-2.8-0.39-5.62-0.716-8.452-0.978C89.146,42.167,89.146,45.141,89.146,48.114z M105.929,49.784
			c2.753,0.373,5.477,0.79,8.171,1.253c0-2.581,0-5.16,0-7.739c-2.694-0.653-5.418-1.237-8.171-1.759
			C105.929,44.288,105.929,47.036,105.929,49.784z M80.617,38.608c2.853,0.131,5.698,0.327,8.532,0.588c0-2.973,0-5.947,0-8.92
			c-2.834-0.336-5.68-0.586-8.532-0.755C80.617,32.55,80.617,35.58,80.617,38.608z M97.598,40.172
			c2.797,0.391,5.577,0.848,8.331,1.368c0-2.748,0-5.497,0-8.245c-2.754-0.671-5.534-1.259-8.331-1.762
			C97.598,34.412,97.598,37.292,97.598,40.172z M72.046,29.27c2.86,0,5.719,0.087,8.571,0.252c0-3.03,0-6.058,0-9.087
			c-2.853-0.206-5.711-0.309-8.571-0.309C72.046,23.174,72.046,26.223,72.046,29.27z M89.146,30.278
			c2.832,0.336,5.652,0.754,8.452,1.257c0-2.877,0-5.758,0-8.637c-2.8-0.618-5.62-1.129-8.452-1.54
			C89.146,24.333,89.146,27.305,89.146,30.278z M105.929,33.297c2.753,0.671,5.477,1.425,8.171,2.264c0-2.58,0-5.158,0-7.739
			c-2.694-1.027-5.418-1.949-8.171-2.77C105.929,27.799,105.929,30.549,105.929,33.297z"/>
		<path fill="#FFFFFF" d="M46.434,66.086c-2.8,0.053-5.583,0.116-8.338,0.188c-2.729,2.794-5.433,5.448-8.102,7.91
			c-0.008,0.458,0.01,0.907,0.023,1.358c0.009,0.275,0.009,0.553,0.023,0.823c0.035,0.601,0.087,1.2,0.157,1.792
			c0.023,0.196,0.054,0.389,0.081,0.584c0.066,0.481,0.136,0.958,0.223,1.428c0.02,0.104,0.04,0.207,0.059,0.31
			c0.053,0.273,0.121,0.538,0.18,0.811C35.871,76.852,41.117,71.657,46.434,66.086z"/>
		<path fill="#FFFFFF" d="M63.444,65.872c-2.858,0.018-5.707,0.046-8.543,0.08c-7.52,7.984-14.942,15.5-22.146,21.498
			c0.837,1.929,1.835,3.789,2.964,5.578C44.729,85.623,54.05,75.905,63.444,65.872z"/>
		<path fill="#FFFFFF" d="M72.046,74.985c0-3.048,0-6.096,0-9.142c-0.008,0-0.018,0-0.023,0
			C61.039,77.552,50.058,89.384,39.454,98.169c1.378,1.668,2.853,3.256,4.383,4.761C53.077,95.087,62.561,85.095,72.046,74.985z"/>
		<path fill="#FFFFFF" d="M72.046,93.295c0-3.053,0-6.102,0-9.154c-7.812,8.326-15.622,16.429-23.3,23.185
			c1.772,1.455,3.563,2.802,5.328,4.03C60.023,105.892,66.035,99.703,72.046,93.295z"/>
		<path fill="#FFFFFF" d="M72.046,111.619c0-3.052,0-6.105,0-9.158c-4.103,4.374-8.206,8.606-12.289,12.542
			c2.162,1.274,4.167,2.331,5.912,3.161c0.021,0.008,0.042,0.018,0.063,0.026C67.833,116.061,69.94,113.863,72.046,111.619z"/>
		<linearGradient id="SVGID_12_" gradientUnits="userSpaceOnUse" x1="42.8477" y1="101.9404" x2="112.8319" y2="31.9562">
			<stop  offset="0" style="stop-color:#EABA09"/>
			<stop  offset="0.4843" style="stop-color:#F2C911"/>
			<stop  offset="1" style="stop-color:#F8D418"/>
		</linearGradient>
		<path fill="url(#SVGID_12_)" d="M80.617,56.782c2.853,0.057,5.698,0.139,8.532,0.25c0,2.972,0,5.946,0,8.918
			c-2.834-0.036-5.68-0.063-8.532-0.08C80.617,62.84,80.617,59.812,80.617,56.782z M97.598,66.084
			c2.797,0.054,5.577,0.116,8.331,0.188c0-2.748,0-5.498,0-8.244c-2.754-0.223-5.534-0.416-8.331-0.582
			C97.598,60.326,97.598,63.206,97.598,66.084z M72.046,56.7c2.86,0,5.719,0.028,8.571,0.082c0-3.029,0-6.059,0-9.087
			c-2.853-0.093-5.711-0.141-8.571-0.141C72.046,50.604,72.046,53.651,72.046,56.7z M89.146,57.031
			c2.832,0.111,5.652,0.25,8.452,0.416c0-2.88,0-5.759,0-8.638c-2.8-0.28-5.62-0.512-8.452-0.696
			C89.146,51.084,89.146,54.059,89.146,57.031z M105.929,58.028c2.753,0.22,5.477,0.47,8.171,0.745c0-2.578,0-5.157,0-7.737
			c-2.694-0.465-5.418-0.883-8.171-1.254C105.929,52.531,105.929,55.28,105.929,58.028z M80.617,47.697
			c2.853,0.091,5.698,0.232,8.532,0.417c0-2.972,0-5.947,0-8.918c-2.834-0.261-5.68-0.457-8.532-0.588
			C80.617,41.638,80.617,44.667,80.617,47.697z M97.598,48.81c2.797,0.278,5.577,0.604,8.331,0.974c0-2.749,0-5.496,0-8.244
			c-2.754-0.521-5.534-0.978-8.331-1.368C97.598,43.052,97.598,45.931,97.598,48.81z M72.046,38.413c2.86,0,5.719,0.066,8.571,0.195
			c0-3.028,0-6.058,0-9.087c-2.853-0.167-5.711-0.252-8.571-0.252C72.046,32.317,72.046,35.365,72.046,38.413z M89.146,39.194
			c2.832,0.262,5.652,0.588,8.452,0.978c0-2.879,0-5.76,0-8.639c-2.8-0.501-5.62-0.922-8.452-1.257
			C89.146,33.247,89.146,36.221,89.146,39.194z M105.929,41.54c2.753,0.522,5.477,1.106,8.171,1.759c0-2.581,0-5.158,0-7.739
			c-2.694-0.84-5.418-1.593-8.171-2.265C105.929,36.043,105.929,38.792,105.929,41.54z M80.617,29.522
			c2.853,0.169,5.698,0.418,8.532,0.755c0-2.973,0-5.945,0-8.919c-2.834-0.411-5.68-0.718-8.532-0.923
			C80.617,23.464,80.617,26.493,80.617,29.522z M97.598,31.535c2.797,0.505,5.577,1.089,8.331,1.762c0-2.748,0-5.498,0-8.244
			c-2.754-0.822-5.534-1.541-8.331-2.155C97.598,25.777,97.598,28.658,97.598,31.535z M29.993,74.185c0,0,0,0,0.001-0.001
			c0-0.015-0.001-0.03-0.001-0.045C29.993,74.152,29.993,74.171,29.993,74.185z M38.095,66.274c-2.729,0.07-5.433,0.15-8.103,0.238
			c0,2.143,0,6.386,0,7.626c0,0.015,0.001,0.03,0.001,0.045C32.662,71.722,35.366,69.068,38.095,66.274z M54.901,65.951
			c-2.839,0.036-5.662,0.081-8.467,0.135C41.117,71.657,35.871,76.852,30.74,81.29c0.054,0.237,0.103,0.481,0.161,0.718
			c0.06,0.251,0.132,0.498,0.197,0.746c0.437,1.607,0.995,3.172,1.656,4.695C39.959,81.451,47.381,73.936,54.901,65.951z
			 M72.023,65.843c-2.863,0-5.723,0.01-8.579,0.028C54.05,75.905,44.729,85.623,35.719,93.027c1.129,1.788,2.385,3.503,3.735,5.142
			C50.058,89.384,61.039,77.552,72.023,65.843z M72.046,84.141c0-3.052,0-6.105,0-9.156c-9.485,10.109-18.969,20.102-28.209,27.944
			c1.588,1.561,3.24,3.024,4.91,4.396C56.424,100.574,64.234,92.466,72.046,84.141z M72.046,102.461c0-3.055,0-6.111,0-9.166
			c-6.011,6.407-12.023,12.596-17.972,18.061c1.955,1.363,3.869,2.579,5.683,3.647C63.84,111.069,67.943,106.835,72.046,102.461z
			 M65.731,118.19l0.001,0.005c0.206,0.096,0.417,0.198,0.615,0.29c3.411,1.568,5.698,2.539,5.698,2.539c0-2.88,0-6.521,0-9.405
			C69.94,113.863,67.833,116.061,65.731,118.19z"/>
		<linearGradient id="SVGID_13_" gradientUnits="userSpaceOnUse" x1="72.0454" y1="146.4678" x2="72.0454" y2="-13.989">
			<stop  offset="0" style="stop-color:#002141"/>
			<stop  offset="0.281" style="stop-color:#002B4C"/>
			<stop  offset="0.5031" style="stop-color:#003053"/>
			<stop  offset="0.6967" style="stop-color:#03365B"/>
			<stop  offset="0.8528" style="stop-color:#05395E"/>
			<stop  offset="0.8974" style="stop-color:#063A60"/>
			<stop  offset="0.9423" style="stop-color:#093E65"/>
			<stop  offset="0.9872" style="stop-color:#0D446D"/>
			<stop  offset="1" style="stop-color:#0E4670"/>
		</linearGradient>
		<path fill="url(#SVGID_13_)" d="M29.993,51.593c-0.011,0.003-0.022,0.007-0.032,0.009c0,12.358,0,24.715,0,37.07
			c0.056,0.129,0.118,0.255,0.175,0.383c1.001-0.236,2.002-0.495,3.005-0.735c26.963-6.487,54.037-15.237,80.989-22.719
			c0-12.498,0-24.998,0-37.496C86.128,33.743,57.996,42.908,29.993,51.593z"/>
		<g>
			<g>
				<path fill="#34679D" d="M46.296,78.619c-1.527-4.274-3.054-8.53-4.581-12.756c1.444-4.856,2.888-9.744,4.332-14.655
					c-1.198,0.366-2.393,0.73-3.589,1.097c-0.559,0.747-1.119,1.493-1.682,2.236c-0.387,1.38-0.777,2.758-1.167,4.134
					c0-1.835,0-3.667,0-5.5c-1.134,0.346-2.269,0.691-3.404,1.035c-0.559,0.739-1.119,1.479-1.677,2.217c0,9.001,0,18.004,0,27.005
					c1.133-0.285,2.268-0.575,3.401-0.867c0.561-0.715,1.121-1.434,1.68-2.154c0-0.908,0-1.817,0-2.725
					c0.463,1.358,0.922,2.72,1.384,4.083c1.208-0.316,2.416-0.638,3.623-0.961C45.176,80.08,45.737,79.35,46.296,78.619z"/>
				<path fill="#34679D" d="M53.043,76.757c0-9.228,0-18.454,0-27.682c-1.134,0.346-2.27,0.69-3.403,1.037
					c-0.562,0.752-1.122,1.502-1.682,2.252c0,9.18,0,18.36,0,27.541c1.134-0.309,2.269-0.62,3.405-0.935
					C51.923,78.233,52.483,77.498,53.043,76.757z"/>
				<path fill="#34679D" d="M55.822,49.984c0,9.248,0,18.496,0,27.746c1.054-0.297,2.107-0.593,3.161-0.892
					c0.56-0.745,1.121-1.491,1.68-2.236c0-0.404,0-0.808,0-1.213c0.164,0.944,0.325,1.887,0.486,2.831
					c1.28-0.366,2.562-0.733,3.843-1.101c0.559-0.749,1.122-1.498,1.681-2.246c0-9.299,0-18.597,0-27.896
					c-1.052,0.311-2.105,0.625-3.159,0.939c-0.56,0.754-1.121,1.509-1.681,2.263c0,0.391,0,0.783,0,1.174
					c-0.163-0.927-0.325-1.858-0.487-2.786c-1.283,0.384-2.562,0.768-3.841,1.156C56.943,48.477,56.383,49.231,55.822,49.984z"/>
				<path fill="#34679D" d="M69.455,45.921c0,9.302,0,18.606,0,27.91c2.407-0.698,4.813-1.4,7.218-2.101
					c0.562-0.751,1.123-1.502,1.685-2.253c0-1.231,0-2.464,0-3.695c-1.271,0.368-2.544,0.739-3.813,1.108c0-2.304,0-4.61,0-6.915
					c0.162-0.048,0.325-0.094,0.489-0.142c0.561-0.748,1.122-1.499,1.681-2.248c0-1.232,0-2.465,0-3.697
					c-0.724,0.208-1.445,0.417-2.17,0.626c0-2.125,0-4.25,0-6.375c0.709-0.205,1.421-0.41,2.129-0.613
					c0.562-0.75,1.123-1.496,1.685-2.244c0-1.232,0-2.462,0-3.695c-2.407,0.683-4.814,1.375-7.22,2.078
					C70.577,44.417,70.015,45.169,69.455,45.921z"/>
				<path fill="#34679D" d="M79.862,42.923c0,1.232,0,2.463,0,3.694c0.825-0.233,1.652-0.467,2.479-0.699c0,8.052,0,16.104,0,24.156
					c1.137-0.33,2.271-0.662,3.408-0.992c0.56-0.75,1.121-1.498,1.682-2.244c0-7.444,0-14.886,0-22.331
					c0.267-0.071,0.532-0.144,0.8-0.216c0.559-0.738,1.12-1.473,1.679-2.206c0-1.224,0-2.448,0-3.672
					c-2.786,0.741-5.576,1.501-8.366,2.278C80.982,41.436,80.423,42.179,79.862,42.923z"/>
				<path fill="#34679D" d="M91.79,39.665c0,9.222,0,18.441,0,27.662c1.136-0.326,2.27-0.654,3.406-0.98
					c0.561-0.741,1.121-1.481,1.683-2.221c0-9.171,0-18.343,0-27.515c-1.138,0.285-2.272,0.575-3.409,0.868
					C92.911,38.205,92.349,38.935,91.79,39.665z"/>
				<path fill="#34679D" d="M109.561,42.669c0-0.954,0-1.908,0-2.862c0.004-4.136-1.347-5.915-4.049-5.291
					c-1.594,0.37-2.716,1.344-3.398,2.884c-1.634,1.147-2.463,3.336-2.461,6.561c0,4.933,0,9.868,0,14.8
					c0,4.212,1.394,5.915,4.18,5.132c1.536-0.433,2.619-1.432,3.283-2.957c1.625-1.171,2.445-3.341,2.445-6.553
					c0-1.237,0-2.473,0-3.708c-1.092,0.276-2.185,0.556-3.276,0.842c-0.516,0.702-1.032,1.411-1.546,2.12c0-2.69,0-5.381,0-8.07
					c1.049-0.265,2.096-0.525,3.145-0.782C108.443,44.078,109.002,43.372,109.561,42.669z"/>
			</g>
			<g>
				<path fill="#FFFFFF" d="M36.205,81.296c0-9.03,0-18.058,0-27.087c1.135-0.344,2.271-0.688,3.404-1.035c0,3.072,0,6.147,0,9.221
					c0.95-3.351,1.9-6.715,2.849-10.091c1.196-0.366,2.392-0.73,3.589-1.097c-1.444,4.91-2.888,9.798-4.332,14.655
					c1.526,4.226,3.054,8.481,4.581,12.756c-1.207,0.328-2.415,0.654-3.623,0.977c-1.021-3.022-2.042-6.034-3.064-9.031
					c0,3.282,0,6.563,0,9.845C38.475,80.709,37.34,81.003,36.205,81.296z"/>
				<path fill="#FFFFFF" d="M49.64,77.704c0-9.199,0-18.396,0-27.591c1.134-0.347,2.269-0.693,3.403-1.037
					c0,9.229,0,18.454,0,27.682C51.909,77.076,50.773,77.39,49.64,77.704z"/>
				<path fill="#FFFFFF" d="M61.222,64.614c-0.185-1.388-0.372-2.774-0.559-4.163c0,4.718,0,9.434,0,14.151
					c-1.052,0.3-2.106,0.601-3.158,0.899c-0.001-9.259-0.001-18.519,0-27.778c1.279-0.388,2.559-0.772,3.841-1.156
					c0.546,3.132,1.095,6.269,1.642,9.408c0.175,1.358,0.351,2.716,0.526,4.077c0-4.713,0-9.424,0-14.137
					c1.053-0.314,2.106-0.628,3.159-0.939c0,9.299,0,18.597,0,27.896c-1.28,0.371-2.561,0.739-3.841,1.106
					C62.296,70.855,61.759,67.733,61.222,64.614z"/>
				<path fill="#FFFFFF" d="M74.544,58.212c0,2.892,0,5.784,0,8.678c1.27-0.37,2.543-0.74,3.813-1.108c0,1.23,0,2.463,0,3.695
					c-2.407,0.702-4.814,1.402-7.22,2.103c0-9.306,0-18.608,0-27.915c2.406-0.703,4.813-1.396,7.22-2.078c0,1.233,0,2.463,0,3.695
					c-1.271,0.362-2.544,0.726-3.813,1.092c0,2.713,0,5.426,0,8.14c0.725-0.208,1.446-0.417,2.17-0.626c0,1.232,0,2.465,0,3.697
					C75.99,57.794,75.269,58.003,74.544,58.212z"/>
				<path fill="#FFFFFF" d="M81.543,40.692c2.79-0.777,5.58-1.537,8.366-2.278c0,1.224,0,2.448,0,3.672
					c-0.825,0.221-1.651,0.444-2.479,0.67c0,8.027,0,16.056,0,24.083c-1.137,0.328-2.271,0.66-3.409,0.989c0-8.044,0-16.09,0-24.136
					c-0.825,0.229-1.651,0.461-2.479,0.692C81.543,43.153,81.543,41.922,81.543,40.692z"/>
				<path fill="#FFFFFF" d="M93.47,65.098c0-9.204,0-18.411,0-27.618c1.137-0.293,2.271-0.583,3.409-0.868
					c0,9.171,0,18.343,0,27.515C95.741,64.45,94.606,64.773,93.47,65.098z"/>
				<path fill="#FFFFFF" d="M106.284,51.517c1.092-0.286,2.185-0.565,3.276-0.842c0,1.236,0,2.471,0,3.708
					c0.004,4.144-1.347,6.575-4.049,7.322c-2.786,0.775-4.18-0.933-4.18-5.134c0-4.923,0-9.846,0-14.769
					c0-4.199,1.394-6.64,4.18-7.287c2.7-0.623,4.053,1.153,4.049,5.291c0,0.954,0,1.909,0,2.862
					c-1.092,0.261-2.185,0.525-3.276,0.793c0-1.502,0-3.008,0-4.512c-0.001-0.678-0.259-0.955-0.772-0.831
					c-0.517,0.122-0.777,0.523-0.773,1.202c0,5.992,0,11.983,0,17.976c-0.004,0.677,0.257,0.945,0.773,0.805
					c0.514-0.139,0.772-0.549,0.772-1.223C106.284,55.093,106.284,53.303,106.284,51.517z"/>
			</g>
		</g>
		<path fill="#FFFFFF" d="M50.709,26.633c0.502,1.524,1.004,3.062,1.505,4.61c1.63-0.226,3.264-0.422,4.901-0.592
			c-1.325,1.151-2.646,2.311-3.966,3.472c0.505,1.562,1.01,3.133,1.515,4.714c-1.322-0.877-2.641-1.732-3.955-2.554
			c-1.317,1.168-2.628,2.333-3.938,3.498c0.5-1.653,1-3.316,1.501-4.986c-1.31-0.781-2.618-1.53-3.919-2.243
			c1.609-0.315,3.225-0.602,4.848-0.861C49.704,30.013,50.206,28.326,50.709,26.633z"/>
		<path fill="#FFFFFF" d="M90.787,90.363c0.504,1.543,1.009,3.079,1.512,4.601c1.63-0.291,3.25-0.601,4.866-0.925
			c-1.306,1.245-2.617,2.491-3.933,3.74c0.502,1.511,1.001,3.012,1.504,4.504c-1.314-0.697-2.632-1.427-3.949-2.179
			c-1.32,1.25-2.643,2.503-3.968,3.75c0.505-1.733,1.01-3.458,1.516-5.18c-1.325-0.785-2.651-1.594-3.979-2.423
			c1.645-0.238,3.283-0.492,4.918-0.761C89.778,93.773,90.28,92.064,90.787,90.363z"/>
		<linearGradient id="SVGID_14_" gradientUnits="userSpaceOnUse" x1="96.9531" y1="40.1943" x2="111.7188" y2="25.4286">
			<stop  offset="0.3374" style="stop-color:#FFFFFF;stop-opacity:0"/>
			<stop  offset="1" style="stop-color:#FFFFFF;stop-opacity:0.54"/>
		</linearGradient>
		<path fill="url(#SVGID_14_)" d="M104.658,34.309c9.942,12.301,9.445,22.949,9.472,23.062c0-9.844,0-19.687,0-29.531
			c-10.275-3.915-21.035-6.334-31.912-7.262C82.213,20.344,94.684,21.639,104.658,34.309z"/>
		
			<linearGradient id="SVGID_15_" gradientUnits="userSpaceOnUse" x1="-455.2705" y1="40.1768" x2="-440.5055" y2="25.4118" gradientTransform="matrix(-1 0 0 1 -408.0977 0)">
			<stop  offset="0.3374" style="stop-color:#000000;stop-opacity:0"/>
			<stop  offset="1" style="stop-color:#000000;stop-opacity:0.37"/>
		</linearGradient>
		<path fill="url(#SVGID_15_)" d="M39.465,34.293c-9.942,12.304-9.44,22.942-9.47,23.06c0-9.844,0-19.686,0-29.531
			c10.275-3.914,21.035-6.334,31.91-7.262C61.913,20.327,49.442,21.623,39.465,34.293z"/>
		<linearGradient id="SVGID_16_" gradientUnits="userSpaceOnUse" x1="94.6016" y1="124.3418" x2="94.6016" y2="25.7188">
			<stop  offset="0" style="stop-color:#04375C"/>
			<stop  offset="0.0529" style="stop-color:#073B61"/>
			<stop  offset="0.1276" style="stop-color:#093E65"/>
			<stop  offset="0.2209" style="stop-color:#0A3F67"/>
			<stop  offset="0.3912" style="stop-color:#1B4A73"/>
			<stop  offset="0.5767" style="stop-color:#26537F"/>
			<stop  offset="0.737" style="stop-color:#2B5886"/>
			<stop  offset="0.8528" style="stop-color:#2C5A8A"/>
			<stop  offset="0.8961" style="stop-color:#2D5C8C"/>
			<stop  offset="0.9398" style="stop-color:#306194"/>
			<stop  offset="0.9834" style="stop-color:#356AA0"/>
			<stop  offset="1" style="stop-color:#376EA6"/>
		</linearGradient>
		<path fill="url(#SVGID_16_)" d="M117.153,25.719V74.14c0.393,23.149-23.783,40.515-38.134,47.119
			c-3.462,1.593-5.781,2.575-5.781,2.575l-1.192,0.508v-3.318c0,0,2.287-0.971,5.698-2.539
			c11.581-5.328,36.738-21.764,36.355-44.347c0-1.241,0-5.481,0-7.626c0-0.151,0-0.32,0-0.447c0-12.748,0-25.495,0-38.243
			L117.153,25.719z"/>
		<linearGradient id="SVGID_17_" gradientUnits="userSpaceOnUse" x1="49.4897" y1="124.3418" x2="49.4897" y2="25.7188">
			<stop  offset="0" style="stop-color:#003053"/>
			<stop  offset="0.2665" style="stop-color:#093E65"/>
			<stop  offset="0.4049" style="stop-color:#0C436C"/>
			<stop  offset="0.5918" style="stop-color:#0F4873"/>
			<stop  offset="0.7423" style="stop-color:#104A76"/>
			<stop  offset="0.7975" style="stop-color:#114B77"/>
			<stop  offset="0.853" style="stop-color:#174E7A"/>
			<stop  offset="0.9087" style="stop-color:#20517E"/>
			<stop  offset="0.9642" style="stop-color:#275582"/>
			<stop  offset="1" style="stop-color:#2A5785"/>
		</linearGradient>
		<path fill="url(#SVGID_17_)" d="M29.993,27.823c0,12.748,0,25.495,0,38.243c0,0.127,0,0.296,0,0.447c0,2.143,0,6.386,0,7.626
			c-0.385,22.584,24.775,39.019,36.355,44.347c3.411,1.568,5.698,2.539,5.698,2.539v3.318l-1.193-0.508c0,0-2.321-0.982-5.781-2.575
			c-14.349-6.604-38.527-23.97-38.134-47.172V25.719L29.993,27.823z"/>
		<linearGradient id="SVGID_18_" gradientUnits="userSpaceOnUse" x1="49.4922" y1="48.2734" x2="94.5999" y2="3.1657">
			<stop  offset="0" style="stop-color:#2F6092"/>
			<stop  offset="0.0589" style="stop-color:#306194"/>
			<stop  offset="0.3425" style="stop-color:#33669A"/>
			<stop  offset="0.6564" style="stop-color:#34679D"/>
			<stop  offset="0.7422" style="stop-color:#35699F"/>
			<stop  offset="0.8286" style="stop-color:#376EA6"/>
			<stop  offset="0.9149" style="stop-color:#3C76B2"/>
			<stop  offset="1" style="stop-color:#4182C3"/>
		</linearGradient>
		<path fill="url(#SVGID_18_)" d="M26.938,25.719l1.966-0.75c13.75-5.239,28.265-7.895,43.142-7.895
			c14.878,0,29.393,2.655,43.141,7.895l1.967,0.75l-3.054,2.104c-13.464-5.131-27.758-7.696-42.054-7.696
			c-14.295,0-28.59,2.565-42.053,7.696L26.938,25.719z"/>
		<path fill="#D0D7E7" d="M122.287,77.294c-32.928,9.938-66.071,21.184-98.999,27.194c0-4.643,0-9.286,0-13.93
			c32.928-7.128,66.071-18.371,98.999-27.192C122.287,68.008,122.287,72.652,122.287,77.294z"/>
		<g>
			<path fill="#003053" d="M38.108,98.598c-0.149-1.363-0.297-2.712-0.51-4.047c-0.132,0.033-0.27,0.063-0.403,0.096
				c0,1.389,0,2.773,0,4.161c-0.331,0.074-0.659,0.152-0.99,0.225c0-3.078,0-6.16,0-9.241c0.456-0.109,0.909-0.221,1.36-0.329
				c1.022-0.249,1.542,0.071,1.542,1.29c0,0.626,0,1.253,0,1.88c0.002,0.703-0.18,1.151-0.573,1.482
				c0.254,1.405,0.458,2.845,0.65,4.23C38.826,98.429,38.468,98.515,38.108,98.598z M38.108,91.212c0-0.563-0.072-0.821-0.543-0.703
				c-0.123,0.03-0.248,0.06-0.37,0.089c0,1.036,0,2.071,0,3.104c0.125-0.03,0.254-0.06,0.381-0.089
				c0.374-0.09,0.532-0.315,0.532-0.726C38.108,92.328,38.108,91.77,38.108,91.212z"/>
			<path fill="#003053" d="M40.6,98.013c0-3.102,0-6.203,0-9.304c0.785-0.197,1.572-0.397,2.359-0.597c0,0.352,0,0.706,0,1.056
				c-0.461,0.116-0.921,0.233-1.381,0.35c0,0.994,0,1.991,0,2.987c0.307-0.079,0.615-0.153,0.923-0.229c0,0.353,0,0.704,0,1.055
				c-0.308,0.075-0.616,0.152-0.923,0.229c0,1.061,0,2.118,0,3.178c0.478-0.115,0.957-0.231,1.435-0.347c0,0.347,0,0.694,0,1.044
				C42.208,97.631,41.401,97.823,40.6,98.013z"/>
			<path fill="#003053" d="M45.076,96.931c0-2.77,0-5.538,0-8.307c-0.303,0.078-0.608,0.157-0.913,0.235c0-0.352,0-0.704,0-1.057
				c0.936-0.239,1.872-0.483,2.807-0.73c0,0.354,0,0.71,0,1.062c-0.303,0.081-0.611,0.161-0.915,0.236c0,2.773,0,5.544,0,8.316
				C45.73,96.767,45.404,96.848,45.076,96.931z"/>
			<path fill="#003053" d="M50.121,95.654c0-1.422,0-2.844,0-4.268c-0.274,0.076-0.551,0.146-0.828,0.219c0,1.421,0,2.842,0,4.263
				c-0.326,0.084-0.653,0.168-0.979,0.249c0-3.132,0-6.265,0-9.399c0.327-0.088,0.653-0.17,0.979-0.257c0,1.366,0,2.73,0,4.092
				c0.277-0.072,0.554-0.144,0.828-0.218c0-1.365,0-2.732,0-4.097c0.329-0.086,0.657-0.175,0.981-0.262c0,3.143,0,6.285,0,9.425
				C50.777,95.487,50.449,95.57,50.121,95.654z"/>
			<path fill="#003053" d="M52.741,94.974c0-3.147,0-6.294,0-9.44c0.327-0.089,0.653-0.177,0.979-0.268c0,3.151,0,6.303,0,9.449
				C53.394,94.801,53.068,94.887,52.741,94.974z"/>
			<path fill="#003053" d="M57.439,93.72c-0.659-3.087-0.99-4.541-1.292-6.001c0.023,1.294,0.023,2.588,0.023,3.894
				c0,0.816,0,1.633,0,2.45c-0.28,0.076-0.559,0.151-0.84,0.225c0-3.154,0-6.308,0-9.461c0.383-0.107,0.765-0.211,1.147-0.317
				c0.577,3.351,0.83,4.731,1.097,6.136c-0.023-1.078-0.021-2.148-0.021-3.21c0-1.075,0-2.149,0-3.222
				c0.28-0.077,0.56-0.156,0.84-0.231c0,3.157,0,6.317,0,9.478C58.075,93.547,57.757,93.635,57.439,93.72z"/>
			<path fill="#003053" d="M62.187,92.413c-0.436-1.435-0.83-2.851-1.236-4.247c0.023,0.754,0.021,1.563,0.021,2.591
				c0,0.665,0,1.331,0,1.997c-0.33,0.09-0.66,0.181-0.989,0.272c0-3.164,0-6.329,0-9.492c0.329-0.091,0.661-0.182,0.989-0.276
				c0,0.653,0,1.307,0,1.959c0.002,0.934,0.002,1.5-0.021,2.083c0.395-1.473,0.787-2.921,1.204-4.377
				c0.352-0.1,0.704-0.197,1.054-0.296c-0.471,1.561-0.938,3.122-1.406,4.68c0.503,1.596,1.007,3.196,1.511,4.794
				C62.937,92.208,62.562,92.31,62.187,92.413z"/>
			<path fill="#003053" d="M68.778,90.549c-0.146-1.391-0.298-2.771-0.508-4.131c-0.134,0.038-0.27,0.076-0.406,0.114
				c0,1.427,0,2.853,0,4.281c-0.33,0.095-0.66,0.187-0.991,0.285c0-3.174,0-6.344,0-9.519c0.454-0.129,0.907-0.261,1.362-0.391
				c1.023-0.295,1.542,0.019,1.542,1.269c0,0.644,0,1.284,0,1.931c0,0.718-0.179,1.187-0.57,1.54c0.25,1.434,0.455,2.9,0.646,4.313
				C69.497,90.344,69.136,90.448,68.778,90.549z M68.778,82.964c-0.002-0.576-0.073-0.836-0.542-0.703
				c-0.125,0.038-0.25,0.074-0.372,0.111c0,1.063,0,2.125,0,3.191c0.129-0.038,0.255-0.077,0.384-0.113
				c0.373-0.104,0.53-0.347,0.53-0.763C68.778,84.112,68.778,83.536,68.778,82.964z"/>
			<path fill="#003053" d="M71.272,89.832c0-3.175,0-6.348,0-9.525c0.789-0.226,1.575-0.458,2.363-0.689c0,0.361,0,0.721,0,1.083
				c-0.461,0.13-0.921,0.267-1.382,0.399c0,1.018,0,2.037,0,3.056c0.308-0.092,0.617-0.181,0.925-0.272c0,0.357,0,0.718,0,1.076
				c-0.309,0.092-0.617,0.181-0.925,0.27c0,1.083,0,2.167,0,3.252c0.479-0.139,0.958-0.278,1.438-0.418c0,0.354,0,0.708,0,1.064
				C72.882,89.361,72.077,89.596,71.272,89.832z"/>
			<path fill="#003053" d="M76.798,85.393c0.002-0.41-0.073-0.616-0.309-0.872c-0.393-0.424-0.795-0.749-1.225-1.28
				c-0.212-0.264-0.263-0.655-0.263-1.13c0-0.473,0-0.947,0-1.422c0-1.064,0.458-1.706,1.394-1.98
				c0.981-0.289,1.353,0.111,1.351,1.172c0,0.581,0,1.159,0,1.738c-0.307,0.089-0.609,0.177-0.916,0.269c0-0.574,0-1.148,0-1.723
				c0.002-0.3-0.116-0.474-0.412-0.386c-0.286,0.083-0.417,0.276-0.417,0.616c0,0.469,0,0.942,0,1.411
				c0,0.259,0.033,0.442,0.171,0.6c0.392,0.438,0.85,0.819,1.236,1.277c0.296,0.368,0.369,0.757,0.369,1.408
				c0,0.452,0,0.908,0,1.362c0.004,1.009-0.4,1.691-1.382,1.985c-0.968,0.284-1.397-0.16-1.394-1.165c0-0.676,0-1.348,0-2.025
				c0.314-0.092,0.63-0.184,0.948-0.28c0,0.677,0,1.35,0,2.024c-0.004,0.314,0.136,0.473,0.413,0.388
				c0.297-0.088,0.437-0.301,0.435-0.639C76.798,86.291,76.798,85.841,76.798,85.393z"/>
			<path fill="#003053" d="M79.824,87.312c0-2.811,0-5.621,0-8.433c-0.304,0.09-0.608,0.181-0.914,0.271c0-0.36,0-0.716,0-1.077
				c0.938-0.275,1.875-0.551,2.813-0.827c0,0.358,0,0.716,0,1.075c-0.307,0.089-0.613,0.179-0.919,0.27c0,2.809,0,5.618,0,8.431
				C80.478,87.117,80.152,87.215,79.824,87.312z"/>
			<path fill="#003053" d="M82.894,78.411c0-1.055,0.458-1.748,1.394-2.028c0.947-0.278,1.404,0.148,1.402,1.198
				c0,2.153,0,4.309,0,6.464c0,1.045-0.455,1.751-1.402,2.036c-0.936,0.284-1.394-0.145-1.394-1.196
				C82.894,82.726,82.894,80.567,82.894,78.411z M84.712,77.869c0-0.353-0.14-0.496-0.425-0.411
				c-0.268,0.077-0.416,0.303-0.416,0.663c0,2.158,0,4.314,0,6.47c0,0.369,0.148,0.511,0.416,0.427
				c0.285-0.086,0.425-0.312,0.425-0.682C84.712,82.181,84.712,80.025,84.712,77.869z"/>
			<path fill="#003053" d="M89.142,84.507c-0.147-1.379-0.298-2.747-0.511-4.099c-0.133,0.04-0.271,0.082-0.402,0.123
				c0,1.419,0,2.837,0,4.254c-0.331,0.101-0.66,0.199-0.99,0.301c0-3.16,0-6.314,0-9.472c0.451-0.134,0.908-0.27,1.361-0.402
				c1.021-0.305,1.543,0.004,1.543,1.241c0,0.639,0,1.277,0,1.918c0,0.713-0.184,1.179-0.573,1.539
				c0.254,1.418,0.454,2.873,0.65,4.271C89.859,84.288,89.499,84.397,89.142,84.507z M89.142,76.97c0-0.575-0.074-0.83-0.542-0.689
				c-0.124,0.037-0.25,0.075-0.371,0.111c0,1.057,0,2.116,0,3.172c0.125-0.038,0.257-0.076,0.382-0.114
				c0.373-0.111,0.531-0.353,0.531-0.77C89.142,78.111,89.142,77.538,89.142,76.97z"/>
			<path fill="#003053" d="M93.719,83.113c-0.054-0.467-0.105-0.938-0.157-1.405c-0.36,0.108-0.715,0.217-1.077,0.325
				c-0.062,0.51-0.115,1.01-0.169,1.505c-0.317,0.101-0.637,0.199-0.956,0.294c0.377-3.262,0.758-6.52,1.139-9.778
				c0.378-0.111,0.756-0.222,1.137-0.334c0.359,3.033,0.717,6.063,1.075,9.09C94.379,82.912,94.05,83.014,93.719,83.113z
				 M93.453,80.768c-0.146-1.361-0.299-2.748-0.425-4.152c-0.127,1.478-0.277,2.957-0.446,4.418
				C92.873,80.943,93.164,80.854,93.453,80.768z"/>
			<path fill="#003053" d="M96.363,82.308c0-2.776,0-5.554,0-8.33c-0.308,0.087-0.61,0.179-0.917,0.271c0-0.357,0-0.708,0-1.062
				c0.937-0.278,1.874-0.554,2.811-0.831c0,0.355,0,0.706,0,1.061c-0.304,0.091-0.61,0.183-0.917,0.27c0,2.775,0,5.546,0,8.322
				C97.014,82.108,96.688,82.208,96.363,82.308z"/>
			<path fill="#003053" d="M99.62,81.311c0-3.118,0-6.236,0-9.352c0.323-0.096,0.65-0.191,0.976-0.287c0,3.113,0,6.23,0,9.342
				C100.271,81.112,99.943,81.212,99.62,81.311z"/>
			<path fill="#003053" d="M102.171,72.693c0.002-1.031,0.454-1.718,1.391-1.994c0.947-0.273,1.404,0.146,1.404,1.173
				c0,2.109,0,4.219,0,6.326c0,1.029-0.456,1.718-1.404,2.008c-0.935,0.284-1.389-0.128-1.391-1.159
				C102.171,76.928,102.171,74.811,102.171,72.693z M103.99,72.161c-0.004-0.352-0.138-0.492-0.429-0.406
				c-0.264,0.078-0.411,0.301-0.411,0.651c0,2.117,0,4.23,0,6.346c-0.002,0.365,0.147,0.495,0.411,0.414
				c0.291-0.084,0.429-0.306,0.429-0.669C103.99,76.385,103.99,74.273,103.99,72.161z"/>
			<path fill="#003053" d="M108.596,78.575c-0.658-2.988-0.988-4.397-1.288-5.812c0.023,1.263,0.022,2.531,0.023,3.8
				c0,0.8,0,1.597,0,2.392c-0.279,0.088-0.56,0.171-0.839,0.256c0-3.086,0-6.172,0-9.257c0.382-0.113,0.765-0.224,1.146-0.332
				c0.574,3.257,0.831,4.595,1.096,5.951c-0.022-1.05-0.019-2.093-0.022-3.124c0-1.043,0-2.09,0-3.137
				c0.283-0.08,0.562-0.159,0.842-0.241c0,3.069,0,6.14,0,9.211C109.233,78.377,108.914,78.476,108.596,78.575z"/>
		</g>
	</g>
	<g>
		<path fill="#FFFFFF" d="M43.655,152.993v-15.635h4.293v2.071h-2.223v4.559h1.406v2.07h-1.406v4.863h2.317v2.071H43.655z"/>
		<path fill="#FFFFFF" d="M52.492,152.993c-0.165-1.83-0.33-3.675-0.57-5.505h-0.27v5.505h-1.635v-12.345h1.95
			c1.47,0,2.205,0.6,2.205,2.221v2.549c0,0.945-0.21,1.44-0.705,1.74c0.315,1.95,0.57,3.915,0.81,5.835H52.492z M52.522,142.869
			c0-0.391-0.18-0.586-0.555-0.586h-0.315v3.721h0.33c0.36,0,0.54-0.195,0.54-0.57V142.869z"/>
		<path fill="#FFFFFF" d="M56.243,152.993v-12.345h1.635v12.345H56.243z"/>
		<path fill="#FFFFFF" d="M62.452,148.463h1.485v2.551c0,1.439-0.555,2.114-1.86,2.114c-1.335,0-2.04-0.675-2.04-2.085v-8.399
			c0-1.425,0.705-2.13,2.04-2.13c1.245,0,1.86,0.675,1.86,2.1v2.19h-1.485v-2.19c0-0.314-0.12-0.465-0.375-0.465
			c-0.24,0-0.375,0.15-0.375,0.465v8.415c0,0.315,0.135,0.465,0.375,0.465c0.255,0,0.375-0.149,0.375-0.465V148.463z"/>
		<path fill="#FFFFFF" d="M69.368,152.993v-15.635h2.526c1.881,0,2.754,0.894,2.754,2.831v2.564c0,1.957-0.873,2.812-2.735,2.812
			h-0.475v7.428H69.368z M72.616,140.17c0-0.494-0.229-0.74-0.722-0.74h-0.456v4.122h0.475c0.475,0,0.703-0.247,0.703-0.722V140.17z
			"/>
		<path fill="#FFFFFF" d="M78.387,152.993l-0.18-1.755h-1.2l-0.21,1.755h-1.575l1.5-12.345h1.89l1.41,12.345H78.387z
			 M78.026,149.754c-0.149-1.605-0.3-3.24-0.42-4.92c-0.12,1.68-0.27,3.314-0.449,4.92H78.026z"/>
		<path fill="#FFFFFF" d="M81.882,152.993v-12.345h1.635v10.71h1.83v1.635H81.882z"/>
		<path fill="#FFFFFF" d="M87.191,152.993v-12.345h1.635v10.71h1.83v1.635H87.191z"/>
		<path fill="#FFFFFF" d="M95.29,152.993l-0.18-1.755h-1.2l-0.21,1.755h-1.575l1.5-12.345h1.89l1.41,12.345H95.29z M94.93,149.754
			c-0.149-1.605-0.3-3.24-0.42-4.92c-0.119,1.68-0.27,3.314-0.449,4.92H94.93z"/>
		<path fill="#FFFFFF" d="M98.815,152.993v-12.345h1.635v12.345H98.815z"/>
	</g>
	<g>
		<path fill="#95ADD2" d="M67.108,167.408h1.387v2.381c0,1.346-0.518,1.976-1.737,1.976c-1.247,0-1.905-0.63-1.905-1.946v-7.845
			c0-1.331,0.659-1.989,1.905-1.989c1.163,0,1.737,0.631,1.737,1.961v2.045h-1.387v-2.045c0-0.294-0.112-0.434-0.35-0.434
			c-0.224,0-0.35,0.14-0.35,0.434v7.858c0,0.294,0.126,0.435,0.35,0.435c0.238,0,0.35-0.141,0.35-0.435V167.408z"/>
		<path fill="#95ADD2" d="M70.411,171.639V160.11h3.166v1.526h-1.639v3.362h1.037v1.526h-1.037v3.586h1.709v1.527H70.411z"/>
		<path fill="#95ADD2" d="M75.396,161.945c0-1.274,0.616-1.961,1.877-1.961s1.877,0.687,1.877,1.961v7.858
			c0,1.274-0.616,1.961-1.877,1.961s-1.877-0.687-1.877-1.961V161.945z M77.622,161.945c0-0.294-0.111-0.434-0.35-0.434
			c-0.225,0-0.351,0.14-0.351,0.434v7.858c0,0.294,0.126,0.435,0.351,0.435c0.238,0,0.35-0.141,0.35-0.435V161.945z"/>
	</g>
	<g>
		<path fill="#FFFFFF" d="M47.358,196.14v-1.919c0-0.863,0.008-1.719,0.032-2.574c-0.144,1.079-0.295,2.166-0.591,4.493h-0.64
			l-0.576-4.493c0.016,0.855,0.032,1.719,0.032,2.574v1.919h-0.68v-6.581h0.984c0.312,2.975,0.439,3.927,0.551,4.861
			c0.112-0.935,0.248-1.895,0.56-4.861h1.007v6.581H47.358z"/>
		<path fill="#FFFFFF" d="M49.251,192.481v-1.239h0.859v1.239H49.251z M49.251,196.14v-1.249h0.859v1.249H49.251z"/>
		<path fill="#FFFFFF" d="M54.012,196.14c0-4.84,1.092-7.223,1.344-7.663h-1.858V187.5h2.771v0.902
			c-0.924,2.068-1.28,4.525-1.291,7.737H54.012z"/>
		<path fill="#FFFFFF" d="M57.383,196.14v-1.575c0-1.028,0.115-1.479,0.808-2.467c0.808-1.154,0.966-1.47,0.966-2.277v-0.924
			c0-0.336-0.136-0.515-0.41-0.515c-0.272,0-0.398,0.168-0.398,0.515v1.512h-0.966v-1.502c0-1.061,0.44-1.501,1.364-1.501
			s1.386,0.473,1.386,1.501v1.008c0,0.861-0.304,1.575-0.902,2.415c-0.788,1.103-0.872,1.448-0.872,2.235v0.609h1.774v0.966H57.383z
			"/>
		<path fill="#FFFFFF" d="M61.541,188.875c0-0.955,0.441-1.47,1.417-1.47c0.976,0,1.417,0.515,1.417,1.47v5.89
			c0,0.955-0.441,1.47-1.417,1.47c-0.977,0-1.417-0.515-1.417-1.47V188.875z M63.42,188.854c0-0.325-0.158-0.493-0.462-0.493
			c-0.305,0-0.452,0.168-0.452,0.493v5.932c0,0.326,0.147,0.494,0.452,0.494c0.304,0,0.462-0.168,0.462-0.494V188.854z"/>
		<path fill="#FFFFFF" d="M65.656,192.161v-0.745h1.68v0.745H65.656z"/>
		<path fill="#FFFFFF" d="M68.544,196.14v-1.575c0-1.028,0.115-1.479,0.808-2.467c0.808-1.154,0.966-1.47,0.966-2.277v-0.924
			c0-0.336-0.136-0.515-0.41-0.515c-0.272,0-0.398,0.168-0.398,0.515v1.512h-0.966v-1.502c0-1.061,0.44-1.501,1.364-1.501
			s1.386,0.473,1.386,1.501v1.008c0,0.861-0.304,1.575-0.902,2.415c-0.788,1.103-0.872,1.448-0.872,2.235v0.609h1.774v0.966H68.544z
			"/>
		<path fill="#FFFFFF" d="M72.701,188.875c0-0.955,0.441-1.47,1.418-1.47s1.417,0.515,1.417,1.47v5.89c0,0.955-0.44,1.47-1.417,1.47
			s-1.418-0.515-1.418-1.47V188.875z M74.581,188.854c0-0.325-0.157-0.493-0.462-0.493s-0.451,0.168-0.451,0.493v5.932
			c0,0.326,0.146,0.494,0.451,0.494s0.462-0.168,0.462-0.494V188.854z"/>
		<path fill="#FFFFFF" d="M76.954,196.14v-1.575c0-1.028,0.115-1.479,0.808-2.467c0.809-1.154,0.967-1.47,0.967-2.277v-0.924
			c0-0.336-0.137-0.515-0.41-0.515c-0.272,0-0.398,0.168-0.398,0.515v1.512h-0.966v-1.502c0-1.061,0.44-1.501,1.364-1.501
			s1.386,0.473,1.386,1.501v1.008c0,0.861-0.304,1.575-0.902,2.415c-0.788,1.103-0.872,1.448-0.872,2.235v0.609h1.774v0.966H76.954z
			"/>
		<path fill="#FFFFFF" d="M80.923,192.161v-0.745h1.68v0.745H80.923z"/>
		<path fill="#FFFFFF" d="M83.811,196.14v-1.575c0-1.028,0.115-1.479,0.809-2.467c0.808-1.154,0.965-1.47,0.965-2.277v-0.924
			c0-0.336-0.136-0.515-0.409-0.515c-0.272,0-0.398,0.168-0.398,0.515v1.512h-0.966v-1.502c0-1.061,0.44-1.501,1.364-1.501
			s1.386,0.473,1.386,1.501v1.008c0,0.861-0.305,1.575-0.902,2.415c-0.787,1.103-0.871,1.448-0.871,2.235v0.609h1.773v0.966H83.811z
			"/>
		<path fill="#FFFFFF" d="M87.916,196.14v-1.575c0-1.028,0.115-1.479,0.809-2.467c0.808-1.154,0.965-1.47,0.965-2.277v-0.924
			c0-0.336-0.136-0.515-0.409-0.515c-0.272,0-0.398,0.168-0.398,0.515v1.512h-0.966v-1.502c0-1.061,0.44-1.501,1.364-1.501
			s1.386,0.473,1.386,1.501v1.008c0,0.861-0.305,1.575-0.902,2.415c-0.787,1.103-0.871,1.448-0.871,2.235v0.609h1.773v0.966H87.916z
			"/>
		<path fill="#FFFFFF" d="M92.074,188.875c0-0.955,0.44-1.47,1.417-1.47c0.976,0,1.417,0.515,1.417,1.47v5.89
			c0,0.955-0.441,1.47-1.417,1.47c-0.977,0-1.417-0.515-1.417-1.47V188.875z M93.953,188.854c0-0.325-0.158-0.493-0.462-0.493
			c-0.305,0-0.452,0.168-0.452,0.493v5.932c0,0.326,0.147,0.494,0.452,0.494c0.304,0,0.462-0.168,0.462-0.494V188.854z"/>
		<path fill="#FFFFFF" d="M96.326,196.14v-1.575c0-1.028,0.115-1.479,0.809-2.467c0.808-1.154,0.965-1.47,0.965-2.277v-0.924
			c0-0.336-0.136-0.515-0.409-0.515c-0.272,0-0.398,0.168-0.398,0.515v1.512h-0.966v-1.502c0-1.061,0.44-1.501,1.364-1.501
			s1.386,0.473,1.386,1.501v1.008c0,0.861-0.305,1.575-0.902,2.415c-0.787,1.103-0.871,1.448-0.871,2.235v0.609h1.773v0.966H96.326z
			"/>
		<path fill="#FFFFFF" d="M18.267,214.14v-8.64h2.331v0.976h-1.365v2.771h0.914v0.977h-0.914v2.95h1.417v0.966H18.267z"/>
		<path fill="#FFFFFF" d="M23.926,214.14c-0.147-1.302-0.294-2.593-0.504-3.885h-0.399v3.885h-0.977v-8.64h1.344
			c1.008,0,1.522,0.42,1.522,1.554v1.753c0,0.651-0.179,1.028-0.567,1.249c0.252,1.365,0.452,2.751,0.64,4.084H23.926z
			 M23.926,207.253c0-0.525-0.074-0.777-0.536-0.777h-0.367v2.898h0.378c0.367,0,0.525-0.179,0.525-0.557V207.253z"/>
		<path fill="#FFFFFF" d="M26.404,214.14v-8.64h0.966v8.64H26.404z"/>
		<path fill="#FFFFFF" d="M30.72,210.97h0.882v1.784c0,1.008-0.389,1.48-1.281,1.48c-0.913,0-1.396-0.473-1.396-1.46v-5.879
			c0-0.997,0.483-1.49,1.396-1.49c0.861,0,1.281,0.473,1.281,1.47v1.532H30.72v-1.532c0-0.336-0.105-0.493-0.399-0.493
			c-0.272,0-0.409,0.157-0.409,0.493v5.89c0,0.336,0.137,0.504,0.409,0.504c0.284,0,0.399-0.168,0.399-0.504V210.97z"/>
		<path fill="#FFFFFF" d="M37.849,212.479c0.011,0.052,0.021,0.136,0.021,0.21c0.01,0.818-0.472,1.532-2.425,1.532
			c-1.501,0-2.446-0.64-2.446-2.614v-3.663c0-1.732,0.746-2.415,2.425-2.415c1.606,0,2.33,0.683,2.33,2.215v3.182
			c0,0.725-0.43,1.154-0.997,1.154c-0.389,0-0.703-0.168-0.819-0.409c-0.063,0.179-0.273,0.367-0.64,0.367
			c-0.504,0-0.84-0.241-0.84-0.976v-2.289c0-0.851,0.336-1.07,0.84-1.07c0.272,0,0.493,0.146,0.577,0.377
			c0-0.125,0.011-0.23,0.021-0.325h0.472v3.381c0.042,0.168,0.116,0.314,0.357,0.314c0.22,0,0.378-0.126,0.378-0.493v-3.233
			c0-0.871-0.483-1.438-1.68-1.438c-1.25,0-1.68,0.588-1.68,1.659v3.685c0,1.365,0.64,1.806,1.816,1.806
			c1.292,0,1.659-0.347,1.669-0.809c0-0.073,0-0.104-0.011-0.146H37.849z M35.791,208.699c-0.053-0.21-0.137-0.305-0.315-0.305
			c-0.242,0-0.378,0.115-0.378,0.409v2.174c0,0.325,0.116,0.451,0.378,0.451c0.168,0,0.262-0.095,0.315-0.252V208.699z"/>
		<path fill="#FFFFFF" d="M41.251,214.14c-0.147-1.302-0.294-2.593-0.504-3.885h-0.399v3.885h-0.976v-8.64h1.344
			c1.008,0,1.522,0.42,1.522,1.554v1.753c0,0.651-0.178,1.028-0.567,1.249c0.252,1.365,0.451,2.751,0.641,4.084H41.251z
			 M41.251,207.253c0-0.525-0.073-0.777-0.535-0.777h-0.368v2.898h0.378c0.368,0,0.525-0.179,0.525-0.557V207.253z"/>
		<path fill="#FFFFFF" d="M43.708,214.14v-8.64h2.331v0.976h-1.365v2.771h0.913v0.977h-0.913v2.95h1.417v0.966H43.708z"/>
		<path fill="#FFFFFF" d="M48.128,214.14v-7.664h-0.903V205.5h2.771v0.976h-0.903v7.664H48.128z"/>
		<path fill="#FFFFFF" d="M53.105,214.14v-3.916h-0.819v3.916H51.32v-8.64h0.966v3.758h0.819V205.5h0.966v8.64H53.105z"/>
		<path fill="#FFFFFF" d="M55.688,214.14v-8.64h0.966v8.64H55.688z"/>
		<path fill="#FFFFFF" d="M60.318,214.14c-0.65-2.981-0.976-4.389-1.27-5.795c0.021,1.187,0.021,2.373,0.021,3.559v2.236H58.24
			v-8.64h1.134c0.566,3.202,0.818,4.524,1.081,5.868c-0.021-0.986-0.021-1.963-0.021-2.929V205.5h0.83v8.64H60.318z"/>
		<path fill="#FFFFFF" d="M65.001,214.14c-0.43-1.417-0.819-2.803-1.218-4.178c0.021,0.692,0.021,1.428,0.021,2.361v1.816h-0.977
			v-8.64h0.977v1.784c0,0.851,0,1.365-0.021,1.89c0.388-1.238,0.777-2.456,1.186-3.674h1.04l-1.386,3.895l1.491,4.745H65.001z"/>
		<path fill="#FFFFFF" d="M69.233,214.14c-0.147-1.302-0.294-2.593-0.504-3.885H68.33v3.885h-0.977v-8.64h1.344
			c1.008,0,1.522,0.42,1.522,1.554v1.753c0,0.651-0.179,1.028-0.567,1.249c0.252,1.365,0.452,2.751,0.64,4.084H69.233z
			 M69.233,207.253c0-0.525-0.074-0.777-0.536-0.777H68.33v2.898h0.378c0.367,0,0.525-0.179,0.525-0.557V207.253z"/>
		<path fill="#FFFFFF" d="M71.69,214.14v-8.64h2.331v0.976h-1.364v2.771h0.913v0.977h-0.913v2.95h1.417v0.966H71.69z"/>
		<path fill="#FFFFFF" d="M77.139,211.578c0-0.367-0.073-0.577-0.304-0.871c-0.389-0.493-0.788-0.893-1.208-1.491
			c-0.209-0.294-0.262-0.661-0.262-1.092v-1.291c0-0.966,0.451-1.428,1.375-1.428c0.966,0,1.333,0.462,1.333,1.428v1.574h-0.902
			v-1.563c0-0.273-0.116-0.462-0.409-0.462c-0.284,0-0.41,0.137-0.41,0.451v1.281c0,0.23,0.031,0.409,0.168,0.588
			c0.389,0.504,0.84,0.965,1.218,1.49c0.294,0.409,0.368,0.787,0.368,1.375v1.239c0,0.913-0.399,1.428-1.365,1.428
			c-0.955,0-1.375-0.515-1.375-1.428v-1.837h0.934v1.837c0,0.283,0.137,0.462,0.41,0.462c0.294,0,0.43-0.158,0.43-0.462V211.578z"/>
		<path fill="#FFFFFF" d="M80.121,214.14v-7.664h-0.902V205.5h2.771v0.976h-0.903v7.664H80.121z"/>
		<path fill="#FFFFFF" d="M83.146,206.875c0-0.955,0.451-1.47,1.375-1.47c0.934,0,1.386,0.515,1.386,1.47v5.89
			c0,0.955-0.452,1.47-1.386,1.47c-0.924,0-1.375-0.515-1.375-1.47V206.875z M84.941,206.875c0-0.325-0.137-0.493-0.42-0.493
			c-0.263,0-0.41,0.168-0.41,0.493v5.89c0,0.336,0.147,0.504,0.41,0.504c0.283,0,0.42-0.168,0.42-0.504V206.875z"/>
		<path fill="#FFFFFF" d="M89.309,214.14c-0.146-1.302-0.293-2.593-0.504-3.885h-0.398v3.885H87.43v-8.64h1.344
			c1.008,0,1.522,0.42,1.522,1.554v1.753c0,0.651-0.179,1.028-0.567,1.249c0.252,1.365,0.452,2.751,0.641,4.084H89.309z
			 M89.309,207.253c0-0.525-0.073-0.777-0.535-0.777h-0.367v2.898h0.378c0.367,0,0.524-0.179,0.524-0.557V207.253z"/>
		<path fill="#FFFFFF" d="M93.823,214.14l-0.157-1.333h-1.061c-0.062,0.451-0.115,0.892-0.168,1.333h-0.945l1.124-8.64h1.123
			l1.061,8.64H93.823z M93.561,211.914c-0.146-1.291-0.294-2.604-0.42-3.927c-0.126,1.323-0.272,2.636-0.44,3.927H93.561z"/>
		<path fill="#FFFFFF" d="M96.428,214.14v-7.664h-0.902V205.5h2.771v0.976h-0.903v7.664H96.428z"/>
		<path fill="#FFFFFF" d="M99.641,214.14v-8.64h0.967v8.64H99.641z"/>
		<path fill="#FFFFFF" d="M102.16,206.875c0-0.955,0.452-1.47,1.376-1.47c0.935,0,1.386,0.515,1.386,1.47v5.89
			c0,0.955-0.451,1.47-1.386,1.47c-0.924,0-1.376-0.515-1.376-1.47V206.875z M103.956,206.875c0-0.325-0.137-0.493-0.42-0.493
			c-0.263,0-0.409,0.168-0.409,0.493v5.89c0,0.336,0.146,0.504,0.409,0.504c0.283,0,0.42-0.168,0.42-0.504V206.875z"/>
		<path fill="#FFFFFF" d="M108.502,214.14c-0.65-2.981-0.977-4.389-1.27-5.795c0.021,1.187,0.021,2.373,0.021,3.559v2.236h-0.829
			v-8.64h1.134c0.566,3.202,0.818,4.524,1.081,5.868c-0.021-0.986-0.021-1.963-0.021-2.929V205.5h0.83v8.64H108.502z"/>
		<path fill="#FFFFFF" d="M110.959,214.14v-1.312h0.903v1.312H110.959z"/>
		<path fill="#FFFFFF" d="M115.117,210.97h0.882v1.784c0,1.008-0.389,1.48-1.281,1.48c-0.913,0-1.396-0.473-1.396-1.46v-5.879
			c0-0.997,0.482-1.49,1.396-1.49c0.861,0,1.281,0.473,1.281,1.47v1.532h-0.882v-1.532c0-0.336-0.105-0.493-0.399-0.493
			c-0.272,0-0.409,0.157-0.409,0.493v5.89c0,0.336,0.137,0.504,0.409,0.504c0.284,0,0.399-0.168,0.399-0.504V210.97z"/>
		<path fill="#FFFFFF" d="M117.418,206.875c0-0.955,0.451-1.47,1.375-1.47c0.934,0,1.386,0.515,1.386,1.47v5.89
			c0,0.955-0.452,1.47-1.386,1.47c-0.924,0-1.375-0.515-1.375-1.47V206.875z M119.213,206.875c0-0.325-0.137-0.493-0.42-0.493
			c-0.263,0-0.41,0.168-0.41,0.493v5.89c0,0.336,0.147,0.504,0.41,0.504c0.283,0,0.42-0.168,0.42-0.504V206.875z"/>
		<path fill="#FFFFFF" d="M124.861,214.14v-2.52c0-1.134,0.011-2.257,0.042-3.381c-0.188,1.418-0.389,2.846-0.776,5.9h-0.84
			l-0.756-5.9c0.021,1.124,0.041,2.258,0.041,3.381v2.52h-0.892v-8.64h1.291c0.409,3.905,0.577,5.154,0.725,6.383
			c0.146-1.229,0.325-2.488,0.734-6.383h1.323v8.64H124.861z"/>
		<path fill="#FFFFFF" d="M30.693,232.14c-0.147-1.302-0.294-2.593-0.504-3.885h-0.399v3.885h-0.976v-8.64h1.344
			c1.008,0,1.522,0.42,1.522,1.554v1.753c0,0.651-0.178,1.028-0.567,1.249c0.252,1.365,0.451,2.751,0.641,4.084H30.693z
			 M30.693,225.253c0-0.525-0.073-0.777-0.535-0.777h-0.368v2.898h0.378c0.368,0,0.525-0.179,0.525-0.557V225.253z"/>
		<path fill="#FFFFFF" d="M33.15,232.14v-8.64h2.331v0.976h-1.365v2.771h0.913v0.977h-0.913v2.95h1.417v0.966H33.15z"/>
		<path fill="#FFFFFF" d="M37.571,232.14v-7.664h-0.903V223.5h2.771v0.976h-0.903v7.664H37.571z"/>
		<path fill="#FFFFFF" d="M42.547,232.14v-3.916h-0.819v3.916h-0.966v-8.64h0.966v3.758h0.819V223.5h0.966v8.64H42.547z"/>
		<path fill="#FFFFFF" d="M45.131,232.14v-8.64h0.966v8.64H45.131z"/>
		<path fill="#FFFFFF" d="M49.761,232.14c-0.65-2.981-0.976-4.389-1.27-5.795c0.021,1.187,0.021,2.373,0.021,3.559v2.236h-0.829
			v-8.64h1.134c0.566,3.202,0.818,4.524,1.081,5.868c-0.021-0.986-0.021-1.963-0.021-2.929V223.5h0.83v8.64H49.761z"/>
		<path fill="#FFFFFF" d="M54.444,232.14c-0.43-1.417-0.819-2.803-1.218-4.178c0.021,0.692,0.021,1.428,0.021,2.361v1.816h-0.977
			v-8.64h0.977v1.784c0,0.851,0,1.365-0.021,1.89c0.388-1.238,0.777-2.456,1.186-3.674h1.04l-1.386,3.895l1.491,4.745H54.444z"/>
		<path fill="#FFFFFF" d="M58.675,232.14c-0.147-1.302-0.294-2.593-0.504-3.885h-0.399v3.885h-0.977v-8.64h1.344
			c1.008,0,1.522,0.42,1.522,1.554v1.753c0,0.651-0.179,1.028-0.567,1.249c0.252,1.365,0.452,2.751,0.64,4.084H58.675z
			 M58.675,225.253c0-0.525-0.074-0.777-0.536-0.777h-0.367v2.898h0.378c0.367,0,0.525-0.179,0.525-0.557V225.253z"/>
		<path fill="#FFFFFF" d="M61.133,232.14v-8.64h2.331v0.976h-1.365v2.771h0.913v0.977h-0.913v2.95h1.417v0.966H61.133z"/>
		<path fill="#FFFFFF" d="M66.582,229.578c0-0.367-0.074-0.577-0.304-0.871c-0.389-0.493-0.788-0.893-1.208-1.491
			c-0.21-0.294-0.262-0.661-0.262-1.092v-1.291c0-0.966,0.451-1.428,1.375-1.428c0.966,0,1.333,0.462,1.333,1.428v1.574h-0.902
			v-1.563c0-0.273-0.116-0.462-0.41-0.462c-0.284,0-0.41,0.137-0.41,0.451v1.281c0,0.23,0.032,0.409,0.168,0.588
			c0.389,0.504,0.84,0.965,1.218,1.49c0.294,0.409,0.368,0.787,0.368,1.375v1.239c0,0.913-0.399,1.428-1.365,1.428
			c-0.955,0-1.375-0.515-1.375-1.428v-1.837h0.934v1.837c0,0.283,0.136,0.462,0.41,0.462c0.294,0,0.43-0.158,0.43-0.462V229.578z"/>
		<path fill="#FFFFFF" d="M69.564,232.14v-7.664h-0.903V223.5h2.771v0.976H70.53v7.664H69.564z"/>
		<path fill="#FFFFFF" d="M72.588,224.875c0-0.955,0.452-1.47,1.376-1.47c0.935,0,1.386,0.515,1.386,1.47v5.89
			c0,0.955-0.451,1.47-1.386,1.47c-0.924,0-1.376-0.515-1.376-1.47V224.875z M74.384,224.875c0-0.325-0.137-0.493-0.42-0.493
			c-0.263,0-0.409,0.168-0.409,0.493v5.89c0,0.336,0.146,0.504,0.409,0.504c0.283,0,0.42-0.168,0.42-0.504V224.875z"/>
		<path fill="#FFFFFF" d="M78.752,232.14c-0.147-1.302-0.295-2.593-0.504-3.885h-0.399v3.885h-0.977v-8.64h1.344
			c1.008,0,1.522,0.42,1.522,1.554v1.753c0,0.651-0.179,1.028-0.566,1.249c0.252,1.365,0.451,2.751,0.64,4.084H78.752z
			 M78.752,225.253c0-0.525-0.074-0.777-0.536-0.777h-0.367v2.898h0.378c0.367,0,0.525-0.179,0.525-0.557V225.253z"/>
		<path fill="#FFFFFF" d="M83.266,232.14l-0.157-1.333h-1.061c-0.063,0.451-0.115,0.892-0.168,1.333h-0.944l1.123-8.64h1.123
			l1.061,8.64H83.266z M83.003,229.914c-0.146-1.291-0.294-2.604-0.42-3.927c-0.126,1.323-0.272,2.636-0.44,3.927H83.003z"/>
		<path fill="#FFFFFF" d="M85.87,232.14v-7.664h-0.903V223.5h2.771v0.976h-0.902v7.664H85.87z"/>
		<path fill="#FFFFFF" d="M89.084,232.14v-8.64h0.965v8.64H89.084z"/>
		<path fill="#FFFFFF" d="M91.604,224.875c0-0.955,0.451-1.47,1.375-1.47c0.934,0,1.386,0.515,1.386,1.47v5.89
			c0,0.955-0.452,1.47-1.386,1.47c-0.924,0-1.375-0.515-1.375-1.47V224.875z M93.398,224.875c0-0.325-0.137-0.493-0.42-0.493
			c-0.263,0-0.41,0.168-0.41,0.493v5.89c0,0.336,0.147,0.504,0.41,0.504c0.283,0,0.42-0.168,0.42-0.504V224.875z"/>
		<path fill="#FFFFFF" d="M97.944,232.14c-0.65-2.981-0.976-4.389-1.271-5.795c0.021,1.187,0.021,2.373,0.021,3.559v2.236h-0.829
			v-8.64H97c0.566,3.202,0.818,4.524,1.081,5.868c-0.021-0.986-0.021-1.963-0.021-2.929V223.5h0.829v8.64H97.944z"/>
		<path fill="#FFFFFF" d="M100.402,232.14v-1.312h0.902v1.312H100.402z"/>
		<path fill="#FFFFFF" d="M104.561,228.97h0.882v1.784c0,1.008-0.389,1.48-1.281,1.48c-0.913,0-1.396-0.473-1.396-1.46v-5.879
			c0-0.997,0.482-1.49,1.396-1.49c0.861,0,1.281,0.473,1.281,1.47v1.532h-0.882v-1.532c0-0.336-0.105-0.493-0.399-0.493
			c-0.272,0-0.409,0.157-0.409,0.493v5.89c0,0.336,0.137,0.504,0.409,0.504c0.284,0,0.399-0.168,0.399-0.504V228.97z"/>
		<path fill="#FFFFFF" d="M106.859,224.875c0-0.955,0.452-1.47,1.376-1.47c0.935,0,1.386,0.515,1.386,1.47v5.89
			c0,0.955-0.451,1.47-1.386,1.47c-0.924,0-1.376-0.515-1.376-1.47V224.875z M108.655,224.875c0-0.325-0.137-0.493-0.42-0.493
			c-0.263,0-0.409,0.168-0.409,0.493v5.89c0,0.336,0.146,0.504,0.409,0.504c0.283,0,0.42-0.168,0.42-0.504V224.875z"/>
		<path fill="#FFFFFF" d="M114.304,232.14v-2.52c0-1.134,0.011-2.257,0.042-3.381c-0.189,1.418-0.389,2.846-0.777,5.9h-0.84
			l-0.756-5.9c0.021,1.124,0.043,2.258,0.043,3.381v2.52h-0.893v-8.64h1.291c0.409,3.905,0.577,5.154,0.725,6.383
			c0.146-1.229,0.325-2.488,0.734-6.383h1.323v8.64H114.304z"/>
	</g>
</g>
</svg>
