<?xml version="1.0" encoding="utf-8"?>
<!-- Generator: Adobe Illustrator 15.0.0, SVG Export Plug-In . SVG Version: 6.00 Build 0)  -->
<!DOCTYPE svg PUBLIC "-//W3C//DTD SVG 1.1//EN" "http://www.w3.org/Graphics/SVG/1.1/DTD/svg11.dtd">
<svg version="1.1" id="Layer_1" xmlns="http://www.w3.org/2000/svg" xmlns:xlink="http://www.w3.org/1999/xlink" x="0px" y="0px"
	 width="140px" height="22px" viewBox="0 0 140 22" enable-background="new 0 0 140 22" xml:space="preserve">
<g>
	<path fill="#808080" d="M5.518,7.397H3.525v11.73H2.424V7.397H0.807V6.764l1.617-0.48V5.323c0-1.617,0.191-2.781,0.574-3.492
		S4.045,0.764,4.99,0.764c0.547,0,1.043,0.098,1.488,0.293L6.092,2.088C5.678,1.893,5.303,1.795,4.967,1.795
		c-0.383,0-0.672,0.113-0.867,0.34S3.76,2.729,3.666,3.237S3.525,4.448,3.525,5.346v1.066h1.992V7.397z"/>
	<path fill="#808080" d="M11.518,6.19c2.484,0,3.727,2.184,3.727,6.551c0,2.156-0.309,3.799-0.926,4.928s-1.508,1.693-2.672,1.693
		c-0.609,0-1.164-0.168-1.664-0.504S9.068,18.026,8.74,17.37H8.646l-0.152,1.758H7.58V0.893h1.113v5.66L8.646,8.088H8.74
		C9.412,6.823,10.338,6.19,11.518,6.19z M11.471,7.221c-0.977,0-1.684,0.43-2.121,1.289s-0.656,2.27-0.656,4.23v0.293
		c0,3.547,0.941,5.32,2.824,5.32c0.859,0,1.502-0.457,1.928-1.371s0.639-2.328,0.639-4.242c0-1.836-0.207-3.215-0.621-4.137
		S12.385,7.221,11.471,7.221z"/>
	<path fill="#808080" d="M29.588,10.514c0,3.938-0.879,5.906-2.637,5.906c-0.648,0-1.113-0.211-1.395-0.633s-0.43-1.02-0.445-1.793
		h-0.105c-0.133,0.844-0.344,1.459-0.633,1.846s-0.691,0.58-1.207,0.58c-0.688,0-1.221-0.365-1.6-1.096s-0.568-1.76-0.568-3.088
		c0-3.695,1.023-5.543,3.07-5.543c0.688,0,1.328,0.113,1.922,0.34l-0.234,5.59v0.715c0,0.711,0.104,1.217,0.311,1.518
		s0.502,0.451,0.885,0.451c0.531,0,0.912-0.398,1.143-1.195s0.346-2.02,0.346-3.668c0-1.484-0.186-2.797-0.557-3.938
		s-0.895-2.025-1.57-2.654s-1.447-0.943-2.314-0.943c-1.039,0-1.961,0.387-2.766,1.16s-1.424,1.861-1.857,3.264
		s-0.65,3.006-0.65,4.811c0,2.547,0.4,4.531,1.201,5.953s1.912,2.133,3.334,2.133c0.539,0,1.041-0.078,1.506-0.234
		s0.842-0.348,1.131-0.574v1.102c-0.391,0.241-0.797,0.421-1.219,0.539c-0.422,0.117-0.918,0.176-1.488,0.176
		c-1.797,0-3.17-0.759-4.119-2.279s-1.424-3.729-1.424-6.627c0-2.141,0.258-4,0.773-5.578s1.258-2.787,2.227-3.627
		s2.094-1.26,3.375-1.26c1.078,0,2.045,0.363,2.9,1.09s1.514,1.748,1.975,3.064S29.588,8.834,29.588,10.514z M22.158,12.284
		c0,2.016,0.406,3.023,1.219,3.023c0.352,0,0.627-0.324,0.826-0.973s0.334-1.652,0.404-3.012l0.188-3.574
		c-0.211-0.062-0.492-0.094-0.844-0.094c-0.578,0-1.021,0.391-1.33,1.172S22.158,10.76,22.158,12.284z"/>
	<path fill="#808080" d="M35.74,7.397h-1.992v11.73h-1.102V7.397h-1.617V6.764l1.617-0.48V5.323c0-1.617,0.191-2.781,0.574-3.492
		s1.047-1.066,1.992-1.066c0.547,0,1.043,0.098,1.488,0.293l-0.387,1.031c-0.414-0.195-0.789-0.293-1.125-0.293
		c-0.383,0-0.672,0.113-0.867,0.34s-0.34,0.594-0.434,1.102s-0.141,1.211-0.141,2.109v1.066h1.992V7.397z"/>
	<path fill="#808080" d="M41.33,6.167c0.398,0,0.77,0.055,1.113,0.164l-0.27,1.113c-0.281-0.117-0.57-0.176-0.867-0.176
		c-0.43,0-0.83,0.221-1.201,0.662s-0.662,1.057-0.873,1.846s-0.316,1.66-0.316,2.613v6.738h-1.113V6.413h0.914l0.117,2.227h0.082
		C39.51,6.991,40.314,6.167,41.33,6.167z"/>
	<path fill="#808080" d="M47.963,19.362c-1.344,0-2.377-0.572-3.1-1.717s-1.084-2.74-1.084-4.787c0-2.172,0.322-3.83,0.967-4.975
		s1.572-1.717,2.783-1.717c1.055,0,1.887,0.502,2.496,1.506s0.914,2.357,0.914,4.061v1.031h-6.023
		c0.016,1.852,0.277,3.238,0.785,4.16s1.277,1.383,2.309,1.383c0.797,0,1.637-0.262,2.52-0.785V18.6
		C49.717,19.108,48.861,19.362,47.963,19.362z M47.459,7.174c-1.531,0-2.371,1.527-2.52,4.582h4.887c0-1.398-0.213-2.512-0.639-3.34
		S48.186,7.174,47.459,7.174z"/>
	<path fill="#808080" d="M56.869,19.362c-2.469,0-3.703-2.191-3.703-6.574c0-2.156,0.309-3.799,0.926-4.928s1.527-1.693,2.73-1.693
		c0.57,0,1.111,0.164,1.623,0.492s0.92,0.781,1.225,1.359h0.094L59.717,6.6V0.893h1.113v18.234h-0.914l-0.094-1.781h-0.105
		c-0.305,0.648-0.699,1.146-1.184,1.494S57.494,19.362,56.869,19.362z M56.939,18.389c0.891,0,1.576-0.412,2.057-1.236
		s0.721-2.037,0.721-3.639v-0.727c0-1.922-0.232-3.33-0.697-4.225s-1.174-1.342-2.127-1.342c-0.914,0-1.57,0.479-1.969,1.436
		s-0.598,2.342-0.598,4.154c0,1.828,0.207,3.215,0.621,4.16S56.025,18.389,56.939,18.389z"/>
	<path fill="#808080" d="M68.166,6.19c2.484,0,3.727,2.184,3.727,6.551c0,2.156-0.309,3.799-0.926,4.928s-1.508,1.693-2.672,1.693
		c-0.609,0-1.164-0.168-1.664-0.504s-0.914-0.832-1.242-1.488h-0.094l-0.152,1.758h-0.914V0.893h1.113v5.66l-0.047,1.535h0.094
		C66.061,6.823,66.986,6.19,68.166,6.19z M68.119,7.221c-0.977,0-1.684,0.43-2.121,1.289s-0.656,2.27-0.656,4.23v0.293
		c0,3.547,0.941,5.32,2.824,5.32c0.859,0,1.502-0.457,1.928-1.371s0.639-2.328,0.639-4.242c0-1.836-0.207-3.215-0.621-4.137
		S69.033,7.221,68.119,7.221z"/>
	<path fill="#808080" d="M75.807,19.127h-1.113V0.893h1.113V19.127z"/>
	<path fill="#808080" d="M86.365,12.741c0,2.141-0.338,3.779-1.014,4.916s-1.643,1.705-2.9,1.705c-1.242,0-2.193-0.568-2.854-1.705
		s-0.99-2.775-0.99-4.916c0-4.383,1.297-6.574,3.891-6.574c1.219,0,2.168,0.574,2.848,1.723S86.365,10.655,86.365,12.741z
		 M79.768,12.741c0,1.836,0.219,3.223,0.656,4.16s1.121,1.406,2.051,1.406c1.82,0,2.73-1.855,2.73-5.566c0-3.68-0.91-5.52-2.73-5.52
		c-0.953,0-1.643,0.461-2.068,1.383S79.768,10.905,79.768,12.741z"/>
	<path fill="#808080" d="M92.436,19.362c-1.273,0-2.232-0.553-2.877-1.658s-0.967-2.729-0.967-4.869
		c0-2.172,0.326-3.826,0.979-4.963s1.615-1.705,2.889-1.705c0.789,0,1.445,0.145,1.969,0.434l-0.434,0.984
		c-0.523-0.242-1.004-0.363-1.441-0.363c-1.867,0-2.801,1.863-2.801,5.59c0,3.695,0.934,5.543,2.801,5.543
		c0.555,0,1.156-0.125,1.805-0.375v0.938c-0.258,0.141-0.574,0.25-0.949,0.328S92.709,19.362,92.436,19.362z"/>
	<path fill="#808080" d="M97.744,12.834l0.715-1.289l3.141-5.133h1.207l-2.93,4.676l3.188,8.039h-1.172l-2.766-7.008l-1.406,1.852
		v5.156h-1.113V0.893h1.113v9.809l-0.082,2.133H97.744z"/>
	<path fill="#808080" d="M104.799,18.073c0-0.836,0.305-1.254,0.914-1.254c0.25,0,0.465,0.094,0.645,0.281s0.27,0.512,0.27,0.973
		c0,0.445-0.09,0.764-0.27,0.955s-0.395,0.287-0.645,0.287C105.104,19.315,104.799,18.901,104.799,18.073z"/>
	<path fill="#808080" d="M113.154,19.362c-1.273,0-2.232-0.553-2.877-1.658s-0.967-2.729-0.967-4.869
		c0-2.172,0.326-3.826,0.979-4.963s1.615-1.705,2.889-1.705c0.789,0,1.445,0.145,1.969,0.434l-0.434,0.984
		c-0.523-0.242-1.004-0.363-1.441-0.363c-1.867,0-2.801,1.863-2.801,5.59c0,3.695,0.934,5.543,2.801,5.543
		c0.555,0,1.156-0.125,1.805-0.375v0.938c-0.258,0.141-0.574,0.25-0.949,0.328S113.428,19.362,113.154,19.362z"/>
	<path fill="#808080" d="M124.486,12.741c0,2.141-0.338,3.779-1.014,4.916s-1.643,1.705-2.9,1.705c-1.242,0-2.193-0.568-2.854-1.705
		s-0.99-2.775-0.99-4.916c0-4.383,1.297-6.574,3.891-6.574c1.219,0,2.168,0.574,2.848,1.723S124.486,10.655,124.486,12.741z
		 M117.889,12.741c0,1.836,0.219,3.223,0.656,4.16s1.121,1.406,2.051,1.406c1.82,0,2.73-1.855,2.73-5.566
		c0-3.68-0.91-5.52-2.73-5.52c-0.953,0-1.643,0.461-2.068,1.383S117.889,10.905,117.889,12.741z"/>
	<path fill="#808080" d="M138.092,19.127v-8.66c0-2.133-0.625-3.199-1.875-3.199c-0.859,0-1.479,0.373-1.857,1.119
		s-0.568,1.846-0.568,3.299v7.441h-1.102v-8.66c0-1.078-0.152-1.881-0.457-2.408s-0.777-0.791-1.418-0.791
		c-0.844,0-1.457,0.383-1.84,1.148s-0.574,2.008-0.574,3.727v6.984h-1.113V6.413h0.938l0.094,1.77h0.105
		c0.508-1.344,1.371-2.016,2.59-2.016c0.703,0,1.258,0.188,1.664,0.562s0.699,0.922,0.879,1.641c0.305-0.781,0.68-1.344,1.125-1.688
		s1.023-0.516,1.734-0.516c0.961,0,1.664,0.369,2.109,1.107s0.668,1.92,0.668,3.545v8.309H138.092z"/>
</g>
</svg>
