<?xml version="1.0" encoding="utf-8"?>
<!-- Generator: Adobe Illustrator 15.0.0, SVG Export Plug-In . SVG Version: 6.00 Build 0)  -->
<!DOCTYPE svg PUBLIC "-//W3C//DTD SVG 1.1//EN" "http://www.w3.org/Graphics/SVG/1.1/DTD/svg11.dtd">
<svg version="1.1" id="Layer_1" xmlns="http://www.w3.org/2000/svg" xmlns:xlink="http://www.w3.org/1999/xlink" x="0px" y="0px"
	 width="84.253px" height="88.621px" viewBox="0 0 84.253 88.621" enable-background="new 0 0 84.253 88.621" xml:space="preserve">
<path d="M21.874,53.965l1.277,0.146l1.321,0.675l1.272,1.141l1.189,1.543l1.069,1.876l0.917,2.141l0.732,2.335l0.516,2.462
	L30.44,68.8l0.01,2.472l-0.244,2.158l-0.471,1.82l-0.67,1.458l-0.844,1.074l-0.995,0.665l-0.667,0.14l-0.455,0.095l-1.228-0.223
	l-1.254-0.671l-0.487-0.433l-0.71-0.63l-1.119-1.41l-1.015-1.715l-0.886-1.977l-0.731-2.199l-0.548-2.382l-0.336-2.524l-0.08-2.396
	l0.172-2.181l0.407-1.919l0.623-1.607l0.819-1.247l0.996-0.834L21.874,53.965z M21.874,53.965"/>
<path d="M10.545,72.014l-0.608,0.205l-1.303-0.162l-0.086-0.011l-2.544-0.914l-0.02-0.008L5.98,71.104L3.353,48.287l0.021,0.006
	l1.381,0.438l1.61,0.771l0.761,0.619l0.705,0.813l0.628,1.033l0.532,1.28l0.415,1.549l0.279,1.839l0.051,1.284l-0.112,1.187
	l-0.275,0.951l-0.438,0.583L8.919,60.7l0.514,0.444l0.489,0.606l0.861,1.591l0.646,1.905l0.362,1.994l0.069,1.526l-0.115,1.217
	l-0.273,0.934l-0.408,0.669L10.545,72.014z M10.545,72.014"/>
<path d="M42.06,57.643l-3.792-1.179L37.341,31.45l4.084,1.083l2.243,0.796l2.121,1.17l1.943,1.534l1.709,1.882l1.418,2.212
	l1.076,2.522l0.683,2.805l0.244,3.06l-0.217,2.957l-0.636,2.382l-1.006,1.837l-1.326,1.32l-1.602,0.83l-1.831,0.366l-2.019-0.073
	L42.06,57.643z M42.06,57.643"/>
<path d="M18.754,40.085l-0.893,0.002l6.333,12.002l-2.648-0.824L15.605,39.71l-0.901-0.263l0.875,9.963l-2.115-0.658l-2.24-24.228
	l2.697,0.715l2.454,0.809l1.229,0.675l1.186,0.978l1.104,1.416l0.86,1.668l0.587,1.804l0.288,1.825l0.015,1.29L21.5,36.866
	l-0.291,1.013l-0.429,0.846l-0.558,0.662l-0.678,0.459L18.754,40.085z M18.754,40.085"/>
<path d="M44.655,61.345l0.241,10.689l5.511-8.87l2.243,0.709l-5.937,9.151l6.127,14.919l0.011,0.025l-2.188-0.786l-0.011-0.025
	l-5.046-12.491l-0.631,0.908l0.217,9.621l0.001,0.021l-1.576-0.566l-0.001-0.021l-0.63-23.812L44.655,61.345z M44.655,61.345"/>
<path d="M40.248,60.357l0.802,1.003l0.111,3.589l-0.795-1.287l-0.88-1.036l-0.924-0.759l-0.929-0.454l-1.046-0.128l-0.943,0.287
	l-0.822,0.66l-0.685,0.989l-0.534,1.276l-0.369,1.521l-0.191,1.724l0,1.888l0.191,1.915l0.364,1.85l0.517,1.741l0.651,1.589
	l0.766,1.394l0.864,1.156l0.945,0.875l1.011,0.549l0.898,0.166l0.854-0.146l0.793-0.45l0.715-0.747l0.104,3.354l-0.745,0.402
	l-0.664,0.163l-0.145,0.036h-0.835l-0.827-0.196l-1.295-0.692l-0.492-0.439l-0.734-0.654l-1.134-1.444l-1.016-1.747l-0.871-2.004
	l-0.699-2.215l-0.498-2.382l-0.266-2.504L31.493,66.7l0.26-2.253l0.504-1.965l0.728-1.631l0.93-1.25l1.109-0.821l1.264-0.345
	l1.391,0.179l1.728,0.953L40.248,60.357z M40.248,60.357"/>
<path fill="#FBFBFB" d="M24.693,75.87l-0.948-0.512l-0.914-0.827l-0.858-1.104l-0.783-1.345l-0.686-1.548l-0.565-1.718l-0.422-1.851
	l-0.255-1.948l-0.064-1.85l0.117-1.688l0.289-1.489l0.455-1.251l0.612-0.968l0.76-0.645l0.898-0.278l1.025,0.13l1.059,0.539
	l0.991,0.89l0.905,1.189l0.799,1.44l0.675,1.641l0.535,1.787l0.378,1.885l0.206,1.93l0.014,1.901l-0.183,1.673l-0.357,1.422
	l-0.51,1.148l-0.643,0.855l-0.756,0.54l-0.85,0.203L24.693,75.87z M24.693,75.87"/>
<path d="M11.748,50.941l1.481,0.469l1.926,20.585l3.487,1.236l0.213,2.499l0.002,0.021l-4.877-1.753l-0.002-0.021L11.748,50.941z
	 M11.748,50.941"/>
<path fill="#FBFBFB" d="M6.21,61.449l0.866,0.295l0.997,0.487l0.994,0.896l0.443,0.636l0.377,0.778l0.291,0.932l0.184,1.098
	l0.051,1.061l-0.081,0.812l-0.194,0.589l-0.288,0.394L9.067,69.73l-0.933-0.17l-1.058-0.375L6.21,61.449z M6.21,61.449"/>
<path fill="#FBFBFB" d="M5.085,51.411l0.396,0.127l0.963,0.446l0.84,0.812l0.354,0.601l0.299,0.757l0.238,0.936l0.168,1.134
	l0.069,1.115l-0.05,0.844l-0.155,0.604l-0.247,0.396l-0.717,0.29l-0.929-0.179l-0.359-0.121L5.085,51.411z M5.085,51.411"/>
<path fill="#FBFBFB" d="M39.89,35.107l0.861,0.233l1.853,0.622l1.762,0.86l1.623,1.119l1.438,1.395l1.202,1.686l0.92,1.989
	l0.593,2.301l0.223,2.617l-0.175,2.464l-0.541,1.901l-0.858,1.392l-1.128,0.934l-1.354,0.523l-1.534,0.161L43.1,55.147l-1.77-0.43
	l-0.826-0.252L39.89,35.107z M39.89,35.107"/>
<path d="M35.622,55.642l-9.694-3.015L24.33,28l10.218,2.709l0.129,2.987l-7.833-2.12l0.425,7.097l7.49,2.125l0.125,2.856
	l-7.445-2.152l0.547,9.131l7.52,2.302L35.622,55.642z M35.622,55.642"/>
<path fill="#FBFBFB" d="M13.695,27.952l0.591,0.16l1.704,0.609l1.629,1.06l0.699,0.755l0.574,0.935l0.415,1.135l0.22,1.353
	l-0.009,1.305l-0.231,0.958l-0.417,0.657L18.3,37.277l-1.458,0.195l-1.661-0.329l-0.697-0.2L13.695,27.952z M13.695,27.952"/>
<path d="M8.648,23.842l0.282,2.886l-6.203-1.679l0.765,6.907l5.914,1.679l0.272,2.766L3.796,34.7l1.267,11.441l-2.009-0.625
	L3.033,45.51L0.282,21.624l0.022,0.006L8.648,23.842z M8.648,23.842"/>
<path fill="#BE1C03" d="M84.253,10.249L54.774,33.234L0,18.989L34.954,0L84.253,10.249z M84.253,10.249"/>
<path fill="#760D01" d="M81.153,60.159L54.725,88.621l0.049-55.387l29.479-22.985L81.153,60.159z M81.153,60.159"/>
</svg>
