<?xml version="1.0" encoding="utf-8"?>
<!-- Generator: Adobe Illustrator 15.0.0, SVG Export Plug-In . SVG Version: 6.00 Build 0)  -->
<!DOCTYPE svg PUBLIC "-//W3C//DTD SVG 1.1//EN" "http://www.w3.org/Graphics/SVG/1.1/DTD/svg11.dtd">
<svg version="1.1" xmlns="http://www.w3.org/2000/svg" xmlns:xlink="http://www.w3.org/1999/xlink" x="0px" y="0px" width="288px"
	 height="288px" viewBox="0 0 288 288" enable-background="new 0 0 288 288" xml:space="preserve">
<g id="rethink_banner_back">
</g>
<g id="background">
</g>
<g id="med_blue">
</g>
<g id="white">
</g>
<g id="gold">
</g>
<g id="kinetic_banner">
</g>
<g id="kinetic">
</g>
<g id="highlights">
</g>
<g id="bevel_R">
</g>
<g id="bevel_L">
</g>
<g id="bevel_top">
</g>
<g id="rethink_banner">
	<g>
		<g>
			<path fill="#95ADD2" d="M280.58,140.14c-3.852-4.133-7.707-8.331-11.562-12.582c3.855-6.284,7.711-12.479,11.562-18.572
				c-11.672,2.738-23.359,5.667-35.057,8.737c4.562,3.613,9.119,7.188,13.672,10.712c0,5.904,0,11.807,0,17.71
				C266.332,144.102,273.457,142.096,280.58,140.14z"/>
			<path fill="#34679D" d="M259.195,128.458c-6.551,1.759-13.107,3.556-19.668,5.386c0-6.966,0-13.936,0-20.903
				C246.088,118.194,252.645,123.375,259.195,128.458z"/>
			<path fill="#95ADD2" d="M10.755,212.415c3.853-5.843,7.708-11.796,11.564-17.847c-3.856-4.482-7.712-8.919-11.564-13.308
				c11.673-2.441,23.358-5.12,35.055-7.976c-4.558,5.922-9.117,11.76-13.672,17.492c0,5.904,0,11.807,0,17.71
				C25.004,209.896,17.877,211.21,10.755,212.415z"/>
			<path fill="#34679D" d="M32.138,190.8c6.553-1.417,13.109-2.906,19.671-4.456c0-6.971,0-13.942,0-20.909
				C45.247,174.073,38.691,182.545,32.138,190.8z"/>
		</g>
		<path fill="#003053" stroke="#003053" stroke-width="0.1945" stroke-miterlimit="10" d="M141.265,267.167
			c0,0-5.322-2.253-13.258-5.903c-32.908-15.146-88.355-54.972-87.455-108.181V42.158l4.51-1.72
			C76.594,28.423,109.88,22.333,144,22.333c34.121,0,67.404,6.09,98.938,18.105l4.51,1.72v111.045
			c0.898,53.088-54.545,92.915-87.455,108.06c-7.936,3.65-13.258,5.903-13.258,5.903L144,268.332L141.265,267.167z M144,29.334
			c-32.784,0-65.566,5.883-96.442,17.648c0,29.235,0,58.468,0,87.702c0,0.293,0,0.68,0,1.026c0,4.916,0,14.645,0,17.49
			c-0.882,51.792,56.818,89.479,83.375,101.7c7.821,3.598,13.068,5.823,13.068,5.823s5.246-2.225,13.068-5.823
			c26.557-12.22,84.254-49.912,83.375-101.7c0-2.845,0-12.57,0-17.49c0-0.346,0-0.733,0-1.026c0-29.234,0-58.467,0-87.702
			C209.566,35.218,176.783,29.334,144,29.334z"/>
		<linearGradient id="SVGID_1_" gradientUnits="userSpaceOnUse" x1="118.1655" y1="234.8882" x2="228.8906" y2="124.1631">
			<stop  offset="0" style="stop-color:#1C426A"/>
			<stop  offset="0.4157" style="stop-color:#2D5E92"/>
			<stop  offset="0.7879" style="stop-color:#3973AF"/>
			<stop  offset="1" style="stop-color:#3E7BBA"/>
		</linearGradient>
		<path fill="url(#SVGID_1_)" d="M144,134.175c0,41.604,0,84.949,0,126.548c0,0,5.246-2.225,13.068-5.823
			c26.52-12.206,84.09-49.81,83.369-101.487c0-3.948,0-13.558,0-17.703C209.566,134.689,176.783,134.175,144,134.175z"/>
		<linearGradient id="SVGID_2_" gradientUnits="userSpaceOnUse" x1="49.1025" y1="137.2559" x2="150.5116" y2="35.8468">
			<stop  offset="0" style="stop-color:#34679D"/>
			<stop  offset="0.5329" style="stop-color:#3A73AF"/>
			<stop  offset="1" style="stop-color:#3E7BBA"/>
		</linearGradient>
		<path fill="url(#SVGID_2_)" d="M47.558,135.71c30.876-1.021,63.658-1.536,96.442-1.536c0-34.948,0-69.893,0-104.84
			c-32.784,0-65.566,5.883-96.442,17.648C47.558,76.56,47.558,106.133,47.558,135.71z"/>
		<path fill="#FFFFFF" d="M144,113.207c6.557,0,13.113,0.065,19.656,0.19c0,6.948,0,13.896,0,20.844
			c-6.543-0.042-13.1-0.065-19.656-0.065C144,127.186,144,120.196,144,113.207z M183.215,134.423
			c6.496,0.08,12.961,0.186,19.381,0.307c0-6.602,0-13.208,0-19.81c-6.42-0.38-12.885-0.699-19.381-0.954
			C183.215,120.785,183.215,127.604,183.215,134.423z M221.705,135.16c6.311,0.164,12.562,0.345,18.738,0.551
			c0-5.915,0-11.829,0-17.748c-6.176-0.631-12.428-1.204-18.738-1.709C221.705,122.552,221.705,128.857,221.705,135.16z
			 M163.656,113.396c6.543,0.129,13.07,0.318,19.566,0.574c0-6.823,0-13.637,0-20.458c-6.496-0.425-13.023-0.744-19.566-0.957
			C163.656,99.501,163.656,106.449,163.656,113.396z M202.596,114.92c6.42,0.38,12.793,0.824,19.109,1.333
			c0-6.302,0-12.608,0-18.911c-6.316-0.85-12.689-1.595-19.109-2.233C202.596,101.711,202.596,108.314,202.596,114.92z M144,92.238
			c6.557,0,13.113,0.11,19.656,0.322c0-6.948,0-13.892,0-20.843c-6.543-0.296-13.1-0.448-19.656-0.448
			C144,78.258,144,85.247,144,92.238z M183.215,93.518c6.496,0.425,12.961,0.957,19.381,1.595c0-6.602,0-13.204,0-19.81
			c-6.42-0.893-12.885-1.641-19.381-2.242C183.215,79.88,183.215,86.699,183.215,93.518z M221.705,97.347
			c6.311,0.854,12.562,1.812,18.738,2.875c0-5.917,0-11.833,0-17.747c-6.176-1.497-12.428-2.838-18.738-4.034
			C221.705,84.742,221.705,91.044,221.705,97.347z M163.656,71.717c6.543,0.3,13.07,0.748,19.566,1.349c0-6.819,0-13.638,0-20.457
			c-6.496-0.771-13.023-1.345-19.566-1.731C163.656,57.824,163.656,64.772,163.656,71.717z M202.596,75.303
			c6.42,0.896,12.793,1.944,19.109,3.138c0-6.303,0-12.604,0-18.907c-6.316-1.538-12.689-2.886-19.109-4.042
			C202.596,62.094,202.596,68.7,202.596,75.303z M144,50.302c6.557,0,13.113,0.199,19.656,0.579c0-6.949,0-13.893,0-20.84
			c-6.543-0.471-13.1-0.707-19.656-0.707C144,36.323,144,43.313,144,50.302z M183.215,52.613c6.496,0.771,12.961,1.728,19.381,2.882
			c0-6.599,0-13.204,0-19.806c-6.42-1.417-12.885-2.591-19.381-3.53C183.215,38.979,183.215,45.794,183.215,52.613z M221.705,59.538
			c6.311,1.539,12.562,3.267,18.738,5.192c0-5.917,0-11.829,0-17.748c-6.176-2.355-12.428-4.47-18.738-6.351
			C221.705,46.93,221.705,53.236,221.705,59.538z"/>
		<path fill="#FFFFFF" d="M85.263,134.734c-6.424,0.122-12.805,0.266-19.123,0.43c-6.26,6.408-12.46,12.494-18.58,18.139
			c-0.019,1.049,0.023,2.082,0.053,3.115c0.019,0.63,0.019,1.269,0.053,1.888c0.08,1.379,0.201,2.75,0.361,4.11
			c0.054,0.452,0.125,0.893,0.186,1.341c0.152,1.102,0.312,2.196,0.509,3.275c0.045,0.239,0.091,0.475,0.136,0.709
			c0.122,0.627,0.278,1.235,0.415,1.858C61.039,159.422,73.069,147.509,85.263,134.734z"/>
		<path fill="#FFFFFF" d="M124.273,134.24c-6.553,0.042-13.087,0.106-19.593,0.183c-17.244,18.31-34.265,35.545-50.786,49.3
			c1.918,4.425,4.205,8.691,6.796,12.794C81.354,179.537,102.73,157.249,124.273,134.24z"/>
		<path fill="#FFFFFF" d="M144,155.141c0-6.989,0-13.979,0-20.966c-0.019,0-0.039,0-0.053,0
			c-25.19,26.854-50.372,53.988-74.691,74.134c3.161,3.829,6.542,7.467,10.052,10.917C100.5,201.243,122.248,178.324,144,155.141z"
			/>
		<path fill="#FFFFFF" d="M144,197.132c0-7,0-13.994,0-20.995c-17.915,19.096-35.826,37.679-53.434,53.17
			c4.065,3.336,8.171,6.428,12.217,9.243C116.429,226.018,130.214,211.826,144,197.132z"/>
		<path fill="#FFFFFF" d="M144,239.155c0-7.002,0-14.003,0-21.004c-9.41,10.032-18.819,19.738-28.183,28.764
			c4.957,2.921,9.557,5.344,13.557,7.248c0.049,0.019,0.099,0.042,0.144,0.061C134.339,249.342,139.171,244.301,144,239.155z"/>
		<linearGradient id="SVGID_3_" gradientUnits="userSpaceOnUse" x1="77.0391" y1="216.957" x2="237.5347" y2="56.4614">
			<stop  offset="0" style="stop-color:#EABA09"/>
			<stop  offset="0.492" style="stop-color:#F2C912"/>
			<stop  offset="1" style="stop-color:#F8D418"/>
		</linearGradient>
		<path fill="url(#SVGID_3_)" d="M163.656,113.396c6.543,0.129,13.07,0.318,19.566,0.574c0,6.814,0,13.637,0,20.452
			c-6.496-0.083-13.023-0.145-19.566-0.183C163.656,127.288,163.656,120.344,163.656,113.396z M202.596,134.729
			c6.42,0.122,12.793,0.266,19.109,0.43c0-6.302,0-12.608,0-18.906c-6.316-0.51-12.689-0.953-19.109-1.333
			C202.596,121.522,202.596,128.128,202.596,134.729z M144,113.207c6.557,0,13.113,0.065,19.656,0.19c0-6.948,0-13.896,0-20.84
			c-6.543-0.212-13.1-0.323-19.656-0.323C144,99.227,144,106.217,144,113.207z M183.215,113.966
			c6.496,0.255,12.961,0.574,19.381,0.954c0-6.606,0-13.208,0-19.811c-6.42-0.642-12.885-1.173-19.381-1.596
			C183.215,100.329,183.215,107.152,183.215,113.966z M221.705,116.253c6.311,0.505,12.562,1.078,18.738,1.709
			c0-5.914,0-11.829,0-17.743c-6.176-1.067-12.428-2.025-18.738-2.877C221.705,103.646,221.705,109.952,221.705,116.253z
			 M163.656,92.56c6.543,0.209,13.07,0.532,19.566,0.958c0-6.815,0-13.638,0-20.452c-6.496-0.601-13.023-1.048-19.566-1.349
			C163.656,78.665,163.656,85.612,163.656,92.56z M202.596,95.113c6.42,0.639,12.793,1.383,19.109,2.234c0-6.303,0-12.604,0-18.906
			c-6.316-1.194-12.689-2.242-19.109-3.138C202.596,81.909,202.596,88.511,202.596,95.113z M144,71.269
			c6.557,0,13.113,0.152,19.656,0.448c0-6.944,0-13.893,0-20.839c-6.543-0.384-13.1-0.579-19.656-0.579
			C144,57.289,144,64.279,144,71.269z M183.215,73.061c6.496,0.601,12.961,1.349,19.381,2.242c0-6.603,0-13.209,0-19.812
			c-6.42-1.15-12.885-2.115-19.381-2.882C183.215,59.424,183.215,66.243,183.215,73.061z M221.705,78.441
			c6.311,1.196,12.562,2.537,18.738,4.034c0-5.918,0-11.829,0-17.748c-6.176-1.927-12.428-3.655-18.738-5.193
			C221.705,65.836,221.705,72.138,221.705,78.441z M163.656,50.881c6.543,0.387,13.07,0.96,19.566,1.732c0-6.819,0-13.634,0-20.454
			c-6.496-0.941-13.023-1.648-19.566-2.119C163.656,36.988,163.656,43.932,163.656,50.881z M202.596,55.496
			c6.42,1.159,12.793,2.5,19.109,4.042c0-6.302,0-12.608,0-18.906c-6.316-1.884-12.689-3.534-19.109-4.942
			C202.596,42.292,202.596,48.897,202.596,55.496z M47.558,153.306c0,0,0,0,0.003-0.004c0-0.034-0.003-0.068-0.003-0.102
			C47.558,153.23,47.558,153.275,47.558,153.306z M66.141,135.164c-6.26,0.16-12.46,0.345-18.583,0.547c0,4.916,0,14.645,0,17.49
			c0,0.034,0.003,0.068,0.003,0.102C53.681,147.657,59.88,141.572,66.141,135.164z M104.68,134.423
			c-6.508,0.083-12.985,0.186-19.417,0.311c-12.194,12.775-24.224,24.688-35.989,34.865c0.121,0.547,0.235,1.102,0.368,1.648
			c0.137,0.578,0.304,1.14,0.452,1.709c1.003,3.685,2.283,7.274,3.799,10.766C70.415,169.968,87.436,152.732,104.68,134.423z
			 M143.947,134.175c-6.564,0-13.125,0.023-19.674,0.065c-21.542,23.009-42.919,45.296-63.583,62.277
			c2.59,4.099,5.469,8.034,8.565,11.791C93.575,188.163,118.757,161.029,143.947,134.175z M144,176.137c0-6.998,0-13.999,0-20.997
			c-21.752,23.184-43.5,46.102-64.692,64.085c3.643,3.579,7.429,6.937,11.258,10.082C108.174,213.823,126.085,195.229,144,176.137z
			 M144,218.151c0-7.005,0-14.013,0-21.019c-13.786,14.694-27.571,28.886-41.217,41.418c4.483,3.126,8.874,5.914,13.034,8.365
			C125.181,237.894,134.59,228.183,144,218.151z M129.519,254.224l0.005,0.011c0.47,0.22,0.957,0.456,1.409,0.665
			c7.821,3.598,13.068,5.823,13.068,5.823c0-6.605,0-14.955,0-21.568C139.171,244.301,134.339,249.342,129.519,254.224z"/>
		<linearGradient id="SVGID_4_" gradientUnits="userSpaceOnUse" x1="144.0005" y1="319.0688" x2="144.0005" y2="-48.9052">
			<stop  offset="0" style="stop-color:#002141"/>
			<stop  offset="0.0359" style="stop-color:#002243"/>
			<stop  offset="0.5031" style="stop-color:#003053"/>
			<stop  offset="0.5671" style="stop-color:#013256"/>
			<stop  offset="0.8528" style="stop-color:#05395E"/>
			<stop  offset="0.9222" style="stop-color:#073C62"/>
			<stop  offset="0.9919" style="stop-color:#0D456E"/>
			<stop  offset="1" style="stop-color:#0E4670"/>
		</linearGradient>
		<path fill="url(#SVGID_4_)" d="M47.558,101.495c-0.023,0.008-0.05,0.015-0.072,0.023c0,28.339,0,56.677,0,85.012
			c0.128,0.297,0.27,0.585,0.403,0.878c2.294-0.541,4.592-1.132,6.891-1.687c61.836-14.876,123.922-34.941,185.737-52.101
			c0-28.661,0-57.327,0-85.988C176.295,60.56,111.779,81.578,47.558,101.495z"/>
		<g>
			<g>
				<path fill="#34679D" d="M84.948,163.475c-3.502-9.804-7.005-19.563-10.507-29.254c3.312-11.137,6.625-22.345,9.937-33.607
					c-2.746,0.839-5.489,1.675-8.232,2.515c-1.284,1.713-2.568,3.423-3.855,5.128c-0.889,3.165-1.785,6.325-2.678,9.479
					c0-4.205,0-8.408,0-12.612c-2.603,0.794-5.205,1.584-7.807,2.374c-1.283,1.695-2.568,3.393-3.848,5.083
					c0,20.642,0,41.289,0,61.931c2.599-0.654,5.201-1.318,7.802-1.986c1.284-1.642,2.568-3.29,3.853-4.942c0-2.082,0-4.167,0-6.25
					c1.06,3.115,2.115,6.237,3.172,9.364c2.769-0.725,5.539-1.462,8.307-2.203C82.38,166.826,83.665,165.151,84.948,163.475z"/>
				<path fill="#34679D" d="M100.42,159.206c0-21.162,0-42.321,0-63.484c-2.602,0.794-5.204,1.584-7.807,2.377
					c-1.288,1.725-2.572,3.446-3.855,5.166c0,21.053,0,42.106,0,63.159c2.602-0.707,5.204-1.421,7.806-2.143
					C97.853,162.591,99.137,160.904,100.42,159.206z"/>
				<path fill="#34679D" d="M106.795,97.806c0,21.209,0,42.417,0,63.629c2.416-0.68,4.832-1.36,7.248-2.043
					c1.284-1.71,2.572-3.419,3.855-5.128c0-0.927,0-1.854,0-2.781c0.373,2.165,0.745,4.327,1.114,6.492
					c2.936-0.839,5.875-1.682,8.813-2.526c1.283-1.718,2.571-3.434,3.855-5.151c0-21.326,0-42.649,0-63.975
					c-2.412,0.714-4.829,1.433-7.244,2.154c-1.284,1.729-2.573,3.46-3.856,5.189c0,0.897,0,1.796,0,2.693
					c-0.373-2.126-0.744-4.261-1.116-6.39c-2.941,0.883-5.877,1.763-8.81,2.653C109.366,94.35,108.083,96.078,106.795,97.806z"/>
				<path fill="#34679D" d="M138.059,88.488c0,21.333,0,42.671,0,64.005c5.52-1.6,11.035-3.21,16.554-4.817
					c1.287-1.724,2.572-3.445,3.861-5.169c0-2.823,0-5.649,0-8.472c-2.914,0.844-5.832,1.694-8.746,2.542c0-5.285,0-10.573,0-15.857
					c0.373-0.11,0.748-0.216,1.121-0.326c1.283-1.717,2.574-3.438,3.855-5.155c0-2.826,0-5.653,0-8.479
					c-1.658,0.478-3.316,0.957-4.977,1.436c0-4.875,0-9.748,0-14.622c1.629-0.47,3.26-0.938,4.885-1.405
					c1.287-1.718,2.572-3.431,3.861-5.144c0-2.826,0-5.648,0-8.475c-5.521,1.566-11.042,3.153-16.56,4.764
					C140.63,85.039,139.343,86.763,138.059,88.488z"/>
				<path fill="#34679D" d="M161.924,81.612c0,2.826,0,5.648,0,8.471c1.896-0.536,3.791-1.072,5.686-1.603
					c0,18.466,0,36.931,0,55.397c2.605-0.756,5.213-1.516,7.816-2.275c1.285-1.717,2.574-3.435,3.855-5.144
					c0-17.072,0-34.139,0-51.212c0.613-0.163,1.223-0.329,1.832-0.497c1.285-1.69,2.574-3.377,3.855-5.057c0-2.807,0-5.615,0-8.421
					c-6.393,1.698-12.789,3.441-19.188,5.223C164.498,78.202,163.211,79.906,161.924,81.612z"/>
				<path fill="#34679D" d="M189.279,74.14c0,21.147,0,42.292,0,63.439c2.604-0.748,5.205-1.5,7.812-2.249
					c1.285-1.698,2.568-3.396,3.855-5.09c0-21.034,0-42.068,0-63.101c-2.605,0.653-5.209,1.318-7.812,1.991
					C191.85,70.794,190.561,72.465,189.279,74.14z"/>
				<path fill="#34679D" d="M230.033,81.031c0-2.188,0-4.376,0-6.564c0.006-9.486-3.092-13.565-9.287-12.133
					c-3.65,0.848-6.225,3.082-7.793,6.614c-3.748,2.632-5.646,7.651-5.643,15.046c0,11.313,0,22.63,0,33.942
					c0,9.661,3.195,13.565,9.584,11.77c3.525-0.992,6.01-3.282,7.529-6.781c3.729-2.686,5.609-7.663,5.609-15.028
					c0-2.837,0-5.671,0-8.505c-2.502,0.635-5.01,1.277-7.514,1.931c-1.186,1.61-2.365,3.236-3.547,4.862c0-6.169,0-12.339,0-18.507
					c2.406-0.608,4.809-1.205,7.213-1.794C227.471,84.26,228.75,82.642,230.033,81.031z"/>
			</g>
			<g>
				<path fill="#FFFFFF" d="M61.806,169.615c0-20.708,0-41.414,0-62.118c2.603-0.79,5.205-1.58,7.807-2.374
					c0,7.046,0,14.097,0,21.147c2.177-7.685,4.357-15.4,6.533-23.142c2.743-0.84,5.486-1.675,8.232-2.515
					c-3.312,11.26-6.625,22.47-9.937,33.607c3.502,9.691,7.005,19.45,10.507,29.254c-2.769,0.753-5.539,1.5-8.308,2.242
					c-2.344-6.933-4.684-13.839-7.027-20.711c0,7.525,0,15.051,0,22.577C67.01,168.266,64.408,168.942,61.806,169.615z"/>
				<path fill="#FFFFFF" d="M92.614,161.375c0-21.095,0-42.186,0-63.276c2.603-0.793,5.205-1.588,7.807-2.377
					c0,21.163,0,42.322,0,63.484C97.819,159.935,95.216,160.656,92.614,161.375z"/>
				<path fill="#FFFFFF" d="M119.178,131.356c-0.425-3.183-0.854-6.362-1.28-9.546c0,10.819,0,21.634,0,32.453
					c-2.416,0.688-4.832,1.378-7.244,2.062c-0.003-21.235-0.003-42.47,0-63.705c2.933-0.89,5.869-1.77,8.81-2.653
					c1.253,7.185,2.511,14.378,3.765,21.577c0.403,3.115,0.805,6.23,1.208,9.35c0-10.808,0-21.611,0-32.419
					c2.416-0.721,4.832-1.44,7.244-2.154c0,21.326,0,42.649,0,63.975c-2.937,0.851-5.873,1.694-8.81,2.538
					C121.64,145.671,120.41,138.51,119.178,131.356z"/>
				<path fill="#FFFFFF" d="M149.729,116.675c0,6.633,0,13.265,0,19.902c2.914-0.848,5.832-1.698,8.746-2.542
					c0,2.823,0,5.648,0,8.472c-5.521,1.61-11.042,3.216-16.56,4.824c0-21.342,0-42.676,0-64.017
					c5.519-1.61,11.039-3.203,16.56-4.764c0,2.827,0,5.649,0,8.475c-2.914,0.829-5.832,1.664-8.746,2.503c0,6.223,0,12.445,0,18.667
					c1.66-0.479,3.318-0.958,4.977-1.436c0,2.826,0,5.653,0,8.479C153.047,115.717,151.389,116.196,149.729,116.675z"/>
				<path fill="#FFFFFF" d="M165.781,76.495c6.398-1.781,12.795-3.524,19.188-5.223c0,2.807,0,5.614,0,8.421
					c-1.896,0.505-3.791,1.018-5.688,1.535c0,18.408,0,36.821,0,55.23c-2.604,0.752-5.211,1.512-7.814,2.268
					c0-18.45,0-36.901,0-55.352c-1.895,0.525-3.789,1.057-5.686,1.588C165.781,82.14,165.781,79.318,165.781,76.495z"/>
				<path fill="#FFFFFF" d="M193.135,132.466c0-21.108,0-42.223,0-63.336c2.604-0.672,5.207-1.337,7.812-1.991
					c0,21.033,0,42.067,0,63.101C198.342,130.98,195.738,131.721,193.135,132.466z"/>
				<path fill="#FFFFFF" d="M222.52,101.321c2.504-0.654,5.012-1.296,7.514-1.931c0,2.834,0,5.668,0,8.505
					c0.006,9.501-3.092,15.077-9.287,16.791c-6.387,1.777-9.586-2.139-9.586-11.772c0-11.29,0-22.58,0-33.87
					c0-9.63,3.199-15.229,9.586-16.711c6.191-1.428,9.293,2.644,9.287,12.133c0,2.188,0,4.376,0,6.564
					c-2.502,0.597-5.01,1.204-7.514,1.819c0-3.445,0-6.898,0-10.347c-0.002-1.554-0.594-2.188-1.773-1.907
					c-1.184,0.281-1.779,1.2-1.773,2.758c0,13.74,0,27.48,0,41.224c-0.006,1.554,0.59,2.168,1.773,1.846
					c1.18-0.318,1.773-1.257,1.773-2.803C222.52,109.522,222.52,105.418,222.52,101.321z"/>
			</g>
		</g>
		<path fill="#FFFFFF" d="M95.067,44.255c1.151,3.495,2.303,7.021,3.454,10.573c3.738-0.517,7.484-0.969,11.241-1.356
			c-3.039,2.641-6.071,5.3-9.098,7.963c1.158,3.582,2.317,7.184,3.475,10.811c-3.032-2.013-6.056-3.974-9.072-5.858
			c-3.02,2.679-6.028,5.353-9.029,8.023c1.147-3.792,2.294-7.604,3.442-11.434c-3.005-1.793-6.002-3.51-8.988-5.144
			c3.689-0.722,7.396-1.378,11.119-1.975C92.763,52.005,93.914,48.137,95.067,44.255z"/>
		<path fill="#FFFFFF" d="M186.979,190.405c1.156,3.54,2.314,7.062,3.469,10.552c3.736-0.665,7.453-1.379,11.16-2.123
			c-2.996,2.853-6.006,5.713-9.021,8.577c1.15,3.468,2.297,6.91,3.449,10.329c-3.012-1.599-6.031-3.271-9.057-4.999
			c-3.025,2.868-6.059,5.74-9.098,8.601c1.16-3.975,2.318-7.929,3.475-11.875c-3.033-1.804-6.076-3.658-9.125-5.561
			c3.771-0.544,7.529-1.125,11.277-1.744C184.666,198.227,185.82,194.307,186.979,190.405z"/>
		<linearGradient id="SVGID_5_" gradientUnits="userSpaceOnUse" x1="201.1221" y1="75.3521" x2="234.9841" y2="41.49">
			<stop  offset="0.3374" style="stop-color:#FFFFFF;stop-opacity:0"/>
			<stop  offset="1" style="stop-color:#FFFFFF;stop-opacity:0.54"/>
		</linearGradient>
		<path fill="url(#SVGID_5_)" d="M218.793,61.859c22.797,28.209,21.658,52.628,21.723,52.887c0-22.576,0-45.149,0-67.725
			c-23.568-8.977-48.246-14.526-73.189-16.654C167.314,29.831,195.916,32.802,218.793,61.859z"/>
		
			<linearGradient id="SVGID_6_" gradientUnits="userSpaceOnUse" x1="-345.0532" y1="75.3169" x2="-311.1908" y2="41.4545" gradientTransform="matrix(-1 0 0 1 -258.0977 0)">
			<stop  offset="0.3374" style="stop-color:#231F20;stop-opacity:0"/>
			<stop  offset="1" style="stop-color:#231F20;stop-opacity:0.37"/>
		</linearGradient>
		<path fill="url(#SVGID_6_)" d="M69.282,61.821c-22.801,28.217-21.649,52.616-21.718,52.886c0-22.576,0-45.148,0-67.725
			c23.564-8.976,48.241-14.526,73.179-16.653C120.759,29.794,92.162,32.764,69.282,61.821z"/>
		<linearGradient id="SVGID_7_" gradientUnits="userSpaceOnUse" x1="195.7285" y1="268.332" x2="195.7285" y2="42.1582">
			<stop  offset="0" style="stop-color:#04375C"/>
			<stop  offset="0.0887" style="stop-color:#083D64"/>
			<stop  offset="0.2209" style="stop-color:#0A3F67"/>
			<stop  offset="0.3557" style="stop-color:#144772"/>
			<stop  offset="0.6441" style="stop-color:#265584"/>
			<stop  offset="0.8528" style="stop-color:#2C5A8A"/>
			<stop  offset="0.9083" style="stop-color:#2E5D8E"/>
			<stop  offset="0.9642" style="stop-color:#32659A"/>
			<stop  offset="1" style="stop-color:#376EA6"/>
		</linearGradient>
		<path fill="url(#SVGID_7_)" d="M247.447,42.158v111.045c0.898,53.088-54.545,92.915-87.455,108.06
			c-7.936,3.65-13.258,5.903-13.258,5.903L144,268.332v-7.609c0,0,5.246-2.225,13.068-5.823
			c26.557-12.22,84.254-49.912,83.375-101.7c0-2.845,0-12.57,0-17.49c0-0.346,0-0.733,0-1.026c0-29.234,0-58.467,0-87.702
			L247.447,42.158z"/>
		<linearGradient id="SVGID_8_" gradientUnits="userSpaceOnUse" x1="92.271" y1="268.332" x2="92.271" y2="42.1582">
			<stop  offset="0" style="stop-color:#003053"/>
			<stop  offset="0.1204" style="stop-color:#04365C"/>
			<stop  offset="0.4049" style="stop-color:#0C436C"/>
			<stop  offset="0.4471" style="stop-color:#0D446E"/>
			<stop  offset="0.7423" style="stop-color:#104A76"/>
			<stop  offset="0.8433" style="stop-color:#144C78"/>
			<stop  offset="0.9448" style="stop-color:#20527F"/>
			<stop  offset="1" style="stop-color:#2A5785"/>
		</linearGradient>
		<path fill="url(#SVGID_8_)" d="M47.558,46.982c0,29.235,0,58.468,0,87.702c0,0.293,0,0.68,0,1.026c0,4.916,0,14.645,0,17.49
			c-0.882,51.792,56.818,89.479,83.375,101.7c7.821,3.598,13.068,5.823,13.068,5.823v7.609l-2.735-1.166
			c0,0-5.322-2.253-13.258-5.903c-32.908-15.146-88.355-54.972-87.455-108.181V42.158L47.558,46.982z"/>
		<linearGradient id="SVGID_9_" gradientUnits="userSpaceOnUse" x1="92.2769" y1="93.8833" x2="195.7244" y2="-9.5642">
			<stop  offset="0" style="stop-color:#2F6092"/>
			<stop  offset="0.2644" style="stop-color:#326599"/>
			<stop  offset="0.6564" style="stop-color:#34679D"/>
			<stop  offset="0.7677" style="stop-color:#356AA1"/>
			<stop  offset="0.8797" style="stop-color:#3A72AD"/>
			<stop  offset="0.9917" style="stop-color:#4081C1"/>
			<stop  offset="1" style="stop-color:#4182C3"/>
		</linearGradient>
		<path fill="url(#SVGID_9_)" d="M40.552,42.158l4.51-1.72C76.594,28.423,109.88,22.333,144,22.333
			c34.121,0,67.404,6.09,98.938,18.105l4.51,1.72l-7.004,4.824C209.566,35.218,176.783,29.334,144,29.334
			c-32.784,0-65.566,5.883-96.442,17.648L40.552,42.158z"/>
		<path fill="#D0D7E7" d="M259.221,160.436c-75.516,22.792-151.521,48.579-227.038,62.365c0-10.648,0-21.296,0-31.944
			c75.516-16.349,151.522-42.131,227.038-62.359C259.221,139.14,259.221,149.792,259.221,160.436z"/>
		<g>
			<path fill="#003053" d="M66.171,209.292c-0.342-3.126-0.683-6.218-1.17-9.281c-0.303,0.077-0.619,0.145-0.926,0.221
				c0,3.184,0,6.359,0,9.542c-0.757,0.171-1.508,0.346-2.269,0.516c0-7.061,0-14.127,0-21.193c1.042-0.25,2.082-0.505,3.12-0.755
				c2.343-0.57,3.536,0.163,3.536,2.959c0,1.436,0,2.875,0,4.312c0.004,1.611-0.414,2.64-1.315,3.4
				c0.582,3.222,1.049,6.522,1.49,9.702C67.815,208.904,66.995,209.102,66.171,209.292z M66.171,192.354
				c0-1.292-0.167-1.88-1.246-1.611c-0.281,0.069-0.571,0.138-0.851,0.206c0,2.375,0,4.749,0,7.116
				c0.289-0.069,0.584-0.137,0.874-0.205c0.857-0.206,1.223-0.722,1.223-1.664C66.171,194.914,66.171,193.633,66.171,192.354z"/>
			<path fill="#003053" d="M71.884,207.951c0-7.111,0-14.226,0-21.338c1.8-0.452,3.605-0.911,5.41-1.37c0,0.809,0,1.622,0,2.422
				c-1.057,0.267-2.113,0.535-3.165,0.802c0,2.283,0,4.566,0,6.85c0.702-0.179,1.409-0.35,2.116-0.524c0,0.809,0,1.614,0,2.419
				c-0.707,0.171-1.414,0.349-2.116,0.524c0,2.435,0,4.858,0,7.29c1.094-0.262,2.192-0.529,3.29-0.794c0,0.794,0,1.591,0,2.394
				C75.573,207.074,73.722,207.515,71.884,207.951z"/>
			<path fill="#003053" d="M82.148,205.471c0-6.352,0-12.703,0-19.051c-0.695,0.178-1.395,0.36-2.094,0.539c0-0.805,0-1.614,0-2.423
				c2.147-0.551,4.293-1.109,6.436-1.675c0,0.813,0,1.629,0,2.435c-0.695,0.186-1.398,0.369-2.097,0.543c0,6.359,0,12.715,0,19.07
				C83.649,205.094,82.9,205.28,82.148,205.471z"/>
			<path fill="#003053" d="M93.72,202.541c0-3.263,0-6.522,0-9.789c-0.631,0.174-1.265,0.334-1.9,0.501c0,3.259,0,6.52,0,9.778
				c-0.748,0.194-1.496,0.384-2.245,0.57c0-7.184,0-14.367,0-21.555c0.749-0.2,1.498-0.391,2.245-0.592c0,3.134,0,6.261,0,9.387
				c0.635-0.167,1.269-0.331,1.9-0.502c0-3.13,0-6.264,0-9.394c0.752-0.198,1.504-0.403,2.249-0.601c0,7.207,0,14.412,0,21.615
				C95.224,202.158,94.472,202.349,93.72,202.541z"/>
			<path fill="#003053" d="M99.729,200.981c0-7.218,0-14.436,0-21.649c0.749-0.206,1.497-0.407,2.245-0.613
				c0,7.227,0,14.452,0,21.669C101.226,200.584,100.478,200.783,99.729,200.981z"/>
			<path fill="#003053" d="M110.502,198.105c-1.512-7.081-2.271-10.413-2.963-13.763c0.054,2.971,0.054,5.938,0.054,8.931
				c0,1.872,0,3.746,0,5.618c-0.643,0.176-1.284,0.347-1.926,0.517c0-7.233,0-14.465,0-21.698c0.877-0.244,1.754-0.482,2.632-0.727
				c1.323,7.685,1.904,10.85,2.515,14.071c-0.053-2.473-0.046-4.927-0.046-7.362c0-2.465,0-4.931,0-7.389
				c0.643-0.178,1.285-0.356,1.926-0.532c0,7.241,0,14.488,0,21.737C111.961,197.709,111.232,197.911,110.502,198.105z"/>
			<path fill="#003053" d="M121.389,195.107c-0.998-3.29-1.902-6.538-2.833-9.74c0.053,1.728,0.046,3.586,0.046,5.941
				c0,1.527,0,3.054,0,4.582c-0.756,0.208-1.512,0.414-2.268,0.622c0-7.255,0-14.511,0-21.767c0.756-0.208,1.516-0.417,2.268-0.635
				c0,1.498,0,2.997,0,4.495c0.007,2.141,0.007,3.44-0.046,4.778c0.904-3.378,1.804-6.701,2.761-10.04
				c0.805-0.229,1.616-0.452,2.416-0.68c-1.079,3.578-2.15,7.157-3.225,10.731c1.155,3.661,2.31,7.332,3.464,10.997
				C123.111,194.637,122.252,194.872,121.389,195.107z"/>
			<path fill="#003053" d="M136.505,190.834c-0.333-3.19-0.684-6.355-1.166-9.474c-0.309,0.086-0.62,0.174-0.93,0.262
				c0,3.27,0,6.541,0,9.816c-0.757,0.216-1.512,0.429-2.272,0.653c0-7.278,0-14.549,0-21.831c1.041-0.296,2.081-0.597,3.126-0.896
				c2.344-0.676,3.537,0.045,3.537,2.909c0,1.478,0,2.948,0,4.43c0,1.645-0.41,2.72-1.307,3.528c0.573,3.29,1.044,6.652,1.482,9.892
				C138.153,190.363,137.329,190.603,136.505,190.834z M136.505,173.439c-0.003-1.323-0.167-1.918-1.243-1.611
				c-0.288,0.084-0.573,0.167-0.854,0.255c0,2.438,0,4.873,0,7.315c0.295-0.086,0.584-0.174,0.881-0.258
				c0.854-0.239,1.215-0.798,1.215-1.751C136.505,176.071,136.505,174.75,136.505,173.439z"/>
			<path fill="#003053" d="M142.225,189.189c0-7.282,0-14.557,0-21.843c1.809-0.517,3.61-1.051,5.417-1.58c0,0.828,0,1.652,0,2.481
				c-1.055,0.299-2.111,0.611-3.167,0.915c0,2.336,0,4.672,0,7.009c0.707-0.209,1.413-0.415,2.12-0.623c0,0.82,0,1.648,0,2.469
				c-0.707,0.208-1.414,0.413-2.12,0.619c0,2.484,0,4.968,0,7.458c1.097-0.32,2.195-0.639,3.296-0.961c0,0.813,0,1.626,0,2.442
				C145.918,188.11,144.072,188.649,142.225,189.189z"/>
			<path fill="#003053" d="M154.898,179.009c0.004-0.943-0.168-1.414-0.707-1.999c-0.902-0.972-1.824-1.717-2.809-2.937
				c-0.484-0.603-0.605-1.5-0.605-2.59c0-1.083,0-2.173,0-3.26c0-2.443,1.047-3.913,3.197-4.543c2.25-0.661,3.102,0.255,3.098,2.689
				c0,1.33,0,2.659,0,3.985c-0.703,0.205-1.398,0.407-2.102,0.616c0-1.315,0-2.632,0-3.95c0.004-0.688-0.266-1.087-0.945-0.885
				c-0.658,0.19-0.957,0.635-0.953,1.414c0,1.078,0,2.161,0,3.236c0,0.593,0.074,1.014,0.391,1.375
				c0.896,1.003,1.947,1.877,2.834,2.929c0.68,0.844,0.85,1.737,0.85,3.229c0,1.037,0,2.083,0,3.123
				c0.006,2.313-0.922,3.879-3.172,4.551c-2.217,0.654-3.205-0.365-3.197-2.67c0-1.55,0-3.092,0-4.642
				c0.721-0.213,1.445-0.421,2.176-0.643c0,1.55,0,3.096,0,4.642c-0.008,0.718,0.311,1.083,0.947,0.889
				c0.684-0.201,1.002-0.691,0.998-1.466C154.898,181.067,154.898,180.038,154.898,179.009z"/>
			<path fill="#003053" d="M161.838,183.411c0-6.447,0-12.889,0-19.339c-0.693,0.205-1.393,0.414-2.096,0.619
				c0-0.825,0-1.641,0-2.469c2.15-0.63,4.297-1.265,6.449-1.896c0,0.821,0,1.642,0,2.465c-0.701,0.206-1.406,0.411-2.102,0.62
				c0,6.443,0,12.886,0,19.335C163.34,182.963,162.592,183.187,161.838,183.411z"/>
			<path fill="#003053" d="M168.877,162.997c-0.002-2.421,1.049-4.008,3.197-4.65c2.168-0.639,3.221,0.338,3.217,2.746
				c0,4.939,0,9.882,0,14.824c0,2.397-1.045,4.016-3.217,4.668c-2.148,0.65-3.197-0.331-3.197-2.743
				C168.877,172.893,168.877,167.943,168.877,162.997z M173.049,161.755c0-0.809-0.318-1.137-0.975-0.942
				c-0.613,0.174-0.955,0.695-0.955,1.52c0,4.946,0,9.892,0,14.838c0,0.847,0.342,1.169,0.955,0.979
				c0.656-0.197,0.975-0.714,0.975-1.565C173.049,171.642,173.049,166.7,173.049,161.755z"/>
			<path fill="#003053" d="M183.207,176.977c-0.34-3.165-0.684-6.298-1.17-9.398c-0.307,0.091-0.623,0.187-0.928,0.281
				c0,3.255,0,6.508,0,9.759c-0.756,0.229-1.512,0.456-2.268,0.688c0-7.245,0-14.48,0-21.721c1.037-0.308,2.08-0.619,3.119-0.923
				c2.346-0.699,3.541,0.008,3.541,2.846c0,1.466,0,2.928,0,4.398c0,1.638-0.424,2.705-1.314,3.529
				c0.582,3.252,1.041,6.587,1.488,9.793C184.852,176.475,184.027,176.726,183.207,176.977z M183.207,159.692
				c0-1.319-0.172-1.904-1.246-1.581c-0.281,0.083-0.57,0.171-0.852,0.254c0,2.424,0,4.852,0,7.275
				c0.289-0.086,0.59-0.174,0.879-0.262c0.855-0.254,1.219-0.809,1.219-1.766C183.207,162.31,183.207,160.995,183.207,159.692z"/>
			<path fill="#003053" d="M193.701,173.781c-0.119-1.07-0.242-2.149-0.359-3.221c-0.826,0.247-1.639,0.498-2.469,0.746
				c-0.145,1.169-0.264,2.317-0.387,3.453c-0.73,0.231-1.463,0.455-2.193,0.676c0.865-7.483,1.738-14.952,2.611-22.424
				c0.863-0.255,1.734-0.509,2.605-0.768c0.824,6.955,1.641,13.906,2.465,20.847C195.215,173.318,194.463,173.554,193.701,173.781z
				 M193.094,168.402c-0.336-3.122-0.688-6.302-0.973-9.522c-0.291,3.388-0.639,6.781-1.027,10.131
				C191.762,168.805,192.432,168.6,193.094,168.402z"/>
			<path fill="#003053" d="M199.768,171.935c0-6.367,0-12.737,0-19.103c-0.705,0.201-1.398,0.411-2.102,0.623
				c0-0.816,0-1.622,0-2.435c2.145-0.638,4.295-1.269,6.441-1.903c0,0.813,0,1.618,0,2.431c-0.693,0.21-1.398,0.418-2.1,0.62
				c0,6.363,0,12.718,0,19.085C201.258,171.476,200.516,171.703,199.768,171.935z"/>
			<path fill="#003053" d="M207.238,169.647c0-7.149,0-14.302,0-21.447c0.738-0.22,1.488-0.437,2.234-0.657
				c0,7.139,0,14.288,0,21.425C208.727,169.193,207.977,169.421,207.238,169.647z"/>
			<path fill="#003053" d="M213.088,149.884c0.004-2.363,1.041-3.94,3.189-4.571c2.168-0.627,3.219,0.335,3.219,2.69
				c0,4.836,0,9.675,0,14.507c0,2.358-1.047,3.939-3.219,4.604c-2.143,0.653-3.186-0.292-3.189-2.656
				C213.088,159.597,213.088,154.742,213.088,149.884z M217.26,148.665c-0.01-0.806-0.318-1.129-0.982-0.931
				c-0.605,0.179-0.943,0.691-0.943,1.493c0,4.855,0,9.702,0,14.553c-0.004,0.836,0.338,1.136,0.943,0.95
				c0.664-0.194,0.982-0.704,0.982-1.535C217.26,158.351,217.26,153.507,217.26,148.665z"/>
			<path fill="#003053" d="M227.82,163.373c-1.512-6.853-2.27-10.082-2.953-13.327c0.055,2.896,0.051,5.805,0.055,8.715
				c0,1.834,0,3.662,0,5.485c-0.641,0.201-1.285,0.39-1.928,0.588c0-7.077,0-14.154,0-21.231c0.879-0.258,1.756-0.513,2.629-0.76
				c1.314,7.469,1.904,10.539,2.512,13.646c-0.051-2.408-0.043-4.798-0.051-7.164c0-2.394,0-4.794,0-7.195
				c0.646-0.183,1.289-0.365,1.93-0.551c0,7.039,0,14.082,0,21.125C229.283,162.92,228.549,163.146,227.82,163.373z"/>
		</g>
	</g>
</g>
</svg>
