<?xml version="1.0" encoding="utf-8"?>
<!-- Generator: Adobe Illustrator 15.0.0, SVG Export Plug-In . SVG Version: 6.00 Build 0)  -->
<!DOCTYPE svg PUBLIC "-//W3C//DTD SVG 1.1//EN" "http://www.w3.org/Graphics/SVG/1.1/DTD/svg11.dtd">
<svg version="1.1" id="Your_Design" xmlns="http://www.w3.org/2000/svg" xmlns:xlink="http://www.w3.org/1999/xlink" x="0px"
	 y="0px" width="311.811px" height="402.52px" viewBox="0 0 311.811 402.52" enable-background="new 0 0 311.811 402.52"
	 xml:space="preserve">
<g>
	<g>
		<path fill="#D0D7E7" d="M133.689,45.685v-9.871h2.663v1.115h-1.559v3.167h1.043v1.115h-1.043v3.37h1.619v1.104H133.689z"/>
		<path fill="#D0D7E7" d="M140.156,45.685c-0.167-1.487-0.335-2.962-0.576-4.438h-0.456v4.438h-1.115v-9.871h1.535
			c1.151,0,1.739,0.48,1.739,1.775v2.003c0,0.744-0.204,1.175-0.647,1.427c0.288,1.559,0.516,3.143,0.731,4.666H140.156z
			 M140.156,37.817c0-0.6-0.084-0.888-0.611-0.888h-0.42v3.311h0.432c0.42,0,0.6-0.204,0.6-0.636V37.817z"/>
		<path fill="#D0D7E7" d="M142.989,45.685v-9.871h1.104v9.871H142.989z"/>
		<path fill="#D0D7E7" d="M147.921,42.062h1.007v2.039c0,1.151-0.443,1.691-1.463,1.691c-1.044,0-1.596-0.54-1.596-1.667v-6.716
			c0-1.14,0.552-1.703,1.596-1.703c0.983,0,1.463,0.54,1.463,1.679v1.751h-1.007v-1.751c0-0.384-0.12-0.564-0.456-0.564
			c-0.312,0-0.468,0.18-0.468,0.564v6.728c0,0.384,0.156,0.576,0.468,0.576c0.323,0,0.456-0.192,0.456-0.576V42.062z"/>
		<path fill="#D0D7E7" d="M153.213,45.685v-9.871h1.56c1.175,0,1.715,0.564,1.715,1.787v1.619c0,1.235-0.54,1.775-1.703,1.775
			h-0.468v4.689H153.213z M155.396,37.589c0-0.443-0.18-0.66-0.623-0.66h-0.456v2.986h0.468c0.42,0,0.611-0.204,0.611-0.66V37.589z"
			/>
		<path fill="#D0D7E7" d="M159.991,45.685l-0.18-1.523h-1.211c-0.072,0.516-0.132,1.019-0.192,1.523h-1.079l1.283-9.871h1.283
			l1.211,9.871H159.991z M159.691,43.142c-0.168-1.475-0.336-2.975-0.479-4.486c-0.144,1.511-0.312,3.011-0.504,4.486H159.691z"/>
		<path fill="#D0D7E7" d="M162.645,45.685v-9.871h1.104v8.767h1.619v1.104H162.645z"/>
		<path fill="#D0D7E7" d="M166.868,45.685v-9.871h1.104v8.767h1.619v1.104H166.868z"/>
		<path fill="#D0D7E7" d="M173.442,45.685l-0.18-1.523h-1.211c-0.072,0.516-0.132,1.019-0.192,1.523h-1.079l1.283-9.871h1.283
			l1.211,9.871H173.442z M173.143,43.142c-0.168-1.475-0.336-2.975-0.479-4.486c-0.144,1.511-0.312,3.011-0.504,4.486H173.143z"/>
		<path fill="#D0D7E7" d="M176.12,45.685v-9.871h1.104v9.871H176.12z"/>
	</g>
	<g>
		<path fill="#34679D" d="M109.564,365.861c-0.168-1.487-0.335-2.962-0.576-4.438h-0.456v4.438h-1.115v-9.87h1.535
			c1.151,0,1.739,0.479,1.739,1.774v2.003c0,0.744-0.204,1.176-0.647,1.428c0.288,1.559,0.516,3.142,0.731,4.665H109.564z
			 M109.564,357.993c0-0.6-0.084-0.887-0.611-0.887h-0.42v3.31h0.432c0.42,0,0.6-0.203,0.6-0.636V357.993z"/>
		<path fill="#34679D" d="M112.374,365.861v-9.87h2.663v1.115h-1.559v3.166h1.043v1.115h-1.043v3.37h1.619v1.104H112.374z"/>
		<path fill="#34679D" d="M117.425,365.861v-8.755h-1.031v-1.115h3.166v1.115h-1.031v8.755H117.425z"/>
		<path fill="#34679D" d="M123.112,365.861v-4.474h-0.936v4.474h-1.104v-9.87h1.104v4.293h0.936v-4.293h1.104v9.87H123.112z"/>
		<path fill="#34679D" d="M126.065,365.861v-9.87h1.104v9.87H126.065z"/>
		<path fill="#34679D" d="M131.356,365.861c-0.744-3.406-1.115-5.014-1.451-6.62c0.024,1.355,0.024,2.71,0.024,4.065v2.555h-0.947
			v-9.87h1.295c0.648,3.657,0.936,5.169,1.235,6.704c-0.024-1.128-0.024-2.243-0.024-3.347v-3.357h0.948v9.87H131.356z"/>
		<path fill="#34679D" d="M136.708,365.861c-0.492-1.619-0.936-3.202-1.391-4.773c0.024,0.792,0.024,1.631,0.024,2.698v2.075h-1.115
			v-9.87h1.115v2.038c0,0.972,0,1.56-0.024,2.159c0.444-1.415,0.888-2.807,1.355-4.197h1.188l-1.583,4.449l1.703,5.421H136.708z"/>
		<path fill="#34679D" d="M141.544,365.861c-0.168-1.487-0.335-2.962-0.576-4.438h-0.456v4.438h-1.115v-9.87h1.535
			c1.151,0,1.739,0.479,1.739,1.774v2.003c0,0.744-0.204,1.176-0.647,1.428c0.288,1.559,0.516,3.142,0.731,4.665H141.544z
			 M141.544,357.993c0-0.6-0.084-0.887-0.611-0.887h-0.42v3.31h0.432c0.42,0,0.6-0.203,0.6-0.636V357.993z"/>
		<path fill="#34679D" d="M144.353,365.861v-9.87h2.663v1.115h-1.559v3.166h1.043v1.115h-1.043v3.37h1.619v1.104H144.353z"/>
		<path fill="#34679D" d="M150.58,362.935c0-0.419-0.084-0.659-0.348-0.995c-0.444-0.563-0.899-1.02-1.379-1.703
			c-0.24-0.336-0.3-0.756-0.3-1.247v-1.476c0-1.104,0.516-1.631,1.571-1.631c1.104,0,1.523,0.527,1.523,1.631v1.799h-1.031v-1.786
			c0-0.312-0.132-0.528-0.468-0.528c-0.324,0-0.468,0.156-0.468,0.516v1.464c0,0.264,0.036,0.468,0.191,0.671
			c0.444,0.576,0.96,1.104,1.392,1.703c0.336,0.468,0.42,0.899,0.42,1.571v1.415c0,1.044-0.456,1.632-1.56,1.632
			c-1.091,0-1.571-0.588-1.571-1.632v-2.099h1.068v2.099c0,0.324,0.155,0.528,0.468,0.528c0.335,0,0.491-0.181,0.491-0.528V362.935z
			"/>
		<path fill="#34679D" d="M153.988,365.861v-8.755h-1.031v-1.115h3.166v1.115h-1.031v8.755H153.988z"/>
		<path fill="#34679D" d="M157.445,357.562c0-1.091,0.517-1.679,1.571-1.679c1.067,0,1.583,0.588,1.583,1.679v6.729
			c0,1.092-0.516,1.68-1.583,1.68c-1.055,0-1.571-0.588-1.571-1.68V357.562z M159.497,357.562c0-0.371-0.156-0.563-0.48-0.563
			c-0.3,0-0.468,0.192-0.468,0.563v6.729c0,0.384,0.168,0.576,0.468,0.576c0.324,0,0.48-0.192,0.48-0.576V357.562z"/>
		<path fill="#34679D" d="M164.487,365.861c-0.168-1.487-0.336-2.962-0.575-4.438h-0.456v4.438h-1.115v-9.87h1.535
			c1.151,0,1.739,0.479,1.739,1.774v2.003c0,0.744-0.204,1.176-0.648,1.428c0.288,1.559,0.517,3.142,0.732,4.665H164.487z
			 M164.487,357.993c0-0.6-0.084-0.887-0.611-0.887h-0.42v3.31h0.432c0.42,0,0.6-0.203,0.6-0.636V357.993z"/>
		<path fill="#34679D" d="M169.647,365.861l-0.18-1.523h-1.211c-0.072,0.516-0.132,1.02-0.192,1.523h-1.079l1.283-9.87h1.283
			l1.211,9.87H169.647z M169.348,363.318c-0.168-1.475-0.336-2.974-0.479-4.485c-0.144,1.512-0.312,3.011-0.504,4.485H169.348z"/>
		<path fill="#34679D" d="M172.625,365.861v-8.755h-1.031v-1.115h3.166v1.115h-1.031v8.755H172.625z"/>
		<path fill="#34679D" d="M176.298,365.861v-9.87h1.104v9.87H176.298z"/>
		<path fill="#34679D" d="M179.177,357.562c0-1.091,0.517-1.679,1.571-1.679c1.067,0,1.583,0.588,1.583,1.679v6.729
			c0,1.092-0.516,1.68-1.583,1.68c-1.055,0-1.571-0.588-1.571-1.68V357.562z M181.229,357.562c0-0.371-0.156-0.563-0.48-0.563
			c-0.3,0-0.468,0.192-0.468,0.563v6.729c0,0.384,0.168,0.576,0.468,0.576c0.324,0,0.48-0.192,0.48-0.576V357.562z"/>
		<path fill="#34679D" d="M186.424,365.861c-0.743-3.406-1.115-5.014-1.451-6.62c0.024,1.355,0.024,2.71,0.024,4.065v2.555h-0.948
			v-9.87h1.296c0.647,3.657,0.936,5.169,1.235,6.704c-0.024-1.128-0.024-2.243-0.024-3.347v-3.357h0.947v9.87H186.424z"/>
		<path fill="#34679D" d="M189.232,365.861v-1.499h1.032v1.499H189.232z"/>
		<path fill="#34679D" d="M193.984,362.239h1.007v2.039c0,1.151-0.443,1.691-1.463,1.691c-1.044,0-1.596-0.54-1.596-1.668v-6.716
			c0-1.14,0.552-1.703,1.596-1.703c0.983,0,1.463,0.54,1.463,1.679v1.751h-1.007v-1.751c0-0.384-0.12-0.563-0.456-0.563
			c-0.312,0-0.468,0.18-0.468,0.563v6.729c0,0.384,0.156,0.576,0.468,0.576c0.323,0,0.456-0.192,0.456-0.576V362.239z"/>
		<path fill="#34679D" d="M196.612,357.562c0-1.091,0.517-1.679,1.571-1.679c1.067,0,1.583,0.588,1.583,1.679v6.729
			c0,1.092-0.516,1.68-1.583,1.68c-1.055,0-1.571-0.588-1.571-1.68V357.562z M198.664,357.562c0-0.371-0.156-0.563-0.48-0.563
			c-0.3,0-0.468,0.192-0.468,0.563v6.729c0,0.384,0.168,0.576,0.468,0.576c0.324,0,0.48-0.192,0.48-0.576V357.562z"/>
		<path fill="#34679D" d="M205.118,365.861v-2.878c0-1.296,0.013-2.579,0.049-3.862c-0.216,1.619-0.444,3.25-0.888,6.74h-0.96
			l-0.863-6.74c0.024,1.283,0.048,2.578,0.048,3.862v2.878h-1.02v-9.87h1.476c0.468,4.461,0.659,5.889,0.827,7.292
			c0.168-1.403,0.372-2.843,0.84-7.292h1.511v9.87H205.118z"/>
	</g>
	<g>
		<path fill="#34679D" d="M134.191,45.153v-9.871h2.663v1.115h-1.559v3.167h1.043v1.115h-1.043v3.37h1.619v1.104H134.191z"/>
		<path fill="#34679D" d="M140.658,45.153c-0.167-1.487-0.335-2.962-0.576-4.438h-0.456v4.438h-1.115v-9.871h1.535
			c1.151,0,1.739,0.48,1.739,1.775v2.003c0,0.744-0.204,1.175-0.647,1.427c0.288,1.559,0.516,3.143,0.731,4.666H140.658z
			 M140.658,37.286c0-0.6-0.084-0.888-0.611-0.888h-0.42v3.311h0.432c0.42,0,0.6-0.204,0.6-0.636V37.286z"/>
		<path fill="#34679D" d="M143.491,45.153v-9.871h1.104v9.871H143.491z"/>
		<path fill="#34679D" d="M148.423,41.531h1.007v2.039c0,1.151-0.443,1.691-1.463,1.691c-1.044,0-1.596-0.54-1.596-1.667v-6.716
			c0-1.14,0.552-1.703,1.596-1.703c0.983,0,1.463,0.54,1.463,1.679v1.751h-1.007v-1.751c0-0.384-0.12-0.564-0.456-0.564
			c-0.312,0-0.468,0.18-0.468,0.564v6.728c0,0.384,0.156,0.576,0.468,0.576c0.323,0,0.456-0.192,0.456-0.576V41.531z"/>
		<path fill="#34679D" d="M153.715,45.153v-9.871h1.56c1.175,0,1.715,0.564,1.715,1.787v1.619c0,1.235-0.54,1.775-1.703,1.775
			h-0.468v4.689H153.715z M155.897,37.058c0-0.443-0.18-0.66-0.623-0.66h-0.456v2.986h0.468c0.42,0,0.611-0.204,0.611-0.66V37.058z"
			/>
		<path fill="#34679D" d="M160.493,45.153l-0.18-1.523h-1.211c-0.072,0.516-0.132,1.019-0.192,1.523h-1.079l1.283-9.871h1.283
			l1.211,9.871H160.493z M160.193,42.611c-0.168-1.475-0.336-2.975-0.479-4.486c-0.144,1.511-0.312,3.011-0.504,4.486H160.193z"/>
		<path fill="#34679D" d="M163.146,45.153v-9.871h1.104v8.767h1.619v1.104H163.146z"/>
		<path fill="#34679D" d="M167.37,45.153v-9.871h1.104v8.767h1.619v1.104H167.37z"/>
		<path fill="#34679D" d="M173.944,45.153l-0.18-1.523h-1.211c-0.072,0.516-0.132,1.019-0.192,1.523h-1.079l1.283-9.871h1.283
			l1.211,9.871H173.944z M173.645,42.611c-0.168-1.475-0.336-2.975-0.479-4.486c-0.144,1.511-0.312,3.011-0.504,4.486H173.645z"/>
		<path fill="#34679D" d="M176.622,45.153v-9.871h1.104v9.871H176.622z"/>
	</g>
	<g opacity="0.15">
		<path fill="#D0D7E7" d="M255.106,214.978v-105.75l-4.456-1.698c-30.006-11.431-61.683-17.226-94.147-17.226
			c-32.463,0-64.14,5.795-94.152,17.226l-4.457,1.698v105.626c-0.853,50.729,51.957,88.665,83.292,103.083
			c7.459,3.432,12.562,5.598,12.612,5.617l2.704,1.156l2.698-1.156c0.049-0.02,5.152-2.186,12.616-5.617
			C203.156,303.518,255.964,265.605,255.106,214.978z M247.912,198.34v16.633c0.807,47.021-49.344,82.743-79.104,96.437
			c-6.761,3.113-11.553,5.164-12.305,5.486c-0.754-0.322-5.548-2.373-12.312-5.486c-0.42-0.193-0.844-0.391-1.271-0.594
			c4.522-4.576,9.053-9.307,13.583-14.131c0-6.662,0-13.318,0-19.971c-8.892,9.484-17.79,18.658-26.641,27.197
			c-4.044-2.363-8.222-5.006-12.423-7.916c12.931-11.883,25.998-25.33,39.063-39.26c0-6.656,0-13.303,0-19.958
			c-16.999,18.11-33.985,35.741-50.688,50.448c-3.66-3.004-7.249-6.207-10.688-9.59c20.106-17.08,40.734-38.824,61.375-60.823
			c0-6.639,0-13.285,0-19.924c-0.021,0-0.037,0-0.051,0c-23.896,25.473-47.792,51.21-70.863,70.347
			c-2.945-3.584-5.677-7.328-8.123-11.219c19.594-16.127,39.854-37.255,60.287-59.074c-6.234,0.043-12.443,0.103-18.628,0.177
			c-16.328,17.34-32.452,33.662-48.105,46.716c-1.868-4.34-3.351-8.827-4.368-13.45c11.125-9.641,22.494-20.895,34.014-32.967
			c-6.111,0.113-12.169,0.253-18.176,0.406c-5.865,6.006-11.675,11.704-17.403,17.004V114.186
			c29.137-11.081,59.893-16.699,91.416-16.699c0,6.559,0,13.116,0,19.671c6.223,0,12.46,0.187,18.678,0.552
			c0,6.601,0,13.208,0,19.801c6.224,0.284,12.425,0.712,18.597,1.288c0,6.472,0,12.957,0,19.434
			c-6.172-0.401-12.373-0.705-18.597-0.911c0-6.607,0-13.201,0-19.811c-6.218-0.282-12.455-0.421-18.678-0.421
			c0,6.64,0,13.288,0,19.929c6.223,0,12.46,0.107,18.678,0.31c0,6.604,0,13.205,0,19.806c6.224,0.123,12.425,0.306,18.597,0.544
			c0,6.482,0,12.964,0,19.441c6.178,0.078,12.323,0.18,18.425,0.299c0-6.279,0-12.562,0-18.839
			c-6.101-0.356-12.241-0.661-18.416-0.908c0-6.483,0-12.951,0-19.431c6.175,0.396,12.315,0.904,18.416,1.515
			c0,6.274,0,12.551,0,18.824c6.101,0.363,12.163,0.783,18.161,1.271c0-5.993,0-11.982,0-17.973
			c5.91,0.801,11.764,1.696,17.549,2.688v16.885c-5.785-0.592-11.639-1.131-17.549-1.601c0,5.985,0,11.98,0,17.973
			C236.273,197.977,242.127,198.146,247.912,198.34z M193.777,119.35c-6.172-0.736-12.373-1.28-18.597-1.648
			c0-6.515,0-13.03,0-19.542c6.239,0.444,12.441,1.118,18.597,2.01C193.777,106.561,193.777,112.956,193.777,119.35z
			 M230.363,143.907c0,5.989,0,11.974,0,17.965c-5.998-0.807-12.061-1.513-18.161-2.121c0-6.274,0-12.549,0-18.831
			c-6.101-0.842-12.241-1.555-18.416-2.127c0-6.488,0-12.963,0-19.441c6.175,0.734,12.315,1.641,18.416,2.744
			c0,6.274,0,12.557,0,18.824C218.303,141.777,224.365,142.773,230.363,143.907c0-5.995,0-11.983,0-17.976
			c-5.998-1.458-12.061-2.746-18.161-3.841c0-6.184,0-12.374,0-18.559c6.106,1.347,12.164,2.912,18.161,4.708
			c0,5.896,0,11.798,0,17.692c5.91,1.446,11.764,3.062,17.549,4.86v16.889C242.127,146.279,236.273,145.021,230.363,143.907z"/>
		<path fill="#D0D7E7" d="M175.181,177.135c-6.218-0.117-12.455-0.183-18.678-0.183c0,6.647,0,13.286,0,19.937
			c6.223,0,12.46,0.02,18.678,0.054C175.181,190.341,175.181,183.738,175.181,177.135z"/>
		<path fill="#D0D7E7" d="M113.211,140.73c-1.386-4.381-2.772-8.74-4.155-13.056c-1.38,4.767-2.773,9.517-4.153,14.256
			c-4.468,0.689-8.944,1.451-13.384,2.278c3.589,2.063,7.205,4.222,10.818,6.468c-1.373,4.707-2.761,9.4-4.15,14.064
			c3.62-3.256,7.238-6.532,10.869-9.799c3.633,2.352,7.266,4.784,10.906,7.29c-1.405-4.466-2.783-8.926-4.177-13.344
			c3.636-3.251,7.293-6.502,10.94-9.735C122.206,139.604,117.694,140.135,113.211,140.73z"/>
		<path fill="#D0D7E7" d="M204.836,235.618c-1.374-4.398-2.748-8.82-4.127-13.268c-1.375,4.619-2.756,9.262-4.128,13.918
			c-4.459,0.336-8.917,0.611-13.401,0.85c3.616,2.663,7.237,5.263,10.845,7.808c-1.379,4.668-2.746,9.354-4.124,14.061
			c3.608-3.135,7.223-6.281,10.809-9.434c3.604,2.461,7.19,4.852,10.78,7.162c-1.371-4.301-2.731-8.633-4.109-12.99
			c3.596-3.141,7.169-6.279,10.752-9.401C213.715,234.794,209.278,235.222,204.836,235.618z"/>
	</g>
	
		<line fill="none" stroke="#003053" stroke-width="0.25" stroke-miterlimit="10" x1="34.795" y1="50.996" x2="278.205" y2="50.996"/>
</g>
<rect fill="none" stroke="#939598" width="311.812" height="402.52"/>
</svg>
