<?xml version="1.0" encoding="utf-8"?>
<!-- Generator: Adobe Illustrator 15.0.0, SVG Export Plug-In . SVG Version: 6.00 Build 0)  -->
<!DOCTYPE svg PUBLIC "-//W3C//DTD SVG 1.1//EN" "http://www.w3.org/Graphics/SVG/1.1/DTD/svg11.dtd">
<svg version="1.1" xmlns="http://www.w3.org/2000/svg" xmlns:xlink="http://www.w3.org/1999/xlink" x="0px" y="0px" width="144px"
	 height="252px" viewBox="0 0 144 252" enable-background="new 0 0 144 252" xml:space="preserve">
<g id="full_bleed" display="none">
	<g display="inline">
		<g>
			<path fill="#95ADD2" d="M135.336,68.301c-1.787-1.916-3.574-3.862-5.361-5.833c1.787-2.914,3.574-5.786,5.361-8.61
				c-5.412,1.27-10.83,2.627-16.252,4.05c2.113,1.675,4.227,3.333,6.338,4.966c0,2.737,0,5.474,0,8.21
				C128.73,70.137,132.033,69.208,135.336,68.301z"/>
			<path fill="#34679D" d="M125.422,62.885c-3.037,0.815-6.078,1.648-9.119,2.497c0-3.229,0-6.461,0-9.691
				C119.344,58.126,122.385,60.528,125.422,62.885z"/>
			<path fill="#95ADD2" d="M10.242,101.808c1.786-2.708,3.573-5.468,5.361-8.273c-1.788-2.079-3.575-4.135-5.361-6.17
				c5.412-1.132,10.829-2.374,16.251-3.698c-2.113,2.745-4.227,5.452-6.338,8.11c0,2.736,0,5.474,0,8.21
				C16.848,100.641,13.544,101.249,10.242,101.808z"/>
			<path fill="#34679D" d="M20.155,91.787c3.038-0.657,6.078-1.347,9.12-2.065c0-3.232,0-6.464,0-9.693
				C26.233,84.033,23.193,87.96,20.155,91.787z"/>
		</g>
		<path fill="#003053" stroke="#003053" stroke-width="0.0902" stroke-miterlimit="10" d="M70.747,127.191
			c0,0-2.467-1.044-6.146-2.737c-15.255-7.021-40.962-25.485-40.544-50.153V22.875l2.09-0.797
			c14.619-5.57,30.051-8.394,45.869-8.394c15.818,0,31.25,2.823,45.867,8.394l2.092,0.797v51.481
			c0.416,24.612-25.287,43.076-40.545,50.097c-3.68,1.693-6.146,2.737-6.146,2.737l-1.268,0.54L70.747,127.191z M72.016,16.93
			c-15.199,0-30.397,2.728-44.711,8.182c0,13.554,0,27.106,0,40.66c0,0.135,0,0.315,0,0.475c0,2.279,0,6.789,0,8.108
			c-0.409,24.011,26.341,41.484,38.653,47.149c3.626,1.667,6.059,2.699,6.059,2.699s2.432-1.032,6.059-2.699
			c12.312-5.665,39.061-23.14,38.652-47.149c0-1.319,0-5.827,0-8.108c0-0.16,0-0.34,0-0.475c0-13.554,0-27.106,0-40.66
			C102.412,19.658,87.215,16.93,72.016,16.93z"/>
		<linearGradient id="SVGID_1_" gradientUnits="userSpaceOnUse" x1="60.0391" y1="112.2275" x2="111.3723" y2="60.8943">
			<stop  offset="0" style="stop-color:#1C426A"/>
			<stop  offset="0.2885" style="stop-color:#2A5887"/>
			<stop  offset="0.6111" style="stop-color:#366CA3"/>
			<stop  offset="0.8589" style="stop-color:#3C77B4"/>
			<stop  offset="1" style="stop-color:#3E7BBA"/>
		</linearGradient>
		<path fill="url(#SVGID_1_)" d="M72.016,65.536c0,19.288,0,39.383,0,58.668c0,0,2.432-1.032,6.059-2.699
			c12.295-5.659,38.984-23.093,38.65-47.051c0-1.83,0-6.286,0-8.207C102.412,65.773,87.215,65.536,72.016,65.536z"/>
		<linearGradient id="SVGID_2_" gradientUnits="userSpaceOnUse" x1="28.0205" y1="66.9639" x2="75.0345" y2="19.9499">
			<stop  offset="0" style="stop-color:#34679D"/>
			<stop  offset="0.1723" style="stop-color:#366CA3"/>
			<stop  offset="0.6989" style="stop-color:#3C77B4"/>
			<stop  offset="1" style="stop-color:#3E7BBA"/>
		</linearGradient>
		<path fill="url(#SVGID_2_)" d="M27.304,66.247c14.314-0.474,29.513-0.711,44.711-0.711c0-16.202,0-32.403,0-48.605
			c-15.199,0-30.397,2.728-44.711,8.182C27.304,38.824,27.304,52.535,27.304,66.247z"/>
		<path fill="#FFFFFF" d="M72.016,55.814c3.041,0,6.08,0.03,9.113,0.088c0,3.221,0,6.442,0,9.664c-3.033-0.02-6.072-0.03-9.113-0.03
			C72.016,62.295,72.016,59.055,72.016,55.814z M90.195,65.65c3.012,0.037,6.01,0.086,8.986,0.142c0-3.061,0-6.123,0-9.184
			c-2.977-0.176-5.975-0.324-8.986-0.442C90.195,59.328,90.195,62.489,90.195,65.65z M108.039,65.992
			c2.928,0.076,5.824,0.161,8.688,0.255c0-2.742,0-5.484,0-8.228c-2.863-0.292-5.76-0.558-8.688-0.792
			C108.039,60.146,108.039,63.07,108.039,65.992z M81.129,55.902c3.033,0.06,6.059,0.148,9.07,0.266c0-3.163,0-6.322,0-9.484
			c-3.012-0.197-6.037-0.345-9.07-0.444C81.129,49.46,81.129,52.682,81.129,55.902z M99.182,56.608
			c2.975,0.177,5.93,0.382,8.857,0.619c0-2.922,0-5.845,0-8.768c-2.928-0.394-5.883-0.739-8.857-1.035
			C99.182,50.485,99.182,53.546,99.182,56.608z M72.016,46.093c3.041,0,6.08,0.051,9.113,0.15c0-3.221,0-6.441,0-9.664
			c-3.033-0.137-6.072-0.208-9.113-0.208C72.016,39.612,72.016,42.852,72.016,46.093z M90.195,46.687
			c3.012,0.197,6.01,0.443,8.986,0.74c0-3.061,0-6.122,0-9.185c-2.977-0.414-5.975-0.761-8.986-1.039
			C90.195,40.364,90.195,43.525,90.195,46.687z M108.039,48.461c2.928,0.396,5.824,0.84,8.688,1.333c0-2.744,0-5.486,0-8.228
			c-2.863-0.694-5.76-1.315-8.688-1.87C108.039,42.618,108.039,45.54,108.039,48.461z M81.129,36.579
			c3.033,0.14,6.059,0.347,9.07,0.625c0-3.161,0-6.323,0-9.484c-3.012-0.357-6.037-0.624-9.07-0.803
			C81.129,30.139,81.129,33.36,81.129,36.579z M99.182,38.242c2.975,0.416,5.93,0.901,8.857,1.455c0-2.922,0-5.844,0-8.766
			c-2.928-0.713-5.883-1.338-8.857-1.874C99.182,32.118,99.182,35.181,99.182,38.242z M72.016,26.651
			c3.041,0,6.08,0.092,9.113,0.268c0-3.221,0-6.441,0-9.661c-3.033-0.219-6.072-0.328-9.113-0.328
			C72.016,20.17,72.016,23.411,72.016,26.651z M90.195,27.723c3.012,0.357,6.01,0.801,8.986,1.336c0-3.059,0-6.122,0-9.182
			c-2.977-0.657-5.975-1.201-8.986-1.637C90.195,21.402,90.195,24.562,90.195,27.723z M108.039,30.933
			c2.928,0.713,5.824,1.515,8.688,2.407c0-2.743,0-5.484,0-8.228c-2.863-1.092-5.76-2.072-8.688-2.944
			C108.039,25.088,108.039,28.011,108.039,30.933z"/>
		<path fill="#FFFFFF" d="M44.785,65.794c-2.978,0.057-5.937,0.124-8.865,0.199c-2.902,2.971-5.776,5.792-8.614,8.41
			c-0.009,0.486,0.01,0.965,0.024,1.444c0.009,0.292,0.009,0.588,0.025,0.875c0.037,0.639,0.093,1.275,0.167,1.906
			c0.025,0.209,0.058,0.414,0.086,0.621c0.071,0.511,0.145,1.018,0.236,1.519c0.021,0.111,0.042,0.22,0.063,0.329
			c0.057,0.29,0.128,0.572,0.192,0.861C33.554,77.24,39.132,71.717,44.785,65.794z"/>
		<path fill="#FFFFFF" d="M62.87,65.566c-3.039,0.019-6.067,0.049-9.083,0.084c-7.995,8.489-15.886,16.479-23.545,22.856
			c0.89,2.051,1.95,4.028,3.151,5.931C42.973,86.565,52.882,76.233,62.87,65.566z"/>
		<path fill="#FFFFFF" d="M72.016,75.256c0-3.241,0-6.481,0-9.72c-0.009,0-0.019,0-0.024,0
			C60.312,77.985,48.638,90.565,37.363,99.904c1.465,1.774,3.033,3.462,4.66,5.062C51.848,96.628,61.932,86.004,72.016,75.256z"/>
		<path fill="#FFFFFF" d="M72.016,94.723c0-3.246,0-6.488,0-9.733c-8.306,8.852-16.609,17.468-24.772,24.649
			c1.885,1.547,3.788,2.979,5.664,4.285C59.233,108.115,65.625,101.535,72.016,94.723z"/>
		<path fill="#FFFFFF" d="M72.016,114.204c0-3.245,0-6.491,0-9.736c-4.362,4.65-8.725,9.15-13.065,13.335
			c2.298,1.354,4.43,2.478,6.285,3.36c0.022,0.009,0.045,0.02,0.067,0.028C67.537,118.928,69.777,116.591,72.016,114.204z"/>
		<linearGradient id="SVGID_3_" gradientUnits="userSpaceOnUse" x1="40.9712" y1="103.9136" x2="115.378" y2="29.5068">
			<stop  offset="0" style="stop-color:#EABA09"/>
			<stop  offset="0.4843" style="stop-color:#F2C911"/>
			<stop  offset="1" style="stop-color:#F8D418"/>
		</linearGradient>
		<path fill="url(#SVGID_3_)" d="M81.129,55.902c3.033,0.06,6.059,0.148,9.07,0.266c0,3.16,0,6.322,0,9.482
			c-3.012-0.039-6.037-0.067-9.07-0.084C81.129,62.343,81.129,59.124,81.129,55.902z M99.182,65.792
			c2.975,0.057,5.93,0.124,8.857,0.199c0-2.921,0-5.845,0-8.765c-2.928-0.236-5.883-0.442-8.857-0.619
			C99.182,59.669,99.182,62.732,99.182,65.792z M72.016,55.814c3.041,0,6.08,0.03,9.113,0.088c0-3.221,0-6.442,0-9.662
			c-3.033-0.099-6.072-0.15-9.113-0.15C72.016,49.333,72.016,52.574,72.016,55.814z M90.195,56.167
			c3.012,0.118,6.01,0.266,8.986,0.442c0-3.062,0-6.123,0-9.184c-2.977-0.297-5.975-0.544-8.986-0.74
			C90.195,49.844,90.195,53.007,90.195,56.167z M108.039,57.227c2.928,0.234,5.824,0.5,8.688,0.792c0-2.742,0-5.484,0-8.226
			c-2.863-0.495-5.76-0.938-8.688-1.333C108.039,51.382,108.039,54.305,108.039,57.227z M81.129,46.243
			c3.033,0.097,6.059,0.247,9.07,0.444c0-3.16,0-6.323,0-9.482c-3.012-0.278-6.037-0.486-9.07-0.625
			C81.129,39.801,81.129,43.021,81.129,46.243z M99.182,47.426c2.975,0.295,5.93,0.641,8.857,1.035c0-2.922,0-5.843,0-8.765
			c-2.928-0.554-5.883-1.04-8.857-1.455C99.182,41.304,99.182,44.365,99.182,47.426z M72.016,36.372c3.041,0,6.08,0.07,9.113,0.208
			c0-3.219,0-6.44,0-9.661c-3.033-0.178-6.072-0.268-9.113-0.268C72.016,29.891,72.016,33.131,72.016,36.372z M90.195,37.203
			c3.012,0.278,6.01,0.625,8.986,1.039c0-3.061,0-6.124,0-9.185c-2.977-0.533-5.975-0.98-8.986-1.336
			C90.195,30.88,90.195,34.041,90.195,37.203z M108.039,39.697c2.928,0.555,5.824,1.176,8.688,1.87c0-2.744,0-5.484,0-8.228
			c-2.863-0.894-5.76-1.694-8.688-2.408C108.039,33.853,108.039,36.775,108.039,39.697z M81.129,26.919
			c3.033,0.18,6.059,0.445,9.07,0.803c0-3.161,0-6.321,0-9.482c-3.012-0.437-6.037-0.764-9.07-0.982
			C81.129,20.479,81.129,23.698,81.129,26.919z M99.182,29.059c2.975,0.537,5.93,1.159,8.857,1.874c0-2.922,0-5.845,0-8.765
			c-2.928-0.874-5.883-1.638-8.857-2.291C99.182,22.938,99.182,26,99.182,29.059z M27.304,74.405c0,0,0,0,0.001-0.001
			c0-0.016-0.001-0.032-0.001-0.048C27.304,74.37,27.304,74.39,27.304,74.405z M35.919,65.994c-2.902,0.074-5.776,0.16-8.615,0.253
			c0,2.279,0,6.789,0,8.108c0,0.016,0.001,0.032,0.001,0.048C30.143,71.786,33.018,68.965,35.919,65.994z M53.787,65.65
			c-3.018,0.039-6.02,0.086-9.002,0.144C39.132,71.717,33.554,77.24,28.1,81.958c0.057,0.253,0.109,0.511,0.171,0.764
			c0.063,0.268,0.141,0.529,0.209,0.792c0.465,1.708,1.059,3.373,1.761,4.992C37.901,82.13,45.792,74.139,53.787,65.65z
			 M71.991,65.536c-3.044,0-6.085,0.011-9.121,0.03c-9.988,10.667-19.897,21-29.478,28.872c1.2,1.9,2.536,3.725,3.971,5.467
			C48.638,90.565,60.312,77.985,71.991,65.536z M72.016,84.99c0-3.245,0-6.491,0-9.734c-10.084,10.748-20.167,21.373-29.992,29.71
			c1.688,1.659,3.445,3.216,5.22,4.674C55.406,102.462,63.709,93.841,72.016,84.99z M72.016,104.468c0-3.248,0-6.498,0-9.745
			c-6.391,6.812-12.783,13.392-19.108,19.202c2.078,1.449,4.114,2.742,6.043,3.878C63.291,113.62,67.653,109.118,72.016,104.468z
			 M65.302,121.191l0.001,0.005c0.219,0.103,0.443,0.211,0.653,0.309c3.626,1.667,6.059,2.699,6.059,2.699c0-3.062,0-6.934,0-10
			C69.777,116.591,67.537,118.928,65.302,121.191z"/>
		<linearGradient id="SVGID_4_" gradientUnits="userSpaceOnUse" x1="72.0151" y1="151.2549" x2="72.0151" y2="-19.3416">
			<stop  offset="0" style="stop-color:#002141"/>
			<stop  offset="0.281" style="stop-color:#002B4C"/>
			<stop  offset="0.5031" style="stop-color:#003053"/>
			<stop  offset="0.6967" style="stop-color:#03365B"/>
			<stop  offset="0.8528" style="stop-color:#05395E"/>
			<stop  offset="0.8974" style="stop-color:#063A60"/>
			<stop  offset="0.9423" style="stop-color:#093E65"/>
			<stop  offset="0.9872" style="stop-color:#0D446D"/>
			<stop  offset="1" style="stop-color:#0E4670"/>
		</linearGradient>
		<path fill="url(#SVGID_4_)" d="M27.304,50.385c-0.011,0.003-0.023,0.007-0.034,0.01c0,13.139,0,26.276,0,39.413
			c0.06,0.137,0.125,0.271,0.187,0.407c1.064-0.251,2.129-0.525,3.195-0.782c28.667-6.897,57.452-16.2,86.108-24.154
			c0-13.288,0-26.577,0-39.865C86.988,31.407,57.077,41.151,27.304,50.385z"/>
		<g>
			<g>
				<path fill="#34679D" d="M44.638,79.119c-1.624-4.545-3.247-9.069-4.87-13.562c1.535-5.164,3.07-10.359,4.606-15.581
					c-1.273,0.389-2.544,0.776-3.816,1.166c-0.594,0.794-1.19,1.587-1.788,2.377c-0.411,1.468-0.827,2.933-1.241,4.395
					c0-1.95,0-3.898,0-5.847c-1.206,0.368-2.413,0.734-3.62,1.1c-0.594,0.786-1.19,1.573-1.783,2.357c0,9.57,0,19.142,0,28.712
					c1.204-0.303,2.411-0.611,3.616-0.922c0.596-0.761,1.191-1.524,1.786-2.291c0-0.965,0-1.932,0-2.897
					c0.492,1.444,0.98,2.892,1.471,4.341c1.284-0.336,2.568-0.677,3.852-1.021C43.448,80.672,44.044,79.896,44.638,79.119z"/>
				<path fill="#34679D" d="M51.812,77.14c0-9.811,0-19.62,0-29.432c-1.206,0.368-2.413,0.734-3.619,1.103
					c-0.597,0.799-1.192,1.597-1.788,2.395c0,9.76,0,19.521,0,29.281c1.206-0.328,2.413-0.659,3.62-0.994
					C50.622,78.709,51.216,77.927,51.812,77.14z"/>
				<path fill="#34679D" d="M54.767,48.675c0,9.833,0,19.665,0,29.499c1.121-0.315,2.241-0.631,3.361-0.948
					c0.595-0.792,1.191-1.585,1.787-2.377c0-0.43,0-0.859,0-1.29c0.174,1.004,0.346,2.006,0.517,3.01
					c1.361-0.389,2.725-0.78,4.086-1.171c0.595-0.796,1.193-1.592,1.788-2.388c0-9.887,0-19.772,0-29.66
					c-1.119,0.331-2.239,0.664-3.358,0.999c-0.596,0.802-1.192,1.604-1.788,2.406c0,0.416,0,0.833,0,1.249
					c-0.173-0.986-0.346-1.976-0.518-2.962c-1.364,0.409-2.725,0.817-4.084,1.229C55.958,47.072,55.363,47.874,54.767,48.675z"/>
				<path fill="#34679D" d="M69.261,44.354c0,9.891,0,19.783,0,29.674c2.559-0.742,5.116-1.489,7.675-2.234
					c0.598-0.799,1.193-1.597,1.791-2.396c0-1.309,0-2.62,0-3.928c-1.352,0.391-2.705,0.785-4.055,1.178c0-2.45,0-4.901,0-7.352
					c0.172-0.051,0.346-0.1,0.52-0.151c0.596-0.796,1.193-1.594,1.787-2.39c0-1.31,0-2.621,0-3.931
					c-0.77,0.222-1.537,0.444-2.307,0.666c0-2.26,0-4.519,0-6.778c0.754-0.218,1.51-0.436,2.264-0.652
					c0.598-0.796,1.193-1.59,1.791-2.385c0-1.31,0-2.618,0-3.929c-2.561,0.726-5.119,1.462-7.677,2.209
					C70.453,42.755,69.856,43.555,69.261,44.354z"/>
				<path fill="#34679D" d="M80.326,41.167c0,1.31,0,2.619,0,3.927c0.877-0.249,1.756-0.497,2.635-0.743c0,8.561,0,17.122,0,25.683
					c1.209-0.351,2.416-0.703,3.623-1.055c0.596-0.796,1.193-1.592,1.789-2.385c0-7.915,0-15.827,0-23.742
					c0.283-0.076,0.566-0.152,0.85-0.23c0.594-0.784,1.191-1.566,1.785-2.345c0-1.301,0-2.603,0-3.904
					c-2.963,0.788-5.928,1.596-8.895,2.422C81.518,39.586,80.922,40.376,80.326,41.167z"/>
				<path fill="#34679D" d="M93.008,37.703c0,9.804,0,19.606,0,29.411c1.207-0.347,2.412-0.696,3.621-1.042
					c0.596-0.788,1.191-1.575,1.789-2.36c0-9.751,0-19.503,0-29.254c-1.209,0.303-2.416,0.611-3.625,0.923
					C94.199,36.151,93.602,36.926,93.008,37.703z"/>
				<path fill="#34679D" d="M111.9,40.897c0-1.014,0-2.029,0-3.043c0.004-4.397-1.432-6.289-4.305-5.625
					c-1.693,0.393-2.887,1.429-3.613,3.066c-1.736,1.22-2.617,3.547-2.615,6.976c0,5.245,0,10.492,0,15.736
					c0,4.479,1.48,6.289,4.443,5.457c1.633-0.46,2.785-1.522,3.49-3.144c1.729-1.245,2.6-3.553,2.6-6.967c0-1.315,0-2.629,0-3.943
					c-1.16,0.294-2.322,0.591-3.482,0.895c-0.549,0.746-1.098,1.5-1.645,2.254c0-2.86,0-5.721,0-8.58
					c1.115-0.282,2.229-0.559,3.344-0.832C110.713,42.395,111.307,41.644,111.9,40.897z"/>
			</g>
			<g>
				<path fill="#FFFFFF" d="M33.909,81.966c0-9.601,0-19.2,0-28.799c1.207-0.366,2.414-0.732,3.62-1.1c0,3.267,0,6.536,0,9.804
					c1.009-3.562,2.021-7.139,3.029-10.729c1.272-0.39,2.543-0.777,3.816-1.166c-1.536,5.22-3.071,10.417-4.606,15.581
					c1.623,4.493,3.247,9.017,4.87,13.562c-1.284,0.349-2.567,0.696-3.852,1.039c-1.086-3.214-2.171-6.416-3.258-9.602
					c0,3.489,0,6.978,0,10.467C36.323,81.341,35.116,81.654,33.909,81.966z"/>
				<path fill="#FFFFFF" d="M48.193,78.146c0-9.78,0-19.558,0-29.335c1.206-0.368,2.413-0.736,3.619-1.103
					c0,9.812,0,19.621,0,29.432C50.605,77.478,49.399,77.812,48.193,78.146z"/>
				<path fill="#FFFFFF" d="M60.508,64.229c-0.197-1.476-0.395-2.95-0.594-4.426c0,5.016,0,10.03,0,15.045
					c-1.119,0.319-2.24,0.639-3.357,0.956c-0.001-9.844-0.001-19.689,0-29.534c1.359-0.413,2.72-0.821,4.084-1.229
					c0.581,3.33,1.164,6.666,1.745,10.003c0.187,1.444,0.374,2.888,0.56,4.334c0-5.011,0-10.02,0-15.03
					c1.12-0.334,2.24-0.667,3.358-0.999c0,9.887,0,19.773,0,29.66c-1.361,0.395-2.723,0.785-4.084,1.176
					C61.65,70.865,61.079,67.545,60.508,64.229z"/>
				<path fill="#FFFFFF" d="M74.672,57.422c0,3.075,0,6.15,0,9.227c1.35-0.393,2.703-0.787,4.055-1.178c0,1.308,0,2.619,0,3.928
					c-2.561,0.746-5.119,1.491-7.677,2.236c0-9.894,0-19.785,0-29.679c2.558-0.747,5.117-1.485,7.677-2.209c0,1.311,0,2.619,0,3.929
					c-1.352,0.384-2.705,0.771-4.055,1.161c0,2.885,0,5.77,0,8.654c0.77-0.222,1.537-0.444,2.307-0.666c0,1.31,0,2.621,0,3.931
					C76.209,56.978,75.441,57.2,74.672,57.422z"/>
				<path fill="#FFFFFF" d="M82.113,38.795c2.967-0.826,5.932-1.634,8.895-2.422c0,1.302,0,2.603,0,3.904
					c-0.877,0.234-1.756,0.472-2.635,0.712c0,8.534,0,17.07,0,25.605c-1.209,0.349-2.416,0.701-3.625,1.051
					c0-8.553,0-17.108,0-25.662c-0.877,0.244-1.756,0.49-2.635,0.736C82.113,41.412,82.113,40.103,82.113,38.795z"/>
				<path fill="#FFFFFF" d="M94.793,64.743c0-9.786,0-19.575,0-29.363c1.209-0.312,2.416-0.62,3.625-0.923
					c0,9.751,0,19.502,0,29.254C97.209,64.055,96.002,64.398,94.793,64.743z"/>
				<path fill="#FFFFFF" d="M108.418,50.304c1.16-0.304,2.322-0.601,3.482-0.895c0,1.314,0,2.627,0,3.943
					c0.004,4.405-1.432,6.99-4.305,7.785c-2.961,0.824-4.443-0.992-4.443-5.458c0-5.234,0-10.468,0-15.702
					c0-4.464,1.482-7.06,4.443-7.747c2.871-0.662,4.309,1.226,4.305,5.625c0,1.015,0,2.029,0,3.043
					c-1.16,0.277-2.322,0.558-3.482,0.843c0-1.597,0-3.198,0-4.797c-0.002-0.721-0.275-1.015-0.822-0.884
					c-0.549,0.13-0.826,0.556-0.822,1.278c0,6.371,0,12.741,0,19.112c-0.004,0.72,0.273,1.005,0.822,0.856
					c0.547-0.148,0.822-0.583,0.822-1.3C108.418,54.106,108.418,52.204,108.418,50.304z"/>
			</g>
		</g>
		<path fill="#FFFFFF" d="M49.331,23.848c0.534,1.62,1.068,3.255,1.601,4.902c1.733-0.24,3.47-0.449,5.211-0.629
			c-1.409,1.224-2.814,2.457-4.217,3.691c0.537,1.66,1.074,3.331,1.611,5.012c-1.405-0.933-2.808-1.842-4.205-2.715
			c-1.4,1.242-2.795,2.481-4.186,3.719c0.531-1.757,1.063-3.525,1.596-5.301c-1.393-0.831-2.783-1.627-4.167-2.384
			c1.71-0.335,3.429-0.64,5.155-0.916C48.261,27.441,48.795,25.647,49.331,23.848z"/>
		<path fill="#FFFFFF" d="M91.941,91.605c0.535,1.641,1.072,3.273,1.607,4.891c1.732-0.309,3.455-0.639,5.174-0.984
			c-1.389,1.323-2.783,2.648-4.182,3.977c0.533,1.607,1.064,3.203,1.6,4.789c-1.398-0.741-2.799-1.518-4.199-2.317
			c-1.404,1.33-2.811,2.661-4.219,3.987c0.537-1.843,1.074-3.677,1.611-5.507c-1.408-0.835-2.818-1.695-4.23-2.577
			c1.748-0.252,3.49-0.522,5.229-0.809C90.869,95.231,91.402,93.414,91.941,91.605z"/>
		<linearGradient id="SVGID_5_" gradientUnits="userSpaceOnUse" x1="98.4971" y1="38.2651" x2="114.1957" y2="22.5665">
			<stop  offset="0.3374" style="stop-color:#FFFFFF;stop-opacity:0"/>
			<stop  offset="1" style="stop-color:#FFFFFF;stop-opacity:0.54"/>
		</linearGradient>
		<path fill="url(#SVGID_5_)" d="M106.689,32.009c10.57,13.079,10.041,24.399,10.07,24.519c0-10.467,0-20.931,0-31.397
			c-10.926-4.162-22.365-6.735-33.93-7.721C82.824,17.161,96.084,18.538,106.689,32.009z"/>
		
			<linearGradient id="SVGID_6_" gradientUnits="userSpaceOnUse" x1="-453.667" y1="38.2471" x2="-437.9684" y2="22.5485" gradientTransform="matrix(-1 0 0 1 -408.0977 0)">
			<stop  offset="0.3374" style="stop-color:#000000;stop-opacity:0"/>
			<stop  offset="1" style="stop-color:#000000;stop-opacity:0.37"/>
		</linearGradient>
		<path fill="url(#SVGID_6_)" d="M37.376,31.992C26.805,45.073,27.339,56.385,27.308,56.51c0-10.466,0-20.931,0-31.397
			c10.924-4.161,22.364-6.734,33.927-7.721C61.242,17.144,47.983,18.521,37.376,31.992z"/>
		<linearGradient id="SVGID_7_" gradientUnits="userSpaceOnUse" x1="95.9971" y1="127.7314" x2="95.9971" y2="22.876">
			<stop  offset="0" style="stop-color:#04375C"/>
			<stop  offset="0.0529" style="stop-color:#073B61"/>
			<stop  offset="0.1276" style="stop-color:#093E65"/>
			<stop  offset="0.2209" style="stop-color:#0A3F67"/>
			<stop  offset="0.3912" style="stop-color:#1B4A73"/>
			<stop  offset="0.5767" style="stop-color:#26537F"/>
			<stop  offset="0.737" style="stop-color:#2B5886"/>
			<stop  offset="0.8528" style="stop-color:#2C5A8A"/>
			<stop  offset="0.8961" style="stop-color:#2D5C8C"/>
			<stop  offset="0.9398" style="stop-color:#306194"/>
			<stop  offset="0.9834" style="stop-color:#356AA0"/>
			<stop  offset="1" style="stop-color:#376EA6"/>
		</linearGradient>
		<path fill="url(#SVGID_7_)" d="M119.975,22.875v51.481c0.416,24.612-25.287,43.076-40.545,50.097
			c-3.68,1.693-6.146,2.737-6.146,2.737l-1.268,0.54v-3.527c0,0,2.432-1.032,6.059-2.699c12.312-5.665,39.061-23.14,38.652-47.149
			c0-1.319,0-5.827,0-8.108c0-0.16,0-0.34,0-0.475c0-13.554,0-27.106,0-40.66L119.975,22.875z"/>
		<linearGradient id="SVGID_8_" gradientUnits="userSpaceOnUse" x1="48.0337" y1="127.7314" x2="48.0337" y2="22.876">
			<stop  offset="0" style="stop-color:#003053"/>
			<stop  offset="0.2665" style="stop-color:#093E65"/>
			<stop  offset="0.4049" style="stop-color:#0C436C"/>
			<stop  offset="0.5918" style="stop-color:#0F4873"/>
			<stop  offset="0.7423" style="stop-color:#104A76"/>
			<stop  offset="0.7975" style="stop-color:#114B77"/>
			<stop  offset="0.853" style="stop-color:#174E7A"/>
			<stop  offset="0.9087" style="stop-color:#20517E"/>
			<stop  offset="0.9642" style="stop-color:#275582"/>
			<stop  offset="1" style="stop-color:#2A5785"/>
		</linearGradient>
		<path fill="url(#SVGID_8_)" d="M27.304,25.112c0,13.554,0,27.106,0,40.66c0,0.135,0,0.315,0,0.475c0,2.279,0,6.789,0,8.108
			c-0.409,24.011,26.341,41.484,38.653,47.149c3.626,1.667,6.059,2.699,6.059,2.699v3.527l-1.269-0.54c0,0-2.467-1.044-6.146-2.737
			c-15.255-7.021-40.962-25.485-40.544-50.153V22.875L27.304,25.112z"/>
		<linearGradient id="SVGID_9_" gradientUnits="userSpaceOnUse" x1="48.0371" y1="46.8564" x2="95.9964" y2="-1.1029">
			<stop  offset="0" style="stop-color:#2F6092"/>
			<stop  offset="0.0589" style="stop-color:#306194"/>
			<stop  offset="0.3425" style="stop-color:#33669A"/>
			<stop  offset="0.6564" style="stop-color:#34679D"/>
			<stop  offset="0.7422" style="stop-color:#35699F"/>
			<stop  offset="0.8286" style="stop-color:#376EA6"/>
			<stop  offset="0.9149" style="stop-color:#3C76B2"/>
			<stop  offset="1" style="stop-color:#4182C3"/>
		</linearGradient>
		<path fill="url(#SVGID_9_)" d="M24.057,22.875l2.09-0.797c14.619-5.57,30.051-8.394,45.869-8.394
			c15.818,0,31.25,2.823,45.867,8.394l2.092,0.797l-3.248,2.237c-14.314-5.455-29.512-8.182-44.711-8.182
			c-15.199,0-30.397,2.728-44.711,8.182L24.057,22.875z"/>
		<path fill="#D0D7E7" d="M125.432,77.71c-35.008,10.566-70.246,22.522-105.255,28.913c0-4.937,0-9.873,0-14.81
			c35.009-7.579,70.247-19.532,105.255-28.911C125.432,67.837,125.432,72.775,125.432,77.71z"/>
		<g>
			<path fill="#003053" d="M35.933,100.36c-0.159-1.449-0.316-2.883-0.542-4.302c-0.14,0.035-0.287,0.067-0.429,0.102
				c0,1.476,0,2.948,0,4.424c-0.352,0.079-0.7,0.161-1.053,0.239c0-3.273,0-6.549,0-9.825c0.484-0.116,0.966-0.234,1.446-0.35
				c1.087-0.264,1.64,0.076,1.64,1.372c0,0.666,0,1.333,0,1.999c0.002,0.747-0.192,1.224-0.61,1.576
				c0.27,1.494,0.487,3.024,0.691,4.498C36.696,100.181,36.315,100.272,35.933,100.36z M35.933,92.508
				c0-0.599-0.077-0.873-0.578-0.747c-0.13,0.032-0.264,0.063-0.394,0.095c0,1.102,0,2.202,0,3.3
				c0.133-0.032,0.271-0.064,0.405-0.095c0.397-0.096,0.566-0.335,0.566-0.771C35.933,93.695,35.933,93.102,35.933,92.508z"/>
			<path fill="#003053" d="M38.582,99.739c0-3.297,0-6.595,0-9.892c0.834-0.209,1.671-0.422,2.509-0.635c0,0.375,0,0.751,0,1.123
				c-0.491,0.123-0.98,0.248-1.468,0.372c0,1.058,0,2.117,0,3.176c0.326-0.083,0.654-0.163,0.981-0.244c0,0.375,0,0.748,0,1.122
				c-0.327,0.08-0.655,0.162-0.981,0.244c0,1.129,0,2.252,0,3.379c0.507-0.122,1.017-0.245,1.525-0.368c0,0.368,0,0.737,0,1.109
				C40.292,99.333,39.434,99.537,38.582,99.739z"/>
			<path fill="#003053" d="M43.341,98.588c0-2.945,0-5.888,0-8.832c-0.322,0.083-0.647,0.167-0.971,0.25c0-0.374,0-0.749,0-1.124
				c0.995-0.255,1.99-0.514,2.984-0.776c0,0.377,0,0.755,0,1.129c-0.322,0.086-0.649,0.171-0.973,0.251c0,2.949,0,5.895,0,8.841
				C44.037,98.414,43.689,98.5,43.341,98.588z"/>
			<path fill="#003053" d="M48.705,97.23c0-1.512,0-3.023,0-4.538c-0.292,0.08-0.586,0.155-0.88,0.232c0,1.511,0,3.022,0,4.533
				c-0.347,0.09-0.694,0.178-1.041,0.264c0-3.33,0-6.661,0-9.993c0.347-0.094,0.694-0.181,1.041-0.274c0,1.453,0,2.903,0,4.351
				c0.294-0.077,0.588-0.153,0.88-0.232c0-1.451,0-2.904,0-4.355c0.35-0.092,0.698-0.187,1.043-0.279c0,3.342,0,6.682,0,10.021
				C49.403,97.053,49.054,97.142,48.705,97.23z"/>
			<path fill="#003053" d="M51.491,96.507c0-3.346,0-6.692,0-10.037c0.347-0.095,0.694-0.188,1.042-0.285c0,3.351,0,6.701,0,10.046
				C52.185,96.323,51.838,96.415,51.491,96.507z"/>
			<path fill="#003053" d="M56.486,95.174c-0.701-3.282-1.053-4.828-1.374-6.38c0.025,1.377,0.025,2.752,0.025,4.14
				c0,0.868,0,1.736,0,2.605c-0.298,0.081-0.595,0.161-0.894,0.239c0-3.354,0-6.707,0-10.059c0.407-0.113,0.813-0.224,1.22-0.337
				c0.613,3.562,0.882,5.03,1.167,6.523c-0.024-1.146-0.021-2.284-0.021-3.413c0-1.143,0-2.286,0-3.426
				c0.298-0.082,0.595-0.166,0.893-0.246c0,3.357,0,6.717,0,10.077C57.162,94.99,56.824,95.084,56.486,95.174z"/>
			<path fill="#003053" d="M61.533,93.784c-0.463-1.525-0.882-3.031-1.314-4.515c0.024,0.801,0.021,1.662,0.021,2.754
				c0,0.708,0,1.416,0,2.124c-0.351,0.096-0.701,0.193-1.051,0.289c0-3.364,0-6.728,0-10.091c0.35-0.097,0.703-0.193,1.051-0.294
				c0,0.694,0,1.389,0,2.083c0.003,0.993,0.003,1.595-0.021,2.215c0.42-1.566,0.836-3.106,1.28-4.654
				c0.374-0.106,0.749-0.209,1.121-0.315c-0.5,1.659-0.997,3.318-1.495,4.975c0.535,1.697,1.07,3.398,1.606,5.098
				C62.331,93.566,61.933,93.675,61.533,93.784z"/>
			<path fill="#003053" d="M68.541,91.803c-0.155-1.479-0.317-2.946-0.541-4.392c-0.143,0.04-0.287,0.081-0.432,0.121
				c0,1.517,0,3.033,0,4.551c-0.351,0.101-0.701,0.199-1.053,0.303c0-3.375,0-6.745,0-10.121c0.482-0.138,0.964-0.277,1.449-0.416
				c1.087-0.313,1.64,0.021,1.64,1.349c0,0.685,0,1.366,0,2.053c0,0.763-0.19,1.262-0.606,1.637
				c0.265,1.525,0.484,3.083,0.687,4.586C69.305,91.584,68.922,91.695,68.541,91.803z M68.541,83.738
				c-0.002-0.612-0.078-0.889-0.577-0.747c-0.133,0.04-0.266,0.078-0.396,0.118c0,1.13,0,2.259,0,3.392
				c0.137-0.04,0.271-0.081,0.409-0.12c0.396-0.111,0.563-0.37,0.563-0.812C68.541,84.959,68.541,84.347,68.541,83.738z"/>
			<path fill="#003053" d="M71.193,91.041c0-3.376,0-6.749,0-10.126c0.839-0.24,1.674-0.488,2.512-0.733c0,0.384,0,0.766,0,1.151
				c-0.49,0.138-0.98,0.283-1.47,0.424c0,1.082,0,2.166,0,3.249c0.328-0.097,0.656-0.192,0.984-0.289c0,0.38,0,0.764,0,1.145
				c-0.328,0.097-0.656,0.192-0.984,0.287c0,1.152,0,2.303,0,3.457c0.509-0.147,1.018-0.296,1.529-0.445c0,0.376,0,0.753,0,1.132
				C72.904,90.54,72.049,90.79,71.193,91.041z"/>
			<path fill="#003053" d="M77.068,86.321c0.002-0.437-0.078-0.655-0.328-0.927c-0.418-0.451-0.846-0.796-1.303-1.361
				c-0.225-0.28-0.279-0.696-0.279-1.201c0-0.502,0-1.007,0-1.512c0-1.132,0.486-1.813,1.482-2.106
				c1.043-0.306,1.438,0.119,1.436,1.247c0,0.617,0,1.232,0,1.848c-0.326,0.095-0.648,0.188-0.975,0.286c0-0.61,0-1.22,0-1.831
				c0.002-0.319-0.123-0.504-0.438-0.411c-0.305,0.088-0.443,0.294-0.443,0.655c0,0.499,0,1.001,0,1.5
				c0,0.276,0.035,0.471,0.182,0.638c0.416,0.465,0.902,0.871,1.314,1.358c0.314,0.391,0.393,0.805,0.393,1.497
				c0,0.481,0,0.965,0,1.448c0.004,1.072-0.426,1.798-1.469,2.11c-1.029,0.303-1.486-0.169-1.482-1.238c0-0.719,0-1.434,0-2.153
				c0.334-0.098,0.67-0.195,1.008-0.297c0,0.719,0,1.435,0,2.152c-0.004,0.333,0.145,0.503,0.439,0.412
				c0.316-0.093,0.465-0.32,0.463-0.68C77.068,87.276,77.068,86.798,77.068,86.321z"/>
			<path fill="#003053" d="M80.285,88.362c0-2.989,0-5.976,0-8.966c-0.322,0.095-0.646,0.192-0.971,0.287c0-0.382,0-0.761,0-1.145
				c0.996-0.292,1.992-0.586,2.99-0.879c0,0.38,0,0.761,0,1.143c-0.326,0.095-0.652,0.19-0.977,0.287c0,2.986,0,5.974,0,8.964
				C80.98,88.154,80.635,88.258,80.285,88.362z"/>
			<path fill="#003053" d="M83.549,78.897c0-1.122,0.486-1.858,1.482-2.156c1.006-0.296,1.492,0.157,1.49,1.273
				c0,2.29,0,4.582,0,6.872c0,1.111-0.484,1.862-1.49,2.165c-0.996,0.301-1.482-0.154-1.482-1.272
				C83.549,83.485,83.549,81.19,83.549,78.897z M85.482,78.322c0-0.375-0.148-0.527-0.451-0.437
				c-0.285,0.081-0.443,0.322-0.443,0.705c0,2.293,0,4.586,0,6.879c0,0.393,0.158,0.543,0.443,0.455
				c0.303-0.092,0.451-0.332,0.451-0.726C85.482,82.906,85.482,80.614,85.482,78.322z"/>
			<path fill="#003053" d="M90.191,85.379c-0.156-1.467-0.316-2.92-0.543-4.358c-0.141,0.042-0.287,0.087-0.428,0.131
				c0,1.509,0,3.017,0,4.524c-0.352,0.106-0.701,0.211-1.053,0.319c0-3.359,0-6.713,0-10.07c0.48-0.143,0.965-0.287,1.447-0.428
				c1.086-0.324,1.641,0.004,1.641,1.319c0,0.68,0,1.358,0,2.039c0,0.759-0.195,1.254-0.609,1.636
				c0.27,1.508,0.482,3.054,0.691,4.541C90.955,85.146,90.572,85.263,90.191,85.379z M90.191,77.366
				c0-0.612-0.078-0.883-0.576-0.733c-0.131,0.039-0.266,0.079-0.395,0.118c0,1.124,0,2.25,0,3.373
				c0.133-0.04,0.273-0.081,0.406-0.122c0.396-0.118,0.564-0.375,0.564-0.818C90.191,78.579,90.191,77.969,90.191,77.366z"/>
			<path fill="#003053" d="M95.059,83.897c-0.057-0.497-0.113-0.997-0.168-1.494c-0.383,0.115-0.76,0.23-1.145,0.346
				c-0.066,0.542-0.123,1.074-0.18,1.6c-0.338,0.108-0.678,0.211-1.018,0.313c0.402-3.468,0.807-6.932,1.211-10.396
				c0.402-0.118,0.805-0.236,1.209-0.355c0.383,3.224,0.762,6.447,1.143,9.665C95.76,83.683,95.41,83.792,95.059,83.897z
				 M94.775,81.403c-0.154-1.447-0.318-2.921-0.451-4.415c-0.135,1.571-0.295,3.144-0.475,4.697
				C94.158,81.59,94.469,81.495,94.775,81.403z"/>
			<path fill="#003053" d="M97.869,83.042c0-2.952,0-5.905,0-8.856c-0.326,0.093-0.648,0.19-0.975,0.289c0-0.379,0-0.752,0-1.129
				c0.996-0.296,1.992-0.588,2.988-0.883c0,0.377,0,0.75,0,1.127c-0.322,0.097-0.648,0.194-0.975,0.287c0,2.95,0,5.896,0,8.848
				C98.561,82.828,98.215,82.934,97.869,83.042z"/>
			<path fill="#003053" d="M101.332,81.981c0-3.314,0-6.63,0-9.943c0.344-0.103,0.691-0.203,1.037-0.305c0,3.309,0,6.624,0,9.933
				C102.023,81.77,101.676,81.876,101.332,81.981z"/>
			<path fill="#003053" d="M104.045,72.818c0.002-1.096,0.482-1.827,1.479-2.12c1.006-0.29,1.492,0.156,1.492,1.248
				c0,2.242,0,4.485,0,6.726c0,1.094-0.484,1.826-1.492,2.135c-0.994,0.302-1.477-0.136-1.479-1.231
				C104.045,77.321,104.045,75.07,104.045,72.818z M105.979,72.253c-0.004-0.374-0.146-0.523-0.455-0.432
				c-0.281,0.083-0.438,0.32-0.438,0.692c0,2.25,0,4.498,0,6.747c-0.002,0.388,0.156,0.526,0.438,0.44
				c0.309-0.09,0.455-0.326,0.455-0.711C105.979,76.744,105.979,74.498,105.979,72.253z"/>
			<path fill="#003053" d="M110.875,79.072c-0.699-3.177-1.051-4.675-1.369-6.179c0.025,1.342,0.023,2.691,0.025,4.041
				c0,0.851,0,1.698,0,2.543c-0.297,0.093-0.596,0.181-0.893,0.272c0-3.281,0-6.562,0-9.843c0.406-0.12,0.812-0.238,1.219-0.353
				c0.609,3.463,0.883,4.886,1.164,6.327c-0.023-1.117-0.02-2.225-0.023-3.321c0-1.11,0-2.223,0-3.335
				c0.301-0.085,0.598-0.169,0.895-0.256c0,3.263,0,6.528,0,9.793C111.553,78.862,111.213,78.966,110.875,79.072z"/>
		</g>
	</g>
	<rect x="-9" y="-9" display="inline" fill="#414042" width="162" height="270"/>
</g>
<g id="Your_Artwork">
	<path fill="#1A1A1A" d="M135,0H9C4.029,0,0,4.029,0,9v234c0,4.971,4.029,9,9,9h126c4.971,0,9-4.029,9-9V9
		C144,4.029,139.971,0,135,0z"/>
	<g opacity="0.5">
		<path fill="#FFFFFF" d="M29.26,180.146c-0.147-1.302-0.294-2.593-0.504-3.885h-0.399v3.885h-0.976v-8.64h1.344
			c1.008,0,1.522,0.42,1.522,1.554v1.753c0,0.651-0.178,1.028-0.567,1.249c0.252,1.365,0.451,2.751,0.641,4.084H29.26z
			 M29.26,173.26c0-0.525-0.073-0.777-0.535-0.777h-0.368v2.898h0.378c0.368,0,0.525-0.179,0.525-0.557V173.26z"/>
		<path fill="#FFFFFF" d="M31.854,180.146v-8.64h2.331v0.976h-1.365v2.771h0.913v0.977h-0.913v2.95h1.417v0.966H31.854z"/>
		<path fill="#FFFFFF" d="M36.41,180.146v-7.664h-0.903v-0.976h2.771v0.976h-0.903v7.664H36.41z"/>
		<path fill="#FFFFFF" d="M41.523,180.146v-3.916h-0.819v3.916h-0.966v-8.64h0.966v3.758h0.819v-3.758h0.966v8.64H41.523z"/>
		<path fill="#FFFFFF" d="M44.243,180.146v-8.64h0.966v8.64H44.243z"/>
		<path fill="#FFFFFF" d="M49.01,180.146c-0.651-2.981-0.977-4.389-1.271-5.795c0.021,1.187,0.021,2.373,0.021,3.559v2.236h-0.83
			v-8.64h1.134c0.567,3.202,0.819,4.524,1.082,5.868c-0.021-0.986-0.021-1.963-0.021-2.929v-2.939h0.829v8.64H49.01z"/>
		<path fill="#FFFFFF" d="M53.829,180.146c-0.431-1.417-0.819-2.803-1.218-4.178c0.021,0.692,0.021,1.428,0.021,2.361v1.816h-0.976
			v-8.64h0.976v1.784c0,0.851,0,1.365-0.021,1.89c0.389-1.238,0.777-2.456,1.187-3.674h1.039l-1.386,3.895l1.491,4.745H53.829z"/>
		<path fill="#FFFFFF" d="M58.197,180.146c-0.147-1.302-0.294-2.593-0.504-3.885h-0.399v3.885h-0.976v-8.64h1.344
			c1.008,0,1.522,0.42,1.522,1.554v1.753c0,0.651-0.178,1.028-0.567,1.249c0.252,1.365,0.451,2.751,0.641,4.084H58.197z
			 M58.197,173.26c0-0.525-0.073-0.777-0.535-0.777h-0.368v2.898h0.378c0.368,0,0.525-0.179,0.525-0.557V173.26z"/>
		<path fill="#FFFFFF" d="M60.791,180.146v-8.64h2.331v0.976h-1.365v2.771h0.913v0.977h-0.913v2.95h1.417v0.966H60.791z"/>
		<path fill="#FFFFFF" d="M66.376,177.585c0-0.367-0.074-0.577-0.304-0.871c-0.389-0.493-0.788-0.893-1.208-1.491
			c-0.21-0.294-0.262-0.661-0.262-1.092v-1.291c0-0.966,0.451-1.428,1.375-1.428c0.966,0,1.333,0.462,1.333,1.428v1.574h-0.902
			v-1.563c0-0.273-0.116-0.462-0.41-0.462c-0.284,0-0.41,0.137-0.41,0.451v1.281c0,0.23,0.032,0.409,0.168,0.588
			c0.389,0.504,0.84,0.965,1.218,1.49c0.294,0.409,0.368,0.787,0.368,1.375v1.239c0,0.913-0.399,1.428-1.365,1.428
			c-0.955,0-1.375-0.515-1.375-1.428v-1.837h0.934v1.837c0,0.283,0.136,0.462,0.41,0.462c0.294,0,0.43-0.158,0.43-0.462V177.585z"/>
		<path fill="#FFFFFF" d="M69.495,180.146v-7.664h-0.903v-0.976h2.771v0.976h-0.903v7.664H69.495z"/>
		<path fill="#FFFFFF" d="M72.656,172.882c0-0.955,0.451-1.47,1.375-1.47c0.934,0,1.386,0.515,1.386,1.47v5.89
			c0,0.955-0.452,1.47-1.386,1.47c-0.924,0-1.375-0.515-1.375-1.47V172.882z M74.451,172.882c0-0.325-0.137-0.493-0.42-0.493
			c-0.263,0-0.41,0.168-0.41,0.493v5.89c0,0.336,0.147,0.504,0.41,0.504c0.283,0,0.42-0.168,0.42-0.504V172.882z"/>
		<path fill="#FFFFFF" d="M78.955,180.146c-0.146-1.302-0.293-2.593-0.504-3.885h-0.398v3.885h-0.977v-8.64h1.344
			c1.008,0,1.522,0.42,1.522,1.554v1.753c0,0.651-0.179,1.028-0.567,1.249c0.252,1.365,0.452,2.751,0.641,4.084H78.955z
			 M78.955,173.26c0-0.525-0.073-0.777-0.535-0.777h-0.367v2.898h0.378c0.367,0,0.524-0.179,0.524-0.557V173.26z"/>
		<path fill="#FFFFFF" d="M83.606,180.146l-0.157-1.333h-1.061c-0.062,0.451-0.115,0.892-0.168,1.333h-0.945l1.124-8.64h1.123
			l1.061,8.64H83.606z M83.344,177.921c-0.146-1.291-0.294-2.604-0.42-3.927c-0.126,1.323-0.272,2.636-0.44,3.927H83.344z"/>
		<path fill="#FFFFFF" d="M86.348,180.146v-7.664h-0.902v-0.976h2.771v0.976h-0.903v7.664H86.348z"/>
		<path fill="#FFFFFF" d="M89.697,180.146v-8.64h0.965v8.64H89.697z"/>
		<path fill="#FFFFFF" d="M92.354,172.882c0-0.955,0.451-1.47,1.375-1.47c0.934,0,1.386,0.515,1.386,1.47v5.89
			c0,0.955-0.452,1.47-1.386,1.47c-0.924,0-1.375-0.515-1.375-1.47V172.882z M94.148,172.882c0-0.325-0.137-0.493-0.42-0.493
			c-0.263,0-0.41,0.168-0.41,0.493v5.89c0,0.336,0.147,0.504,0.41,0.504c0.283,0,0.42-0.168,0.42-0.504V172.882z"/>
		<path fill="#FFFFFF" d="M98.831,180.146c-0.65-2.981-0.976-4.389-1.271-5.795c0.021,1.187,0.021,2.373,0.021,3.559v2.236h-0.829
			v-8.64h1.134c0.566,3.202,0.818,4.524,1.081,5.868c-0.021-0.986-0.021-1.963-0.021-2.929v-2.939h0.829v8.64H98.831z"/>
		<path fill="#FFFFFF" d="M101.426,180.146v-1.312h0.902v1.312H101.426z"/>
		<path fill="#FFFFFF" d="M105.72,176.977h0.882v1.784c0,1.008-0.389,1.48-1.281,1.48c-0.913,0-1.396-0.473-1.396-1.46v-5.879
			c0-0.997,0.483-1.49,1.396-1.49c0.861,0,1.281,0.473,1.281,1.47v1.532h-0.882v-1.532c0-0.336-0.105-0.493-0.399-0.493
			c-0.272,0-0.409,0.157-0.409,0.493v5.89c0,0.336,0.137,0.504,0.409,0.504c0.283,0,0.399-0.168,0.399-0.504V176.977z"/>
		<path fill="#FFFFFF" d="M108.156,172.882c0-0.955,0.451-1.47,1.375-1.47c0.934,0,1.386,0.515,1.386,1.47v5.89
			c0,0.955-0.452,1.47-1.386,1.47c-0.924,0-1.375-0.515-1.375-1.47V172.882z M109.951,172.882c0-0.325-0.137-0.493-0.42-0.493
			c-0.263,0-0.41,0.168-0.41,0.493v5.89c0,0.336,0.147,0.504,0.41,0.504c0.283,0,0.42-0.168,0.42-0.504V172.882z"/>
		<path fill="#FFFFFF" d="M115.736,180.146v-2.52c0-1.134,0.011-2.257,0.042-3.381c-0.188,1.418-0.389,2.846-0.776,5.9h-0.84
			l-0.756-5.9c0.021,1.124,0.041,2.258,0.041,3.381v2.52h-0.892v-8.64h1.291c0.409,3.905,0.577,5.154,0.725,6.383
			c0.146-1.229,0.325-2.488,0.734-6.383h1.323v8.64H115.736z"/>
		<path fill="#FFFFFF" d="M45.937,198.146v-6.58h1.815v0.743h-1.08v2.143h0.704v0.744h-0.704v2.95H45.937z"/>
		<path fill="#FFFFFF" d="M48.756,194.488v-1.239h0.859v1.239H48.756z M48.756,198.146v-1.249h0.859v1.249H48.756z"/>
		<path fill="#FFFFFF" d="M54.924,194.703c0-0.336-0.095-0.504-0.42-0.504h-0.431v-0.913h0.473c0.294,0,0.367-0.179,0.367-0.504
			v-1.89c0-0.347-0.104-0.504-0.409-0.504c-0.294,0-0.399,0.157-0.399,0.504v1.532h-0.956v-1.522c0-1.049,0.431-1.49,1.354-1.49
			c0.935,0,1.344,0.441,1.344,1.501v1.911c0,0.482-0.179,0.756-0.557,0.924c0.368,0.104,0.578,0.389,0.578,0.934v2.09
			c0,0.882-0.43,1.47-1.365,1.47c-0.913,0-1.375-0.588-1.375-1.46v-1.7h0.976v1.69c0,0.325,0.126,0.504,0.399,0.504
			c0.305,0,0.42-0.179,0.42-0.504V194.703z"/>
		<path fill="#FFFFFF" d="M57.297,190.882c0-0.955,0.441-1.47,1.417-1.47c0.977,0,1.417,0.515,1.417,1.47v5.89
			c0,0.955-0.441,1.47-1.417,1.47c-0.976,0-1.417-0.515-1.417-1.47V190.882z M59.176,190.861c0-0.326-0.157-0.494-0.462-0.494
			c-0.304,0-0.451,0.168-0.451,0.494v5.931c0,0.325,0.147,0.493,0.451,0.493c0.305,0,0.462-0.168,0.462-0.493V190.861z"/>
		<path fill="#FFFFFF" d="M63.345,194.703c0-0.336-0.095-0.504-0.42-0.504h-0.431v-0.913h0.473c0.294,0,0.367-0.179,0.367-0.504
			v-1.89c0-0.347-0.104-0.504-0.409-0.504c-0.294,0-0.399,0.157-0.399,0.504v1.532H61.57v-1.522c0-1.049,0.431-1.49,1.354-1.49
			c0.935,0,1.344,0.441,1.344,1.501v1.911c0,0.482-0.179,0.756-0.557,0.924c0.368,0.104,0.578,0.389,0.578,0.934v2.09
			c0,0.882-0.43,1.47-1.365,1.47c-0.913,0-1.375-0.588-1.375-1.46v-1.7h0.976v1.69c0,0.325,0.126,0.504,0.399,0.504
			c0.305,0,0.42-0.179,0.42-0.504V194.703z"/>
		<path fill="#FFFFFF" d="M65.529,194.168v-0.746h1.68v0.746H65.529z"/>
		<path fill="#FFFFFF" d="M70.096,198.146v-1.722h-1.858v-0.84l1.848-6.078h0.914v6.005h0.42v0.913h-0.42v1.722H70.096z
			 M70.096,195.512c0-1.69,0.032-2.667,0.053-3.527c-0.241,0.86-0.525,1.816-1.05,3.527H70.096z"/>
		<path fill="#FFFFFF" d="M73.016,198.146c0-4.84,1.092-7.223,1.344-7.664h-1.858v-0.976h2.771v0.902
			c-0.924,2.068-1.281,4.524-1.292,7.737H73.016z"/>
		<path fill="#FFFFFF" d="M77.52,198.146v-1.722h-1.858v-0.84l1.848-6.078h0.913v6.005h0.42v0.913h-0.42v1.722H77.52z
			 M77.52,195.512c0-1.69,0.031-2.667,0.053-3.527c-0.242,0.86-0.525,1.816-1.051,3.527H77.52z"/>
		<path fill="#FFFFFF" d="M79.914,194.168v-0.746h1.68v0.746H79.914z"/>
		<path fill="#FFFFFF" d="M85.615,196.771c0,0.913-0.462,1.47-1.386,1.47s-1.386-0.557-1.386-1.47v-5.89
			c0-0.913,0.462-1.47,1.386-1.47s1.333,0.557,1.333,1.47v1.491h-0.935v-1.491c0-0.315-0.126-0.493-0.398-0.493
			c-0.263,0-0.409,0.178-0.409,0.493v2.184c0.136-0.179,0.356-0.347,0.756-0.347c0.713,0,1.039,0.389,1.039,1.354V196.771z
			 M84.639,194.398c0-0.473-0.062-0.745-0.409-0.745c-0.252,0-0.378,0.147-0.409,0.347v2.771c0,0.325,0.094,0.504,0.409,0.504
			c0.314,0,0.409-0.179,0.409-0.504V194.398z"/>
		<path fill="#FFFFFF" d="M87.012,198.146v-1.574c0-1.029,0.115-1.48,0.809-2.468c0.808-1.154,0.965-1.47,0.965-2.278v-0.924
			c0-0.336-0.136-0.514-0.409-0.514c-0.272,0-0.398,0.168-0.398,0.514v1.512h-0.966v-1.501c0-1.06,0.44-1.501,1.364-1.501
			s1.386,0.473,1.386,1.501v1.008c0,0.861-0.305,1.575-0.902,2.415c-0.787,1.102-0.871,1.448-0.871,2.236v0.608h1.773v0.966H87.012z
			"/>
		<path fill="#FFFFFF" d="M92.955,193.979c0-0.283-0.146-0.451-0.441-0.451c-0.283,0-0.451,0.179-0.504,0.462l-0.84-0.031
			l0.105-4.451h2.562v0.976h-1.68l-0.095,2.53c0.158-0.21,0.41-0.347,0.83-0.347c0.629,0,0.997,0.368,0.997,1.334v2.792
			c0,0.977-0.42,1.449-1.344,1.449c-0.913,0-1.365-0.473-1.365-1.449v-1.815h0.945v1.805c0,0.326,0.136,0.494,0.42,0.494
			c0.283,0,0.409-0.168,0.409-0.504V193.979z"/>
		<path fill="#FFFFFF" d="M97.123,193.979c0-0.283-0.146-0.451-0.441-0.451c-0.283,0-0.451,0.179-0.504,0.462l-0.84-0.031
			l0.105-4.451h2.562v0.976h-1.68l-0.095,2.53c0.158-0.21,0.41-0.347,0.83-0.347c0.629,0,0.997,0.368,0.997,1.334v2.792
			c0,0.977-0.42,1.449-1.344,1.449c-0.913,0-1.365-0.473-1.365-1.449v-1.815h0.945v1.805c0,0.326,0.136,0.494,0.42,0.494
			c0.283,0,0.409-0.168,0.409-0.504V193.979z"/>
	</g>
	<g opacity="0.5">
		<path fill="#FFFFFF" stroke="#FFFFFF" stroke-width="0.0841" stroke-miterlimit="10" d="M70.818,159.014
			c0,0-2.303-0.976-5.733-2.555c-14.229-6.546-38.2-23.768-37.814-46.772V61.726l1.95-0.743c13.636-5.194,28.027-7.828,42.78-7.828
			c14.754,0,29.145,2.633,42.777,7.828l1.95,0.743v48.014c0.389,22.952-23.584,40.173-37.812,46.719
			c-3.433,1.579-5.736,2.555-5.736,2.555l-1.18,0.505L70.818,159.014z M72.001,56.181c-14.175,0-28.347,2.544-41.699,7.633
			c0,12.638,0,25.277,0,37.919c0,0.125,0,0.291,0,0.443c0,2.125,0,6.331,0,7.56c-0.38,22.393,24.566,38.689,36.049,43.974
			c3.38,1.556,5.65,2.517,5.65,2.517s2.268-0.961,5.647-2.517c11.484-5.284,36.433-21.581,36.049-43.974c0-1.229,0-5.432,0-7.56
			c0-0.152,0-0.317,0-0.443c0-12.642,0-25.281,0-37.919C100.349,58.726,86.174,56.181,72.001,56.181z"/>
		<path fill="#FFFFFF" d="M72.001,92.445c2.831,0,5.668,0.029,8.495,0.083c0,3.004,0,6.007,0,9.011
			c-2.827-0.017-5.664-0.026-8.495-0.026C72.001,98.488,72.001,95.469,72.001,92.445z M88.955,101.618
			c2.81,0.036,5.604,0.083,8.38,0.136c0-2.855,0-5.713,0-8.568c-2.775-0.162-5.57-0.301-8.38-0.413
			C88.955,95.723,88.955,98.671,88.955,101.618z M105.595,101.938c2.729,0.07,5.434,0.149,8.103,0.238c0-2.557,0-5.115,0-7.672
			c-2.669-0.274-5.373-0.522-8.103-0.74C105.595,96.486,105.595,99.213,105.595,101.938z M80.496,92.528
			c2.832,0.056,5.654,0.139,8.462,0.248c0-2.951,0-5.895,0-8.845c-2.808-0.182-5.63-0.32-8.462-0.414
			C80.496,86.521,80.496,89.524,80.496,92.528z M97.335,93.186c2.775,0.166,5.532,0.356,8.26,0.578c0-2.726,0-5.453,0-8.178
			c-2.728-0.367-5.484-0.688-8.26-0.965C97.335,87.476,97.335,90.331,97.335,93.186z M72.001,83.379
			c2.831,0,5.668,0.049,8.495,0.141c0-3.006,0-6.006,0-9.014c-2.827-0.128-5.664-0.191-8.495-0.191
			C72.001,77.334,72.001,80.358,72.001,83.379z M88.955,83.934c2.81,0.181,5.604,0.412,8.38,0.69c0-2.854,0-5.709,0-8.567
			c-2.775-0.383-5.57-0.708-8.38-0.968C88.955,78.035,88.955,80.986,88.955,83.934z M105.595,85.589
			c2.729,0.37,5.434,0.783,8.103,1.242c0-2.558,0-5.115,0-7.672c-2.669-0.648-5.373-1.229-8.103-1.745
			C105.595,80.141,105.595,82.863,105.595,85.589z M80.496,74.506c2.832,0.129,5.654,0.324,8.462,0.585c0-2.951,0-5.898,0-8.846
			c-2.808-0.334-5.63-0.582-8.462-0.75C80.496,68.5,80.496,71.506,80.496,74.506z M97.335,76.057c2.775,0.39,5.532,0.842,8.26,1.358
			c0-2.726,0-5.449,0-8.175c-2.728-0.663-5.484-1.249-8.26-1.747C97.335,70.347,97.335,73.205,97.335,76.057z M72.001,65.249
			c2.831,0,5.668,0.085,8.495,0.251c0-3.004,0-6.008,0-9.011c-2.827-0.205-5.664-0.307-8.495-0.307
			C72.001,59.205,72.001,62.228,72.001,65.249z M88.955,66.246c2.81,0.333,5.604,0.747,8.38,1.249c0-2.854,0-5.71,0-8.565
			c-2.775-0.615-5.57-1.121-8.38-1.526C88.955,60.351,88.955,63.298,88.955,66.246z M105.595,69.239
			c2.729,0.668,5.434,1.415,8.103,2.247c0-2.557,0-5.115,0-7.672c-2.669-1.018-5.373-1.933-8.103-2.747
			C105.595,63.791,105.595,66.517,105.595,69.239z"/>
		<path fill="#FFFFFF" d="M46.604,101.754c-2.779,0.052-5.535,0.115-8.267,0.185c-2.707,2.772-5.39,5.403-8.033,7.844
			c-0.01,0.453,0.006,0.898,0.02,1.345c0.009,0.274,0.009,0.549,0.026,0.816c0.033,0.598,0.085,1.189,0.155,1.778
			c0.024,0.194,0.053,0.386,0.08,0.581c0.066,0.476,0.135,0.949,0.221,1.415c0.02,0.103,0.041,0.205,0.06,0.307
			c0.053,0.271,0.119,0.535,0.178,0.803C36.133,112.426,41.335,107.278,46.604,101.754z"/>
		<path fill="#FFFFFF" d="M63.473,101.539c-2.834,0.02-5.66,0.046-8.472,0.08c-7.455,7.917-14.816,15.368-21.96,21.315
			c0.833,1.913,1.818,3.761,2.941,5.531C44.916,121.123,54.155,111.488,63.473,101.539z"/>
		<path fill="#FFFFFF" d="M72.001,110.576c0-3.021,0-6.043,0-9.063c-0.01,0-0.016,0-0.023,0
			c-10.891,11.61-21.782,23.341-32.296,32.051c1.368,1.655,2.829,3.229,4.349,4.723C53.193,130.511,62.594,120.601,72.001,110.576z"
			/>
		<path fill="#FFFFFF" d="M72.001,128.732c0-3.026,0-6.05,0-9.076c-7.748,8.254-15.49,16.29-23.103,22.987
			c1.758,1.443,3.532,2.778,5.283,3.994C60.08,141.223,66.041,135.088,72.001,128.732z"/>
		<path fill="#FFFFFF" d="M72.001,146.903c0-3.03,0-6.058,0-9.084c-4.067,4.339-8.138,8.535-12.186,12.438
			c2.145,1.262,4.134,2.309,5.862,3.133c0.023,0.009,0.043,0.02,0.063,0.025C67.825,151.308,69.913,149.127,72.001,146.903z"/>
		<path fill="#FFFFFF" d="M48.531,76.516c-2.032,0.313-4.067,0.66-6.086,1.037c1.632,0.939,3.277,1.92,4.92,2.941
			c-0.625,2.141-1.256,4.275-1.888,6.396c1.646-1.48,3.292-2.97,4.943-4.457c1.653,1.07,3.304,2.178,4.96,3.317
			c-0.638-2.032-1.266-4.061-1.9-6.069c1.655-1.48,3.317-2.958,4.977-4.428c-2.056,0.205-4.108,0.447-6.147,0.718
			c-0.63-1.992-1.261-3.975-1.89-5.938C49.793,72.201,49.159,74.361,48.531,76.516z"/>
		<path fill="#FFFFFF" d="M90.23,119.424c-2.028,0.152-4.057,0.278-6.096,0.387c1.645,1.209,3.291,2.393,4.933,3.549
			c-0.627,2.124-1.249,4.256-1.876,6.396c1.642-1.427,3.285-2.857,4.916-4.291c1.639,1.119,3.271,2.206,4.903,3.257
			c-0.624-1.956-1.242-3.926-1.869-5.907c1.636-1.429,3.261-2.855,4.89-4.276c-2.009,0.215-4.025,0.41-6.047,0.588
			c-0.625-1.999-1.249-4.011-1.877-6.034C91.482,115.195,90.854,117.306,90.23,119.424z"/>
		<path fill="none" d="M80.496,92.528c2.832,0.056,5.654,0.139,8.462,0.248c0,2.947,0,5.898,0,8.842
			c-2.808-0.037-5.63-0.063-8.462-0.08C80.496,98.535,80.496,95.532,80.496,92.528z M97.335,101.754
			c2.775,0.049,5.532,0.112,8.26,0.185c0-2.726,0-5.452,0-8.175c-2.728-0.222-5.484-0.413-8.26-0.578
			C97.335,96.041,97.335,98.899,97.335,101.754z M72.001,92.445c2.831,0,5.668,0.029,8.495,0.083c0-3.003,0-6.007,0-9.011
			c-2.827-0.092-5.664-0.138-8.495-0.138C72.001,86.402,72.001,89.422,72.001,92.445z M88.955,92.772
			c2.81,0.112,5.604,0.251,8.38,0.413c0-2.855,0-5.709,0-8.564c-2.775-0.278-5.57-0.506-8.38-0.69
			C88.955,86.878,88.955,89.829,88.955,92.772z M105.595,93.764c2.729,0.218,5.434,0.466,8.103,0.74c0-2.557,0-5.115,0-7.672
			c-2.669-0.463-5.373-0.876-8.103-1.246C105.595,88.311,105.595,91.038,105.595,93.764z M80.496,83.52
			c2.832,0.09,5.654,0.229,8.462,0.414c0-2.948,0-5.899,0-8.842c-2.808-0.261-5.63-0.457-8.462-0.585
			C80.496,77.51,80.496,80.514,80.496,83.52z M97.335,84.624c2.775,0.274,5.532,0.595,8.26,0.965c0-2.726,0-5.449,0-8.175
			c-2.728-0.516-5.484-0.968-8.26-1.358C97.335,78.915,97.335,81.77,97.335,84.624z M72.001,74.315c2.831,0,5.668,0.063,8.495,0.191
			c0-3,0-6.007,0-9.01c-2.827-0.166-5.664-0.248-8.495-0.248C72.001,68.268,72.001,71.292,72.001,74.315z M88.955,75.088
			c2.81,0.26,5.604,0.585,8.38,0.968c0-2.852,0-5.71,0-8.564c-2.775-0.5-5.57-0.916-8.38-1.246
			C88.955,69.194,88.955,72.141,88.955,75.088z M105.595,77.415c2.729,0.515,5.434,1.097,8.103,1.745c0-2.561,0-5.115,0-7.673
			c-2.669-0.832-5.373-1.583-8.103-2.247C105.595,71.965,105.595,74.688,105.595,77.415z M80.496,65.5
			c2.832,0.165,5.654,0.416,8.462,0.747c0-2.948,0-5.896,0-8.842c-2.808-0.406-5.63-0.714-8.462-0.916
			C80.496,59.492,80.496,62.496,80.496,65.5z M97.335,67.495c2.775,0.499,5.532,1.081,8.26,1.744c0-2.723,0-5.448,0-8.171
			c-2.728-0.816-5.484-1.529-8.26-2.138C97.335,61.785,97.335,64.641,97.335,67.495z M30.302,109.783h0.003
			c0-0.017-0.003-0.03-0.003-0.03V109.783z M38.338,101.938c-2.707,0.07-5.39,0.149-8.036,0.238c0,2.125,0,6.331,0,7.56
			c0,0,0.003,0.029,0.003,0.046C32.948,107.341,35.631,104.71,38.338,101.938z M55.001,101.618
			c-2.815,0.036-5.618,0.083-8.396,0.136c-5.27,5.524-10.471,10.672-15.56,15.074c0.053,0.238,0.1,0.476,0.159,0.713
			c0.059,0.248,0.132,0.492,0.195,0.74c0.433,1.593,0.988,3.143,1.642,4.652C40.185,116.986,47.546,109.535,55.001,101.618z
			 M71.978,101.513c-2.838,0-5.677,0.009-8.505,0.026c-9.317,9.949-18.557,19.584-27.491,26.926c1.117,1.774,2.365,3.477,3.7,5.099
			C50.196,124.854,61.087,113.123,71.978,101.513z M72.001,119.656c0-3.028,0-6.054,0-9.08c-9.407,10.024-18.808,19.935-27.97,27.71
			c1.573,1.545,3.211,3,4.867,4.357C56.511,135.95,64.253,127.91,72.001,119.656z M72.001,137.819c0-3.026,0-6.057,0-9.087
			c-5.96,6.355-11.921,12.49-17.82,17.905c1.937,1.355,3.837,2.559,5.634,3.619C63.863,146.354,67.934,142.158,72.001,137.819z
			 M65.74,153.415v0.007c0.205,0.096,0.416,0.195,0.611,0.288c3.38,1.556,5.65,2.517,5.65,2.517c0-2.857,0-6.465,0-9.323
			C69.913,149.127,67.825,151.308,65.74,153.415z"/>
		<path fill="#FFFFFF" d="M116.729,61.726v48.014c0.389,22.952-23.584,40.173-37.812,46.719c-3.433,1.579-5.736,2.555-5.736,2.555
			l-1.18,0.505v-3.292c0,0,2.268-0.961,5.647-2.517c11.484-5.284,36.433-21.581,36.049-43.974c0-1.229,0-5.432,0-7.56
			c0-0.152,0-0.317,0-0.443c0-12.642,0-25.281,0-37.919L116.729,61.726z"/>
		<path fill="#FFFFFF" d="M30.302,63.814c0,12.638,0,25.277,0,37.919c0,0.125,0,0.291,0,0.443c0,2.125,0,6.331,0,7.56
			c-0.38,22.393,24.566,38.689,36.049,43.974c3.38,1.556,5.65,2.517,5.65,2.517v3.292l-1.183-0.505c0,0-2.303-0.976-5.733-2.555
			c-14.229-6.546-38.2-23.768-37.814-46.772V61.726L30.302,63.814z"/>
		<path fill="#FFFFFF" d="M27.271,61.726l1.95-0.743c13.636-5.194,28.027-7.828,42.78-7.828c14.754,0,29.145,2.633,42.777,7.828
			l1.95,0.743l-3.031,2.089c-13.349-5.089-27.523-7.633-41.696-7.633c-14.175,0-28.347,2.544-41.699,7.633L27.271,61.726z"/>
	</g>
</g>
</svg>
