<?xml version="1.0" encoding="utf-8"?>
<!-- Generator: Adobe Illustrator 15.0.0, SVG Export Plug-In . SVG Version: 6.00 Build 0)  -->
<!DOCTYPE svg PUBLIC "-//W3C//DTD SVG 1.1//EN" "http://www.w3.org/Graphics/SVG/1.1/DTD/svg11.dtd">
<svg version="1.1" xmlns="http://www.w3.org/2000/svg" xmlns:xlink="http://www.w3.org/1999/xlink" x="0px" y="0px" width="576px"
	 height="72px" viewBox="0 0 576 72" enable-background="new 0 0 576 72" xml:space="preserve">
<g id="rethink_banner_back">
</g>
<g id="background">
	<path opacity="0.2" fill="#FFFFFF" stroke="#FFFFFF" stroke-width="0.0472" stroke-miterlimit="10" d="M42.539,64.789
		c0,0-1.292-0.548-3.22-1.435c-7.993-3.678-21.46-13.353-21.242-26.275V10.136l1.095-0.417c7.66-2.918,15.744-4.397,24.032-4.397
		c8.287,0,16.372,1.479,24.031,4.397l1.095,0.417v26.974c0.219,12.893-13.249,22.567-21.242,26.245
		c-1.928,0.887-3.221,1.435-3.221,1.435l-0.664,0.284L42.539,64.789z M43.203,7.021c-7.963,0-15.925,1.429-23.426,4.288
		c0,7.1,0,14.2,0,21.302c0,0.07,0,0.163,0,0.249c0,1.193,0,3.557,0,4.247C19.564,49.687,33.579,58.842,40.029,61.81
		c1.9,0.875,3.174,1.415,3.174,1.415s1.273-0.54,3.173-1.415c6.451-2.968,20.465-12.123,20.251-24.702c0-0.69,0-3.052,0-4.247
		c0-0.086,0-0.179,0-0.249c0-7.102,0-14.202,0-21.302C59.128,8.45,51.166,7.021,43.203,7.021z"/>
</g>
<g id="med_blue">
</g>
<g id="white">
	<path opacity="0.2" fill="#FFFFFF" d="M43.203,27.394c1.592,0,3.185,0.017,4.773,0.046c0,1.688,0,3.375,0,5.062
		c-1.589-0.01-3.182-0.015-4.773-0.015C43.203,30.788,43.203,29.092,43.203,27.394z M52.728,32.546
		c1.578,0.021,3.148,0.047,4.708,0.076c0-1.604,0-3.209,0-4.812c-1.559-0.091-3.129-0.169-4.708-0.232
		C52.728,29.234,52.728,30.891,52.728,32.546z M62.077,32.727c1.533,0.039,3.051,0.083,4.551,0.134c0-1.437,0-2.874,0-4.311
		c-1.5-0.154-3.018-0.293-4.551-0.416C62.077,29.664,62.077,31.195,62.077,32.727z M47.977,27.439
		c1.59,0.032,3.175,0.078,4.753,0.14c0-1.657,0-3.312,0-4.969c-1.578-0.103-3.163-0.181-4.753-0.232
		C47.977,24.065,47.977,25.753,47.977,27.439z M57.435,27.81c1.559,0.093,3.107,0.2,4.642,0.324c0-1.531,0-3.062,0-4.594
		c-1.534-0.206-3.083-0.387-4.642-0.542C57.435,24.602,57.435,26.205,57.435,27.81z M43.203,22.3c1.592,0,3.185,0.028,4.773,0.08
		c0-1.689,0-3.375,0-5.063c-1.589-0.073-3.182-0.108-4.773-0.108C43.203,18.905,43.203,20.604,43.203,22.3z M52.728,22.611
		c1.578,0.103,3.148,0.232,4.708,0.389c0-1.604,0-3.208,0-4.813c-1.559-0.215-3.129-0.397-4.708-0.544
		C52.728,19.299,52.728,20.956,52.728,22.611z M62.077,23.542c1.533,0.208,3.051,0.439,4.551,0.697c0-1.437,0-2.873,0-4.31
		c-1.5-0.364-3.018-0.69-4.551-0.98C62.077,20.48,62.077,22.011,62.077,23.542z M47.977,17.316c1.59,0.072,3.175,0.182,4.753,0.328
		c0-1.657,0-3.313,0-4.969c-1.578-0.188-3.163-0.327-4.753-0.422C47.977,13.941,47.977,15.631,47.977,17.316z M57.435,18.187
		c1.559,0.219,3.107,0.474,4.642,0.763c0-1.531,0-3.061,0-4.592c-1.534-0.373-3.083-0.702-4.642-0.982
		C57.435,14.979,57.435,16.585,57.435,18.187z M43.203,12.115c1.592,0,3.185,0.048,4.773,0.141c0-1.688,0-3.375,0-5.062
		c-1.589-0.115-3.182-0.173-4.773-0.173C43.203,8.72,43.203,10.418,43.203,12.115z M52.728,12.676
		c1.578,0.188,3.148,0.419,4.708,0.701c0-1.604,0-3.208,0-4.812c-1.559-0.345-3.129-0.629-4.708-0.857
		C52.728,9.364,52.728,11.02,52.728,12.676z M62.077,14.357c1.533,0.375,3.051,0.794,4.551,1.262c0-1.437,0-2.873,0-4.31
		c-1.5-0.572-3.018-1.086-4.551-1.543C62.077,11.296,62.077,12.827,62.077,14.357z"/>
	<path opacity="0.2" fill="#FFFFFF" d="M28.936,32.622c-1.56,0.03-3.11,0.065-4.644,0.104c-1.521,1.558-3.027,3.035-4.514,4.406
		c-0.004,0.255,0.006,0.505,0.013,0.756c0.004,0.154,0.004,0.308,0.013,0.458c0.02,0.336,0.049,0.669,0.088,0.999
		c0.013,0.109,0.03,0.217,0.044,0.327c0.037,0.267,0.076,0.532,0.125,0.794c0.011,0.058,0.021,0.115,0.033,0.173
		c0.029,0.152,0.067,0.301,0.101,0.451C23.053,38.618,25.975,35.727,28.936,32.622z"/>
	<path opacity="0.2" fill="#FFFFFF" d="M38.412,32.502c-1.592,0.011-3.179,0.025-4.76,0.044c-4.188,4.448-8.322,8.634-12.334,11.975
		c0.466,1.075,1.021,2.113,1.65,3.107C27.987,43.504,33.179,38.091,38.412,32.502z"/>
	<path opacity="0.2" fill="#FFFFFF" d="M43.203,37.579c0-1.697,0-3.396,0-5.092c-0.004,0-0.009,0-0.013,0
		C37.072,39.01,30.955,45.6,25.048,50.492c0.768,0.931,1.589,1.813,2.441,2.653C32.638,48.777,37.919,43.21,43.203,37.579z"/>
	<path opacity="0.2" fill="#FFFFFF" d="M43.203,47.778c0-1.7,0-3.398,0-5.099c-4.352,4.637-8.702,9.151-12.979,12.914
		c0.987,0.811,1.984,1.561,2.967,2.244C36.506,54.795,39.854,51.349,43.203,47.778z"/>
	<path opacity="0.2" fill="#FFFFFF" d="M43.203,57.986c0-1.702,0-3.402,0-5.104c-2.286,2.438-4.571,4.795-6.846,6.987
		c1.204,0.709,2.321,1.298,3.293,1.76c0.012,0.006,0.024,0.011,0.035,0.015C40.857,60.46,42.03,59.235,43.203,57.986z"/>
	<path opacity="0.2" fill="#FFFFFF" d="M30.019,18.444c-1.142,0.177-2.285,0.371-3.42,0.583c0.919,0.527,1.842,1.078,2.765,1.652
		c-0.351,1.202-0.706,2.401-1.059,3.594c0.923-0.832,1.849-1.669,2.777-2.504c0.926,0.601,1.855,1.223,2.785,1.863
		c-0.357-1.142-0.711-2.281-1.067-3.41c0.93-0.831,1.862-1.661,2.794-2.487c-1.154,0.115-2.307,0.251-3.452,0.403
		c-0.354-1.12-0.71-2.233-1.061-3.336C30.727,16.021,30.372,17.234,30.019,18.444z"/>
	<path opacity="0.2" fill="#FFFFFF" d="M53.444,42.55c-1.139,0.085-2.281,0.155-3.425,0.217c0.924,0.68,1.849,1.344,2.772,1.994
		c-0.353,1.193-0.703,2.391-1.056,3.594c0.924-0.803,1.846-1.606,2.763-2.412c0.92,0.63,1.838,1.24,2.754,1.831
		c-0.351-1.1-0.699-2.206-1.049-3.319c0.918-0.802,1.831-1.604,2.745-2.402c-1.128,0.121-2.261,0.23-3.396,0.331
		c-0.351-1.123-0.701-2.254-1.054-3.39C54.147,40.174,53.795,41.359,53.444,42.55z"/>
</g>
<g id="gold">
	<path opacity="0.2" fill="none" d="M47.977,27.439c1.59,0.032,3.175,0.078,4.753,0.14c0,1.655,0,3.313,0,4.967
		c-1.578-0.02-3.163-0.035-4.753-0.044C47.977,30.814,47.977,29.127,47.977,27.439z M57.435,32.622
		c1.559,0.028,3.107,0.063,4.642,0.104c0-1.531,0-3.062,0-4.593c-1.534-0.124-3.083-0.231-4.642-0.324
		C57.435,29.413,57.435,31.019,57.435,32.622z M43.203,27.394c1.592,0,3.185,0.017,4.773,0.046c0-1.687,0-3.374,0-5.062
		c-1.589-0.052-3.182-0.078-4.773-0.078C43.203,23.998,43.203,25.695,43.203,27.394z M52.728,27.577
		c1.578,0.063,3.148,0.142,4.708,0.232c0-1.604,0-3.208,0-4.812c-1.559-0.156-3.129-0.284-4.708-0.388
		C52.728,24.266,52.728,25.923,52.728,27.577z M62.077,28.134c1.533,0.123,3.051,0.262,4.551,0.416c0-1.437,0-2.873,0-4.311
		c-1.5-0.26-3.018-0.491-4.551-0.699C62.077,25.071,62.077,26.603,62.077,28.134z M47.977,22.38c1.59,0.05,3.175,0.128,4.753,0.231
		c0-1.655,0-3.312,0-4.967c-1.578-0.146-3.163-0.256-4.753-0.328C47.977,19.003,47.977,20.69,47.977,22.38z M57.435,23
		c1.559,0.153,3.107,0.334,4.642,0.542c0-1.531,0-3.062,0-4.593c-1.534-0.289-3.083-0.544-4.642-0.763
		C57.435,19.792,57.435,21.396,57.435,23z M43.203,17.208c1.592,0,3.185,0.035,4.773,0.108c0-1.686,0-3.375,0-5.062
		c-1.589-0.093-3.182-0.139-4.773-0.139C43.203,13.812,43.203,15.51,43.203,17.208z M52.728,17.643
		c1.578,0.146,3.148,0.329,4.708,0.544c0-1.602,0-3.208,0-4.812c-1.559-0.28-3.129-0.514-4.708-0.699
		C52.728,14.331,52.728,15.987,52.728,17.643z M62.077,18.949c1.533,0.29,3.051,0.616,4.551,0.98c0-1.438,0-2.874,0-4.311
		c-1.5-0.468-3.018-0.889-4.551-1.262C62.077,15.889,62.077,17.418,62.077,18.949z M47.977,12.256
		c1.59,0.093,3.175,0.233,4.753,0.42c0-1.656,0-3.312,0-4.968c-1.578-0.229-3.163-0.401-4.753-0.514
		C47.977,8.881,47.977,10.568,47.977,12.256z M57.435,13.377c1.559,0.28,3.107,0.607,4.642,0.98c0-1.53,0-3.062,0-4.591
		c-1.534-0.458-3.083-0.859-4.642-1.201C57.435,10.169,57.435,11.773,57.435,13.377z M19.777,37.133L19.777,37.133
		c0.001-0.009,0-0.017,0-0.017V37.133z M24.292,32.727c-1.521,0.039-3.027,0.083-4.515,0.134c0,1.193,0,3.557,0,4.247
		c0,0,0.001,0.017,0.001,0.025C21.265,35.762,22.771,34.284,24.292,32.727z M33.652,32.546c-1.581,0.021-3.154,0.047-4.716,0.076
		c-2.961,3.104-5.883,5.996-8.741,8.469c0.03,0.134,0.057,0.268,0.089,0.4c0.034,0.14,0.074,0.277,0.11,0.416
		c0.244,0.895,0.555,1.766,0.923,2.613C25.33,41.18,29.464,36.994,33.652,32.546z M43.19,32.487c-1.595,0-3.188,0.005-4.779,0.015
		c-5.233,5.589-10.425,11.002-15.444,15.126c0.629,0.997,1.329,1.953,2.081,2.864C30.955,45.6,37.072,39.01,43.19,32.487z
		 M43.203,42.68c0-1.7,0-3.4,0-5.101c-5.284,5.631-10.565,11.198-15.714,15.566c0.885,0.868,1.805,1.685,2.735,2.448
		C34.501,51.833,38.852,47.316,43.203,42.68z M43.203,52.883c0-1.7,0-3.402,0-5.104c-3.349,3.57-6.697,7.017-10.011,10.06
		c1.088,0.761,2.156,1.437,3.166,2.032C38.632,57.678,40.917,55.32,43.203,52.883z M39.686,61.645l0.001,0.004
		c0.114,0.054,0.232,0.109,0.343,0.161c1.9,0.875,3.174,1.415,3.174,1.415c0-1.605,0-3.633,0-5.238
		C42.03,59.235,40.857,60.46,39.686,61.645z"/>
</g>
<g id="kinetic_banner">
</g>
<g id="kinetic">
</g>
<g id="highlights">
</g>
<g id="bevel_R">
	<path opacity="0.2" fill="#FFFFFF" d="M68.329,10.136v26.974c0.219,12.893-13.249,22.567-21.242,26.245
		c-1.928,0.887-3.221,1.435-3.221,1.435l-0.664,0.284v-1.849c0,0,1.273-0.54,3.173-1.415c6.451-2.968,20.465-12.123,20.251-24.702
		c0-0.69,0-3.052,0-4.247c0-0.086,0-0.179,0-0.249c0-7.102,0-14.202,0-21.302L68.329,10.136z"/>
</g>
<g id="bevel_L">
	<path opacity="0.2" fill="#FFFFFF" d="M19.777,11.31c0,7.1,0,14.2,0,21.302c0,0.07,0,0.163,0,0.249c0,1.193,0,3.557,0,4.247
		C19.564,49.687,33.579,58.842,40.029,61.81c1.9,0.875,3.174,1.415,3.174,1.415v1.849l-0.665-0.284c0,0-1.292-0.548-3.22-1.435
		c-7.993-3.678-21.46-13.353-21.242-26.275V10.136L19.777,11.31z"/>
</g>
<g id="bevel_top">
	<path opacity="0.2" fill="#FFFFFF" d="M18.076,10.136l1.095-0.417c7.66-2.918,15.744-4.397,24.032-4.397
		c8.287,0,16.372,1.479,24.031,4.397l1.095,0.417l-1.701,1.174c-7.5-2.859-15.462-4.288-23.425-4.288
		c-7.963,0-15.925,1.429-23.426,4.288L18.076,10.136z"/>
</g>
<g id="rethink_banner">
	<g opacity="0.2">
		<g>
			<path fill="#FFFFFF" d="M97.191,64.966c-4.637-19.344-5.506-24.198-6.376-28.399c0.218,4.201,0.218,8.911,0.218,15.504v12.896
				h-7.897V5.341h7.897v11.881c0,6.593,0,9.781-0.218,13.113c0.652-3.26,1.521-7.244,6.231-24.994h8.404L97.553,31.93l8.622,33.036
				H97.191z"/>
			<path fill="#FFFFFF" d="M114.65,64.966V5.341h7.896v59.625H114.65z"/>
			<path fill="#FFFFFF" d="M146.961,64.966c-4.854-23.039-6.158-29.849-7.317-36.515c0.217,7.028,0.217,14.056,0.217,21.155v15.359
				h-6.593V5.341h9.056c3.985,25.212,4.854,31.152,5.796,37.311c-0.217-6.303-0.217-12.533-0.217-18.691V5.341h6.593v59.625H146.961
				z"/>
			<path fill="#FFFFFF" d="M165.072,64.966V5.341h16.374v7.896h-8.477v17.388h5.361v7.897h-5.361v18.547h8.839v7.896H165.072z"/>
			<path fill="#FFFFFF" d="M195.283,64.966V13.237h-5.796V5.341h19.416v7.896h-5.724v51.729H195.283z"/>
			<path fill="#FFFFFF" d="M217.959,64.966V5.341h7.896v59.625H217.959z"/>
			<path fill="#FFFFFF" d="M247.952,43.086h7.173v12.316c0,6.955-2.681,10.216-8.983,10.216c-6.448,0-9.854-3.261-9.854-10.07
				V14.977c0-6.883,3.405-10.288,9.854-10.288c6.013,0,8.983,3.26,8.983,10.143v10.578h-7.173V14.831
				c0-1.521-0.579-2.246-1.811-2.246c-1.159,0-1.812,0.725-1.812,2.246v40.644c0,1.521,0.652,2.246,1.812,2.246
				c1.231,0,1.811-0.725,1.811-2.246V43.086z"/>
		</g>
		<g>
			<path fill="#FFFFFF" d="M281.97,64.966c-1.231-9.129-2.535-18.112-4.202-27.096c-0.435,0.072-0.869,0.072-1.304,0.072h-2.971
				v27.023h-5.506V5.341h9.056c6.883,0,10.36,2.897,10.36,10.722v11.882c0,4.347-1.449,7.245-4.419,8.767
				c1.956,9.418,3.55,19.054,4.999,28.255H281.97z M281.825,16.787c0-4.202-0.942-5.868-4.782-5.868h-3.55v22.024h3.623
				c3.404,0,4.709-1.521,4.709-4.927V16.787z"/>
			<path fill="#FFFFFF" d="M297.763,64.966V5.341h15.794v5.578h-10.288v20.938h7.245v5.507h-7.245v22.169h10.65v5.434H297.763z"/>
			<path fill="#FFFFFF" d="M336.16,47.288c0-3.55-0.362-4.419-1.812-6.158c-2.897-3.478-5.796-5.724-9.273-9.925
				c-1.884-2.246-1.956-4.42-1.956-7.752v-8.912c0-6.665,3.043-9.853,9.273-9.853c6.593,0,9.056,3.188,9.056,9.853v10.868h-5.144
				V15.266c0-2.97-0.797-4.999-3.768-4.999c-2.681,0-3.839,1.305-3.839,4.274v8.839c0,2.464,0.217,3.333,1.304,4.637
				c2.897,3.623,5.94,6.086,9.056,9.708c2.174,2.536,2.608,4.71,2.608,9.491v8.549c0,6.304-2.681,9.854-9.273,9.854
				c-6.448,0-9.273-3.55-9.273-9.854V43.086h5.289v11.882c0,3.043,0.941,5.217,3.84,5.217c2.753,0,3.912-1.521,3.912-4.42V47.288z"
				/>
			<path fill="#FFFFFF" d="M356.879,64.966V10.919h-6.665V5.341h18.765v5.578h-6.666v54.047H356.879z"/>
			<path fill="#FFFFFF" d="M377.091,14.831c0-6.593,3.115-10.143,9.346-10.143c6.375,0,9.418,3.55,9.418,10.143v40.644
				c0,6.594-3.043,10.144-9.418,10.144c-6.23,0-9.346-3.55-9.346-10.144V14.831z M390.349,14.831c0-2.97-1.231-4.564-3.912-4.564
				c-2.536,0-3.84,1.595-3.84,4.564v40.644c0,3.115,1.304,4.71,3.84,4.71c2.681,0,3.912-1.595,3.912-4.71V14.831z"/>
			<path fill="#FFFFFF" d="M420.559,64.966c-1.231-9.129-2.535-18.112-4.202-27.096c-0.435,0.072-0.869,0.072-1.304,0.072h-2.971
				v27.023h-5.506V5.341h9.056c6.883,0,10.36,2.897,10.36,10.722v11.882c0,4.347-1.449,7.245-4.419,8.767
				c1.956,9.418,3.55,19.054,4.999,28.255H420.559z M420.414,16.787c0-4.202-0.942-5.868-4.782-5.868h-3.55v22.024h3.623
				c3.404,0,4.709-1.521,4.709-4.927V16.787z"/>
			<path fill="#FFFFFF" d="M451.421,64.966l-1.304-9.998h-8.911l-1.305,9.998h-5.361l8.187-59.625h6.448l7.752,59.625H451.421z
				 M445.77,19.323c-1.231,10.288-2.535,20.431-3.912,30.573h7.607C448.233,39.754,446.929,29.611,445.77,19.323z"/>
			<path fill="#FFFFFF" d="M468.663,64.966V10.919h-6.665V5.341h18.765v5.578h-6.666v54.047H468.663z"/>
			<path fill="#FFFFFF" d="M490.179,64.966V5.341h5.507v59.625H490.179z"/>
			<path fill="#FFFFFF" d="M506.552,14.831c0-6.593,3.115-10.143,9.346-10.143c6.375,0,9.418,3.55,9.418,10.143v40.644
				c0,6.594-3.043,10.144-9.418,10.144c-6.23,0-9.346-3.55-9.346-10.144V14.831z M519.81,14.831c0-2.97-1.231-4.564-3.912-4.564
				c-2.536,0-3.84,1.595-3.84,4.564v40.644c0,3.115,1.304,4.71,3.84,4.71c2.681,0,3.912-1.595,3.912-4.71V14.831z"/>
			<path fill="#FFFFFF" d="M550.888,64.966l-10.287-43.542c0.072,8.839,0.072,17.605,0.072,26.444v17.098h-4.781V5.341h6.593
				l9.128,43.687c-0.072-8.114-0.072-16.156-0.072-24.126V5.341h4.854v59.625H550.888z"/>
		</g>
	</g>
</g>
</svg>
