<?xml version="1.0" encoding="utf-8"?>
<!-- Generator: Adobe Illustrator 15.0.0, SVG Export Plug-In . SVG Version: 6.00 Build 0)  -->
<!DOCTYPE svg PUBLIC "-//W3C//DTD SVG 1.1//EN" "http://www.w3.org/Graphics/SVG/1.1/DTD/svg11.dtd">
<svg version="1.1" xmlns="http://www.w3.org/2000/svg" xmlns:xlink="http://www.w3.org/1999/xlink" x="0px" y="0px" width="288px"
	 height="288px" viewBox="0 0 288 288" enable-background="new 0 0 288 288" xml:space="preserve">
<g id="rethink_banner_back">
</g>
<g id="background">
</g>
<g id="med_blue">
</g>
<g id="white">
</g>
<g id="gold">
</g>
<g id="kinetic_banner">
</g>
<g id="kinetic">
</g>
<g id="highlights">
</g>
<g id="bevel_R">
</g>
<g id="bevel_L">
</g>
<g id="bevel_top">
	<g>
		<path fill="#D0D7E7" stroke="#D0D7E7" stroke-width="0.1945" stroke-miterlimit="10" d="M141.264,264.876
			c0,0-5.321-2.252-13.257-5.902c-32.914-15.148-88.366-54.979-87.465-108.192V39.845l4.509-1.723
			C76.587,26.107,109.875,20.016,144,20.016c34.124,0,67.411,6.092,98.948,18.106l4.512,1.723v111.055
			c0.9,53.095-54.553,92.926-87.465,108.074c-7.938,3.65-13.259,5.902-13.259,5.902L144,266.041L141.264,264.876z M144,27.017
			c-32.787,0-65.574,5.887-96.453,17.651c0,29.239,0,58.474,0,87.712c0,0.292,0,0.68,0,1.025c0,4.917,0,14.648,0,17.491
			c-0.883,51.8,56.823,89.49,83.383,101.71c7.823,3.6,13.069,5.826,13.069,5.826s5.247-2.227,13.069-5.826
			c26.561-12.22,84.266-49.916,83.383-101.71c0-2.843,0-12.573,0-17.491c0-0.346,0-0.733,0-1.025c0-29.238,0-58.473,0-87.712
			C209.575,32.903,176.788,27.017,144,27.017z"/>
		<g>
			<path fill="#D0D7E7" d="M144,110.901c6.558,0,13.114,0.061,19.657,0.188c0,6.948,0,13.899,0,20.846
				c-6.543-0.042-13.1-0.067-19.657-0.067C144,124.881,144,117.89,144,110.901z M183.218,132.117
				c6.496,0.08,12.963,0.187,19.385,0.309c0-6.603,0-13.208,0-19.813c-6.422-0.379-12.889-0.699-19.385-0.951
				C183.218,118.48,183.218,125.298,183.218,132.117z M221.71,132.854c6.314,0.164,12.566,0.347,18.742,0.552
				c0-5.914,0-11.828,0-17.75c-6.176-0.629-12.428-1.205-18.742-1.709C221.71,120.245,221.71,126.551,221.71,132.854z
				 M163.657,111.09c6.547,0.129,13.072,0.317,19.568,0.574c0-6.823,0-13.641,0-20.461c-6.496-0.423-13.021-0.743-19.568-0.953
				C163.657,97.193,163.657,104.14,163.657,111.09z M202.603,112.612c6.418,0.381,12.793,0.826,19.107,1.334
				c0-6.303,0-12.61,0-18.91c-6.314-0.852-12.689-1.597-19.107-2.236C202.603,99.403,202.603,106.007,202.603,112.612z M144,89.93
				c6.558,0,13.114,0.109,19.657,0.322c0-6.949,0-13.896,0-20.848c-6.543-0.294-13.1-0.448-19.657-0.448
				C144,75.948,144,82.937,144,89.93z M183.218,91.209c6.496,0.425,12.963,0.96,19.385,1.595c0-6.602,0-13.206,0-19.812
				c-6.422-0.893-12.889-1.64-19.385-2.241C183.218,77.569,183.218,84.389,183.218,91.209z M221.71,95.039
				c6.314,0.854,12.566,1.811,18.742,2.877c0-5.922,0-11.836,0-17.752c-6.176-1.496-12.428-2.836-18.742-4.034
				C221.71,82.432,221.71,88.736,221.71,95.039z M163.657,69.404c6.547,0.302,13.072,0.749,19.568,1.349c0-6.817,0-13.637,0-20.457
				c-6.496-0.773-13.021-1.346-19.568-1.733C163.657,55.513,163.657,62.46,163.657,69.404z M202.603,72.991
				c6.418,0.897,12.793,1.947,19.107,3.139c0-6.305,0-12.604,0-18.907c-6.314-1.541-12.689-2.89-19.107-4.043
				C202.603,59.781,202.603,66.391,202.603,72.991z M144,47.99c6.558,0,13.114,0.197,19.657,0.578c0-6.95,0-13.896,0-20.842
				c-6.543-0.472-13.1-0.71-19.657-0.71C144,34.009,144,40.998,144,47.99z M183.218,50.3c6.496,0.771,12.963,1.727,19.385,2.883
				c0-6.599,0-13.205,0-19.809c-6.422-1.415-12.889-2.592-19.385-3.531C183.218,36.664,183.218,43.479,183.218,50.3z M221.71,57.226
				c6.314,1.538,12.566,3.266,18.742,5.192c0-5.92,0-11.83,0-17.75c-6.176-2.355-12.428-4.472-18.742-6.352
				C221.71,44.615,221.71,50.924,221.71,57.226z"/>
			<g>
				<path fill="#D0D7E7" d="M85.257,132.429c-6.426,0.122-12.808,0.268-19.126,0.432c-6.26,6.407-12.461,12.491-18.582,18.138
					c-0.018,1.049,0.024,2.085,0.054,3.117c0.019,0.629,0.019,1.27,0.053,1.89c0.079,1.377,0.201,2.749,0.36,4.11
					c0.053,0.451,0.126,0.892,0.186,1.34c0.152,1.102,0.312,2.197,0.511,3.273c0.045,0.24,0.09,0.479,0.137,0.712
					c0.121,0.627,0.277,1.233,0.414,1.859C61.029,157.121,73.062,145.207,85.257,132.429z"/>
				<path fill="#D0D7E7" d="M124.27,131.936c-6.552,0.04-13.087,0.105-19.596,0.182c-17.244,18.312-34.268,35.549-50.791,49.305
					c1.919,4.428,4.205,8.694,6.796,12.797C81.348,177.237,102.726,154.948,124.27,131.936z"/>
				<path fill="#D0D7E7" d="M144,152.838c0-6.99,0-13.979,0-20.97c-0.02,0-0.039,0-0.054,0
					c-25.192,26.859-50.375,53.997-74.698,74.144c3.16,3.83,6.541,7.47,10.052,10.917C100.495,198.945,122.246,176.023,144,152.838z
					"/>
				<path fill="#D0D7E7" d="M144,194.835c0-7.002,0-13.994,0-20.998c-17.918,19.098-35.83,37.682-53.438,53.176
					c4.064,3.338,8.171,6.43,12.217,9.245C116.425,223.723,130.213,209.528,144,194.835z"/>
				<path fill="#D0D7E7" d="M144,236.86c0-7.002,0-14.005,0-21.007c-9.41,10.036-18.821,19.742-28.187,28.77
					c4.958,2.922,9.559,5.346,13.559,7.247c0.05,0.021,0.1,0.044,0.145,0.061C134.339,247.051,139.171,242.009,144,236.86z"/>
			</g>
		</g>
		<path fill="#D0D7E7" d="M89.713,74.049c-4.703,0.729-9.411,1.529-14.083,2.404c3.784,2.168,7.586,4.439,11.385,6.799
			c-1.447,4.956-2.906,9.895-4.361,14.803c3.803-3.431,7.613-6.871,11.433-10.315c3.813,2.479,7.639,5.039,11.47,7.675
			c-1.471-4.702-2.926-9.392-4.396-14.041c3.83-3.423,7.67-6.844,11.507-10.239c-4.749,0.474-9.494,1.029-14.212,1.657
			c-1.459-4.61-2.922-9.193-4.369-13.739C92.628,64.068,91.169,69.065,89.713,74.049z"/>
		<path fill="#D0D7E7" d="M186.171,173.31c-4.691,0.347-9.393,0.641-14.102,0.892c3.805,2.793,7.611,5.532,11.412,8.208
			c-1.453,4.914-2.895,9.848-4.348,14.792c3.799-3.3,7.598-6.605,11.375-9.923c3.795,2.591,7.572,5.103,11.346,7.533
			c-1.441-4.523-2.879-9.08-4.324-13.662c3.779-3.309,7.541-6.606,11.301-9.892c-4.645,0.497-9.309,0.95-13.979,1.355
			c-1.443-4.624-2.887-9.28-4.344-13.953C189.065,163.527,187.614,168.407,186.171,173.31z"/>
		<path fill="#FFFFFF" d="M163.657,111.09c6.547,0.129,13.072,0.317,19.568,0.574c0,6.816,0,13.64,0,20.453
			c-6.496-0.084-13.021-0.144-19.568-0.182C163.657,124.982,163.657,118.038,163.657,111.09z M202.603,132.426
			c6.418,0.121,12.793,0.268,19.107,0.428c0-6.303,0-12.608,0-18.907c-6.314-0.508-12.689-0.953-19.107-1.334
			C202.603,119.218,202.603,125.823,202.603,132.426z M144,110.901c6.558,0,13.114,0.061,19.657,0.188c0-6.95,0-13.896,0-20.84
			c-6.543-0.214-13.1-0.326-19.657-0.326C144,96.918,144,103.909,144,110.901z M183.218,111.661
			c6.496,0.252,12.963,0.572,19.385,0.951c0-6.605,0-13.209,0-19.812c-6.422-0.641-12.889-1.175-19.385-1.597
			C183.218,98.022,183.218,104.844,183.218,111.661z M221.71,113.946c6.314,0.504,12.566,1.08,18.742,1.709
			c0-5.915,0-11.83,0-17.745c-6.176-1.067-12.428-2.023-18.742-2.874C221.71,101.336,221.71,107.644,221.71,113.946z
			 M163.657,90.252c6.547,0.208,13.072,0.53,19.568,0.957c0-6.816,0-13.64,0-20.456c-6.496-0.6-13.021-1.047-19.568-1.349
			C163.657,76.354,163.657,83.303,163.657,90.252z M202.603,92.804c6.418,0.639,12.793,1.384,19.107,2.235
			c0-6.303,0-12.607,0-18.909c-6.314-1.191-12.689-2.241-19.107-3.139C202.603,79.598,202.603,86.202,202.603,92.804z M144,68.956
			c6.558,0,13.114,0.154,19.657,0.448c0-6.944,0-13.892,0-20.842c-6.543-0.384-13.1-0.577-19.657-0.577
			C144,54.977,144,61.968,144,68.956z M183.218,70.75c6.496,0.602,12.963,1.349,19.385,2.241c0-6.601,0-13.21,0-19.812
			c-6.422-1.153-12.889-2.117-19.385-2.884C183.218,57.11,183.218,63.931,183.218,70.75z M221.71,76.13
			c6.314,1.198,12.566,2.538,18.742,4.034c0-5.918,0-11.83,0-17.748c-6.176-1.928-12.428-3.655-18.742-5.193
			C221.71,63.525,221.71,69.825,221.71,76.13z M163.657,48.568c6.547,0.387,13.072,0.96,19.568,1.731c0-6.82,0-13.636,0-20.457
			c-6.496-0.941-13.021-1.646-19.568-2.116C163.657,34.673,163.657,41.618,163.657,48.568z M202.603,53.183
			c6.418,1.159,12.793,2.499,19.107,4.043c0-6.302,0-12.61,0-18.909c-6.314-1.884-12.689-3.534-19.107-4.942
			C202.603,39.978,202.603,46.584,202.603,53.183z M47.547,151.005l0.002-0.007c0-0.032-0.002-0.066-0.002-0.102
			C47.547,150.929,47.547,150.973,47.547,151.005z M66.131,132.86c-6.26,0.157-12.461,0.346-18.584,0.545c0,4.917,0,14.648,0,17.491
			c0,0.035,0.002,0.069,0.002,0.102C53.67,145.352,59.871,139.268,66.131,132.86z M104.674,132.117
			c-6.507,0.083-12.985,0.187-19.417,0.312c-12.196,12.778-24.228,24.692-35.993,34.871c0.121,0.546,0.235,1.1,0.368,1.646
			c0.137,0.579,0.305,1.142,0.453,1.712c1.003,3.686,2.284,7.275,3.799,10.765C70.406,167.666,87.43,150.429,104.674,132.117z
			 M143.946,131.868c-6.564,0-13.125,0.025-19.676,0.067c-21.544,23.013-42.922,45.302-63.59,62.283
			c2.591,4.101,5.47,8.035,8.568,11.793C93.57,185.865,118.754,158.728,143.946,131.868z M144,173.837c0-6.998,0-14.003,0-20.999
			c-21.754,23.186-43.505,46.107-64.7,64.091c3.644,3.579,7.431,6.939,11.262,10.084C108.17,211.527,126.082,192.931,144,173.837z
			 M144,215.854c0-7.004,0-14.014,0-21.019c-13.787,14.693-27.575,28.888-41.221,41.423c4.483,3.125,8.875,5.914,13.035,8.365
			C125.179,235.602,134.59,225.89,144,215.854z M129.517,251.931l0.003,0.015c0.471,0.218,0.958,0.455,1.41,0.661
			c7.823,3.6,13.069,5.826,13.069,5.826c0-6.605,0-14.957,0-21.572C139.171,242.009,134.339,247.051,129.517,251.931z"/>
		<path fill="#D0D7E7" d="M247.46,39.845v111.055c0.9,53.095-54.553,92.926-87.465,108.074c-7.938,3.65-13.259,5.902-13.259,5.902
			L144,266.041v-7.608c0,0,5.247-2.227,13.069-5.826c26.561-12.22,84.266-49.916,83.383-101.71c0-2.843,0-12.573,0-17.491
			c0-0.346,0-0.733,0-1.025c0-29.238,0-58.473,0-87.712L247.46,39.845z"/>
		<path fill="#D0D7E7" d="M47.547,44.668c0,29.239,0,58.474,0,87.712c0,0.292,0,0.68,0,1.025c0,4.917,0,14.648,0,17.491
			c-0.883,51.8,56.823,89.49,83.383,101.71c7.823,3.6,13.069,5.826,13.069,5.826v7.608l-2.736-1.165c0,0-5.321-2.252-13.257-5.902
			c-32.914-15.148-88.366-54.979-87.465-108.192V39.845L47.547,44.668z"/>
		<path fill="#D0D7E7" d="M40.542,39.845l4.509-1.723C76.587,26.107,109.875,20.016,144,20.016c34.124,0,67.411,6.092,98.948,18.106
			l4.512,1.723l-7.008,4.823C209.575,32.903,176.788,27.017,144,27.017c-32.787,0-65.574,5.887-96.453,17.651L40.542,39.845z"/>
	</g>
</g>
<g id="rethink_banner">
</g>
</svg>
