<?xml version="1.0" encoding="utf-8"?>
<!-- Generator: Adobe Illustrator 15.0.0, SVG Export Plug-In . SVG Version: 6.00 Build 0)  -->
<!DOCTYPE svg PUBLIC "-//W3C//DTD SVG 1.1//EN" "http://www.w3.org/Graphics/SVG/1.1/DTD/svg11.dtd">
<svg version="1.1" id="Layer_1" xmlns="http://www.w3.org/2000/svg" xmlns:xlink="http://www.w3.org/1999/xlink" x="0px" y="0px"
	 width="333.426px" height="351px" viewBox="0 0 333.426 351" enable-background="new 0 0 333.426 351" xml:space="preserve">
<g>
	<path fill-rule="evenodd" clip-rule="evenodd" d="M105.612,8.522c3.707,0.851,1.938,4.438,1.97,6.895
		c0.215,16.676,0.306,35.189,7.88,46.295c2.192-2.374-0.491-4.946-0.985-7.88c-2.31-13.723-1.419-35.109,6.896-42.354
		c1.82,13.999-2.151,30.618-0.985,43.832c1.979,22.42,17.218,35.872,28.565,49.743c0.4,1.703-0.92,2.079,0,2.955
		c4.493,9.053,8.018,16.394,14.282,23.147c12.525-6.541,31.198-10.694,44.818-17.73c1.148,0,2.298,0,3.447,0
		c5.701-5.756,16.819-9.529,25.117-12.805c8.24-3.253,15.647-9.042,24.133-9.851c3.057-4.494,7.445-7.658,12.805-9.85
		c2.091-0.121,2.652,1.288,4.925,0.985c5.25-4.642,9.037-13.235,18.716-11.82c2.17-3.248,5.363-5.472,8.864-7.388
		c1.567,0.402,1.991,1.949,3.94,1.97c3.369-3.197,4.977-8.156,11.82-7.88c5.688,5.914-2.436,19.174-5.418,24.625
		c-2.57,4.698-6.765,11.883-10.343,16.253c-0.349,0.427-1.559,0.108-1.97,0.492c-1.139,1.065-1.447,3.248-2.463,4.433
		c-5.32,6.208-12.532,10.035-19.207,14.775c-9.402,0.667-13.108,10.364-22.655,11.327c-1.528,0.77-2.583,2.013-3.939,2.955
		c-17.134,3.848-35.313,12.08-48.758,22.162c10.77,12.049,40.731,16.519,54.667,6.403c11.154,0.271,21.848-4.715,29.551,2.954
		c1.878,6.823,9.896,7.506,14.282,11.82c3.965,2.273,9.825,2.651,10.835,7.88c-6.287,0.503-11.836-3.859-17.237-4.433
		c-8.17-0.865-17.337,0.329-26.103-0.984c-8.104-1.215-15.949-2.425-23.147-1.478c-1.301,0.171-2.129,1.146-3.448,1.478
		c-5.957,1.493-12.247,1.421-17.729,2.462c-3.442,0.654-6.845-0.397-10.343,0c-2.56,0.292-6.635,1.783-9.85,2.463
		c-7.052,1.491-15.961,1.128-22.163,2.463c-4.863,1.046-8.815,4.419-13.297,5.417c-2.941-0.696-5.379,0.023-7.88,0.985
		c-9.725-3.265-18.204-1.827-27.088-3.94c-1.229-0.292-1.785-1.575-2.955-1.97c-3.069-1.034-5.689-0.562-8.373-1.97
		c-1.082-0.568-1.677-1.832-2.954-2.463c-2.789-1.377-6.251-1.712-8.865-2.955c-2.383-1.133-4.108-3.758-6.402-4.433
		c-4.136-1.217-8.401-0.674-11.82,1.478c-31.004-1.335-49.494,7.756-78.308,10.343c-1.794,0.34-2.271,1.997-4.433,1.97
		c-1.253-1.702-3.094-2.815-3.447-5.417c1.167-4.415,10.104-1.06,11.327-5.418c0.161-2.131-3.711-0.229-3.447-2.462
		c3.132-5.872,15.317,0.963,20.685-3.448c5.187,8.076,18.225,2.223,26.596,1.478c1.192-0.284,1.095-1.859,1.478-2.955
		c12.82-3.896,18.289-10.448,31.52-12.805c-5.278-3.915-8.615-9.771-14.282-13.298c-8.19-14.678-10.44-30.113-16.745-45.803
		c0.797-4.128,0.218-9.632,1.97-12.805c-8.579-6.36-7.315-21.946-6.402-33.982c-1.806-4.504-8.022-5.855-7.88-10.835
		c9.233,4.565,18.058,13.784,29.058,18.223c-3.709-12.578-20.172-17.54-16.745-33.982c7.068,7.32,9.882,15.917,16.253,23.64
		c5.5,3.037,7.634,9.439,13.79,11.82c-2.958-9.008-12.659-19.609-15.268-31.027c-0.881-3.854-1.708-9.672,1.478-13.298
		c8.827,13.986,9.782,33.456,23.64,44.817c-3.946-9.81-9.638-25.548-7.388-40.385c0.658-4.341,1.994-7.759,4.433-10.835
		C104.955,8.522,105.283,8.522,105.612,8.522z"/>
	<g>
		<path fill="#231F20" d="M57.472,213.013c2.896-3.144,6.783-4.382,10.338-4.382c3.062,0,5.045,0.908,5.956,1.653
			c0.99,0.826,1.323,1.738,0.827,3.062c-0.415,1.156-0.578,2.81-0.827,4.381c-0.085,0.745-0.911,0.745-0.993,0.082
			c-0.085-0.826-0.248-2.313-1.738-3.803c-1.571-1.735-3.803-2.398-6.286-2.398c-4.381,0-6.119,3.392-6.119,6.449
			c0,5.542,4.218,7.691,8.603,9.348c5.623,2.15,9.923,4.3,9.923,10.75c0,5.129-3.307,8.851-5.623,10.586
			c-3.225,2.398-6.864,3.722-10.008,3.722c-2.895,0-5.208-0.579-7.276-1.735c-1.323-0.826-2.398-2.068-2.646-2.977
			c-0.248-0.911-0.085-1.986,0.578-2.895c0.579-0.745,1.242-1.986,1.653-3.062c0.248-0.745,0.993-0.745,0.993-0.082
			c0,0.827,0,1.735,0.663,2.977c1.32,2.48,4.797,4.467,8.849,4.467c4.796,0,7.69-2.813,7.69-8.106c0-5.375-4.466-7.691-8.354-9.178
			c-6.45-2.483-9.842-5.46-9.842-10.256C53.832,218.721,54.744,215.907,57.472,213.013z"/>
		<path fill="#231F20" d="M108.038,250.742c0.507,0.17,0.507,0.732-0.169,0.732c-2.138,0-3.373-0.17-5.117-0.17
			c-1.632,0-2.587,0.17-4.668,0.17c-0.729,0-0.729-0.562-0.279-0.732c2.137-0.619,2.756-1.182,2.137-3.149
			c-0.562-1.911-0.901-3.093-1.857-5.736c-0.449-1.349-0.729-1.574-1.012-1.628c-0.449-0.113-1.235-0.113-4.271-0.113
			c-2.251,0-3.206,0-3.655,0.113c-0.227,0.054-0.507,0.279-0.789,0.899c-0.337,0.729-1.349,2.979-1.911,5.173
			c-0.336,1.235-0.676,2.474,0.057,3.203c0.449,0.453,1.235,0.789,2.644,1.238c0.506,0.17,0.449,0.732-0.283,0.732
			c-2.19,0-3.542-0.17-5.34-0.17c-1.462,0-2.251,0.17-4.219,0.17c-0.731,0-0.788-0.506-0.282-0.732
			c1.012-0.393,1.914-0.785,2.643-1.292c0.732-0.562,1.745-2.08,2.813-4.331c2.923-6.129,5.396-12.428,7.478-17.375
			c0.506-1.182,0.732-1.801,1.068-2.587c0.17-0.449,0.562-0.898,0.846-1.182c0.393-0.336,0.673-0.619,1.012-0.899
			c0.507-0.562,0.729-0.788,1.013-0.788c0.279,0,0.336,0.226,0.336,0.619c0,0.506,0.17,1.238,0.676,3.093
			c1.405,5.173,3.822,13.217,6.915,21.144C104.72,249.504,105.678,249.957,108.038,250.742z M93.25,229.036
			c-1.068,2.42-2.081,4.837-3.319,8.043c-0.223,0.506-0.279,0.786,0.17,0.843c0.28,0.057,1.013,0.113,3.036,0.113
			c2.36,0,3.093-0.057,3.486-0.113c0.226-0.057,0.226-0.337,0-1.069c-1.235-3.878-2.361-7.254-2.587-7.873
			C93.812,228.307,93.586,228.307,93.25,229.036z"/>
		<path fill="#231F20" d="M121.576,224.714c2.816,3.231,11.68,14.635,15.115,19.17c0.48,0.619,0.685,0.55,0.685,0.069
			c0.069-0.55,0.069-3.297,0.069-7.421c0-4.259-0.204-6.459-0.48-8.999c-0.343-3.23-1.101-3.781-4.671-4.674
			c-0.619-0.135-0.619-0.893,0.135-0.893c2.062,0,4.055,0.208,6.117,0.208c1.785,0,3.435-0.208,5.221-0.208
			c0.757,0,0.826,0.619,0.069,0.893c-1.855,0.688-3.159,1.374-3.641,3.848c-0.346,1.992-0.688,5.636-0.688,10.171
			c0,6.387,0.138,8.656,0.273,9.961c0.068,0.688,0.414,0.962,1.03,1.649c7.629,9.207,14.772,14.704,22.675,14.704
			c5.151,0,7.832-1.789,9.479-4.124c0.55-0.893,0.896-1.854,1.031-2.543c0.069-0.616,0.55-0.55,0.896-0.204
			c0.273,0.273,0.343,1.166-0.346,2.543c-2.062,4.259-7.487,6.867-12.984,6.867c-10.444,0-18.277-7.763-24.46-14.634
			c-4.466-4.81-12.022-14.77-17.246-21.571c-0.343-0.415-0.619-0.481-0.619,0.273v10.514c0,8.106,1.308,8.999,2.75,9.549
			l1.924,0.754c0.755,0.346,0.619,0.896-0.138,0.896c-1.786,0-3.574-0.208-5.498-0.208s-3.916,0.208-5.494,0.208
			c-0.893,0-0.826-0.619-0.139-0.896l1.374-0.547c1.101-0.415,2.131-1.238,2.474-2.338c0.343-1.305,0.619-5.633,0.619-10.718
			c0-6.525,0-8.726-0.069-9.618c-0.069-1.031-0.207-1.443-0.619-1.993c-5.082-6.663-10.856-11.887-18.069-11.887
			c-5.083,0-7.421,2.131-7.968,5.085c-0.139,0.481-0.55,0.481-0.896,0.273c-0.343-0.273-0.551-1.03-0.066-1.992
			c1.305-2.952,5.221-5.563,10.648-5.563C109.415,211.318,115.598,217.639,121.576,224.714z"/>
		<path fill="#231F20" d="M153.299,233.197c0-3.991-0.112-5.623-0.279-6.691c-0.283-1.632-1.801-2.081-3.712-2.36
			c-0.619-0.113-0.619-0.619-0.057-0.732c1.968-0.28,5.343-0.673,11.752-0.673c10.517,0,16.253,4.385,16.253,12.987
			c0,6.861-3.206,10.181-7.424,12.878c-4.218,2.699-9.954,2.869-12.764,2.869c-2.87,0-5.68-0.17-7.534,0
			c-0.789,0.057-0.789-0.562-0.283-0.732c1.068-0.336,1.854-0.619,2.587-1.125c0.676-0.449,1.012-1.235,1.182-2.024
			c0.167-0.673,0.279-2.53,0.279-7.87V233.197z M156.785,241.184c0,4.835,0.283,6.017,0.452,6.636
			c0.167,0.562,0.45,1.012,1.013,1.235c0.393,0.17,1.404,0.339,3.093,0.339c3.202,0,6.016-0.619,7.927-2.08
			c2.25-1.745,4.049-5.174,4.049-10.011c0-7.142-4.555-12.935-13.327-12.935c-1.013,0-1.741,0.057-2.194,0.17
			c-0.449,0.113-0.672,0.449-0.785,1.238c-0.113,0.956-0.227,2.644-0.227,7.983V241.184z"/>
		<path fill="#231F20" d="M208.621,240.564c0,5.061,0.113,6.13,0.337,7.421c0.339,1.575,1.631,2.138,3.432,2.757
			c0.45,0.17,0.394,0.732-0.169,0.732c-2.024,0-3.486-0.17-5.344-0.17c-1.519,0-3.093,0.17-5.061,0.17
			c-0.729,0-0.729-0.562-0.223-0.732c1.741-0.619,2.643-0.785,3.093-2.193c0.279-0.843,0.506-2.641,0.506-6.522v-3.315
			c0-0.902-0.283-1.069-0.732-1.126c-0.729-0.113-1.519-0.113-7.478-0.113c-5.68,0-6.186,0-6.691,0.057
			c-0.732,0.113-0.902,0.28-0.902,1.462v2.417c0,3.542,0.17,5.566,0.396,6.525c0.393,1.571,1.685,2.247,3.202,2.81
			c0.562,0.17,0.562,0.732-0.11,0.732c-2.08,0-3.599-0.17-5.513-0.17c-1.628,0-2.587,0.17-4.667,0.17
			c-0.729,0-0.729-0.619-0.28-0.732c2.194-0.842,2.923-1.518,3.149-2.474c0.17-0.732,0.336-1.968,0.336-6.861v-8.716
			c0-2.247,0-5.174-0.393-6.466c-0.336-1.068-1.238-1.857-3.319-2.586c-0.56-0.227-0.56-0.732,0.227-0.732
			c1.575,0,3.149,0.169,4.947,0.169c1.857-0.112,3.376-0.169,5.4-0.169c0.729,0,0.785,0.619,0.169,0.732
			c-2.307,0.562-2.926,1.348-3.205,2.304c-0.34,1.068-0.34,7.031-0.34,8.267c0,0.731,0.057,0.955,0.562,1.068
			c0.449,0.113,1.012,0.113,7.311,0.113c5.793,0,6.469-0.057,7.085-0.113c0.619-0.113,0.846-0.337,0.846-1.349v-2.53
			c0-2.587-0.113-4.78-0.506-5.513c-0.62-1.292-1.802-1.854-3.263-2.247c-0.562-0.113-0.506-0.732,0.17-0.732
			c2.08,0,3.259,0.169,5.116,0.169c1.798,0,3.149-0.169,5.004-0.169c0.507,0,0.619,0.619,0.113,0.732
			c-1.518,0.393-2.42,1.068-2.7,1.91c-0.336,1.183-0.506,2.251-0.506,7.142V240.564z"/>
		<path fill="#231F20" d="M221.203,234.21c0-3.936,0-6.466-0.336-7.871c-0.394-1.688-1.801-2.25-2.98-2.644
			c-0.619-0.226-0.562-0.788,0.167-0.788c1.971,0,3.433,0.169,5.23,0.169c1.461,0,2.923-0.169,4.444-0.169
			c0.785,0,0.842,0.562,0.109,0.788c-0.955,0.337-2.474,0.843-2.753,2.418c-0.34,1.631-0.396,4.161-0.396,8.097v5.962
			c0,3.992,0.056,6.409,0.452,8.04c0.336,1.575,1.741,2.081,3.036,2.53c0.616,0.113,0.562,0.732-0.17,0.732
			c-1.911,0-3.318-0.17-5.061-0.17c-1.574,0-2.979,0.17-4.894,0.17c-0.616,0-0.729-0.562-0.167-0.732
			c1.18-0.336,2.697-0.955,2.98-2.53c0.336-1.631,0.336-4.048,0.336-8.04V234.21z"/>
		<path fill="#231F20" d="M237.337,233.59c0-3.429,0-5.116-0.224-6.578c-0.339-1.968-1.971-2.866-3.599-3.316
			c-0.619-0.169-0.562-0.788,0.167-0.788c1.801,0,3.375,0.169,5.117,0.169c1.631,0,3.205-0.169,4.95-0.169
			c0.785,0,0.729,0.506,0.223,0.732c-1.798,0.729-2.417,1.518-2.696,2.36c-0.227,0.676-0.453,2.25-0.453,8.097v7.873
			c0,4.781,0.34,6.129,0.789,6.805c0.393,0.676,1.519,0.843,3.486,0.843c2.416,0,3.429-0.113,4.44-0.28
			c1.183-0.282,1.858-0.788,2.308-1.461c0.562-0.732,1.012-1.801,1.182-2.251c0.223-0.506,0.729-0.393,0.729,0.17
			c0,0.506-0.167,2.754-0.62,4.498c-0.279,1.125-0.615,1.238-2.36,1.238c-1.348,0-3.372-0.057-6.354-0.113
			c-3.822-0.057-5.004-0.113-6.017-0.113c-1.854,0-3.206,0.17-5.061,0.17c-0.676,0-0.619-0.506-0.057-0.732
			c1.632-0.562,3.43-1.182,3.712-2.923c0.224-1.462,0.337-3.485,0.337-7.537V233.59z"/>
		<path fill="#231F20" d="M261.341,233.59c0-3.429,0-5.116-0.224-6.578c-0.339-1.968-1.971-2.866-3.599-3.316
			c-0.619-0.169-0.562-0.788,0.167-0.788c1.801,0,3.375,0.169,5.117,0.169c1.631,0,3.205-0.169,4.95-0.169
			c0.786,0,0.729,0.506,0.223,0.732c-1.798,0.729-2.417,1.518-2.696,2.36c-0.227,0.676-0.453,2.25-0.453,8.097v7.873
			c0,4.781,0.34,6.129,0.789,6.805c0.393,0.676,1.519,0.843,3.486,0.843c2.417,0,3.429-0.113,4.44-0.28
			c1.183-0.282,1.858-0.788,2.308-1.461c0.562-0.732,1.012-1.801,1.182-2.251c0.223-0.506,0.729-0.393,0.729,0.17
			c0,0.506-0.167,2.754-0.619,4.498c-0.28,1.125-0.616,1.238-2.36,1.238c-1.349,0-3.373-0.057-6.355-0.113
			c-3.822-0.057-5.004-0.113-6.017-0.113c-1.854,0-3.206,0.17-5.061,0.17c-0.676,0-0.619-0.506-0.056-0.732
			c1.631-0.562,3.429-1.182,3.712-2.923c0.223-1.462,0.336-3.485,0.336-7.537V233.59z"/>
	</g>
	<g>
		<path fill="#231F20" d="M105.951,334.396c0-0.415-0.053-0.858-0.339-1.354c-0.286-0.469-1.279-0.758-1.802-0.837
			c-0.336-0.05-0.39-0.39,0-0.39c1.019,0,1.673,0.079,2.609,0.079c0.782,0,1.437-0.079,2.216-0.079c0.339,0,0.339,0.286,0.028,0.39
			c-0.55,0.186-0.836,0.447-0.965,0.837c-0.104,0.286-0.104,0.757-0.104,1.955c0,1.304,0.104,1.772,0.336,1.983
			c0.132,0.104,0.106,0.261-0.129,0.311c-1.462,0.393-3.103,0.861-4.695,0.861c-4.407,0-7.248-2.791-7.248-6.858
			c0-2.502,1.121-4.46,3.338-5.765c1.146-0.65,3.023-1.197,4.642-1.197c1.902,0,2.816,0.34,3.31,0.572
			c0.447,0.21,0.522,0.496,0.447,0.886c-0.079,0.29-0.133,0.704-0.186,1.723c0,0.236-0.337,0.314-0.365,0.054
			c-0.078-0.783-0.547-1.279-1.172-1.697c-0.783-0.521-1.955-0.676-2.999-0.676c-1.122,0-2.062,0.312-2.659,0.676
			c-1.722,1.019-2.348,3.052-2.348,5.113c0,3.781,2.556,6.362,6.154,6.362c0.965,0,1.537-0.236,1.694-0.469
			c0.157-0.235,0.235-0.836,0.235-1.565V334.396z"/>
		<path fill="#231F20" d="M126.736,332.607c0,1.565-0.506,2.757-1.307,3.637c-0.997,1.113-2.465,1.817-4.046,1.817
			c-2.621,0-4.674-1.975-4.674-5.063c0-1.428,0.491-2.813,1.682-3.889c1.135-0.996,2.521-1.408,3.753-1.408
			C124.92,327.701,126.736,329.893,126.736,332.607z M125.272,333.233c0-2.442-1.271-4.865-3.91-4.865
			c-2.424,0-3.185,2.382-3.185,4.3c0,2.382,1.33,4.73,3.907,4.73C124.354,337.398,125.272,335.443,125.272,333.233z"/>
		<path fill="#231F20" d="M134.5,331.631c0-1.191,0-1.779-0.078-2.285c-0.119-0.686-0.686-1-1.251-1.154
			c-0.217-0.06-0.195-0.273,0.057-0.273c0.625,0,1.172,0.057,1.778,0.057c0.569,0,1.116-0.057,1.723-0.057
			c0.273,0,0.252,0.177,0.076,0.252c-0.626,0.255-0.84,0.528-0.938,0.823c-0.078,0.232-0.156,0.779-0.156,2.813v2.737
			c0,1.659,0.116,2.131,0.273,2.364c0.138,0.235,0.527,0.292,1.213,0.292c0.839,0,1.191-0.038,1.543-0.098
			c0.412-0.098,0.645-0.273,0.802-0.506c0.194-0.255,0.352-0.626,0.411-0.783c0.079-0.176,0.252-0.138,0.252,0.061
			c0,0.176-0.057,0.955-0.214,1.562c-0.098,0.39-0.214,0.431-0.82,0.431c-0.468,0-1.172-0.019-2.21-0.041
			c-1.329-0.019-1.737-0.037-2.09-0.037c-0.645,0-1.115,0.06-1.76,0.06c-0.236,0-0.214-0.176-0.02-0.255
			c0.566-0.194,1.191-0.411,1.289-1.019c0.078-0.506,0.119-1.21,0.119-2.618V331.631z"/>
		<path fill="#231F20" d="M147.592,331.631c0-1.191-0.041-1.779-0.079-2.188c-0.098-0.801-0.588-1.115-1.292-1.272
			c-0.194-0.057-0.153-0.252,0.098-0.252c0.723,0,1.292,0.057,1.955,0.057h2.992c0.645,0,1.367-0.057,1.506-0.097
			c0.194-0.098,0.273-0.061,0.251,0.157c-0.037,0.486-0.176,1.329-0.135,1.816c0.019,0.235-0.235,0.273-0.292,0.078
			c-0.079-0.449-0.353-0.978-0.881-1.153c-0.468-0.135-0.88-0.176-1.719-0.176h-0.453c-0.584,0-0.625,0.06-0.663,0.431
			c-0.037,0.411-0.078,0.978-0.078,1.662v1.405c0,0.296,0.041,0.333,0.431,0.333h0.723c1.172,0,1.7-0.06,1.896-0.135
			c0.235-0.101,0.411-0.255,0.547-0.449c0.101-0.12,0.235-0.061,0.198,0.116c-0.061,0.39-0.12,1.094-0.098,2.325
			c0,0.195-0.198,0.214-0.255,0.038c-0.041-0.135-0.098-0.408-0.273-0.682c-0.255-0.431-0.823-0.547-2.015-0.547h-0.663
			c-0.472,0-0.49,0.056-0.49,0.292v0.723c0,1.761,0.06,2.15,0.138,2.502c0.136,0.528,0.585,0.686,1.446,0.978
			c0.194,0.057,0.176,0.255-0.098,0.255c-0.704,0-1.251-0.06-1.917-0.06c-0.704,0-1.21,0.06-1.993,0.06
			c-0.255,0-0.255-0.198-0.06-0.255c0.472-0.176,1.019-0.393,1.135-0.88c0.116-0.449,0.139-0.839,0.139-2.6V331.631z"/>
		<path fill="#231F20" d="M169.889,331.397c0-2.241,0.911-4.092,2.688-5.371c1.798-1.305,3.831-1.694,5.554-1.694
			c1.276,0,2.295,0.232,2.895,0.521c0.415,0.208,0.601,0.443,0.522,0.887c-0.079,0.364-0.183,0.965-0.183,1.772
			c0,0.34-0.314,0.39-0.368,0.104c-0.129-0.729-0.39-1.226-1.118-1.719c-0.626-0.418-1.669-0.679-2.896-0.679
			c-1.304,0-2.27,0.311-2.948,0.757c-1.486,1.016-2.112,2.685-2.112,5.007c0,3.389,2.112,6.23,5.372,6.23
			c0.915,0,1.644-0.104,2.348-0.494c0.679-0.364,1.512-1.122,1.983-2.244c0.104-0.232,0.364-0.182,0.312,0.183
			c-0.079,0.601-0.236,1.591-0.418,2.037c-0.129,0.364-0.39,0.597-0.704,0.729c-0.704,0.312-1.98,0.729-3.624,0.729
			C173.384,338.152,169.889,335.937,169.889,331.397z"/>
		<path fill="#231F20" d="M190.885,331.631c0-1.191,0-1.779-0.078-2.285c-0.12-0.686-0.686-1-1.252-1.154
			c-0.217-0.06-0.194-0.273,0.057-0.273c0.626,0,1.176,0.057,1.779,0.057c0.569,0,1.116-0.057,1.723-0.057
			c0.273,0,0.251,0.177,0.075,0.252c-0.625,0.255-0.839,0.528-0.937,0.823c-0.078,0.232-0.157,0.779-0.157,2.813v2.737
			c0,1.659,0.116,2.131,0.273,2.364c0.139,0.235,0.528,0.292,1.214,0.292c0.839,0,1.19-0.038,1.543-0.098
			c0.411-0.098,0.645-0.273,0.801-0.506c0.195-0.255,0.353-0.626,0.412-0.783c0.075-0.176,0.252-0.138,0.252,0.061
			c0,0.176-0.057,0.955-0.214,1.562c-0.098,0.39-0.214,0.431-0.82,0.431c-0.469,0-1.173-0.019-2.21-0.041
			c-1.329-0.019-1.738-0.037-2.09-0.037c-0.645,0-1.116,0.06-1.761,0.06c-0.235,0-0.214-0.176-0.019-0.255
			c0.565-0.194,1.191-0.411,1.289-1.019c0.078-0.506,0.119-1.21,0.119-2.618V331.631z"/>
		<path fill="#231F20" d="M204.014,330.518c0-1.272-0.038-1.486-0.139-1.7c-0.154-0.333-0.645-0.49-1.112-0.626
			c-0.195-0.06-0.176-0.273,0.06-0.273c0.723,0,1.094,0.057,1.659,0.057c0.686,0,1.098-0.057,1.918-0.057
			c0.292,0,0.254,0.233,0.078,0.273c-0.49,0.117-0.723,0.293-0.861,0.507c-0.314,0.393-0.39,1.603-0.39,3.187v1.798
			c0,1.289,0.33,2.191,0.802,2.618c0.428,0.412,1.191,0.843,2.188,0.843c0.547,0,1.446-0.041,2.033-0.645
			c0.585-0.588,0.959-1.663,0.959-3.794v-1.778c0-1.057-0.119-1.544-0.255-1.858c-0.176-0.449-0.568-0.644-1.251-0.898
			c-0.176-0.057-0.176-0.252,0.098-0.252c0.528,0,1.173,0.057,1.817,0.057c0.547,0,1.074-0.057,1.584-0.057
			c0.232,0,0.232,0.195,0.019,0.252c-0.39,0.119-0.761,0.352-0.937,0.823c-0.139,0.312-0.176,0.802-0.236,1.738l-0.116,2.697
			c-0.119,2.774-1.778,4.633-4.378,4.633c-1.135,0-2.251-0.39-2.876-1.173c-0.428-0.547-0.663-1.251-0.663-2.6V330.518z"/>
		<path fill="#231F20" d="M220.785,331.787c0-1.389-0.041-1.955-0.078-2.423c-0.079-0.764-0.51-0.88-1.252-0.996
			c-0.235-0.041-0.254-0.236,0.02-0.255c1.037-0.119,2.345-0.255,3.363-0.255c0.877,0,1.659,0.079,2.229,0.409
			c0.7,0.411,1.015,1.153,1.015,1.741c0,0.802-0.333,1.21-0.625,1.408l-0.626,0.408c-0.078,0.06-0.078,0.139,0.02,0.176
			c0.958,0.333,1.955,0.997,1.955,2.483c0,1.408-0.802,2.267-1.975,2.794c-1.153,0.528-2.441,0.569-3.127,0.569
			c-0.802,0-1.779-0.06-2.229,0c-0.273,0.019-0.273-0.198-0.098-0.255c0.39-0.098,0.626-0.194,0.858-0.292
			c0.276-0.119,0.393-0.314,0.449-0.647c0.06-0.293,0.101-0.779,0.101-2.521V331.787z M221.995,331.807c0,0.371,0,0.411,0.314,0.411
			c0.487,0,1.329-0.119,1.738-0.352c0.371-0.195,0.723-0.588,0.723-1.251c0-1.173-0.625-2.21-2.149-2.21
			c-0.232,0-0.391,0.038-0.45,0.098s-0.097,0.139-0.116,0.273c-0.041,0.235-0.06,0.82-0.06,2.288V331.807z M221.995,334.271
			c0,1.483,0.079,2.15,0.157,2.461c0.06,0.217,0.157,0.314,0.312,0.353c0.217,0.06,0.49,0.098,0.802,0.098
			c1.193,0,2.172-0.548,2.172-2.267c0-2.094-1.975-2.27-2.622-2.27c-0.273,0-0.506,0.022-0.604,0.06
			c-0.101,0.02-0.217,0.041-0.217,0.217V334.271z"/>
	</g>
	<g>
		<path fill="#231F20" d="M96.595,285.323c0-5.991,2.438-10.936,7.172-14.346c4.806-3.482,10.237-4.529,14.836-4.529
			c3.41,0,6.126,0.629,7.729,1.393c1.116,0.56,1.604,1.185,1.393,2.37c-0.207,0.975-0.487,2.577-0.487,4.733
			c0,0.905-0.836,1.047-0.975,0.279c-0.349-1.948-1.043-3.271-2.995-4.595c-1.672-1.116-4.457-1.811-7.729-1.811
			c-3.482,0-6.06,0.836-7.87,2.018c-3.971,2.716-5.639,7.173-5.639,13.371c0,9.056,5.639,16.646,14.345,16.646
			c2.436,0,4.388-0.28,6.268-1.324c1.811-0.977,4.039-2.995,5.293-5.99c0.276-0.626,0.974-0.487,0.836,0.487
			c-0.211,1.603-0.629,4.249-1.116,5.431c-0.349,0.978-1.043,1.604-1.879,1.952c-1.88,0.836-5.293,1.949-9.682,1.949
			C105.926,303.358,96.595,297.439,96.595,285.323z"/>
		<path fill="#231F20" d="M136.258,283.657c0-3.093-0.167-5.004-0.28-6.072c-0.113-0.899-0.619-1.349-1.068-1.575
			c-0.619-0.336-1.575-0.562-2.308-0.729c-0.562-0.112-0.506-0.676,0.34-0.732c2.53-0.223,5.174-0.619,9.389-0.729
			c4.894-0.113,7.537,1.292,8.772,2.923c1.352,1.688,1.461,3.599,1.461,4.611c0,2.699-1.518,4.891-2.866,5.735l-1.349,0.786
			c-0.396,0.227-0.449,0.393-0.169,1.012c2.25,4.445,5.623,8.886,7.76,10.74c2.251,1.914,4.328,2.42,4.611,2.477
			c0.279,0,0.279,0.28,0.113,0.394c-0.283,0.166-1.238,0.449-2.813,0.449c-2.304,0-4.724-0.843-6.186-2.138
			c-2.474-2.304-4.218-5.51-6.186-9.335c-0.786-1.461-1.126-1.631-2.138-1.518c-1.179,0.17-2.36,0.282-3.146,0.282
			c-0.396,0-0.452,0.057-0.452,0.673v0.846c0,4.611,0.113,5.396,0.283,6.466c0.279,2.137,1.182,2.699,3.262,3.599
			c0.507,0.226,0.507,0.732-0.169,0.732c-1.632,0-3.149-0.17-5.061-0.17c-1.914,0-3.489,0.17-5.4,0.17
			c-0.619,0-0.672-0.562-0.223-0.732c2.36-0.729,3.259-1.292,3.542-3.206c0.167-0.956,0.28-2.644,0.28-5.228V283.657z
			 M139.743,287.539c0,0.393,0.057,0.562,0.619,0.676c0.619,0.053,1.462,0.109,2.7,0.109c2.81,0,5.68-1.235,5.68-5.173
			c0-4.049-2.418-7.761-7.198-7.761c-1.238,0-1.405,0.227-1.518,0.676c-0.113,0.393-0.283,1.911-0.283,5.23V287.539z"/>
		<path fill="#231F20" d="M166.837,284.669c0-4.048-0.057-5.959-0.28-6.915c-0.393-1.744-1.688-2.53-3.542-2.979
			c-0.562-0.17-0.562-0.789,0.28-0.789c2.023,0,3.655,0.17,5.399,0.17h8.433c1.857,0,4.219-0.113,4.781-0.393
			c0.336-0.17,0.562-0.057,0.506,0.449c-0.17,1.519-0.562,3.936-0.449,5.23c0.057,0.673-0.676,0.955-0.789,0.223
			c-0.224-1.182-0.899-2.81-2.53-3.259c-1.349-0.34-2.53-0.453-4.947-0.453h-1.632c-1.291,0-1.348,0.17-1.518,1.238
			c-0.113,0.899-0.227,2.7-0.227,4.781v3.655c0,0.842,0.113,0.898,1.465,0.898h1.574c3.316,0,4.835-0.169,5.567-0.393
			c0.672-0.227,1.012-0.562,1.348-1.068c0.283-0.45,0.732-0.34,0.676,0.279c-0.169,0.956-0.393,2.923-0.339,6.129
			c0,0.619-0.562,0.732-0.673,0.227c-0.113-0.449-0.283-1.068-0.789-1.857c-0.673-1.068-2.417-1.462-5.79-1.462h-1.631
			c-1.352,0-1.408,0.17-1.408,0.899v3.488c0,4.891,0.283,6.409,0.732,7.085s1.911,0.843,4.274,0.843c1.632,0,3.203-0.11,4.385-0.337
			c0.956-0.17,1.857-0.676,2.417-1.349c0.562-0.676,0.959-1.352,1.238-2.307c0.17-0.506,0.732-0.449,0.732,0.057
			c0,0.619-0.282,2.7-0.619,4.218c-0.339,1.462-0.676,1.575-2.474,1.575c-2.756,0-10.687-0.17-13.047-0.17
			c-2.194,0-3.485,0.17-5.396,0.17c-0.789,0-0.789-0.676-0.283-0.789c1.688-0.393,3.655-0.899,4.104-2.644
			c0.17-0.786,0.45-2.247,0.45-7.308V284.669z"/>
		<path fill="#231F20" d="M192.02,284.669c0-4.048-0.057-5.959-0.28-6.915c-0.393-1.744-1.688-2.53-3.542-2.979
			c-0.562-0.17-0.562-0.789,0.279-0.789c2.024,0,3.656,0.17,5.4,0.17h8.433c1.858,0,4.219-0.113,4.781-0.393
			c0.336-0.17,0.562-0.057,0.506,0.449c-0.17,1.519-0.562,3.936-0.449,5.23c0.057,0.673-0.676,0.955-0.789,0.223
			c-0.224-1.182-0.899-2.81-2.53-3.259c-1.349-0.34-2.53-0.453-4.947-0.453h-1.631c-1.292,0-1.349,0.17-1.519,1.238
			c-0.113,0.899-0.227,2.7-0.227,4.781v3.655c0,0.842,0.113,0.898,1.465,0.898h1.575c3.315,0,4.834-0.169,5.566-0.393
			c0.672-0.227,1.012-0.562,1.348-1.068c0.283-0.45,0.732-0.34,0.676,0.279c-0.17,0.956-0.393,2.923-0.339,6.129
			c0,0.619-0.562,0.732-0.673,0.227c-0.113-0.449-0.283-1.068-0.789-1.857c-0.673-1.068-2.417-1.462-5.789-1.462h-1.632
			c-1.352,0-1.408,0.17-1.408,0.899v3.488c0,4.891,0.283,6.409,0.732,7.085s1.911,0.843,4.274,0.843c1.632,0,3.203-0.11,4.385-0.337
			c0.956-0.17,1.857-0.676,2.417-1.349c0.562-0.676,0.959-1.352,1.238-2.307c0.17-0.506,0.732-0.449,0.732,0.057
			c0,0.619-0.282,2.7-0.619,4.218c-0.339,1.462-0.676,1.575-2.474,1.575c-2.756,0-10.687-0.17-13.047-0.17
			c-2.193,0-3.485,0.17-5.396,0.17c-0.789,0-0.789-0.676-0.283-0.789c1.688-0.393,3.655-0.899,4.105-2.644
			c0.169-0.786,0.449-2.247,0.449-7.308V284.669z"/>
		<path fill="#231F20" d="M218.525,284.864c0-3.574,0-6.94-0.343-8.452c-0.276-0.962-1.169-1.785-3.162-2.474
			c-1.03-0.204-1.1-0.893,0-0.893c1.785,0,3.709,0.207,5.771,0.207c1.854,0,3.298-0.207,5.225-0.207
			c0.823,0,0.823,0.688,0.135,0.893c-2.062,0.55-2.816,1.374-3.023,2.335c-0.136,0.758-0.343,2.062-0.343,8.521v1.442
			c0,1.169,0.412,1.238,0.893,1.031c0.55-0.273,1.65-0.823,2.612-1.785c4.739-4.604,6.39-7.56,7.282-8.795
			c1.031-1.512,0.208-1.923-1.374-2.611c-0.688-0.277-0.823-0.824,0.205-0.824h4.055c1.649,0,3.297-0.138,4.809-0.207
			c0.962,0,0.962,0.688,0,0.893c-1.235,0.276-2.678,1.238-4.74,3.231c-1.512,1.442-3.916,4.12-7.352,7.625
			c-0.55,0.55-0.411,0.823,0.069,1.581c4.467,7.145,9.414,12.915,13.465,16.831c5.567,5.636,11.134,8.933,17.108,8.933
			c4.055,0,6.666-1.512,7.764-3.847c0.415-0.758,1.1-0.481,0.826,0.411c-1.169,3.024-5.085,6.321-11.68,6.321
			c-4.743,0-10.444-2.131-15.596-7.145c-5.155-4.947-9.826-11.268-14.223-17.865c-0.827-1.305-1.308-1.647-2.062-1.647
			c-0.342,0-0.893,0.069-1.304,0.205c-0.619,0.207-0.758,0.55-0.758,1.03v4.674c0,3.366,0.343,5.563,1.374,6.321
			c0.757,0.616,1.58,0.893,2.338,1.097c0.616,0.207,0.754,0.896-0.276,0.896c-1.854,0-3.574-0.207-5.566-0.207
			c-1.924,0-3.848,0.207-5.633,0.207c-0.962,0-0.893-0.55-0.138-0.896c1.373-0.547,2.885-1.235,3.161-2.474
			c0.274-1.097,0.481-2.267,0.481-6.387V284.864z"/>
	</g>
	<line fill="none" stroke="#231F20" stroke-width="0.6163" x1="96.84" y1="313.768" x2="226.223" y2="313.768"/>
</g>
</svg>
