<?xml version="1.0" encoding="utf-8"?>
<!-- Generator: Adobe Illustrator 15.0.0, SVG Export Plug-In . SVG Version: 6.00 Build 0)  -->
<!DOCTYPE svg PUBLIC "-//W3C//DTD SVG 1.1//EN" "http://www.w3.org/Graphics/SVG/1.1/DTD/svg11.dtd">
<svg version="1.1" id="Layer_1" xmlns="http://www.w3.org/2000/svg" xmlns:xlink="http://www.w3.org/1999/xlink" x="0px" y="0px"
	 width="300px" height="100px" viewBox="0 0 300 100" enable-background="new 0 0 300 100" xml:space="preserve">
<g>
	<g>
		<path d="M33.069,21.223L16.449,52.87H9.126c-0.887,0-1.517-0.046-1.885-0.147c-0.37-0.099-0.626-0.305-0.768-0.616
			c-0.144-0.309-0.239-0.85-0.289-1.621l-1.76-27.174c-0.102-1.425-0.277-2.335-0.528-2.729c-0.252-0.397-0.806-0.65-1.661-0.767
			l0.303-1.283h10.359c0.788,0,1.302,0.171,1.545,0.515c0.243,0.346,0.375,1.092,0.391,2.25l0.528,16.801l7.317-14.132
			c0.739-1.395,1.107-2.35,1.107-2.869c0-0.79-0.499-1.217-1.506-1.284l0.277-1.28h8.02c1.005,0,1.669,0.026,1.988,0.069
			c0.667,0.142,1.006,0.506,1.006,1.111C33.571,20.082,33.399,20.587,33.069,21.223"/>
		<path d="M47.524,21.315l-0.607,2.555h-6.889c-1.68,0-2.517-0.532-2.517-1.604c0-0.368,0.05-0.759,0.15-1.18l0.603-2.554h6.895
			c1.674,0,2.516,0.536,2.516,1.601C47.675,20.487,47.624,20.882,47.524,21.315 M31.018,50.076l4.705-20.492
			c0.151-0.669,0.227-1.174,0.227-1.509c0-0.889-0.509-1.384-1.532-1.487l0.276-1.208h8.905c1.677,0,2.514,0.54,2.514,1.614
			c0,0.354-0.052,0.744-0.15,1.184L41.26,48.67c-0.154,0.672-0.229,1.177-0.229,1.513c0,0.888,0.513,1.379,1.532,1.484l-0.273,1.203
			h-8.908c-1.675,0-2.515-0.531-2.515-1.605C30.868,51.047,30.92,50.65,31.018,50.076"/>
		<path d="M66.723,49.672c-0.204,0.936-0.591,1.662-1.17,2.17c-0.576,0.514-1.417,0.869-2.523,1.069
			c-1.11,0.197-2.693,0.302-4.755,0.302c-1.773,0-3.275-0.061-4.49-0.176c-1.212-0.119-2.234-0.304-3.056-0.556
			c-0.823-0.248-1.498-0.594-2.033-1.03c-0.738-0.604-1.272-1.293-1.6-2.067c-0.324-0.768-0.489-1.704-0.489-2.813
			c0-1.494,0.229-3.347,0.692-5.549c0.459-2.209,1.051-4.39,1.771-6.548c0.722-2.153,1.418-3.788,2.086-4.895
			c0.906-1.557,1.998-2.648,3.271-3.266c1.273-0.62,3.094-0.933,5.455-0.933h10.993l-0.932,4.049
			c-0.185,0.788-0.361,1.347-0.541,1.672c-0.175,0.327-0.437,0.551-0.774,0.669c-0.347,0.117-0.854,0.156-1.523,0.123h-3.777
			c-1.37,0-2.357,0.184-2.953,0.545c-0.594,0.358-1.086,1.066-1.469,2.126c-0.252,0.671-0.603,1.987-1.059,3.952
			c-0.52,2.218-0.777,3.723-0.777,4.512c0,0.672,0.154,1.197,0.463,1.575c0.312,0.377,0.825,0.644,1.548,0.793
			c0.721,0.153,1.684,0.226,2.895,0.226c1.575,0,2.688-0.129,3.343-0.398c0.656-0.269,1.173-0.812,1.557-1.637h1.236L66.723,49.672z
			"/>
		<path d="M71.736,49.064l3.952-17.48h-2.417l1.233-5.3c2.199-0.149,4.099-0.742,5.69-1.778c1.593-1.034,2.813-2.463,3.649-4.286
			h4.382l-1.183,5.16h6.672l-0.882,3.897c-0.198,0.938-0.493,1.554-0.878,1.856c-0.387,0.3-1.032,0.451-1.942,0.451H87.65
			c-0.84,0-1.424,0.133-1.752,0.392c-0.328,0.261-0.59,0.837-0.793,1.726l-2.038,8.938c-0.189,0.805-0.276,1.42-0.276,1.842
			c0,0.566,0.222,0.959,0.66,1.172c0.452,0.21,1.275,0.308,2.487,0.308c1.073,0,1.809-0.129,2.203-0.4
			c0.395-0.269,0.781-0.812,1.169-1.634h1.283l-1.608,6.832c-0.186,0.804-0.449,1.36-0.795,1.649
			c-0.345,0.295-0.927,0.453-1.749,0.463H75.263c-0.807,0-1.482-0.091-2.027-0.288c-0.55-0.189-0.945-0.502-1.198-0.93
			c-0.256-0.426-0.379-0.962-0.379-1.601C71.659,49.698,71.684,49.368,71.736,49.064"/>
		<path d="M109.164,31.37c-1.496,0-2.52,0.562-3.068,1.684c-0.341,0.688-0.769,2.115-1.283,4.272
			c-0.959,3.974-1.437,6.427-1.437,7.362c0,1.343,0.787,2.014,2.365,2.014c1.306,0,2.265-0.489,2.869-1.456
			c0.401-0.587,0.899-2.049,1.486-4.373c0.282-1.089,0.596-2.506,0.94-4.248c0.343-1.743,0.517-2.813,0.517-3.215
			c0-0.622-0.217-1.116-0.658-1.485C110.462,31.556,109.884,31.37,109.164,31.37 M110.065,25.042c4.195,0,7.123,0.421,8.785,1.26
			c1.795,0.906,2.695,2.616,2.695,5.13c0,2.026-0.532,5.091-1.588,9.18c-0.738,2.847-1.471,5.059-2.202,6.627
			c-0.732,1.563-1.631,2.789-2.703,3.657c-1.072,0.874-2.431,1.477-4.065,1.814c-1.636,0.337-3.787,0.502-6.456,0.502
			c-2.666,0-4.832-0.206-6.49-0.614c-1.662-0.412-2.866-1.082-3.612-2.013c-0.744-0.932-1.119-2.145-1.119-3.639
			c0-1.843,0.496-4.741,1.482-8.7c0.706-2.831,1.441-5.094,2.206-6.779c0.763-1.684,1.682-2.995,2.769-3.937
			c1.08-0.937,2.435-1.589,4.062-1.949C105.455,25.222,107.537,25.042,110.065,25.042"/>
		<path d="M122.137,50.076l4.709-20.488c0.149-0.673,0.227-1.178,0.227-1.513c0-0.889-0.513-1.384-1.535-1.487l0.275-1.208h8.902
			c1.68,0,2.518,0.54,2.518,1.614c0,0.354-0.052,0.749-0.153,1.184l-0.325,1.311l1.887-2.594c0.501-0.709,0.938-1.137,1.307-1.288
			c0.37-0.148,1.149-0.228,2.339-0.228h4.127l-0.86,3.755c-0.283,1.198-0.524,1.993-0.715,2.394c-0.194,0.405-0.5,0.672-0.918,0.809
			c-0.42,0.135-1.12,0.199-2.111,0.199h-2.667c-1.174,0-2.036,0.281-2.59,0.833c-0.552,0.551-1.005,1.569-1.357,3.045l-2.816,12.26
			c-0.152,0.668-0.229,1.179-0.229,1.509c0,0.888,0.511,1.385,1.536,1.484l-0.281,1.203h-8.899c-1.678,0-2.516-0.531-2.516-1.605
			C121.99,51.047,122.038,50.65,122.137,50.076"/>
		<path d="M161.216,56.08c-0.38,0.621-0.578,1.149-0.578,1.588c0,0.483,0.373,0.781,1.109,0.878l-0.277,1.207h-8.903
			c-0.842,0-1.396-0.065-1.677-0.197c-0.274-0.137-0.414-0.395-0.414-0.78c0-0.421,0.203-0.966,0.602-1.638l5.185-8.663
			l-5.385-19.619c-0.217-0.824-0.469-1.379-0.756-1.673c-0.28-0.297-0.761-0.492-1.432-0.595l0.275-1.208h7.726
			c1.056,0,1.764,0.042,2.126,0.126c0.359,0.084,0.626,0.292,0.792,0.618c0.166,0.327,0.375,0.997,0.631,2.003l2.436,9.85
			l4.831-8.565c0.39-0.69,0.584-1.235,0.584-1.639c0-0.636-0.442-1.035-1.31-1.186l0.278-1.208h9.004c0.842,0,1.42,0.094,1.75,0.276
			c0.328,0.187,0.492,0.505,0.492,0.959c0,0.366-0.145,0.796-0.434,1.285L161.216,56.08z"/>
		<path d="M205.124,21.326l-5.555,24.334h5.583c1.372,0,2.332-0.134,2.856-0.395c0.521-0.261,0.923-0.819,1.195-1.673h1.429
			l-1.482,6.565c-0.25,1.141-0.6,1.879-1.055,2.214s-1.325,0.498-2.613,0.498h-15.624c-1.612,0-2.417-0.531-2.417-1.604
			c0-0.37,0.057-0.762,0.15-1.186l6.263-27.247c0.155-0.639,0.225-1.117,0.225-1.435c0-0.855-0.53-1.385-1.601-1.583l0.299-1.283
			h9.982c1.7,0,2.543,0.536,2.543,1.609C205.302,20.39,205.243,20.788,205.124,21.326"/>
		<path d="M226.472,39.541c-1.388,0-2.343,0.42-2.87,1.262c-0.285,0.499-0.508,1.044-0.674,1.633
			c-0.173,0.584-0.252,1.155-0.252,1.707c0,0.653,0.189,1.114,0.573,1.371c0.388,0.262,1.089,0.389,2.09,0.389h1.746l1.451-6.361
			H226.472z M226.12,50.076l0.38-1.632l-1.689,2.268c-0.47,0.666-0.945,1.172-1.436,1.511c-0.481,0.33-1.039,0.557-1.673,0.663
			c-0.625,0.113-1.525,0.164-2.699,0.164c-2.274,0-3.953-0.426-5.061-1.284c-1.109-0.855-1.661-2.177-1.661-3.956
			c0-2.447,0.566-5.078,1.71-7.881c1.007-2.487,2.643-4.102,4.908-4.86c0.738-0.251,2.086-0.381,4.049-0.381h4.936
			c0.787,0,1.337-0.135,1.647-0.413c0.311-0.273,0.471-0.762,0.471-1.462c0-0.485-0.105-0.792-0.295-0.918
			c-0.195-0.124-0.609-0.186-1.243-0.186h-6.676c-0.785,0-1.373-0.122-1.773-0.365c-0.389-0.244-0.586-0.626-0.586-1.15
			c0-0.383,0.1-0.939,0.303-1.66l0.705-3.154h12.73c1.544,0,2.616,0.042,3.221,0.126c0.605,0.084,1.167,0.272,1.686,0.555
			c0.72,0.369,1.289,0.908,1.699,1.615c0.408,0.704,0.617,1.474,0.617,2.313c0,0.706-0.153,1.688-0.455,2.946l-3.6,15.734
			c-0.147,0.672-0.22,1.183-0.22,1.513c0,0.888,0.507,1.385,1.532,1.484l-0.279,1.203h-8.904c-1.679,0-2.52-0.531-2.52-1.605
			C225.944,50.978,226.003,50.586,226.12,50.076"/>
		<path d="M241.217,50.081l4.71-20.477c0.166-0.736,0.25-1.239,0.25-1.504c0-0.407-0.136-0.743-0.405-1.013
			c-0.27-0.266-0.654-0.42-1.152-0.475l0.27-1.232h8.911c1.677,0,2.518,0.542,2.518,1.621c0,0.353-0.051,0.752-0.154,1.193
			l-0.299,1.263c0.824-1.309,1.552-2.253,2.197-2.83c0.648-0.578,1.411-0.96,2.271-1.137c0.865-0.174,2.084-0.262,3.662-0.262
			c1.572,0,2.848,0.125,3.818,0.378c0.975,0.25,1.676,0.653,2.104,1.21c0.427,0.55,0.648,1.31,0.648,2.266
			c0,0.568-0.129,1.409-0.384,2.517l-3.903,17.076c-0.146,0.642-0.224,1.148-0.224,1.532c0,0.874,0.513,1.36,1.536,1.46
			l-0.275,1.203h-9.033c-1.593,0-2.39-0.531-2.39-1.604c0-0.234,0.057-0.629,0.174-1.186l3.344-14.71
			c0.224-0.958,0.328-1.573,0.328-1.835c0-1.075-0.595-1.613-1.782-1.613c-0.677,0-1.229,0.108-1.662,0.325
			c-0.438,0.223-0.8,0.593-1.085,1.124c-0.285,0.525-0.523,1.252-0.734,2.175l-3.016,13.128c-0.147,0.671-0.227,1.178-0.227,1.508
			c0,0.892,0.51,1.385,1.539,1.484l-0.275,1.203h-8.911c-1.676,0-2.516-0.524-2.516-1.579
			C241.069,50.984,241.118,50.59,241.217,50.081"/>
		<path d="M283.305,35.519h5.74c0.195-0.938,0.304-1.682,0.304-2.235c0-1.357-0.765-2.037-2.296-2.037
			c-1.039,0-1.852,0.331-2.428,0.981C284.047,32.881,283.608,33.978,283.305,35.519 M293.191,40.156h-10.893
			c-0.287,1.363-0.429,2.374-0.429,3.031c0,0.741,0.16,1.28,0.476,1.617c0.317,0.34,0.923,0.566,1.812,0.691
			c0.888,0.127,2.229,0.191,4.026,0.191c1.963,0,3.39-0.161,4.267-0.479c0.88-0.321,1.438-0.898,1.676-1.743h1.207l-1.357,5.907
			c-0.185,0.873-0.453,1.557-0.793,2.049c-0.343,0.492-0.896,0.868-1.663,1.125c-0.761,0.262-1.746,0.437-2.939,0.53
			c-1.203,0.091-2.961,0.137-5.275,0.137c-3.759,0-6.438-0.267-8.03-0.803c-2.519-0.856-3.773-2.769-3.773-5.736
			c0-1.31,0.229-3.131,0.684-5.453c0.442-2.322,0.99-4.475,1.629-6.458c0.674-2.042,1.365-3.673,2.09-4.897
			c0.721-1.222,1.602-2.189,2.631-2.902c1.033-0.708,2.273-1.212,3.723-1.495c1.456-0.282,3.349-0.427,5.704-0.427
			c2.128,0,3.809,0.101,5.045,0.303c1.23,0.203,2.235,0.561,3.004,1.079c1.583,1.043,2.374,2.726,2.374,5.055
			c0,1.091-0.123,2.253-0.371,3.486c-0.244,1.23-0.533,2.271-0.867,3.104c-0.351,0.87-0.785,1.438-1.311,1.695
			C295.322,40.029,294.437,40.156,293.191,40.156"/>
	</g>
	<path d="M10.655,75.402c-0.143,0.615-0.143,0.599-0.143,0.757c0,0.281,0.195,0.443,0.582,0.529l-0.107,0.44H7.412
		c-0.459,0-0.777-0.229-0.758-0.562c0-0.054,0.035-0.252,0.104-0.513l1.922-8.318H7.675c-0.74,0-0.882,0.066-1.128,0.58H6.036
		l0.477-2.045c0.176-0.773,0.335-0.898,1.199-0.898h6.452c0.561,0,0.703-0.088,0.95-0.548l0.529-0.017l-0.458,1.975
		c-0.179,0.826-0.318,0.934-1.021,0.934h-1.746L10.655,75.402z"/>
	<path d="M19.395,68.686c0.655-0.863,1.023-1.004,2.574-1.004c1.501,0,2.132,0.389,2.132,1.32c0,0.336,0,0.32-0.211,1.184
		l-1.251,5.412c-0.086,0.353-0.105,0.476-0.105,0.582c0,0.278,0.125,0.423,0.495,0.563l-0.09,0.386h-3.101
		c-0.477,0-0.775-0.209-0.775-0.546c0-0.069,0.034-0.25,0.071-0.459l1.162-5.042C20.4,70.695,20.4,70.645,20.4,70.52
		c0-0.334-0.229-0.527-0.651-0.527c-0.637,0-0.918,0.264-1.093,1.056l-1.058,4.55c-0.124,0.489-0.105,0.457-0.105,0.582
		c0,0.278,0.14,0.438,0.511,0.563l-0.107,0.386h-3.136c-0.494,0-0.74-0.194-0.74-0.562c0-0.142-0.017-0.054,0.123-0.654l2.08-9.007
		c0.088-0.385,0.104-0.476,0.104-0.58c0-0.283-0.122-0.422-0.492-0.566l0.088-0.387h3.084c0.493,0,0.793,0.213,0.793,0.547
		c0,0.054-0.02,0.191-0.053,0.352l-0.654,2.803L19.395,68.686z"/>
	<path fill="#FFFFFF" d="M29.307,70.693c0.163,0.209,0.208,0.269,0.328,0.42c-0.169-0.092-0.282-0.205-0.373-0.381
		C29.275,70.725,29.295,70.705,29.307,70.693z"/>
	<path d="M28.191,72.776c-0.089,0.44-0.14,0.81-0.14,1.06c0,0.701,0.422,0.88,2.062,0.88c1.427,0,1.779-0.123,2.133-0.759h0.406
		l-0.46,1.939c-0.282,1.198-0.669,1.357-3.42,1.357c-1.478,0-2.377-0.086-3.031-0.302c-0.774-0.248-1.233-0.984-1.233-1.992
		c0-0.949,0.318-2.501,0.881-4.265c0.777-2.396,1.852-3.086,4.848-3.086c2.503,0,3.473,0.621,3.473,2.241
		c0,0.705-0.195,1.743-0.406,2.239c-0.247,0.526-0.512,0.687-1.181,0.687H28.191z M30.5,71.191c0.071-0.357,0.105-0.547,0.105-0.744
		c0-0.476-0.246-0.686-0.774-0.686c-0.741,0-1.005,0.296-1.286,1.43H30.5z"/>
	<path d="M42.997,73.078c-0.159,0.721-0.177,0.81-0.177,1.039c0,0.42,0.317,0.668,0.828,0.668c0.953,0,1.164-0.231,1.481-1.605
		l1.394-6.078c0.104-0.425,0.121-0.602,0.121-0.76c0-0.264-0.159-0.422-0.545-0.528l0.104-0.44h3.491c0.599,0,0.81,0.158,0.81,0.563
		c0,0.126-0.018,0.212-0.123,0.636l-1.691,7.401c-0.581,2.467-1.903,3.33-5.2,3.33c-3.067,0-4.564-0.755-4.564-2.305
		c0-0.32,0.052-0.652,0.157-1.146l1.553-6.751c0.105-0.425,0.141-0.58,0.141-0.76c0-0.264-0.178-0.422-0.548-0.528l0.088-0.44h3.562
		c0.492,0,0.739,0.195,0.739,0.563c0,0.089-0.035,0.267-0.072,0.44L42.997,73.078z"/>
	<path d="M52.267,66.906c0.087-0.385,0.105-0.476,0.105-0.58c0-0.283-0.123-0.406-0.494-0.566l0.089-0.387h3.015
		c0.598,0,0.862,0.158,0.862,0.531c0,0.084-0.016,0.227-0.071,0.422l-2.132,9.271c-0.089,0.37-0.104,0.457-0.104,0.582
		c0,0.278,0.123,0.423,0.492,0.563l-0.087,0.386h-3.12c-0.476,0-0.775-0.229-0.756-0.562c0-0.109,0.017-0.234,0.068-0.388
		L52.267,66.906z"/>
	<path fill="#FFFFFF" d="M60.877,74.347L60.877,74.347L60.877,74.347L60.877,74.347z"/>
	<path d="M62.86,69.074c-0.141,0.6-0.317,0.76-0.899,0.76H61.31c-0.812,0-0.936,0.088-1.092,0.775l-0.725,3.172
		c-0.054,0.211-0.088,0.371-0.088,0.494c-0.018,0.366,0.23,0.491,0.935,0.491c0.95,0,1.041-0.051,1.304-0.688h0.424l-0.476,2.081
		c-0.212,0.883-0.317,0.97-1.147,0.97H56.92c-0.88,0-1.304-0.3-1.304-0.949c0-0.179,0.035-0.427,0.105-0.705l1.303-5.641h-0.827
		l0.407-1.799c1.496-0.09,2.537-0.758,3.207-2.078h1.479l-0.405,1.779h2.291L62.86,69.074z"/>
	<path d="M64.166,69.268c0.087-0.385,0.104-0.457,0.104-0.582c0-0.283-0.104-0.42-0.493-0.562l0.088-0.387h2.978
		c0.635,0,0.898,0.141,0.898,0.512c0,0.141-0.017,0.246-0.034,0.389l-1.622,6.961c-0.07,0.315-0.106,0.476-0.106,0.582
		c0,0.278,0.125,0.423,0.494,0.563l-0.087,0.386H63.3c-0.528,0-0.81-0.177-0.793-0.511c0-0.121,0.036-0.303,0.089-0.531
		L64.166,69.268z M65.54,67.205c-0.512,0-0.742-0.191-0.742-0.598c0-0.035,0.019-0.123,0.036-0.211l0.229-1.023h2.24
		c0.757,0,0.985,0.125,0.985,0.547c0,0.086-0.017,0.191-0.034,0.283l-0.231,1.002H65.54z"/>
	<path d="M72.907,69.074c0.987-1.303,1.163-1.393,2.749-1.393c1.64,0,2.186,0.371,2.169,1.48c0.104-0.141,0.194-0.246,0.228-0.332
		c0.724-1.008,1.074-1.148,2.715-1.148c1.303,0,1.974,0.406,1.974,1.234c0,0.352,0,0.406-0.229,1.301l-1.233,5.381
		c-0.088,0.353-0.106,0.476-0.106,0.582c0,0.278,0.142,0.438,0.513,0.563l-0.09,0.386h-3.154c-0.441,0-0.723-0.229-0.723-0.58
		c0-0.091,0.034-0.351,0.106-0.636l1.126-4.831c0.124-0.526,0.107-0.455,0.107-0.58c0-0.334-0.23-0.53-0.6-0.53
		c-0.617,0-0.881,0.284-1.093,1.149l-1.022,4.477c-0.123,0.457-0.123,0.476-0.123,0.601c0,0.279,0.158,0.437,0.511,0.545
		l-0.088,0.386h-3.156c-0.476,0-0.723-0.194-0.723-0.562c0-0.09,0.036-0.3,0.091-0.55l1.161-4.97
		c0.089-0.403,0.089-0.403,0.089-0.528c0-0.318-0.229-0.527-0.581-0.527c-0.565,0-0.918,0.351-1.075,1.074l-1.06,4.531
		c-0.071,0.353-0.104,0.476-0.104,0.582c0,0.278,0.123,0.403,0.493,0.563l-0.088,0.386h-3.068c-0.529,0-0.793-0.177-0.793-0.562
		c0-0.09,0.037-0.283,0.07-0.48l1.569-6.819c0.105-0.385,0.105-0.475,0.105-0.582c0-0.283-0.069-0.369-0.476-0.562l0.09-0.387h3.066
		c0.529,0,0.827,0.193,0.81,0.543c0,0.072-0.034,0.215-0.07,0.406L72.907,69.074z"/>
	<path d="M90.056,67.736c0.917,0,1.321,0.051,1.708,0.246c0.477,0.209,0.83,0.773,0.83,1.305c0,0.16-0.035,0.387-0.088,0.652
		l-1.306,5.658c-0.104,0.42-0.104,0.457-0.104,0.582c0,0.298,0.142,0.455,0.528,0.563l-0.087,0.386h-3.086
		c-0.58,0-0.847-0.159-0.847-0.526c0-0.054,0.019-0.214,0.071-0.391l0.124-0.58l-0.266,0.369c-0.898,1.217-0.97,1.253-2.292,1.253
		c-1.515,0-2.255-0.601-2.255-1.852c0-1.343,0.6-3.104,1.288-3.772c0.598-0.563,1.075-0.705,2.377-0.705h1.253
		c0.951,0,1.127-0.12,1.127-0.739c0-0.264-0.123-0.335-0.544-0.335h-2.275c-0.546,0-0.775-0.157-0.775-0.513
		c0-0.086,0.018-0.176,0.036-0.281l0.298-1.32H90.056z M88.522,72.565h-0.44c-0.828,0-1.023,0.067-1.25,0.478
		c-0.179,0.278-0.318,0.772-0.318,1.091c0,0.492,0.212,0.617,1.005,0.617h0.494L88.522,72.565z"/>
	<path fill="#FFFFFF" d="M98.437,74.347L98.437,74.347L98.437,74.347L98.437,74.347z"/>
	<path d="M100.419,69.074c-0.142,0.6-0.317,0.76-0.898,0.76h-0.652c-0.812,0-0.937,0.088-1.093,0.775l-0.723,3.172
		c-0.051,0.211-0.088,0.371-0.088,0.494c-0.019,0.366,0.228,0.491,0.935,0.491c0.951,0,1.041-0.051,1.303-0.688h0.424l-0.476,2.081
		c-0.21,0.883-0.318,0.97-1.146,0.97H94.48c-0.882,0-1.305-0.3-1.305-0.949c0-0.179,0.035-0.427,0.106-0.705l1.305-5.641h-0.829
		l0.406-1.799c1.497-0.09,2.537-0.758,3.208-2.078h1.479l-0.405,1.779h2.289L100.419,69.074z"/>
	<path fill="#FFFFFF" d="M105.007,70.693c0.161,0.209,0.209,0.269,0.325,0.42c-0.166-0.092-0.279-0.205-0.369-0.383
		C104.974,70.725,104.996,70.705,105.007,70.693z"/>
	<path d="M103.891,72.776c-0.089,0.44-0.141,0.81-0.141,1.06c0,0.701,0.424,0.88,2.062,0.88c1.428,0,1.78-0.123,2.133-0.759h0.406
		l-0.46,1.939c-0.283,1.198-0.671,1.357-3.419,1.357c-1.48,0-2.38-0.086-3.03-0.302c-0.777-0.248-1.235-0.984-1.235-1.992
		c0-0.949,0.317-2.501,0.883-4.265c0.774-2.396,1.849-3.086,4.846-3.086c2.505,0,3.473,0.621,3.473,2.241
		c0,0.705-0.195,1.743-0.405,2.239c-0.248,0.526-0.512,0.687-1.182,0.687H103.891z M106.2,71.191
		c0.071-0.357,0.108-0.547,0.108-0.744c0-0.476-0.249-0.686-0.777-0.686c-0.74,0-1.006,0.296-1.286,1.43H106.2z"/>
	<path d="M120.39,74.66c0.811,0,0.986-0.106,1.197-0.703h0.51l-0.51,2.255c-0.176,0.758-0.371,0.917-1.164,0.917h-5.356
		c-0.617,0-0.881-0.159-0.881-0.526c0-0.105,0.017-0.248,0.052-0.404l2.098-9.097c0.105-0.425,0.124-0.58,0.124-0.76
		c0-0.264-0.159-0.422-0.548-0.528l0.106-0.44h3.348c0.67,0,0.936,0.158,0.936,0.584c0,0.121-0.018,0.265-0.055,0.42l-1.902,8.283
		H120.39z"/>
	<path d="M124.249,69.268c0.087-0.385,0.105-0.457,0.105-0.582c0-0.283-0.105-0.42-0.493-0.562l0.088-0.387h2.979
		c0.635,0,0.898,0.141,0.898,0.512c0,0.141-0.018,0.246-0.035,0.389l-1.621,6.961c-0.071,0.315-0.107,0.476-0.107,0.582
		c0,0.278,0.123,0.423,0.495,0.563l-0.087,0.386h-3.087c-0.526,0-0.809-0.177-0.794-0.511c0-0.121,0.037-0.303,0.088-0.531
		L124.249,69.268z M125.623,67.205c-0.511,0-0.739-0.191-0.739-0.598c0-0.035,0.018-0.123,0.035-0.211l0.23-1.023h2.237
		c0.757,0,0.987,0.125,0.987,0.547c0,0.086-0.019,0.191-0.036,0.283l-0.229,1.002H125.623z"/>
	<path d="M135.741,66.291c-0.142,0.632-0.389,0.811-1.147,0.811h-0.316c-0.634,0-0.791,0.121-0.915,0.635h1.796l-0.299,1.252
		c-0.142,0.633-0.423,0.877-0.917,0.862l-0.353-0.017c-0.562-0.037-0.759,0.158-0.934,0.949l-1.111,4.814
		c-0.087,0.386-0.105,0.476-0.105,0.582c0,0.278,0.105,0.423,0.493,0.563l-0.088,0.386h-3.152c-0.461,0-0.725-0.194-0.725-0.526
		c0-0.105,0.036-0.335,0.088-0.564l1.445-6.204h-0.74l0.425-1.852c0.704-0.037,0.739-0.088,1.021-1.181
		c0.265-1.024,0.953-1.429,2.432-1.429h3.314L135.741,66.291z"/>
	<path fill="#FFFFFF" d="M139.253,70.693c0.162,0.209,0.207,0.269,0.325,0.42c-0.166-0.092-0.28-0.209-0.37-0.383
		C139.219,70.725,139.241,70.705,139.253,70.693z"/>
	<path d="M138.136,72.776c-0.087,0.44-0.139,0.81-0.139,1.06c0,0.701,0.421,0.88,2.062,0.88c1.426,0,1.778-0.123,2.133-0.759h0.403
		l-0.458,1.939c-0.283,1.198-0.67,1.357-3.42,1.357c-1.48,0-2.379-0.086-3.031-0.302c-0.775-0.248-1.232-0.984-1.232-1.992
		c0-0.949,0.315-2.501,0.881-4.265c0.775-2.396,1.851-3.086,4.846-3.086c2.504,0,3.475,0.621,3.475,2.241
		c0,0.705-0.194,1.743-0.408,2.239c-0.246,0.526-0.509,0.687-1.179,0.687H138.136z M140.446,71.191
		c0.072-0.357,0.106-0.547,0.106-0.744c0-0.476-0.247-0.686-0.775-0.686c-0.739,0-1.005,0.296-1.286,1.43H140.446z"/>
	<path d="M151.515,69.252c-0.142,0.566-0.354,0.72-0.968,0.72h-1.605c-0.758,0-0.953,0.106-0.953,0.513
		c0,0.229,0.09,0.299,0.584,0.529l1.673,0.774c0.828,0.39,1.146,0.796,1.146,1.533c0,1.04-0.495,2.52-1.005,3.051
		c-0.546,0.562-1.182,0.757-2.415,0.757h-3.629c-0.637,0-0.882-0.159-0.882-0.546c0-0.105,0.018-0.25,0.052-0.385l0.513-2.241h0.405
		c0.068,0.492,0.37,0.703,0.986,0.703h1.691c0.688,0,0.917-0.123,0.917-0.508c0-0.265-0.16-0.408-0.794-0.703l-1.358-0.619
		c-0.792-0.371-1.072-0.794-1.072-1.566c0-0.921,0.333-2.119,0.739-2.682c0.494-0.668,0.968-0.846,2.378-0.846h3.932L151.515,69.252
		z"/>
	<path fill="#FFFFFF" d="M157.429,74.345L157.429,74.345L157.429,74.345L157.429,74.345z"/>
	<path d="M159.412,69.074c-0.142,0.6-0.319,0.76-0.899,0.76h-0.654c-0.811,0-0.931,0.088-1.089,0.775l-0.724,3.172
		c-0.053,0.211-0.088,0.371-0.088,0.494c-0.021,0.366,0.227,0.491,0.935,0.491c0.949,0,1.039-0.051,1.302-0.688h0.425l-0.476,2.081
		c-0.212,0.883-0.318,0.97-1.146,0.97h-3.523c-0.885,0-1.307-0.3-1.307-0.949c0-0.179,0.037-0.427,0.108-0.705l1.302-5.641h-0.828
		l0.406-1.799c1.496-0.09,2.535-0.758,3.208-2.078h1.479l-0.403,1.779h2.294L159.412,69.074z"/>
	<path d="M165.843,69.322c0.228-0.387,0.318-0.6,0.318-0.775c0-0.211-0.123-0.316-0.494-0.404l0.088-0.406h3.174
		c0.457,0,0.703,0.158,0.703,0.42c0,0.143-0.067,0.338-0.226,0.6l-5.448,9.22c-0.283,0.477-0.35,0.638-0.35,0.74
		c0,0.174,0.137,0.283,0.4,0.334l-0.105,0.422h-3.207c-0.405,0-0.565-0.105-0.565-0.334c0-0.123,0.056-0.281,0.181-0.494
		l1.796-3.031l-1.816-6.573c-0.212-0.76-0.212-0.74-0.773-0.896l0.087-0.406h2.751c0.757,0,0.915,0.105,1.071,0.738l0.863,3.562
		L165.843,69.322z"/>
	<path d="M171.078,66.906c0.093-0.385,0.11-0.476,0.11-0.58c0-0.283-0.129-0.406-0.494-0.566l0.086-0.387h3.012
		c0.604,0,0.865,0.158,0.865,0.531c0,0.084-0.016,0.227-0.07,0.422l-2.133,9.271c-0.086,0.37-0.105,0.457-0.105,0.582
		c0,0.278,0.123,0.423,0.492,0.563l-0.088,0.386h-3.12c-0.474,0-0.773-0.229-0.757-0.562c0-0.109,0.019-0.234,0.072-0.388
		L171.078,66.906z"/>
	<path fill="#FFFFFF" d="M179.125,70.693c0.162,0.209,0.205,0.269,0.322,0.42c-0.162-0.092-0.279-0.205-0.367-0.381
		C179.085,70.725,179.108,70.705,179.125,70.693z"/>
	<path d="M178.005,72.776c-0.091,0.44-0.14,0.81-0.14,1.06c0,0.701,0.422,0.88,2.061,0.88c1.429,0,1.78-0.123,2.134-0.759h0.406
		l-0.461,1.939c-0.279,1.198-0.668,1.357-3.416,1.357c-1.483,0-2.38-0.086-3.034-0.302c-0.777-0.248-1.232-0.984-1.232-1.992
		c0-0.949,0.318-2.501,0.883-4.265c0.773-2.396,1.851-3.086,4.846-3.086c2.501,0,3.474,0.621,3.474,2.241
		c0,0.705-0.195,1.743-0.408,2.239c-0.248,0.526-0.511,0.687-1.182,0.687H178.005z M180.314,71.191
		c0.071-0.357,0.103-0.547,0.103-0.744c0-0.476-0.242-0.686-0.773-0.686c-0.738,0-1.004,0.296-1.283,1.43H180.314z"/>
	<path d="M189.216,77.129c-0.705,0-0.951-0.14-0.936-0.526c0-0.125,0.035-0.335,0.105-0.602l2.045-8.899
		c0.14-0.602,0.14-0.602,0.14-0.76c0-0.264-0.176-0.422-0.543-0.528l0.104-0.44h6.749c1.131,0,1.622,0.106,2.061,0.44
		c0.496,0.39,0.779,1.093,0.779,1.989c0,1.785-0.844,5.449-1.709,7.352c-0.637,1.429-1.553,1.975-3.295,1.975H189.216z
		 M192.443,74.66h0.863c0.863,0,1.126-0.192,1.443-1.019c0.194-0.533,0.567-1.819,0.776-2.769c0.262-1.199,0.369-1.816,0.369-2.236
		c0-0.602-0.352-0.883-1.127-0.883h-0.742L192.443,74.66z"/>
	<path fill="#FFFFFF" d="M204.59,70.693c0.16,0.209,0.207,0.269,0.326,0.42c-0.166-0.092-0.28-0.209-0.371-0.383
		C204.558,70.725,204.578,70.705,204.59,70.693z"/>
	<path d="M203.475,72.776c-0.09,0.44-0.142,0.81-0.142,1.06c0,0.701,0.421,0.88,2.062,0.88c1.428,0,1.781-0.123,2.133-0.759h0.404
		l-0.46,1.939c-0.278,1.198-0.669,1.357-3.418,1.357c-1.478,0-2.382-0.086-3.032-0.302c-0.774-0.248-1.233-0.984-1.233-1.992
		c0-0.949,0.319-2.501,0.883-4.265c0.777-2.396,1.848-3.086,4.847-3.086c2.504,0,3.471,0.621,3.471,2.241
		c0,0.705-0.193,1.743-0.402,2.239c-0.25,0.526-0.514,0.687-1.182,0.687H203.475z M205.782,71.191
		c0.071-0.357,0.106-0.547,0.106-0.744c0-0.476-0.244-0.686-0.775-0.686c-0.739,0-1.004,0.296-1.285,1.43H205.782z"/>
	<path d="M210.914,77.129l-0.441-7.897c-0.053-0.829-0.125-0.952-0.723-1.108l0.088-0.387h2.749c0.849,0,1.042,0.193,1.06,1.006
		l0.054,3.946l1.443-3.437c0.142-0.316,0.211-0.547,0.211-0.67c0-0.23-0.144-0.352-0.44-0.459l0.088-0.387h2.995
		c0.529,0,0.76,0.141,0.76,0.477c0,0.104-0.053,0.262-0.158,0.455l-4.46,8.461H210.914z"/>
	<path fill="#FFFFFF" d="M222.921,70.693c0.162,0.209,0.208,0.269,0.326,0.42c-0.164-0.092-0.28-0.205-0.369-0.381
		C222.887,70.725,222.907,70.705,222.921,70.693z"/>
	<path d="M221.804,72.776c-0.089,0.44-0.14,0.81-0.14,1.06c0,0.701,0.423,0.88,2.061,0.88c1.43,0,1.78-0.123,2.133-0.759h0.407
		l-0.459,1.939c-0.283,1.198-0.67,1.357-3.419,1.357c-1.48,0-2.381-0.086-3.033-0.302c-0.775-0.248-1.232-0.984-1.232-1.992
		c0-0.949,0.318-2.501,0.881-4.265c0.775-2.396,1.851-3.086,4.848-3.086c2.504,0,3.472,0.621,3.472,2.241
		c0,0.705-0.191,1.743-0.406,2.239c-0.248,0.526-0.509,0.687-1.181,0.687H221.804z M224.115,71.191
		c0.069-0.357,0.106-0.547,0.106-0.744c0-0.476-0.246-0.686-0.779-0.686c-0.735,0-1.002,0.296-1.283,1.43H224.115z"/>
	<path d="M229.664,66.906c0.092-0.385,0.111-0.476,0.111-0.58c0-0.283-0.127-0.406-0.498-0.566l0.088-0.387h3.017
		c0.599,0,0.865,0.158,0.865,0.531c0,0.084-0.021,0.227-0.073,0.422l-2.133,9.271c-0.088,0.37-0.105,0.457-0.105,0.582
		c0,0.278,0.121,0.423,0.492,0.563l-0.09,0.386h-3.118c-0.476,0-0.772-0.229-0.757-0.562c0-0.109,0.018-0.234,0.072-0.388
		L229.664,66.906z"/>
	<path d="M242.499,69.865c0,1.377-0.811,4.426-1.518,5.747c-0.65,1.199-1.762,1.642-4.104,1.642c-3.016,0-4.021-0.55-4.021-2.186
		c0-1.304,0.668-4.041,1.339-5.432c0.703-1.494,1.868-2.027,4.406-2.027C241.475,67.609,242.499,68.213,242.499,69.865z
		 M238.602,72.918c0.369-1.484,0.264-1.096,0.315-1.288c0.104-0.509,0.177-0.935,0.177-1.146c0-0.477-0.281-0.723-0.843-0.723
		c-0.829,0-1.058,0.296-1.464,1.922c-0.318,1.234-0.529,2.309-0.529,2.592c0,0.476,0.279,0.724,0.828,0.724
		c0.792,0,1.093-0.339,1.393-1.589L238.602,72.918z"/>
	<g>
		<path fill="none" d="M262.546,66.445c0.248,0.078,0.494,0.178,0.72,0.322c0.551-0.337,1.174-0.49,2.021-0.539l-0.082-0.146
			L262.546,66.445z"/>
		<path fill="#949494" d="M254.027,5.35c-4.245-1.5-8.635-2.91-12.61-4.1l-3.684,14.175l12.677,2.678L254.027,5.35z"/>
		<path fill="#949494" d="M222.057,22.925h11.109c0.751,0,1.382,0.013,1.93,0.027l2.637-7.526l-12.908-4.454L222.057,22.925z"/>
		<path fill="#949494" d="M227.158,55.233c-1.061-0.174-1.818-0.552-2.354-1.018c-0.017,0.012-0.023,0.025-0.037,0.033
			c-0.775,0.53-1.667,0.892-2.644,1.059c-0.77,0.137-1.795,0.2-3.121,0.2c-1.692,0-3.123-0.21-4.348-0.631l-0.666,2.894
			c0,0,5.779-0.135,13.275,0.768C227.072,57.643,227.065,56.491,227.158,55.233z"/>
		<path fill="#949494" d="M263.557,22.777c0.148-0.003,0.279-0.007,0.438-0.007c1.793,0,3.251,0.15,4.436,0.455
			c1.509,0.393,2.665,1.092,3.431,2.085c0.635,0.82,0.994,1.844,1.109,3.028l1.922-1.281c0.287-0.359,0.592-0.69,0.914-0.998
			c-0.119-4.857-0.648-9.339-2.961-11.763c-1.311-1.373-4.085-2.944-7.638-4.552L262,21.345
			C262.583,21.774,263.082,22.265,263.557,22.777z"/>
		<path fill="#949494" d="M253.8,22.925c1.809,0,2.956,0.497,3.686,1.147c0.727-0.45,1.497-0.811,2.353-0.99
			c0.522-0.105,1.136-0.186,1.834-0.236l0.328-1.5l-11.591-3.242l-0.973,4.822H253.8z"/>
		<path fill="#949494" d="M278.205,58.423l-2.361-3.329c-0.496-0.104-0.955-0.221-1.358-0.359c-1.181-0.397-2.148-1.015-2.95-1.772
			l-0.406,5.062l6.079,4.77l0.562,1.076l1.495-6.556L278.205,58.423z"/>
		<path fill="#949494" d="M269.086,78.354c-0.301-0.092-0.578-0.242-0.826-0.412c-0.568,1.234-1.238,2.422-1.917,2.963
			c2.545,2.502,5.013,4.718,7.305,6.657l1.027-8.915c-0.625,0.08-1.332,0.08-2.111,0.08
			C270.903,78.728,269.892,78.618,269.086,78.354z"/>
		<path fill="#949494" d="M265.206,66.082l0.082,0.146c0.203-0.009,0.404-0.021,0.631-0.021c1.987,0,2.834,0.798,3.192,1.553
			c0.464-0.514,1.025-0.896,1.71-1.156l-5.47-0.539l-0.39-9.901L262.397,66.4c0.049,0.014,0.102,0.028,0.149,0.045L265.206,66.082z"
			/>
		<path fill="#949494" d="M277.804,66.263h4.261c0.364,0,0.649,0.073,0.91,0.173l-5.206-2.565l-0.748,2.764
			c0.215,0.097,0.422,0.214,0.619,0.353L277.804,66.263z"/>
		<path fill="#949494" d="M288.008,66.73l0.02-0.104l1.105-0.062c0.977-0.056,1.553-0.43,1.98-1.275l0.41-0.807h2.385h1.3
			c0.146-0.614,0.289-1.226,0.422-1.804c-0.596,1.146-1.172,1.766-1.549,1.206c-1.241-1.827-6.64-5.653-6.64-5.653l-3.545,8.122
			c0.455-0.105,0.986-0.146,1.674-0.146C286.678,66.207,287.459,66.412,288.008,66.73z"/>
		<path fill="#949494" d="M282.774,78.483c-0.002,0.023-0.026,0.117-0.026,0.117h-1.958l-0.474,14.237
			c3.952,2.913,6.491,4.403,6.491,4.403s1.867-6.942,4.02-15.254l-6.186-3.387h-1.187C283.213,78.601,282.993,78.544,282.774,78.483
			z"/>
		<path fill="#949494" d="M265.133,55.465l-0.023,0.121l5.461,7.128l0.558-4.689l-6.056-2.611
			C265.103,55.438,265.133,55.465,265.133,55.465z"/>
		<path fill="#949494" d="M288.76,55.525l-5.455,0.144c-0.459,0-0.906-0.004-1.339-0.014l0.778,1.481l4.697,1.095l1.486-2.724
			C288.874,55.511,288.818,55.52,288.76,55.525z"/>
		<path fill="#949494" d="M243.584,55.334c-0.486,0-0.92-0.038-1.312-0.101l-1.594,5.974c3.849,1.142,7.569,2.661,10.751,4.68
			c0.199-1.699,0.777-6.456,1.51-10.553H243.584z"/>
		<path fill="#FFFFFF" d="M262.546,66.445c-0.048-0.017-0.101-0.031-0.149-0.045l-0.017,0.069L262.546,66.445z"/>
		<path fill="#FFFFFF" d="M283.897,66.354c-0.221,0.053-0.43,0.111-0.619,0.198c-0.094-0.048-0.2-0.08-0.303-0.116l0.728,0.357
			L283.897,66.354z"/>
	</g>
	<path d="M295.48,69.074c-0.145,0.6-0.318,0.76-0.902,0.76h-0.652c-0.811,0-0.931,0.088-1.091,0.775l-0.724,3.172
		c-0.052,0.211-0.088,0.371-0.088,0.494c-0.015,0.366,0.231,0.491,0.933,0.491c0.953,0,1.041-0.051,1.31-0.688h0.42l-0.475,2.081
		c-0.214,0.883-0.316,0.97-1.146,0.97h-3.526c-0.879,0-1.302-0.3-1.302-0.949c0-0.179,0.032-0.427,0.104-0.705l1.304-5.641h-0.828
		l0.408-1.799c1.496-0.09,2.534-0.758,3.206-2.078h1.479l-0.403,1.779h2.285L295.48,69.074z"/>
	<path d="M245.688,77.942c-0.123,0.492-0.107,0.475-0.107,0.598c0,0.283,0.16,0.438,0.527,0.545l-0.088,0.387h-3.137
		c-0.494,0-0.773-0.191-0.773-0.543c0-0.088,0.033-0.248,0.07-0.445l2.131-9.216c0.107-0.422,0.107-0.457,0.107-0.582
		c0-0.297-0.16-0.455-0.527-0.562l0.086-0.387h3.14c0.508,0,0.772,0.193,0.772,0.6c0,0.033-0.017,0.104-0.017,0.176l-0.123,0.527
		l0.193-0.268c0.795-1.09,0.951-1.162,2.503-1.162c1.745,0,2.343,0.533,2.343,2.064c0,0.917-0.281,2.434-0.723,3.984
		c-0.826,2.819-1.518,3.471-3.733,3.471h-2.448L245.688,77.942z M247.149,74.96c0.898,0,1.199-0.209,1.534-1.145
		c0.123-0.366,0.332-1.183,0.512-2.079c0.16-0.709,0.193-0.953,0.193-1.199c0-0.565-0.246-0.775-0.845-0.775
		c-0.724,0-1.023,0.266-1.22,1.092l-0.949,4.106H247.149z"/>
	<path d="M271.984,72.776c-0.086,0.44-0.142,0.81-0.142,1.06c0,0.701,0.423,0.88,2.064,0.88c1.425,0,1.78-0.123,2.13-0.759h0.404
		l-0.457,1.939c-0.281,1.198-0.668,1.357-3.42,1.357c-1.477,0-2.381-0.086-3.032-0.302c-0.773-0.248-1.23-0.984-1.23-1.992
		c0-0.949,0.315-2.501,0.88-4.265c0.777-2.396,1.852-3.086,4.846-3.086c2.504,0,3.473,0.621,3.473,2.241
		c0,0.705-0.193,1.743-0.404,2.239c-0.248,0.526-0.512,0.687-1.18,0.687H271.984z M274.292,71.191
		c0.069-0.357,0.105-0.547,0.105-0.744c0-0.476-0.246-0.686-0.776-0.686c-0.74,0-1.003,0.296-1.285,1.43H274.292z"/>
	<path d="M282.981,68.742c0.703-0.955,0.951-1.061,2.59-1.061c1.535,0,2.152,0.354,2.152,1.254c0,0.332-0.035,0.546-0.193,1.266
		l-1.252,5.396c-0.088,0.353-0.107,0.476-0.107,0.582c0,0.298,0.158,0.455,0.529,0.563l-0.086,0.386h-3.159
		c-0.453,0-0.753-0.209-0.753-0.546c0-0.086,0.031-0.25,0.07-0.442l1.16-5.059c0.056-0.229,0.09-0.438,0.09-0.562
		c0-0.352-0.213-0.527-0.617-0.527c-0.616,0-0.951,0.32-1.127,1.035l-1.039,4.57c-0.089,0.386-0.109,0.476-0.109,0.582
		c0,0.298,0.158,0.455,0.529,0.563l-0.086,0.386h-3.155c-0.529,0-0.738-0.159-0.738-0.58c0-0.123,0.033-0.337,0.088-0.615
		l1.548-6.666c0.089-0.422,0.106-0.457,0.106-0.582c0-0.297-0.159-0.455-0.528-0.562l0.09-0.387h3.082
		c0.563,0,0.812,0.178,0.812,0.6c0,0.086-0.019,0.197-0.035,0.283l-0.108,0.455L282.981,68.742z"/>
	<path d="M258.06,69.074c0.986-1.303,1.163-1.393,2.75-1.393c1.638,0,2.185,0.371,2.167,1.48c0.104-0.141,0.191-0.246,0.229-0.332
		c0.722-1.008,1.075-1.148,2.712-1.148c1.309,0,1.977,0.406,1.977,1.234c0,0.352,0,0.406-0.229,1.301l-1.233,5.381
		c-0.089,0.353-0.107,0.476-0.107,0.582c0,0.278,0.142,0.438,0.513,0.563l-0.088,0.386h-3.153c-0.441,0-0.725-0.229-0.725-0.58
		c0-0.091,0.035-0.351,0.105-0.636l1.127-4.831c0.127-0.526,0.107-0.455,0.107-0.58c0-0.334-0.23-0.53-0.6-0.53
		c-0.617,0-0.881,0.284-1.094,1.149l-1.023,4.477c-0.123,0.457-0.123,0.476-0.123,0.601c0,0.279,0.16,0.437,0.513,0.545
		l-0.089,0.386h-3.154c-0.476,0-0.722-0.194-0.722-0.562c0-0.09,0.036-0.3,0.088-0.55l1.164-4.97
		c0.089-0.403,0.089-0.403,0.089-0.528c0-0.318-0.23-0.527-0.585-0.527c-0.565,0-0.916,0.351-1.074,1.074l-1.056,4.531
		c-0.071,0.353-0.108,0.476-0.108,0.582c0,0.278,0.125,0.403,0.494,0.563l-0.086,0.386h-3.068c-0.527,0-0.793-0.177-0.793-0.562
		c0-0.09,0.035-0.283,0.072-0.48l1.566-6.819c0.108-0.385,0.108-0.475,0.108-0.582c0-0.283-0.075-0.369-0.479-0.562l0.09-0.387
		h3.067c0.526,0,0.826,0.193,0.812,0.543c0,0.072-0.039,0.215-0.073,0.406L258.06,69.074z"/>
</g>
</svg>
